<svg width="1078" height="605" viewBox="0 0 1078 605" fill="none" xmlns="http://www.w3.org/2000/svg">
<g clip-path="url(#clip0_918_6718)">
<rect width="539" height="57.0334" fill="#D9FCCA"/>
<path d="M207.953 37.5176V20.0566H214.621C218.453 20.0566 220.855 22.2129 220.855 25.6348C220.855 29.0684 218.395 31.2363 214.562 31.2363H211.047V37.5176H207.953ZM211.047 28.5879H214.445C216.531 28.5879 217.809 27.4629 217.809 25.6348C217.809 23.8184 216.531 22.7051 214.445 22.7051H211.047V28.5879ZM222.548 37.5176V25.1426H225.396V27.1934H225.431C225.888 25.7754 226.837 25.0254 228.431 25.0254C228.83 25.0254 229.158 25.0488 229.392 25.0723V27.6973C229.17 27.6621 228.584 27.6035 227.998 27.6035C226.591 27.6035 225.502 28.5762 225.502 30.5098V37.5176H222.548ZM236.3 37.7988C232.585 37.7988 230.265 35.0918 230.265 31.3418C230.265 27.5801 232.714 24.8613 236.183 24.8613C239.745 24.8613 242.112 27.498 242.112 31.2949V32.1035H233.159C233.23 34.1191 234.378 35.4668 236.37 35.4668C237.859 35.4668 238.855 34.752 239.195 33.6973H241.96C241.491 36.123 239.195 37.7988 236.3 37.7988ZM233.183 30.0645H239.277C239.089 28.2949 237.941 27.2051 236.23 27.2051C234.519 27.2051 233.382 28.2949 233.183 30.0645ZM244.028 42.416V25.1426H246.934V26.8652H246.97C247.743 25.5527 249.114 24.8965 250.72 24.8965C253.907 24.8965 256.063 27.5098 256.063 31.3184C256.063 35.1738 253.942 37.7637 250.708 37.7637C249.091 37.7637 247.79 37.0605 247.016 35.6543H246.981V42.416H244.028ZM250.016 35.291C251.845 35.291 253.075 33.8848 253.075 31.3184C253.075 28.7637 251.845 27.3457 250.016 27.3457C248.083 27.3457 246.817 28.916 246.817 31.3184C246.817 33.7324 248.083 35.291 250.016 35.291ZM261.952 37.7168C259.491 37.7168 257.674 36.4746 257.674 34.002C257.674 31.1895 259.983 30.498 262.537 30.2285C264.834 29.9707 265.62 29.9355 265.62 29.0918V28.998C265.62 27.9434 264.776 27.1934 263.358 27.1934C261.916 27.1934 260.955 27.9434 260.873 28.9863H258.026C258.166 26.5254 260.182 24.8965 263.416 24.8965C266.639 24.8965 268.549 26.502 268.549 29.0801V37.5176H265.643V35.7715H265.596C265.01 36.873 263.967 37.7168 261.952 37.7168ZM262.678 35.5254C264.612 35.5254 265.631 34.377 265.631 32.9355V31.5996C265.268 31.834 264.12 32.0215 262.901 32.209C261.635 32.3965 260.557 32.8535 260.557 33.9785C260.557 34.9512 261.389 35.5254 262.678 35.5254ZM271.062 37.5176V25.1426H273.91V27.1934H273.945C274.402 25.7754 275.352 25.0254 276.945 25.0254C277.344 25.0254 277.672 25.0488 277.906 25.0723V27.6973C277.684 27.6621 277.098 27.6035 276.512 27.6035C275.105 27.6035 274.016 28.5762 274.016 30.5098V37.5176H271.062ZM283.056 37.7168C280.595 37.7168 278.779 36.4746 278.779 34.002C278.779 31.1895 281.088 30.498 283.642 30.2285C285.939 29.9707 286.724 29.9355 286.724 29.0918V28.998C286.724 27.9434 285.88 27.1934 284.463 27.1934C283.021 27.1934 282.06 27.9434 281.978 28.9863H279.13C279.271 26.5254 281.287 24.8965 284.521 24.8965C287.744 24.8965 289.654 26.502 289.654 29.0801V37.5176H286.748V35.7715H286.701C286.115 36.873 285.072 37.7168 283.056 37.7168ZM283.783 35.5254C285.716 35.5254 286.736 34.377 286.736 32.9355V31.5996C286.373 31.834 285.224 32.0215 284.005 32.209C282.74 32.3965 281.662 32.8535 281.662 33.9785C281.662 34.9512 282.494 35.5254 283.783 35.5254ZM298.695 25.1426V27.5215H296.175V33.9668C296.175 34.8457 296.468 35.1387 297.429 35.1387H298.695V37.5176H296.913C294.394 37.5176 293.21 36.5215 293.21 34.4004V27.5215H291.054V25.1426H293.21V21.7676H296.175V25.1426H298.695ZM300.458 37.5176V25.1426H303.411V37.5176H300.458ZM301.934 23.3027C300.927 23.3027 300.165 22.5762 300.165 21.6152C300.165 20.666 300.927 19.9395 301.934 19.9395C302.942 19.9395 303.704 20.666 303.704 21.6152C303.704 22.5762 302.942 23.3027 301.934 23.3027ZM311.467 37.7988C307.823 37.7988 305.362 35.1855 305.362 31.3418C305.362 27.498 307.823 24.8613 311.467 24.8613C315.112 24.8613 317.573 27.498 317.573 31.3418C317.573 35.1855 315.112 37.7988 311.467 37.7988ZM311.467 35.3262C313.366 35.3262 314.573 33.8027 314.573 31.3418C314.573 28.8691 313.354 27.334 311.467 27.334C309.569 27.334 308.35 28.8574 308.35 31.3418C308.35 33.8145 309.557 35.3262 311.467 35.3262ZM322.477 30.5215V37.5176H319.523V25.1426H322.43V27.041C323.273 25.6465 324.527 24.8965 326.227 24.8965C328.816 24.8965 330.645 26.6074 330.645 29.7832V37.5176H327.68V30.252C327.68 28.4355 326.766 27.4863 325.184 27.4863C323.637 27.4863 322.477 28.4121 322.477 30.5215Z" fill="#00421F"/>
<rect width="539" height="57.0334" transform="translate(539)" fill="#D9FCCA"/>
<path d="M784.453 37.5176V20.0566H791.121C794.953 20.0566 797.355 22.2129 797.355 25.6348C797.355 29.0684 794.895 31.2363 791.062 31.2363H787.547V37.5176H784.453ZM787.547 28.5879H790.945C793.031 28.5879 794.309 27.4629 794.309 25.6348C794.309 23.8184 793.031 22.7051 790.945 22.7051H787.547V28.5879ZM799.048 37.5176V25.1426H801.896V27.1934H801.931C802.388 25.7754 803.337 25.0254 804.931 25.0254C805.33 25.0254 805.658 25.0488 805.892 25.0723V27.6973C805.67 27.6621 805.084 27.6035 804.498 27.6035C803.091 27.6035 802.002 28.5762 802.002 30.5098V37.5176H799.048ZM807.597 37.5176V25.1426H810.55V37.5176H807.597ZM809.073 23.3027C808.066 23.3027 807.304 22.5762 807.304 21.6152C807.304 20.666 808.066 19.9395 809.073 19.9395C810.081 19.9395 810.843 20.666 810.843 21.6152C810.843 22.5762 810.081 23.3027 809.073 23.3027ZM816.028 30.5215V37.5176H813.075V25.1426H815.981V27.041C816.825 25.6465 818.079 24.8965 819.778 24.8965C822.368 24.8965 824.196 26.6074 824.196 29.7832V37.5176H821.231V30.252C821.231 28.4355 820.317 27.4863 818.735 27.4863C817.188 27.4863 816.028 28.4121 816.028 30.5215ZM833.26 25.1426V27.5215H830.741V33.9668C830.741 34.8457 831.034 35.1387 831.995 35.1387H833.26V37.5176H831.479C828.959 37.5176 827.776 36.5215 827.776 34.4004V27.5215H825.62V25.1426H827.776V21.7676H830.741V25.1426H833.26Z" fill="#00421F"/>
<path d="M117.803 307.684L6.30804 427.62C2.00255 432.251 -0.390625 438.34 -0.390625 444.664V578.767C-0.390625 592.593 10.8172 603.801 24.6427 603.801H1052.58C1066.4 603.801 1077.61 592.593 1077.61 578.767V444.349C1077.61 438.214 1075.36 432.293 1071.28 427.71L828.302 154.583C818.372 143.42 800.937 143.385 790.962 154.508L665.647 294.246C660.077 300.457 651.78 303.485 643.519 302.322L536.258 287.219C526.877 285.898 519.338 278.825 517.421 269.547L507.989 223.883C505.242 210.584 486.279 210.494 483.405 223.765C480.76 235.979 463.845 237.263 459.387 225.588L449.898 200.734C445.498 189.211 431.794 184.266 420.921 190.091C267.872 272.072 417.803 192.576 257.266 277.702C254.89 278.962 252.147 279.926 249.494 280.37L132.004 300.038C126.557 300.95 121.564 303.638 117.803 307.684Z" fill="url(#paint0_linear_918_6718)"/>
<path d="M-0.390625 434.825L117.779 307.709C121.555 303.648 126.571 300.955 132.042 300.053L251.355 280.383C254.099 279.93 256.749 279.024 259.195 277.7L421.089 190.115C431.957 184.235 445.518 189.263 449.925 200.807L459.387 225.588C463.845 237.263 480.76 235.979 483.405 223.765C486.279 210.494 505.242 210.584 507.989 223.883L517.421 269.547C519.338 278.825 526.877 285.898 536.259 287.219L643.519 302.322C651.78 303.485 660.077 300.457 665.647 294.246L790.962 154.508C800.937 143.385 818.372 143.42 828.302 154.583L1077.61 434.825" stroke="#00421F" stroke-width="2.34688"/>
<path d="M77.2122 272.805V258.605H86.4322V260.585H78.2322L79.3722 259.405V265.925L78.2322 264.905H86.0722V266.825H78.2322L79.3722 265.805V272.805H77.2122ZM88.3352 272.805V262.165H90.4552V272.805H88.3352ZM88.2952 260.625V258.505H90.4952V260.625H88.2952ZM95.4161 272.805C94.7228 272.805 94.1628 272.625 93.7361 272.265C93.3094 271.905 93.0961 271.331 93.0961 270.545V258.605H95.2161V270.345C95.2161 270.585 95.2761 270.765 95.3961 270.885C95.5294 271.005 95.7161 271.065 95.9561 271.065H96.7961V272.805H95.4161ZM102.784 273.045C101.744 273.045 100.844 272.818 100.084 272.365C99.3372 271.911 98.7572 271.265 98.3439 270.425C97.9439 269.585 97.7439 268.605 97.7439 267.485C97.7439 266.365 97.9439 265.391 98.3439 264.565C98.7572 263.725 99.3372 263.078 100.084 262.625C100.831 262.158 101.711 261.925 102.724 261.925C103.684 261.925 104.531 262.151 105.264 262.605C105.997 263.045 106.564 263.685 106.964 264.525C107.377 265.365 107.584 266.378 107.584 267.565V268.105H99.9439C99.9972 269.145 100.271 269.925 100.764 270.445C101.271 270.965 101.951 271.225 102.804 271.225C103.431 271.225 103.951 271.078 104.364 270.785C104.777 270.491 105.064 270.098 105.224 269.605L107.424 269.745C107.144 270.731 106.591 271.531 105.764 272.145C104.951 272.745 103.957 273.045 102.784 273.045ZM99.9439 266.505H105.344C105.277 265.558 105.004 264.858 104.524 264.405C104.057 263.951 103.457 263.725 102.724 263.725C101.964 263.725 101.337 263.965 100.844 264.445C100.364 264.911 100.064 265.598 99.9439 266.505ZM119.831 273.125C118.711 273.125 117.731 272.911 116.891 272.485C116.064 272.045 115.424 271.425 114.971 270.625C114.531 269.825 114.311 268.878 114.311 267.785V258.585H116.471V267.785C116.471 268.865 116.764 269.698 117.351 270.285C117.937 270.858 118.764 271.145 119.831 271.145C120.897 271.145 121.724 270.858 122.311 270.285C122.897 269.698 123.191 268.865 123.191 267.785V258.585H125.351V267.785C125.351 268.878 125.124 269.825 124.671 270.625C124.231 271.425 123.597 272.045 122.771 272.485C121.944 272.911 120.964 273.125 119.831 273.125ZM128.077 275.805V262.165H130.077L130.137 264.445L129.897 264.325C130.164 263.538 130.604 262.945 131.217 262.545C131.831 262.131 132.537 261.925 133.337 261.925C134.377 261.925 135.231 262.185 135.897 262.705C136.577 263.211 137.077 263.885 137.397 264.725C137.731 265.565 137.897 266.485 137.897 267.485C137.897 268.485 137.731 269.405 137.397 270.245C137.077 271.085 136.577 271.765 135.897 272.285C135.231 272.791 134.377 273.045 133.337 273.045C132.804 273.045 132.304 272.951 131.837 272.765C131.371 272.578 130.971 272.318 130.637 271.985C130.317 271.638 130.091 271.231 129.957 270.765L130.197 270.525V275.805H128.077ZM132.957 271.205C133.811 271.205 134.477 270.878 134.957 270.225C135.451 269.571 135.697 268.658 135.697 267.485C135.697 266.311 135.451 265.398 134.957 264.745C134.477 264.091 133.811 263.765 132.957 263.765C132.397 263.765 131.911 263.905 131.497 264.185C131.084 264.451 130.764 264.865 130.537 265.425C130.311 265.985 130.197 266.671 130.197 267.485C130.197 268.298 130.304 268.985 130.517 269.545C130.744 270.105 131.064 270.525 131.477 270.805C131.904 271.071 132.397 271.205 132.957 271.205ZM142.268 272.805C141.574 272.805 141.014 272.625 140.588 272.265C140.161 271.905 139.948 271.331 139.948 270.545V258.605H142.068V270.345C142.068 270.585 142.128 270.765 142.248 270.885C142.381 271.005 142.568 271.065 142.808 271.065H143.648V272.805H142.268ZM149.635 273.045C148.622 273.045 147.735 272.818 146.975 272.365C146.215 271.911 145.629 271.265 145.215 270.425C144.802 269.585 144.595 268.605 144.595 267.485C144.595 266.351 144.802 265.371 145.215 264.545C145.629 263.718 146.215 263.078 146.975 262.625C147.735 262.158 148.622 261.925 149.635 261.925C150.649 261.925 151.535 262.158 152.295 262.625C153.055 263.078 153.642 263.718 154.055 264.545C154.469 265.371 154.675 266.351 154.675 267.485C154.675 268.605 154.469 269.585 154.055 270.425C153.642 271.265 153.055 271.911 152.295 272.365C151.535 272.818 150.649 273.045 149.635 273.045ZM149.635 271.205C150.542 271.205 151.242 270.878 151.735 270.225C152.229 269.558 152.475 268.645 152.475 267.485C152.475 266.325 152.229 265.418 151.735 264.765C151.242 264.098 150.542 263.765 149.635 263.765C148.742 263.765 148.042 264.098 147.535 264.765C147.042 265.418 146.795 266.325 146.795 267.485C146.795 268.645 147.042 269.558 147.535 270.225C148.042 270.878 148.742 271.205 149.635 271.205ZM159.813 273.045C158.706 273.045 157.819 272.791 157.153 272.285C156.499 271.778 156.173 271.065 156.173 270.145C156.173 269.225 156.446 268.511 156.993 268.005C157.553 267.485 158.413 267.111 159.573 266.885L163.233 266.185C163.233 265.358 163.039 264.745 162.653 264.345C162.266 263.931 161.693 263.725 160.933 263.725C160.253 263.725 159.719 263.878 159.333 264.185C158.946 264.478 158.679 264.918 158.533 265.505L156.353 265.365C156.553 264.298 157.046 263.458 157.833 262.845C158.633 262.231 159.666 261.925 160.933 261.925C162.373 261.925 163.466 262.311 164.213 263.085C164.973 263.845 165.353 264.918 165.353 266.305V270.445C165.353 270.698 165.393 270.878 165.473 270.985C165.566 271.078 165.713 271.125 165.913 271.125H166.293V272.805C166.226 272.818 166.119 272.831 165.973 272.845C165.826 272.858 165.673 272.865 165.513 272.865C165.059 272.865 164.666 272.791 164.333 272.645C164.013 272.498 163.773 272.258 163.613 271.925C163.453 271.578 163.373 271.118 163.373 270.545L163.593 270.645C163.486 271.111 163.253 271.525 162.893 271.885C162.546 272.245 162.099 272.531 161.553 272.745C161.019 272.945 160.439 273.045 159.813 273.045ZM160.153 271.365C160.793 271.365 161.339 271.245 161.793 271.005C162.246 270.751 162.599 270.405 162.853 269.965C163.106 269.525 163.233 269.025 163.233 268.465V267.785L160.113 268.385C159.473 268.505 159.019 268.698 158.753 268.965C158.499 269.218 158.373 269.545 158.373 269.945C158.373 270.398 158.526 270.751 158.833 271.005C159.153 271.245 159.593 271.365 160.153 271.365ZM171.585 273.045C170.678 273.045 169.885 272.818 169.205 272.365C168.538 271.911 168.025 271.271 167.665 270.445C167.318 269.605 167.145 268.618 167.145 267.485C167.145 266.351 167.325 265.371 167.685 264.545C168.045 263.705 168.558 263.058 169.225 262.605C169.891 262.151 170.678 261.925 171.585 261.925C172.318 261.925 172.971 262.078 173.545 262.385C174.118 262.691 174.551 263.118 174.845 263.665V258.605H176.965V272.805H174.985L174.925 271.205C174.631 271.778 174.185 272.231 173.585 272.565C172.998 272.885 172.331 273.045 171.585 273.045ZM172.145 271.205C172.718 271.205 173.205 271.058 173.605 270.765C174.005 270.471 174.311 270.045 174.525 269.485C174.738 268.925 174.845 268.258 174.845 267.485C174.845 266.685 174.738 266.011 174.525 265.465C174.311 264.905 174.005 264.485 173.605 264.205C173.205 263.911 172.718 263.765 172.145 263.765C171.291 263.765 170.611 264.098 170.105 264.765C169.598 265.418 169.345 266.325 169.345 267.485C169.345 268.631 169.598 269.538 170.105 270.205C170.611 270.871 171.291 271.205 172.145 271.205Z" fill="black"/>
<path d="M207.36 324.519C206.08 324.519 204.953 324.226 203.98 323.639C203.007 323.039 202.247 322.186 201.7 321.079C201.153 319.973 200.88 318.653 200.88 317.119C200.88 315.599 201.147 314.286 201.68 313.179C202.227 312.059 202.987 311.199 203.96 310.599C204.933 309.986 206.073 309.679 207.38 309.679C209.14 309.679 210.507 310.119 211.48 310.999C212.453 311.879 213.087 313.099 213.38 314.659L211.12 314.779C210.933 313.806 210.533 313.046 209.92 312.499C209.307 311.939 208.46 311.659 207.38 311.659C206.513 311.659 205.76 311.879 205.12 312.319C204.493 312.759 204 313.386 203.64 314.199C203.293 315.013 203.12 315.986 203.12 317.119C203.12 318.253 203.293 319.226 203.64 320.039C204 320.853 204.5 321.473 205.14 321.899C205.78 322.326 206.52 322.539 207.36 322.539C208.507 322.539 209.393 322.239 210.02 321.639C210.66 321.026 211.06 320.186 211.22 319.119L213.48 319.239C213.307 320.319 212.96 321.253 212.44 322.039C211.92 322.826 211.233 323.439 210.38 323.879C209.527 324.306 208.52 324.519 207.36 324.519ZM218.823 324.439C217.757 324.439 216.903 324.086 216.263 323.379C215.637 322.659 215.323 321.666 215.323 320.399V313.559H217.443V319.859C217.443 320.819 217.61 321.526 217.943 321.979C218.277 322.433 218.783 322.659 219.463 322.659C220.237 322.659 220.837 322.413 221.263 321.919C221.703 321.413 221.923 320.706 221.923 319.799V313.559H224.043V324.199H222.063L222.023 321.419L222.323 321.539C222.137 322.473 221.743 323.193 221.143 323.699C220.543 324.193 219.77 324.439 218.823 324.439ZM230.747 324.439C229.747 324.439 228.9 324.286 228.207 323.979C227.527 323.673 227 323.253 226.627 322.719C226.254 322.173 226.04 321.546 225.987 320.839L228.167 320.739C228.274 321.326 228.527 321.793 228.927 322.139C229.327 322.486 229.934 322.659 230.747 322.659C231.414 322.659 231.94 322.553 232.327 322.339C232.714 322.126 232.907 321.786 232.907 321.319C232.907 321.066 232.84 320.853 232.707 320.679C232.587 320.493 232.347 320.339 231.987 320.219C231.627 320.086 231.094 319.959 230.387 319.839C229.334 319.639 228.507 319.406 227.907 319.139C227.307 318.873 226.88 318.533 226.627 318.119C226.374 317.706 226.247 317.206 226.247 316.619C226.247 315.646 226.607 314.853 227.327 314.239C228.06 313.626 229.114 313.319 230.487 313.319C231.407 313.319 232.18 313.479 232.807 313.799C233.434 314.106 233.92 314.526 234.267 315.059C234.627 315.579 234.854 316.166 234.947 316.819L232.767 316.939C232.7 316.566 232.567 316.246 232.367 315.979C232.18 315.699 231.927 315.486 231.607 315.339C231.287 315.179 230.907 315.099 230.467 315.099C229.787 315.099 229.28 315.233 228.947 315.499C228.614 315.766 228.447 316.113 228.447 316.539C228.447 316.859 228.52 317.119 228.667 317.319C228.827 317.519 229.08 317.686 229.427 317.819C229.774 317.939 230.234 318.046 230.807 318.139C231.914 318.326 232.78 318.559 233.407 318.839C234.034 319.106 234.474 319.439 234.727 319.839C234.98 320.239 235.107 320.726 235.107 321.299C235.107 321.966 234.92 322.533 234.547 322.999C234.174 323.466 233.66 323.826 233.007 324.079C232.354 324.319 231.6 324.439 230.747 324.439ZM240.742 324.199C239.728 324.199 238.982 323.966 238.502 323.499C238.022 323.033 237.782 322.306 237.782 321.319V311.059H239.902V321.159C239.902 321.653 240.008 321.993 240.222 322.179C240.435 322.366 240.762 322.459 241.202 322.459H242.722V324.199H240.742ZM236.162 315.299V313.559H242.722V315.299H236.162ZM248.752 324.439C247.739 324.439 246.852 324.213 246.092 323.759C245.332 323.306 244.745 322.659 244.332 321.819C243.919 320.979 243.712 319.999 243.712 318.879C243.712 317.746 243.919 316.766 244.332 315.939C244.745 315.113 245.332 314.473 246.092 314.019C246.852 313.553 247.739 313.319 248.752 313.319C249.765 313.319 250.652 313.553 251.412 314.019C252.172 314.473 252.759 315.113 253.172 315.939C253.585 316.766 253.792 317.746 253.792 318.879C253.792 319.999 253.585 320.979 253.172 321.819C252.759 322.659 252.172 323.306 251.412 323.759C250.652 324.213 249.765 324.439 248.752 324.439ZM248.752 322.599C249.659 322.599 250.359 322.273 250.852 321.619C251.345 320.953 251.592 320.039 251.592 318.879C251.592 317.719 251.345 316.813 250.852 316.159C250.359 315.493 249.659 315.159 248.752 315.159C247.859 315.159 247.159 315.493 246.652 316.159C246.159 316.813 245.912 317.719 245.912 318.879C245.912 320.039 246.159 320.953 246.652 321.619C247.159 322.273 247.859 322.599 248.752 322.599ZM255.734 324.199V313.559H257.674L257.734 316.199L257.494 316.119C257.614 315.533 257.821 315.033 258.114 314.619C258.421 314.206 258.794 313.886 259.234 313.659C259.674 313.433 260.154 313.319 260.674 313.319C261.581 313.319 262.321 313.579 262.894 314.099C263.468 314.606 263.828 315.306 263.974 316.199H263.634C263.754 315.573 263.954 315.053 264.234 314.639C264.528 314.213 264.901 313.886 265.354 313.659C265.808 313.433 266.321 313.319 266.894 313.319C267.641 313.319 268.274 313.479 268.794 313.799C269.328 314.106 269.728 314.559 269.994 315.159C270.274 315.759 270.414 316.493 270.414 317.359V324.199H268.294V317.879C268.294 316.959 268.128 316.266 267.794 315.799C267.461 315.333 266.954 315.099 266.274 315.099C265.834 315.099 265.448 315.213 265.114 315.439C264.781 315.666 264.521 315.993 264.334 316.419C264.161 316.846 264.074 317.359 264.074 317.959V324.199H262.054V317.959C262.054 317.053 261.901 316.353 261.594 315.859C261.301 315.353 260.794 315.099 260.074 315.099C259.621 315.099 259.228 315.213 258.894 315.439C258.574 315.666 258.321 315.999 258.134 316.439C257.948 316.866 257.854 317.373 257.854 317.959V324.199H255.734ZM273.034 324.199V313.559H275.154V324.199H273.034ZM272.994 312.019V309.899H275.194V312.019H272.994ZM281.856 324.439C280.856 324.439 280.01 324.286 279.316 323.979C278.636 323.673 278.11 323.253 277.736 322.719C277.363 322.173 277.15 321.546 277.096 320.839L279.276 320.739C279.383 321.326 279.636 321.793 280.036 322.139C280.436 322.486 281.043 322.659 281.856 322.659C282.523 322.659 283.05 322.553 283.436 322.339C283.823 322.126 284.016 321.786 284.016 321.319C284.016 321.066 283.95 320.853 283.816 320.679C283.696 320.493 283.456 320.339 283.096 320.219C282.736 320.086 282.203 319.959 281.496 319.839C280.443 319.639 279.616 319.406 279.016 319.139C278.416 318.873 277.99 318.533 277.736 318.119C277.483 317.706 277.356 317.206 277.356 316.619C277.356 315.646 277.716 314.853 278.436 314.239C279.17 313.626 280.223 313.319 281.596 313.319C282.516 313.319 283.29 313.479 283.916 313.799C284.543 314.106 285.03 314.526 285.376 315.059C285.736 315.579 285.963 316.166 286.056 316.819L283.876 316.939C283.81 316.566 283.676 316.246 283.476 315.979C283.29 315.699 283.036 315.486 282.716 315.339C282.396 315.179 282.016 315.099 281.576 315.099C280.896 315.099 280.39 315.233 280.056 315.499C279.723 315.766 279.556 316.113 279.556 316.539C279.556 316.859 279.63 317.119 279.776 317.319C279.936 317.519 280.19 317.686 280.536 317.819C280.883 317.939 281.343 318.046 281.916 318.139C283.023 318.326 283.89 318.559 284.516 318.839C285.143 319.106 285.583 319.439 285.836 319.839C286.09 320.239 286.216 320.726 286.216 321.299C286.216 321.966 286.03 322.533 285.656 322.999C285.283 323.466 284.77 323.826 284.116 324.079C283.463 324.319 282.71 324.439 281.856 324.439ZM291.357 324.439C290.25 324.439 289.363 324.186 288.697 323.679C288.043 323.173 287.717 322.459 287.717 321.539C287.717 320.619 287.99 319.906 288.537 319.399C289.097 318.879 289.957 318.506 291.117 318.279L294.777 317.579C294.777 316.753 294.583 316.139 294.197 315.739C293.81 315.326 293.237 315.119 292.477 315.119C291.797 315.119 291.263 315.273 290.877 315.579C290.49 315.873 290.223 316.313 290.077 316.899L287.897 316.759C288.097 315.693 288.59 314.853 289.377 314.239C290.177 313.626 291.21 313.319 292.477 313.319C293.917 313.319 295.01 313.706 295.757 314.479C296.517 315.239 296.897 316.313 296.897 317.699V321.839C296.897 322.093 296.937 322.273 297.017 322.379C297.11 322.473 297.257 322.519 297.457 322.519H297.837V324.199C297.77 324.213 297.663 324.226 297.517 324.239C297.37 324.253 297.217 324.259 297.057 324.259C296.603 324.259 296.21 324.186 295.877 324.039C295.557 323.893 295.317 323.653 295.157 323.319C294.997 322.973 294.917 322.513 294.917 321.939L295.137 322.039C295.03 322.506 294.797 322.919 294.437 323.279C294.09 323.639 293.643 323.926 293.097 324.139C292.563 324.339 291.983 324.439 291.357 324.439ZM291.697 322.759C292.337 322.759 292.883 322.639 293.337 322.399C293.79 322.146 294.143 321.799 294.397 321.359C294.65 320.919 294.777 320.419 294.777 319.859V319.179L291.657 319.779C291.017 319.899 290.563 320.093 290.297 320.359C290.043 320.613 289.917 320.939 289.917 321.339C289.917 321.793 290.07 322.146 290.377 322.399C290.697 322.639 291.137 322.759 291.697 322.759ZM302.96 324.199C301.946 324.199 301.2 323.966 300.72 323.499C300.24 323.033 300 322.306 300 321.319V311.059H302.12V321.159C302.12 321.653 302.226 321.993 302.44 322.179C302.653 322.366 302.98 322.459 303.42 322.459H304.94V324.199H302.96ZM298.38 315.299V313.559H304.94V315.299H298.38ZM306.766 324.199V313.559H308.886V324.199H306.766ZM306.726 312.019V309.899H308.926V312.019H306.726ZM315.868 324.439C314.854 324.439 313.968 324.213 313.208 323.759C312.448 323.306 311.861 322.659 311.448 321.819C311.034 320.979 310.828 319.999 310.828 318.879C310.828 317.746 311.034 316.766 311.448 315.939C311.861 315.113 312.448 314.473 313.208 314.019C313.968 313.553 314.854 313.319 315.868 313.319C316.881 313.319 317.768 313.553 318.528 314.019C319.288 314.473 319.874 315.113 320.288 315.939C320.701 316.766 320.908 317.746 320.908 318.879C320.908 319.999 320.701 320.979 320.288 321.819C319.874 322.659 319.288 323.306 318.528 323.759C317.768 324.213 316.881 324.439 315.868 324.439ZM315.868 322.599C316.774 322.599 317.474 322.273 317.968 321.619C318.461 320.953 318.708 320.039 318.708 318.879C318.708 317.719 318.461 316.813 317.968 316.159C317.474 315.493 316.774 315.159 315.868 315.159C314.974 315.159 314.274 315.493 313.768 316.159C313.274 316.813 313.028 317.719 313.028 318.879C313.028 320.039 313.274 320.953 313.768 321.619C314.274 322.273 314.974 322.599 315.868 322.599ZM322.85 324.199V313.559H324.79L324.87 316.399L324.61 316.259C324.73 315.566 324.957 315.006 325.29 314.579C325.623 314.153 326.03 313.839 326.51 313.639C326.99 313.426 327.51 313.319 328.07 313.319C328.87 313.319 329.53 313.499 330.05 313.859C330.583 314.206 330.983 314.686 331.25 315.299C331.53 315.899 331.67 316.586 331.67 317.359V324.199H329.55V317.999C329.55 317.373 329.483 316.846 329.35 316.419C329.217 315.993 328.997 315.666 328.69 315.439C328.383 315.213 327.983 315.099 327.49 315.099C326.743 315.099 326.137 315.346 325.67 315.839C325.203 316.333 324.97 317.053 324.97 317.999V324.199H322.85Z" fill="black"/>
<path d="M416.02 171.547L410.9 157.347H413.2L417.38 169.147L421.56 157.347H423.86L418.72 171.547H416.02ZM429.071 171.787C428.031 171.787 427.131 171.56 426.371 171.107C425.624 170.654 425.044 170.007 424.631 169.167C424.231 168.327 424.031 167.347 424.031 166.227C424.031 165.107 424.231 164.134 424.631 163.307C425.044 162.467 425.624 161.82 426.371 161.367C427.117 160.9 427.997 160.667 429.011 160.667C429.971 160.667 430.817 160.894 431.551 161.347C432.284 161.787 432.851 162.427 433.251 163.267C433.664 164.107 433.871 165.12 433.871 166.307V166.847H426.231C426.284 167.887 426.557 168.667 427.051 169.187C427.557 169.707 428.237 169.967 429.091 169.967C429.717 169.967 430.237 169.82 430.651 169.527C431.064 169.234 431.351 168.84 431.511 168.347L433.711 168.487C433.431 169.474 432.877 170.274 432.051 170.887C431.237 171.487 430.244 171.787 429.071 171.787ZM426.231 165.247H431.631C431.564 164.3 431.291 163.6 430.811 163.147C430.344 162.694 429.744 162.467 429.011 162.467C428.251 162.467 427.624 162.707 427.131 163.187C426.651 163.654 426.351 164.34 426.231 165.247ZM435.819 171.547V160.907H437.759L437.839 163.727L437.659 163.667C437.805 162.707 438.099 162.007 438.539 161.567C438.992 161.127 439.599 160.907 440.359 160.907H441.379V162.807H440.359C439.825 162.807 439.379 162.894 439.019 163.067C438.659 163.24 438.385 163.507 438.199 163.867C438.025 164.227 437.939 164.694 437.939 165.267V171.547H435.819ZM442.923 171.547V160.907H445.043V171.547H442.923ZM442.883 159.367V157.247H445.083V159.367H442.883ZM448.276 171.547V160.227C448.276 159.347 448.523 158.647 449.016 158.127C449.509 157.607 450.283 157.347 451.336 157.347H453.216V159.087H451.616C451.203 159.087 450.896 159.2 450.696 159.427C450.496 159.64 450.396 159.947 450.396 160.347V171.547H448.276ZM446.796 162.767V161.047H453.056V162.767H446.796ZM455.136 171.547V160.907H457.256V171.547H455.136ZM455.116 159.367V157.247H457.316V159.367H455.116ZM464.267 171.787C463.253 171.787 462.367 171.56 461.607 171.107C460.847 170.654 460.26 170.007 459.847 169.167C459.433 168.327 459.227 167.347 459.227 166.227C459.227 165.107 459.433 164.134 459.847 163.307C460.26 162.467 460.847 161.82 461.607 161.367C462.367 160.9 463.253 160.667 464.267 160.667C465.133 160.667 465.9 160.82 466.567 161.127C467.247 161.42 467.793 161.854 468.207 162.427C468.633 163 468.907 163.7 469.027 164.527L466.807 164.647C466.7 163.954 466.42 163.427 465.967 163.067C465.513 162.694 464.947 162.507 464.267 162.507C463.373 162.507 462.673 162.84 462.167 163.507C461.673 164.16 461.427 165.067 461.427 166.227C461.427 167.387 461.673 168.3 462.167 168.967C462.673 169.62 463.373 169.947 464.267 169.947C464.947 169.947 465.513 169.76 465.967 169.387C466.42 169 466.7 168.42 466.807 167.647L469.027 167.767C468.907 168.58 468.633 169.287 468.207 169.887C467.793 170.487 467.247 170.954 466.567 171.287C465.9 171.62 465.133 171.787 464.267 171.787ZM473.956 171.787C472.849 171.787 471.962 171.534 471.296 171.027C470.642 170.52 470.316 169.807 470.316 168.887C470.316 167.967 470.589 167.254 471.136 166.747C471.696 166.227 472.556 165.854 473.716 165.627L477.376 164.927C477.376 164.1 477.182 163.487 476.796 163.087C476.409 162.674 475.836 162.467 475.076 162.467C474.396 162.467 473.862 162.62 473.476 162.927C473.089 163.22 472.822 163.66 472.676 164.247L470.496 164.107C470.696 163.04 471.189 162.2 471.976 161.587C472.776 160.974 473.809 160.667 475.076 160.667C476.516 160.667 477.609 161.054 478.356 161.827C479.116 162.587 479.496 163.66 479.496 165.047V169.187C479.496 169.44 479.536 169.62 479.616 169.727C479.709 169.82 479.856 169.867 480.056 169.867H480.436V171.547C480.369 171.56 480.262 171.574 480.116 171.587C479.969 171.6 479.816 171.607 479.656 171.607C479.202 171.607 478.809 171.534 478.476 171.387C478.156 171.24 477.916 171 477.756 170.667C477.596 170.32 477.516 169.86 477.516 169.287L477.736 169.387C477.629 169.854 477.396 170.267 477.036 170.627C476.689 170.987 476.242 171.274 475.696 171.487C475.162 171.687 474.582 171.787 473.956 171.787ZM474.296 170.107C474.936 170.107 475.482 169.987 475.936 169.747C476.389 169.494 476.742 169.147 476.996 168.707C477.249 168.267 477.376 167.767 477.376 167.207V166.527L474.256 167.127C473.616 167.247 473.162 167.44 472.896 167.707C472.642 167.96 472.516 168.287 472.516 168.687C472.516 169.14 472.669 169.494 472.976 169.747C473.296 169.987 473.736 170.107 474.296 170.107ZM485.559 171.547C484.546 171.547 483.799 171.314 483.319 170.847C482.839 170.38 482.599 169.654 482.599 168.667V158.407H484.719V168.507C484.719 169 484.826 169.34 485.039 169.527C485.252 169.714 485.579 169.807 486.019 169.807H487.539V171.547H485.559ZM480.979 162.647V160.907H487.539V162.647H480.979ZM489.365 171.547V160.907H491.485V171.547H489.365ZM489.325 159.367V157.247H491.525V159.367H489.325ZM498.467 171.787C497.453 171.787 496.567 171.56 495.807 171.107C495.047 170.654 494.46 170.007 494.047 169.167C493.633 168.327 493.427 167.347 493.427 166.227C493.427 165.094 493.633 164.114 494.047 163.287C494.46 162.46 495.047 161.82 495.807 161.367C496.567 160.9 497.453 160.667 498.467 160.667C499.48 160.667 500.367 160.9 501.127 161.367C501.887 161.82 502.473 162.46 502.887 163.287C503.3 164.114 503.507 165.094 503.507 166.227C503.507 167.347 503.3 168.327 502.887 169.167C502.473 170.007 501.887 170.654 501.127 171.107C500.367 171.56 499.48 171.787 498.467 171.787ZM498.467 169.947C499.373 169.947 500.073 169.62 500.567 168.967C501.06 168.3 501.307 167.387 501.307 166.227C501.307 165.067 501.06 164.16 500.567 163.507C500.073 162.84 499.373 162.507 498.467 162.507C497.573 162.507 496.873 162.84 496.367 163.507C495.873 164.16 495.627 165.067 495.627 166.227C495.627 167.387 495.873 168.3 496.367 168.967C496.873 169.62 497.573 169.947 498.467 169.947ZM505.449 171.547V160.907H507.389L507.469 163.747L507.209 163.607C507.329 162.914 507.556 162.354 507.889 161.927C508.223 161.5 508.629 161.187 509.109 160.987C509.589 160.774 510.109 160.667 510.669 160.667C511.469 160.667 512.129 160.847 512.649 161.207C513.183 161.554 513.583 162.034 513.849 162.647C514.129 163.247 514.269 163.934 514.269 164.707V171.547H512.149V165.347C512.149 164.72 512.083 164.194 511.949 163.767C511.816 163.34 511.596 163.014 511.289 162.787C510.983 162.56 510.583 162.447 510.089 162.447C509.343 162.447 508.736 162.694 508.269 163.187C507.803 163.68 507.569 164.4 507.569 165.347V171.547H505.449Z" fill="black"/>
<path d="M581.79 330.266V316.066H587.09C588.717 316.066 589.984 316.459 590.89 317.246C591.797 318.019 592.25 319.099 592.25 320.486C592.25 321.406 592.044 322.206 591.63 322.886C591.217 323.552 590.624 324.066 589.85 324.426C589.09 324.772 588.17 324.946 587.09 324.946H583.95V330.266H581.79ZM583.95 322.986H587.03C588.004 322.986 588.744 322.779 589.25 322.366C589.757 321.939 590.01 321.312 590.01 320.486C590.01 319.672 589.757 319.066 589.25 318.666C588.744 318.252 588.004 318.046 587.03 318.046H583.95V322.986ZM594.339 330.266V319.626H596.279L596.359 322.446L596.179 322.386C596.326 321.426 596.619 320.726 597.059 320.286C597.512 319.846 598.119 319.626 598.879 319.626H599.899V321.526H598.879C598.346 321.526 597.899 321.612 597.539 321.786C597.179 321.959 596.906 322.226 596.719 322.586C596.546 322.946 596.459 323.412 596.459 323.986V330.266H594.339ZM601.444 330.266V319.626H603.564V330.266H601.444ZM601.404 318.086V315.966H603.604V318.086H601.404ZM606.537 330.266V319.626H608.477L608.557 322.466L608.297 322.326C608.417 321.632 608.643 321.072 608.977 320.646C609.31 320.219 609.717 319.906 610.197 319.706C610.677 319.492 611.197 319.386 611.757 319.386C612.557 319.386 613.217 319.566 613.737 319.926C614.27 320.272 614.67 320.752 614.937 321.366C615.217 321.966 615.357 322.652 615.357 323.426V330.266H613.237V324.066C613.237 323.439 613.17 322.912 613.037 322.486C612.903 322.059 612.683 321.732 612.377 321.506C612.07 321.279 611.67 321.166 611.177 321.166C610.43 321.166 609.823 321.412 609.357 321.906C608.89 322.399 608.657 323.119 608.657 324.066V330.266H606.537ZM621.471 330.266C620.458 330.266 619.711 330.032 619.231 329.566C618.751 329.099 618.511 328.372 618.511 327.386V317.126H620.631V327.226C620.631 327.719 620.738 328.059 620.951 328.246C621.165 328.432 621.491 328.526 621.931 328.526H623.451V330.266H621.471ZM616.891 321.366V319.626H623.451V321.366H616.891ZM629.482 330.506C628.442 330.506 627.542 330.279 626.782 329.826C626.035 329.372 625.455 328.726 625.042 327.886C624.642 327.046 624.442 326.066 624.442 324.946C624.442 323.826 624.642 322.852 625.042 322.026C625.455 321.186 626.035 320.539 626.782 320.086C627.528 319.619 628.408 319.386 629.422 319.386C630.382 319.386 631.228 319.612 631.962 320.066C632.695 320.506 633.262 321.146 633.662 321.986C634.075 322.826 634.282 323.839 634.282 325.026V325.566H626.642C626.695 326.606 626.968 327.386 627.462 327.906C627.968 328.426 628.648 328.686 629.502 328.686C630.128 328.686 630.648 328.539 631.062 328.246C631.475 327.952 631.762 327.559 631.922 327.066L634.122 327.206C633.842 328.192 633.288 328.992 632.462 329.606C631.648 330.206 630.655 330.506 629.482 330.506ZM626.642 323.966H632.042C631.975 323.019 631.702 322.319 631.222 321.866C630.755 321.412 630.155 321.186 629.422 321.186C628.662 321.186 628.035 321.426 627.542 321.906C627.062 322.372 626.762 323.059 626.642 323.966ZM636.23 330.266V319.626H638.17L638.25 322.446L638.07 322.386C638.216 321.426 638.51 320.726 638.95 320.286C639.403 319.846 640.01 319.626 640.77 319.626H641.79V321.526H640.77C640.236 321.526 639.79 321.612 639.43 321.786C639.07 321.959 638.796 322.226 638.61 322.586C638.436 322.946 638.35 323.412 638.35 323.986V330.266H636.23ZM653.904 330.586C652.771 330.586 651.784 330.379 650.944 329.966C650.117 329.552 649.464 328.979 648.984 328.246C648.504 327.512 648.224 326.659 648.144 325.686L650.364 325.546C650.457 326.212 650.651 326.779 650.944 327.246C651.237 327.699 651.631 328.046 652.124 328.286C652.631 328.512 653.237 328.626 653.944 328.626C654.557 328.626 655.077 328.552 655.504 328.406C655.944 328.246 656.277 328.012 656.504 327.706C656.731 327.399 656.844 327.026 656.844 326.586C656.844 326.186 656.744 325.832 656.544 325.526C656.357 325.206 655.991 324.919 655.444 324.666C654.911 324.399 654.124 324.139 653.084 323.886C651.951 323.606 651.044 323.299 650.364 322.966C649.684 322.632 649.191 322.219 648.884 321.726C648.591 321.219 648.444 320.599 648.444 319.866C648.444 319.052 648.637 318.339 649.024 317.726C649.424 317.099 649.991 316.612 650.724 316.266C651.457 315.919 652.337 315.746 653.364 315.746C654.444 315.746 655.364 315.946 656.124 316.346C656.897 316.746 657.504 317.292 657.944 317.986C658.397 318.679 658.677 319.472 658.784 320.366L656.564 320.486C656.497 319.939 656.331 319.459 656.064 319.046C655.797 318.619 655.437 318.292 654.984 318.066C654.531 317.826 653.977 317.706 653.324 317.706C652.497 317.706 651.844 317.899 651.364 318.286C650.897 318.659 650.664 319.159 650.664 319.786C650.664 320.186 650.757 320.526 650.944 320.806C651.144 321.072 651.491 321.306 651.984 321.506C652.491 321.706 653.204 321.919 654.124 322.146C655.351 322.426 656.324 322.772 657.044 323.186C657.777 323.586 658.297 324.059 658.604 324.606C658.911 325.152 659.064 325.772 659.064 326.466C659.064 327.306 658.844 328.039 658.404 328.666C657.977 329.279 657.377 329.752 656.604 330.086C655.831 330.419 654.931 330.586 653.904 330.586ZM666.064 330.506C665.024 330.506 664.124 330.279 663.364 329.826C662.618 329.372 662.038 328.726 661.624 327.886C661.224 327.046 661.024 326.066 661.024 324.946C661.024 323.826 661.224 322.852 661.624 322.026C662.038 321.186 662.618 320.539 663.364 320.086C664.111 319.619 664.991 319.386 666.004 319.386C666.964 319.386 667.811 319.612 668.544 320.066C669.278 320.506 669.844 321.146 670.244 321.986C670.658 322.826 670.864 323.839 670.864 325.026V325.566H663.224C663.278 326.606 663.551 327.386 664.044 327.906C664.551 328.426 665.231 328.686 666.084 328.686C666.711 328.686 667.231 328.539 667.644 328.246C668.058 327.952 668.344 327.559 668.504 327.066L670.704 327.206C670.424 328.192 669.871 328.992 669.044 329.606C668.231 330.206 667.238 330.506 666.064 330.506ZM663.224 323.966H668.624C668.558 323.019 668.284 322.319 667.804 321.866C667.338 321.412 666.738 321.186 666.004 321.186C665.244 321.186 664.618 321.426 664.124 321.906C663.644 322.372 663.344 323.059 663.224 323.966ZM675.23 330.266C674.537 330.266 673.977 330.086 673.55 329.726C673.123 329.366 672.91 328.792 672.91 328.006V316.066H675.03V327.806C675.03 328.046 675.09 328.226 675.21 328.346C675.343 328.466 675.53 328.526 675.77 328.526H676.61V330.266H675.23ZM682.598 330.506C681.558 330.506 680.658 330.279 679.898 329.826C679.151 329.372 678.571 328.726 678.158 327.886C677.758 327.046 677.558 326.066 677.558 324.946C677.558 323.826 677.758 322.852 678.158 322.026C678.571 321.186 679.151 320.539 679.898 320.086C680.645 319.619 681.525 319.386 682.538 319.386C683.498 319.386 684.345 319.612 685.078 320.066C685.811 320.506 686.378 321.146 686.778 321.986C687.191 322.826 687.398 323.839 687.398 325.026V325.566H679.758C679.811 326.606 680.085 327.386 680.578 327.906C681.085 328.426 681.765 328.686 682.618 328.686C683.245 328.686 683.765 328.539 684.178 328.246C684.591 327.952 684.878 327.559 685.038 327.066L687.238 327.206C686.958 328.192 686.405 328.992 685.578 329.606C684.765 330.206 683.771 330.506 682.598 330.506ZM679.758 323.966H685.158C685.091 323.019 684.818 322.319 684.338 321.866C683.871 321.412 683.271 321.186 682.538 321.186C681.778 321.186 681.151 321.426 680.658 321.906C680.178 322.372 679.878 323.059 679.758 323.966ZM693.726 330.506C692.713 330.506 691.826 330.279 691.066 329.826C690.306 329.372 689.719 328.726 689.306 327.886C688.893 327.046 688.686 326.066 688.686 324.946C688.686 323.826 688.893 322.852 689.306 322.026C689.719 321.186 690.306 320.539 691.066 320.086C691.826 319.619 692.713 319.386 693.726 319.386C694.593 319.386 695.359 319.539 696.026 319.846C696.706 320.139 697.253 320.572 697.666 321.146C698.093 321.719 698.366 322.419 698.486 323.246L696.266 323.366C696.159 322.672 695.879 322.146 695.426 321.786C694.973 321.412 694.406 321.226 693.726 321.226C692.833 321.226 692.133 321.559 691.626 322.226C691.133 322.879 690.886 323.786 690.886 324.946C690.886 326.106 691.133 327.019 691.626 327.686C692.133 328.339 692.833 328.666 693.726 328.666C694.406 328.666 694.973 328.479 695.426 328.106C695.879 327.719 696.159 327.139 696.266 326.366L698.486 326.486C698.366 327.299 698.093 328.006 697.666 328.606C697.253 329.206 696.706 329.672 696.026 330.006C695.359 330.339 694.593 330.506 693.726 330.506ZM703.91 330.266C702.896 330.266 702.15 330.032 701.67 329.566C701.19 329.099 700.95 328.372 700.95 327.386V317.126H703.07V327.226C703.07 327.719 703.176 328.059 703.39 328.246C703.603 328.432 703.93 328.526 704.37 328.526H705.89V330.266H703.91ZM699.33 321.366V319.626H705.89V321.366H699.33ZM711.92 330.506C710.88 330.506 709.98 330.279 709.22 329.826C708.473 329.372 707.893 328.726 707.48 327.886C707.08 327.046 706.88 326.066 706.88 324.946C706.88 323.826 707.08 322.852 707.48 322.026C707.893 321.186 708.473 320.539 709.22 320.086C709.967 319.619 710.847 319.386 711.86 319.386C712.82 319.386 713.667 319.612 714.4 320.066C715.133 320.506 715.7 321.146 716.1 321.986C716.513 322.826 716.72 323.839 716.72 325.026V325.566H709.08C709.133 326.606 709.407 327.386 709.9 327.906C710.407 328.426 711.087 328.686 711.94 328.686C712.567 328.686 713.087 328.539 713.5 328.246C713.913 327.952 714.2 327.559 714.36 327.066L716.56 327.206C716.28 328.192 715.727 328.992 714.9 329.606C714.087 330.206 713.093 330.506 711.92 330.506ZM709.08 323.966H714.48C714.413 323.019 714.14 322.319 713.66 321.866C713.193 321.412 712.593 321.186 711.86 321.186C711.1 321.186 710.473 321.426 709.98 321.906C709.5 322.372 709.2 323.059 709.08 323.966ZM722.448 330.506C721.541 330.506 720.748 330.279 720.068 329.826C719.401 329.372 718.888 328.732 718.528 327.906C718.181 327.066 718.008 326.079 718.008 324.946C718.008 323.812 718.188 322.832 718.548 322.006C718.908 321.166 719.421 320.519 720.088 320.066C720.755 319.612 721.541 319.386 722.448 319.386C723.181 319.386 723.835 319.539 724.408 319.846C724.981 320.152 725.415 320.579 725.708 321.126V316.066H727.828V330.266H725.848L725.788 328.666C725.495 329.239 725.048 329.692 724.448 330.026C723.861 330.346 723.195 330.506 722.448 330.506ZM723.008 328.666C723.581 328.666 724.068 328.519 724.468 328.226C724.868 327.932 725.175 327.506 725.388 326.946C725.601 326.386 725.708 325.719 725.708 324.946C725.708 324.146 725.601 323.472 725.388 322.926C725.175 322.366 724.868 321.946 724.468 321.666C724.068 321.372 723.581 321.226 723.008 321.226C722.155 321.226 721.475 321.559 720.968 322.226C720.461 322.879 720.208 323.786 720.208 324.946C720.208 326.092 720.461 326.999 720.968 327.666C721.475 328.332 722.155 328.666 723.008 328.666Z" fill="black"/>
<path d="M767.976 114.354V100.154H773.276C774.903 100.154 776.169 100.547 777.076 101.334C777.983 102.107 778.436 103.187 778.436 104.574C778.436 105.494 778.229 106.294 777.816 106.974C777.403 107.64 776.809 108.154 776.036 108.514C775.276 108.86 774.356 109.034 773.276 109.034H770.136V114.354H767.976ZM770.136 107.074H773.216C774.189 107.074 774.929 106.867 775.436 106.454C775.943 106.027 776.196 105.4 776.196 104.574C776.196 103.76 775.943 103.154 775.436 102.754C774.929 102.34 774.189 102.134 773.216 102.134H770.136V107.074ZM783.231 114.594C782.125 114.594 781.238 114.34 780.571 113.834C779.918 113.327 779.591 112.614 779.591 111.694C779.591 110.774 779.865 110.06 780.411 109.554C780.971 109.034 781.831 108.66 782.991 108.434L786.651 107.734C786.651 106.907 786.458 106.294 786.071 105.894C785.685 105.48 785.111 105.274 784.351 105.274C783.671 105.274 783.138 105.427 782.751 105.734C782.365 106.027 782.098 106.467 781.951 107.054L779.771 106.914C779.971 105.847 780.465 105.007 781.251 104.394C782.051 103.78 783.085 103.474 784.351 103.474C785.791 103.474 786.885 103.86 787.631 104.634C788.391 105.394 788.771 106.467 788.771 107.854V111.994C788.771 112.247 788.811 112.427 788.891 112.534C788.985 112.627 789.131 112.674 789.331 112.674H789.711V114.354C789.645 114.367 789.538 114.38 789.391 114.394C789.245 114.407 789.091 114.414 788.931 114.414C788.478 114.414 788.085 114.34 787.751 114.194C787.431 114.047 787.191 113.807 787.031 113.474C786.871 113.127 786.791 112.667 786.791 112.094L787.011 112.194C786.905 112.66 786.671 113.074 786.311 113.434C785.965 113.794 785.518 114.08 784.971 114.294C784.438 114.494 783.858 114.594 783.231 114.594ZM783.571 112.914C784.211 112.914 784.758 112.794 785.211 112.554C785.665 112.3 786.018 111.954 786.271 111.514C786.525 111.074 786.651 110.574 786.651 110.014V109.334L783.531 109.934C782.891 110.054 782.438 110.247 782.171 110.514C781.918 110.767 781.791 111.094 781.791 111.494C781.791 111.947 781.945 112.3 782.251 112.554C782.571 112.794 783.011 112.914 783.571 112.914ZM791.413 117.354V115.614H792.713C793.073 115.614 793.34 115.56 793.513 115.454C793.686 115.347 793.82 115.167 793.913 114.914L794.253 114.034H793.593L789.753 103.714H791.993L794.913 112.074L797.693 103.714H799.953L795.713 115.594C795.5 116.207 795.18 116.654 794.753 116.934C794.34 117.214 793.76 117.354 793.013 117.354H791.413ZM801.199 114.354V103.714H803.139L803.199 106.354L802.959 106.274C803.079 105.687 803.285 105.187 803.579 104.774C803.885 104.36 804.259 104.04 804.699 103.814C805.139 103.587 805.619 103.474 806.139 103.474C807.045 103.474 807.785 103.734 808.359 104.254C808.932 104.76 809.292 105.46 809.439 106.354H809.099C809.219 105.727 809.419 105.207 809.699 104.794C809.992 104.367 810.365 104.04 810.819 103.814C811.272 103.587 811.785 103.474 812.359 103.474C813.105 103.474 813.739 103.634 814.259 103.954C814.792 104.26 815.192 104.714 815.459 105.314C815.739 105.914 815.879 106.647 815.879 107.514V114.354H813.759V108.034C813.759 107.114 813.592 106.42 813.259 105.954C812.925 105.487 812.419 105.254 811.739 105.254C811.299 105.254 810.912 105.367 810.579 105.594C810.245 105.82 809.985 106.147 809.799 106.574C809.625 107 809.539 107.514 809.539 108.114V114.354H807.519V108.114C807.519 107.207 807.365 106.507 807.059 106.014C806.765 105.507 806.259 105.254 805.539 105.254C805.085 105.254 804.692 105.367 804.359 105.594C804.039 105.82 803.785 106.154 803.599 106.594C803.412 107.02 803.319 107.527 803.319 108.114V114.354H801.199ZM822.84 114.594C821.8 114.594 820.9 114.367 820.14 113.914C819.393 113.46 818.813 112.814 818.4 111.974C818 111.134 817.8 110.154 817.8 109.034C817.8 107.914 818 106.94 818.4 106.114C818.813 105.274 819.393 104.627 820.14 104.174C820.886 103.707 821.766 103.474 822.78 103.474C823.74 103.474 824.586 103.7 825.32 104.154C826.053 104.594 826.62 105.234 827.02 106.074C827.433 106.914 827.64 107.927 827.64 109.114V109.654H820C820.053 110.694 820.326 111.474 820.82 111.994C821.326 112.514 822.006 112.774 822.86 112.774C823.486 112.774 824.006 112.627 824.42 112.334C824.833 112.04 825.12 111.647 825.28 111.154L827.48 111.294C827.2 112.28 826.646 113.08 825.82 113.694C825.006 114.294 824.013 114.594 822.84 114.594ZM820 108.054H825.4C825.333 107.107 825.06 106.407 824.58 105.954C824.113 105.5 823.513 105.274 822.78 105.274C822.02 105.274 821.393 105.514 820.9 105.994C820.42 106.46 820.12 107.147 820 108.054ZM829.588 114.354V103.714H831.528L831.608 106.554L831.348 106.414C831.468 105.72 831.695 105.16 832.028 104.734C832.361 104.307 832.768 103.994 833.248 103.794C833.728 103.58 834.248 103.474 834.808 103.474C835.608 103.474 836.268 103.654 836.788 104.014C837.321 104.36 837.721 104.84 837.988 105.454C838.268 106.054 838.408 106.74 838.408 107.514V114.354H836.288V108.154C836.288 107.527 836.221 107 836.088 106.574C835.955 106.147 835.735 105.82 835.428 105.594C835.121 105.367 834.721 105.254 834.228 105.254C833.481 105.254 832.875 105.5 832.408 105.994C831.941 106.487 831.708 107.207 831.708 108.154V114.354H829.588ZM844.523 114.354C843.509 114.354 842.763 114.12 842.283 113.654C841.803 113.187 841.563 112.46 841.563 111.474V101.214H843.683V111.314C843.683 111.807 843.789 112.147 844.003 112.334C844.216 112.52 844.543 112.614 844.983 112.614H846.503V114.354H844.523ZM839.943 105.454V103.714H846.503V105.454H839.943Z" fill="black"/>
<path d="M453.492 584.6L459.727 567.139H463.617L469.828 584.6H466.418L465.023 580.428H458.25L456.82 584.6H453.492ZM459.117 577.885H464.18L463.359 575.424C462.844 573.818 462.328 572.143 461.672 569.939C461.016 572.143 460.488 573.818 459.961 575.424L459.117 577.885ZM474.146 577.604V584.6H471.193V572.225H474.099V574.123C474.943 572.729 476.197 571.979 477.896 571.979C480.486 571.979 482.314 573.689 482.314 576.865V584.6H479.349V577.334C479.349 575.518 478.435 574.568 476.853 574.568C475.306 574.568 474.146 575.494 474.146 577.604ZM483.749 584.6L488.237 578.295L484.042 572.225H487.335L488.624 574.193C489.07 574.92 489.491 575.6 489.913 576.291C490.335 575.6 490.757 574.92 491.214 574.193L492.527 572.225H495.773L491.542 578.236L495.972 584.6H492.667L491.191 582.396C490.734 581.67 490.312 580.979 489.878 580.299C489.445 580.979 489.011 581.67 488.542 582.396L487.042 584.6H483.749ZM497.407 584.6V572.225H500.36V584.6H497.407ZM498.884 570.385C497.876 570.385 497.114 569.658 497.114 568.697C497.114 567.748 497.876 567.021 498.884 567.021C499.891 567.021 500.653 567.748 500.653 568.697C500.653 569.658 499.891 570.385 498.884 570.385ZM508.346 584.881C504.631 584.881 502.311 582.174 502.311 578.424C502.311 574.662 504.76 571.943 508.229 571.943C511.791 571.943 514.159 574.58 514.159 578.377V579.186H505.205C505.276 581.201 506.424 582.549 508.416 582.549C509.905 582.549 510.901 581.834 511.241 580.779H514.006C513.537 583.205 511.241 584.881 508.346 584.881ZM505.229 577.146H511.323C511.135 575.377 509.987 574.287 508.276 574.287C506.565 574.287 505.428 575.377 505.229 577.146ZM522.602 572.225V574.604H520.082V581.049C520.082 581.928 520.375 582.221 521.336 582.221H522.602V584.6H520.82C518.301 584.6 517.117 583.604 517.117 581.482V574.604H514.961V572.225H517.117V568.85H520.082V572.225H522.602ZM525.22 589.498V587.096H526.685C527.482 587.096 527.857 586.697 528.209 585.725L528.666 584.529L523.896 572.225H527.025L529.298 578.67C529.603 579.584 529.908 580.498 530.189 581.412C530.47 580.498 530.763 579.584 531.08 578.67L533.341 572.225H536.435L530.904 586.639C530.166 588.572 528.947 589.498 527.154 589.498H525.22ZM543.196 584.6V572.225H546.055V574.369C546.805 572.775 548.223 571.979 549.782 571.979C551.458 571.979 552.829 572.904 553.345 574.322C554.001 572.893 555.477 571.979 557.282 571.979C559.626 571.979 561.43 573.525 561.43 576.432V584.6H558.466V576.854C558.466 575.213 557.434 574.486 556.169 574.486C554.669 574.486 553.743 575.529 553.743 577.006V584.6H550.872V576.713C550.872 575.365 549.934 574.486 548.622 574.486C547.286 574.486 546.149 575.447 546.149 577.217V584.6H543.196ZM567.729 584.799C565.268 584.799 563.452 583.557 563.452 581.084C563.452 578.271 565.76 577.58 568.315 577.311C570.612 577.053 571.397 577.018 571.397 576.174V576.08C571.397 575.025 570.553 574.275 569.135 574.275C567.694 574.275 566.733 575.025 566.651 576.068H563.803C563.944 573.607 565.959 571.979 569.194 571.979C572.416 571.979 574.327 573.584 574.327 576.162V584.6H571.42V582.854H571.373C570.787 583.955 569.745 584.799 567.729 584.799ZM568.455 582.607C570.389 582.607 571.409 581.459 571.409 580.018V578.682C571.045 578.916 569.897 579.104 568.678 579.291C567.412 579.479 566.334 579.936 566.334 581.061C566.334 582.033 567.166 582.607 568.455 582.607ZM576.84 589.498V572.225H579.746V573.947H579.781C580.555 572.635 581.926 571.979 583.531 571.979C586.719 571.979 588.875 574.592 588.875 578.4C588.875 582.256 586.754 584.846 583.52 584.846C581.902 584.846 580.602 584.143 579.828 582.736H579.793V589.498H576.84ZM582.828 582.373C584.656 582.373 585.887 580.967 585.887 578.4C585.887 575.846 584.656 574.428 582.828 574.428C580.895 574.428 579.629 575.998 579.629 578.4C579.629 580.814 580.895 582.373 582.828 582.373ZM601.695 584.881C598.05 584.881 595.589 582.268 595.589 578.424C595.589 574.58 598.05 571.943 601.695 571.943C605.339 571.943 607.8 574.58 607.8 578.424C607.8 582.268 605.339 584.881 601.695 584.881ZM601.695 582.408C603.593 582.408 604.8 580.885 604.8 578.424C604.8 575.951 603.581 574.416 601.695 574.416C599.796 574.416 598.577 575.939 598.577 578.424C598.577 580.896 599.784 582.408 601.695 582.408ZM616.348 572.225V574.604H613.829V584.6H610.864V574.604H608.637V572.225H610.864V570.42C610.864 568.287 612.177 567.139 614.626 567.139H616.348V569.518H615.212C614.204 569.518 613.829 569.904 613.829 570.912V572.225H616.348ZM627.785 584.846C625.195 584.846 623.379 583.135 623.379 579.959V572.225H626.332V579.49C626.332 581.307 627.246 582.256 628.828 582.256C630.387 582.256 631.535 581.33 631.535 579.221V572.225H634.5V584.6H631.594V582.701C630.75 584.096 629.496 584.846 627.785 584.846ZM641.888 584.893C638.877 584.893 636.638 583.439 636.451 580.779H639.369C639.498 581.986 640.365 582.678 641.841 582.678C643.271 582.678 644.138 582.057 644.138 581.178C644.138 580.428 643.494 579.994 642.451 579.771L640.341 579.338C637.974 578.846 636.732 577.639 636.732 575.764C636.732 573.49 638.689 571.955 641.712 571.955C644.712 571.955 646.763 573.537 646.834 576.08H644.056C644.033 574.979 643.13 574.17 641.783 574.17C640.482 574.17 639.685 574.826 639.685 575.67C639.685 576.408 640.295 576.865 641.326 577.088L643.552 577.545C646.002 578.061 647.138 579.139 647.138 580.955C647.138 583.369 644.947 584.893 641.888 584.893ZM654.515 584.881C650.8 584.881 648.48 582.174 648.48 578.424C648.48 574.662 650.929 571.943 654.398 571.943C657.96 571.943 660.327 574.58 660.327 578.377V579.186H651.374C651.445 581.201 652.593 582.549 654.585 582.549C656.073 582.549 657.07 581.834 657.409 580.779H660.175C659.706 583.205 657.409 584.881 654.515 584.881ZM651.398 577.146H657.491C657.304 575.377 656.155 574.287 654.445 574.287C652.734 574.287 651.597 575.377 651.398 577.146ZM662.243 584.6V572.225H665.091V574.275H665.126C665.583 572.857 666.532 572.107 668.126 572.107C668.524 572.107 668.852 572.131 669.087 572.154V574.779C668.864 574.744 668.278 574.686 667.692 574.686C666.286 574.686 665.196 575.658 665.196 577.592V584.6H662.243Z" fill="#00421F"/>
</g>
<rect x="0.391147" y="0.391147" width="1077.22" height="603.284" rx="24.6422" stroke="#00421F" stroke-width="0.782293"/>
<defs>
<linearGradient id="paint0_linear_918_6718" x1="538.609" y1="137.531" x2="548.836" y2="408.047" gradientUnits="userSpaceOnUse">
<stop stop-color="#D9FCCA"/>
<stop offset="1" stop-color="#F6F6F6"/>
</linearGradient>
<clipPath id="clip0_918_6718">
<rect width="1078" height="604.067" rx="25.0334" fill="white"/>
</clipPath>
</defs>
</svg>
