<svg width="199" height="154" viewBox="0 0 199 154" fill="none" xmlns="http://www.w3.org/2000/svg">
<path d="M100.4 19L109.47 0L87.5303 0L96.6 19H100.4ZM97.1565 153.346C97.8985 154.088 99.1015 154.088 99.8435 153.346L111.935 141.255C112.677 140.513 112.677 139.31 111.935 138.568C111.193 137.826 109.99 137.826 109.248 138.568L98.5 149.316L87.752 138.568C87.01 137.826 85.807 137.826 85.065 138.568C84.323 139.31 84.323 140.513 85.065 141.255L97.1565 153.346ZM98.5 17.1H96.6L96.6 152.003H98.5H100.4L100.4 17.1H98.5Z" fill="#5CC05E"/>
<rect x="1" y="51.5117" width="196.6" height="50" rx="15" fill="white"/>
<rect x="1" y="51.5117" width="196.6" height="50" rx="15" stroke="#DDDDDD" stroke-width="2"/>
<path d="M16.374 82.5117V77.3817L11.892 69.7317H14.124L17.346 75.4377L20.586 69.7317H22.818L18.318 77.3817V82.5117H16.374ZM25.5769 82.7277C24.5809 82.7277 23.7829 82.4997 23.1829 82.0437C22.5949 81.5877 22.3009 80.9457 22.3009 80.1177C22.3009 79.2897 22.5469 78.6477 23.0389 78.1917C23.5429 77.7237 24.3169 77.3877 25.3609 77.1837L28.6549 76.5537C28.6549 75.8097 28.4809 75.2577 28.1329 74.8977C27.7849 74.5257 27.2689 74.3397 26.5849 74.3397C25.9729 74.3397 25.4929 74.4777 25.1449 74.7537C24.7969 75.0177 24.5569 75.4137 24.4249 75.9417L22.4629 75.8157C22.6429 74.8557 23.0869 74.0997 23.7949 73.5477C24.5149 72.9957 25.4449 72.7197 26.5849 72.7197C27.8809 72.7197 28.8649 73.0677 29.5369 73.7637C30.2209 74.4477 30.5629 75.4137 30.5629 76.6617V80.3877C30.5629 80.6157 30.5989 80.7777 30.6709 80.8737C30.7549 80.9577 30.8869 80.9997 31.0669 80.9997H31.4089V82.5117C31.3489 82.5237 31.2529 82.5357 31.1209 82.5477C30.9889 82.5597 30.8509 82.5657 30.7069 82.5657C30.2989 82.5657 29.9449 82.4997 29.6449 82.3677C29.3569 82.2357 29.1409 82.0197 28.9969 81.7197C28.8529 81.4077 28.7809 80.9937 28.7809 80.4777L28.9789 80.5677C28.8829 80.9877 28.6729 81.3597 28.3489 81.6837C28.0369 82.0077 27.6349 82.2657 27.1429 82.4577C26.6629 82.6377 26.1409 82.7277 25.5769 82.7277ZM25.8829 81.2157C26.4589 81.2157 26.9509 81.1077 27.3589 80.8917C27.7669 80.6637 28.0849 80.3517 28.3129 79.9557C28.5409 79.5597 28.6549 79.1097 28.6549 78.6057V77.9937L25.8469 78.5337C25.2709 78.6417 24.8629 78.8157 24.6229 79.0557C24.3949 79.2837 24.2809 79.5777 24.2809 79.9377C24.2809 80.3457 24.4189 80.6637 24.6949 80.8917C24.9829 81.1077 25.3789 81.2157 25.8829 81.2157ZM36.6396 82.7277C35.7396 82.7277 34.9776 82.5897 34.3536 82.3137C33.7416 82.0377 33.2676 81.6597 32.9316 81.1797C32.5956 80.6877 32.4036 80.1237 32.3556 79.4877L34.3176 79.3977C34.4136 79.9257 34.6416 80.3457 35.0016 80.6577C35.3616 80.9697 35.9076 81.1257 36.6396 81.1257C37.2396 81.1257 37.7136 81.0297 38.0616 80.8377C38.4096 80.6457 38.5836 80.3397 38.5836 79.9197C38.5836 79.6917 38.5236 79.4997 38.4036 79.3437C38.2956 79.1757 38.0796 79.0377 37.7556 78.9297C37.4316 78.8097 36.9516 78.6957 36.3156 78.5877C35.3676 78.4077 34.6236 78.1977 34.0836 77.9577C33.5436 77.7177 33.1596 77.4117 32.9316 77.0397C32.7036 76.6677 32.5896 76.2177 32.5896 75.6897C32.5896 74.8137 32.9136 74.0997 33.5616 73.5477C34.2216 72.9957 35.1696 72.7197 36.4056 72.7197C37.2336 72.7197 37.9296 72.8637 38.4936 73.1517C39.0576 73.4277 39.4956 73.8057 39.8076 74.2857C40.1316 74.7537 40.3356 75.2817 40.4196 75.8697L38.4576 75.9777C38.3976 75.6417 38.2776 75.3537 38.0976 75.1137C37.9296 74.8617 37.7016 74.6697 37.4136 74.5377C37.1256 74.3937 36.7836 74.3217 36.3876 74.3217C35.7756 74.3217 35.3196 74.4417 35.0196 74.6817C34.7196 74.9217 34.5696 75.2337 34.5696 75.6177C34.5696 75.9057 34.6356 76.1397 34.7676 76.3197C34.9116 76.4997 35.1396 76.6497 35.4516 76.7697C35.7636 76.8777 36.1776 76.9737 36.6936 77.0577C37.6896 77.2257 38.4696 77.4357 39.0336 77.6877C39.5976 77.9277 39.9936 78.2277 40.2216 78.5877C40.4496 78.9477 40.5636 79.3857 40.5636 79.9017C40.5636 80.5017 40.3956 81.0117 40.0596 81.4317C39.7236 81.8517 39.2616 82.1757 38.6736 82.4037C38.0856 82.6197 37.4076 82.7277 36.6396 82.7277ZM42.4945 82.5117V69.7317H44.4025V75.0957L44.1685 75.0597C44.2765 74.5197 44.4745 74.0817 44.7625 73.7457C45.0505 73.3977 45.4045 73.1397 45.8245 72.9717C46.2445 72.8037 46.7065 72.7197 47.2105 72.7197C47.9065 72.7197 48.4945 72.8757 48.9745 73.1877C49.4545 73.4877 49.8145 73.9137 50.0545 74.4657C50.3065 75.0177 50.4325 75.6477 50.4325 76.3557V82.5117H48.5245V76.8597C48.5245 75.9957 48.3745 75.3597 48.0745 74.9517C47.7865 74.5317 47.3305 74.3217 46.7065 74.3217C46.0105 74.3217 45.4525 74.5437 45.0325 74.9877C44.6125 75.4197 44.4025 76.0557 44.4025 76.8957V82.5117H42.4945ZM61.1963 82.7277C60.2963 82.7277 59.5343 82.5897 58.9103 82.3137C58.2983 82.0377 57.8243 81.6597 57.4883 81.1797C57.1523 80.6877 56.9603 80.1237 56.9123 79.4877L58.8743 79.3977C58.9703 79.9257 59.1983 80.3457 59.5583 80.6577C59.9183 80.9697 60.4643 81.1257 61.1963 81.1257C61.7963 81.1257 62.2703 81.0297 62.6183 80.8377C62.9663 80.6457 63.1403 80.3397 63.1403 79.9197C63.1403 79.6917 63.0803 79.4997 62.9603 79.3437C62.8523 79.1757 62.6363 79.0377 62.3123 78.9297C61.9883 78.8097 61.5083 78.6957 60.8723 78.5877C59.9243 78.4077 59.1803 78.1977 58.6403 77.9577C58.1003 77.7177 57.7163 77.4117 57.4883 77.0397C57.2603 76.6677 57.1463 76.2177 57.1463 75.6897C57.1463 74.8137 57.4703 74.0997 58.1183 73.5477C58.7783 72.9957 59.7263 72.7197 60.9623 72.7197C61.7903 72.7197 62.4863 72.8637 63.0503 73.1517C63.6143 73.4277 64.0523 73.8057 64.3643 74.2857C64.6883 74.7537 64.8923 75.2817 64.9763 75.8697L63.0143 75.9777C62.9543 75.6417 62.8343 75.3537 62.6543 75.1137C62.4863 74.8617 62.2583 74.6697 61.9703 74.5377C61.6823 74.3937 61.3403 74.3217 60.9443 74.3217C60.3323 74.3217 59.8763 74.4417 59.5763 74.6817C59.2763 74.9217 59.1263 75.2337 59.1263 75.6177C59.1263 75.9057 59.1923 76.1397 59.3243 76.3197C59.4683 76.4997 59.6963 76.6497 60.0083 76.7697C60.3203 76.8777 60.7343 76.9737 61.2503 77.0577C62.2463 77.2257 63.0263 77.4357 63.5903 77.6877C64.1543 77.9277 64.5503 78.2277 64.7783 78.5877C65.0063 78.9477 65.1203 79.3857 65.1203 79.9017C65.1203 80.5017 64.9523 81.0117 64.6163 81.4317C64.2803 81.8517 63.8183 82.1757 63.2303 82.4037C62.6423 82.6197 61.9643 82.7277 61.1963 82.7277ZM70.9932 82.7277C70.0812 82.7277 69.2832 82.5237 68.5992 82.1157C67.9152 81.7077 67.3872 81.1257 67.0152 80.3697C66.6432 79.6137 66.4572 78.7317 66.4572 77.7237C66.4572 76.7157 66.6432 75.8397 67.0152 75.0957C67.3872 74.3397 67.9152 73.7577 68.5992 73.3497C69.2832 72.9297 70.0812 72.7197 70.9932 72.7197C71.7732 72.7197 72.4632 72.8577 73.0632 73.1337C73.6752 73.3977 74.1672 73.7877 74.5392 74.3037C74.9232 74.8197 75.1692 75.4497 75.2772 76.1937L73.2792 76.3017C73.1832 75.6777 72.9312 75.2037 72.5232 74.8797C72.1152 74.5437 71.6052 74.3757 70.9932 74.3757C70.1892 74.3757 69.5592 74.6757 69.1032 75.2757C68.6592 75.8637 68.4372 76.6797 68.4372 77.7237C68.4372 78.7677 68.6592 79.5897 69.1032 80.1897C69.5592 80.7777 70.1892 81.0717 70.9932 81.0717C71.6052 81.0717 72.1152 80.9037 72.5232 80.5677C72.9312 80.2197 73.1832 79.6977 73.2792 79.0017L75.2772 79.1097C75.1692 79.8417 74.9232 80.4777 74.5392 81.0177C74.1672 81.5577 73.6752 81.9777 73.0632 82.2777C72.4632 82.5777 71.7732 82.7277 70.9932 82.7277ZM79.8933 82.7277C78.8973 82.7277 78.0993 82.4997 77.4993 82.0437C76.9113 81.5877 76.6173 80.9457 76.6173 80.1177C76.6173 79.2897 76.8633 78.6477 77.3553 78.1917C77.8593 77.7237 78.6333 77.3877 79.6773 77.1837L82.9713 76.5537C82.9713 75.8097 82.7973 75.2577 82.4493 74.8977C82.1013 74.5257 81.5853 74.3397 80.9013 74.3397C80.2893 74.3397 79.8093 74.4777 79.4613 74.7537C79.1133 75.0177 78.8733 75.4137 78.7413 75.9417L76.7793 75.8157C76.9593 74.8557 77.4033 74.0997 78.1113 73.5477C78.8313 72.9957 79.7613 72.7197 80.9013 72.7197C82.1973 72.7197 83.1813 73.0677 83.8533 73.7637C84.5373 74.4477 84.8793 75.4137 84.8793 76.6617V80.3877C84.8793 80.6157 84.9153 80.7777 84.9873 80.8737C85.0713 80.9577 85.2033 80.9997 85.3833 80.9997H85.7253V82.5117C85.6653 82.5237 85.5693 82.5357 85.4373 82.5477C85.3053 82.5597 85.1673 82.5657 85.0233 82.5657C84.6153 82.5657 84.2613 82.4997 83.9613 82.3677C83.6733 82.2357 83.4573 82.0197 83.3133 81.7197C83.1693 81.4077 83.0973 80.9937 83.0973 80.4777L83.2953 80.5677C83.1993 80.9877 82.9893 81.3597 82.6653 81.6837C82.3533 82.0077 81.9513 82.2657 81.4593 82.4577C80.9793 82.6377 80.4573 82.7277 79.8933 82.7277ZM80.1993 81.2157C80.7753 81.2157 81.2673 81.1077 81.6753 80.8917C82.0833 80.6637 82.4013 80.3517 82.6293 79.9557C82.8573 79.5597 82.9713 79.1097 82.9713 78.6057V77.9937L80.1633 78.5337C79.5873 78.6417 79.1793 78.8157 78.9393 79.0557C78.7113 79.2837 78.5973 79.5777 78.5973 79.9377C78.5973 80.3457 78.7353 80.6637 79.0113 80.8917C79.2993 81.1077 79.6953 81.2157 80.1993 81.2157ZM87.3363 82.5117V72.9357H89.0823L89.1543 75.4917L88.9203 75.3657C89.0283 74.7417 89.2323 74.2377 89.5323 73.8537C89.8323 73.4697 90.1983 73.1877 90.6303 73.0077C91.0623 72.8157 91.5303 72.7197 92.0343 72.7197C92.7543 72.7197 93.3483 72.8817 93.8163 73.2057C94.2963 73.5177 94.6563 73.9497 94.8963 74.5017C95.1483 75.0417 95.2743 75.6597 95.2743 76.3557V82.5117H93.3663V76.9317C93.3663 76.3677 93.3063 75.8937 93.1863 75.5097C93.0663 75.1257 92.8683 74.8317 92.5923 74.6277C92.3163 74.4237 91.9563 74.3217 91.5123 74.3217C90.8403 74.3217 90.2943 74.5437 89.8743 74.9877C89.4543 75.4317 89.2443 76.0797 89.2443 76.9317V82.5117H87.3363ZM101.45 82.7277C100.55 82.7277 99.7882 82.5897 99.1642 82.3137C98.5522 82.0377 98.0782 81.6597 97.7422 81.1797C97.4062 80.6877 97.2142 80.1237 97.1662 79.4877L99.1282 79.3977C99.2242 79.9257 99.4522 80.3457 99.8122 80.6577C100.172 80.9697 100.718 81.1257 101.45 81.1257C102.05 81.1257 102.524 81.0297 102.872 80.8377C103.22 80.6457 103.394 80.3397 103.394 79.9197C103.394 79.6917 103.334 79.4997 103.214 79.3437C103.106 79.1757 102.89 79.0377 102.566 78.9297C102.242 78.8097 101.762 78.6957 101.126 78.5877C100.178 78.4077 99.4342 78.1977 98.8942 77.9577C98.3542 77.7177 97.9702 77.4117 97.7422 77.0397C97.5142 76.6677 97.4002 76.2177 97.4002 75.6897C97.4002 74.8137 97.7242 74.0997 98.3722 73.5477C99.0322 72.9957 99.9802 72.7197 101.216 72.7197C102.044 72.7197 102.74 72.8637 103.304 73.1517C103.868 73.4277 104.306 73.8057 104.618 74.2857C104.942 74.7537 105.146 75.2817 105.23 75.8697L103.268 75.9777C103.208 75.6417 103.088 75.3537 102.908 75.1137C102.74 74.8617 102.512 74.6697 102.224 74.5377C101.936 74.3937 101.594 74.3217 101.198 74.3217C100.586 74.3217 100.13 74.4417 99.8302 74.6817C99.5302 74.9217 99.3802 75.2337 99.3802 75.6177C99.3802 75.9057 99.4462 76.1397 99.5782 76.3197C99.7222 76.4997 99.9502 76.6497 100.262 76.7697C100.574 76.8777 100.988 76.9737 101.504 77.0577C102.5 77.2257 103.28 77.4357 103.844 77.6877C104.408 77.9277 104.804 78.2277 105.032 78.5877C105.26 78.9477 105.374 79.3857 105.374 79.9017C105.374 80.5017 105.206 81.0117 104.87 81.4317C104.534 81.8517 104.072 82.1757 103.484 82.4037C102.896 82.6197 102.218 82.7277 101.45 82.7277Z" fill="black"/>
<path d="M124.572 83.7177L123.546 82.3857C123.258 82.5057 122.922 82.6017 122.538 82.6737C122.154 82.7577 121.74 82.7997 121.296 82.7997C120.06 82.7997 119.004 82.5057 118.128 81.9177C117.252 81.3297 116.574 80.5377 116.094 79.5417C115.626 78.5337 115.392 77.3997 115.392 76.1397C115.392 74.8797 115.62 73.7457 116.076 72.7377C116.532 71.7297 117.198 70.9317 118.074 70.3437C118.962 69.7437 120.036 69.4437 121.296 69.4437C122.58 69.4437 123.66 69.7437 124.536 70.3437C125.424 70.9317 126.09 71.7297 126.534 72.7377C126.99 73.7457 127.218 74.8797 127.218 76.1397C127.218 77.3157 127.008 78.3837 126.588 79.3437C126.18 80.3037 125.586 81.0837 124.806 81.6837L126.426 83.7177H124.572ZM121.296 81.0177C121.524 81.0177 121.728 81.0057 121.908 80.9817C122.088 80.9577 122.25 80.9157 122.394 80.8557L120.576 78.5697H122.43L123.654 80.1897C124.17 79.7697 124.554 79.2237 124.806 78.5517C125.07 77.8677 125.202 77.0637 125.202 76.1397C125.202 75.2517 125.058 74.4357 124.77 73.6917C124.494 72.9477 124.068 72.3537 123.492 71.9097C122.916 71.4537 122.184 71.2257 121.296 71.2257C120.42 71.2257 119.694 71.4537 119.118 71.9097C118.542 72.3537 118.11 72.9477 117.822 73.6917C117.546 74.4357 117.408 75.2517 117.408 76.1397C117.408 77.0157 117.546 77.8257 117.822 78.5697C118.11 79.3137 118.542 79.9077 119.118 80.3517C119.706 80.7957 120.432 81.0177 121.296 81.0177ZM129.297 82.5117V69.7317H134.391C135.303 69.7317 136.089 69.8877 136.749 70.1997C137.409 70.5117 137.919 70.9557 138.279 71.5317C138.639 72.1077 138.819 72.7917 138.819 73.5837C138.819 74.1597 138.687 74.6757 138.423 75.1317C138.171 75.5877 137.829 75.9537 137.397 76.2297C136.977 76.4937 136.527 76.6437 136.047 76.6797L135.957 76.5177C136.761 76.5177 137.385 76.7037 137.829 77.0757C138.273 77.4357 138.531 78.0057 138.603 78.7857L138.945 82.5117H136.983L136.677 79.0377C136.641 78.5217 136.467 78.1437 136.155 77.9037C135.843 77.6517 135.333 77.5257 134.625 77.5257H131.241V82.5117H129.297ZM131.241 75.7437H134.427C135.159 75.7437 135.735 75.5637 136.155 75.2037C136.587 74.8317 136.803 74.3097 136.803 73.6377C136.803 72.9537 136.587 72.4317 136.155 72.0717C135.723 71.6997 135.093 71.5137 134.265 71.5137H131.241V75.7437ZM149.652 82.7277C148.74 82.7277 147.942 82.5237 147.258 82.1157C146.574 81.7077 146.046 81.1257 145.674 80.3697C145.302 79.6137 145.116 78.7317 145.116 77.7237C145.116 76.7157 145.302 75.8397 145.674 75.0957C146.046 74.3397 146.574 73.7577 147.258 73.3497C147.942 72.9297 148.74 72.7197 149.652 72.7197C150.432 72.7197 151.122 72.8577 151.722 73.1337C152.334 73.3977 152.826 73.7877 153.198 74.3037C153.582 74.8197 153.828 75.4497 153.936 76.1937L151.938 76.3017C151.842 75.6777 151.59 75.2037 151.182 74.8797C150.774 74.5437 150.264 74.3757 149.652 74.3757C148.848 74.3757 148.218 74.6757 147.762 75.2757C147.318 75.8637 147.096 76.6797 147.096 77.7237C147.096 78.7677 147.318 79.5897 147.762 80.1897C148.218 80.7777 148.848 81.0717 149.652 81.0717C150.264 81.0717 150.774 80.9037 151.182 80.5677C151.59 80.2197 151.842 79.6977 151.938 79.0017L153.936 79.1097C153.828 79.8417 153.582 80.4777 153.198 81.0177C152.826 81.5577 152.334 81.9777 151.722 82.2777C151.122 82.5777 150.432 82.7277 149.652 82.7277ZM159.619 82.7277C158.707 82.7277 157.909 82.5237 157.225 82.1157C156.541 81.7077 156.013 81.1257 155.641 80.3697C155.269 79.6137 155.083 78.7317 155.083 77.7237C155.083 76.7037 155.269 75.8217 155.641 75.0777C156.013 74.3337 156.541 73.7577 157.225 73.3497C157.909 72.9297 158.707 72.7197 159.619 72.7197C160.531 72.7197 161.329 72.9297 162.013 73.3497C162.697 73.7577 163.225 74.3337 163.597 75.0777C163.969 75.8217 164.155 76.7037 164.155 77.7237C164.155 78.7317 163.969 79.6137 163.597 80.3697C163.225 81.1257 162.697 81.7077 162.013 82.1157C161.329 82.5237 160.531 82.7277 159.619 82.7277ZM159.619 81.0717C160.435 81.0717 161.065 80.7777 161.509 80.1897C161.953 79.5897 162.175 78.7677 162.175 77.7237C162.175 76.6797 161.953 75.8637 161.509 75.2757C161.065 74.6757 160.435 74.3757 159.619 74.3757C158.815 74.3757 158.185 74.6757 157.729 75.2757C157.285 75.8637 157.063 76.6797 157.063 77.7237C157.063 78.7677 157.285 79.5897 157.729 80.1897C158.185 80.7777 158.815 81.0717 159.619 81.0717ZM169.485 82.7277C168.669 82.7277 167.955 82.5237 167.343 82.1157C166.743 81.7077 166.281 81.1317 165.957 80.3877C165.645 79.6317 165.489 78.7437 165.489 77.7237C165.489 76.7037 165.651 75.8217 165.975 75.0777C166.299 74.3217 166.761 73.7397 167.361 73.3317C167.961 72.9237 168.669 72.7197 169.485 72.7197C170.145 72.7197 170.733 72.8577 171.249 73.1337C171.765 73.4097 172.155 73.7937 172.419 74.2857V69.7317H174.327V82.5117H172.545L172.491 81.0717C172.227 81.5877 171.825 81.9957 171.285 82.2957C170.757 82.5837 170.157 82.7277 169.485 82.7277ZM169.989 81.0717C170.505 81.0717 170.943 80.9397 171.303 80.6757C171.663 80.4117 171.939 80.0277 172.131 79.5237C172.323 79.0197 172.419 78.4197 172.419 77.7237C172.419 77.0037 172.323 76.3977 172.131 75.9057C171.939 75.4017 171.663 75.0237 171.303 74.7717C170.943 74.5077 170.505 74.3757 169.989 74.3757C169.221 74.3757 168.609 74.6757 168.153 75.2757C167.697 75.8637 167.469 76.6797 167.469 77.7237C167.469 78.7557 167.697 79.5717 168.153 80.1717C168.609 80.7717 169.221 81.0717 169.989 81.0717ZM180.8 82.7277C179.864 82.7277 179.054 82.5237 178.37 82.1157C177.698 81.7077 177.176 81.1257 176.804 80.3697C176.444 79.6137 176.264 78.7317 176.264 77.7237C176.264 76.7157 176.444 75.8397 176.804 75.0957C177.176 74.3397 177.698 73.7577 178.37 73.3497C179.042 72.9297 179.834 72.7197 180.746 72.7197C181.61 72.7197 182.372 72.9237 183.032 73.3317C183.692 73.7277 184.202 74.3037 184.562 75.0597C184.934 75.8157 185.12 76.7277 185.12 77.7957V78.2817H178.244C178.292 79.2177 178.538 79.9197 178.982 80.3877C179.438 80.8557 180.05 81.0897 180.818 81.0897C181.382 81.0897 181.85 80.9577 182.222 80.6937C182.594 80.4297 182.852 80.0757 182.996 79.6317L184.976 79.7577C184.724 80.6457 184.226 81.3657 183.482 81.9177C182.75 82.4577 181.856 82.7277 180.8 82.7277ZM178.244 76.8417H183.104C183.044 75.9897 182.798 75.3597 182.366 74.9517C181.946 74.5437 181.406 74.3397 180.746 74.3397C180.062 74.3397 179.498 74.5557 179.054 74.9877C178.622 75.4077 178.352 76.0257 178.244 76.8417Z" fill="black"/>
</svg>
