<svg width="224" height="154" viewBox="0 0 224 154" fill="none" xmlns="http://www.w3.org/2000/svg">
<path d="M113.4 19L122.47 0L100.53 0L109.6 19H113.4ZM110.156 153.346C110.898 154.088 112.102 154.088 112.844 153.346L124.935 141.255C125.677 140.513 125.677 139.31 124.935 138.568C124.193 137.826 122.99 137.826 122.248 138.568L111.5 149.316L100.752 138.568C100.01 137.826 98.807 137.826 98.065 138.568C97.323 139.31 97.323 140.513 98.065 141.255L110.156 153.346ZM111.5 17.1H109.6L109.6 152.003H111.5H113.4L113.4 17.1H111.5Z" fill="#5CC05E"/>
<rect x="1" y="53.7852" width="221.6" height="46" rx="15" fill="white"/>
<rect x="1" y="53.7852" width="221.6" height="46" rx="15" stroke="#DDDDDD" stroke-width="2"/>
<path d="M16.374 82.7852V77.6552L11.892 70.0052H14.124L17.346 75.7112L20.586 70.0052H22.818L18.318 77.6552V82.7852H16.374ZM25.3969 83.0012C24.4009 83.0012 23.6029 82.7732 23.0029 82.3172C22.4149 81.8612 22.1209 81.2192 22.1209 80.3912C22.1209 79.5632 22.3669 78.9212 22.8589 78.4652C23.3629 77.9972 24.1369 77.6612 25.1809 77.4572L28.4749 76.8272C28.4749 76.0832 28.3009 75.5312 27.9529 75.1712C27.6049 74.7992 27.0889 74.6132 26.4049 74.6132C25.7929 74.6132 25.3129 74.7512 24.9649 75.0272C24.6169 75.2912 24.3769 75.6872 24.2449 76.2152L22.2829 76.0892C22.4629 75.1292 22.9069 74.3732 23.6149 73.8212C24.3349 73.2692 25.2649 72.9932 26.4049 72.9932C27.7009 72.9932 28.6849 73.3412 29.3569 74.0372C30.0409 74.7212 30.3829 75.6872 30.3829 76.9352V80.6612C30.3829 80.8892 30.4189 81.0512 30.4909 81.1472C30.5749 81.2312 30.7069 81.2732 30.8869 81.2732H31.2289V82.7852C31.1689 82.7972 31.0729 82.8092 30.9409 82.8212C30.8089 82.8332 30.6709 82.8392 30.5269 82.8392C30.1189 82.8392 29.7649 82.7732 29.4649 82.6412C29.1769 82.5092 28.9609 82.2932 28.8169 81.9932C28.6729 81.6812 28.6009 81.2672 28.6009 80.7512L28.7989 80.8412C28.7029 81.2612 28.4929 81.6332 28.1689 81.9572C27.8569 82.2812 27.4549 82.5392 26.9629 82.7312C26.4829 82.9112 25.9609 83.0012 25.3969 83.0012ZM25.7029 81.4892C26.2789 81.4892 26.7709 81.3812 27.1789 81.1652C27.5869 80.9372 27.9049 80.6252 28.1329 80.2292C28.3609 79.8332 28.4749 79.3832 28.4749 78.8792V78.2672L25.6669 78.8072C25.0909 78.9152 24.6829 79.0892 24.4429 79.3292C24.2149 79.5572 24.1009 79.8512 24.1009 80.2112C24.1009 80.6192 24.2389 80.9372 24.5149 81.1652C24.8029 81.3812 25.1989 81.4892 25.7029 81.4892ZM36.2796 83.0012C35.3796 83.0012 34.6176 82.8632 33.9936 82.5872C33.3816 82.3112 32.9076 81.9332 32.5716 81.4532C32.2356 80.9612 32.0436 80.3972 31.9956 79.7612L33.9576 79.6712C34.0536 80.1992 34.2816 80.6192 34.6416 80.9312C35.0016 81.2432 35.5476 81.3992 36.2796 81.3992C36.8796 81.3992 37.3536 81.3032 37.7016 81.1112C38.0496 80.9192 38.2236 80.6132 38.2236 80.1932C38.2236 79.9652 38.1636 79.7732 38.0436 79.6172C37.9356 79.4492 37.7196 79.3112 37.3956 79.2032C37.0716 79.0832 36.5916 78.9692 35.9556 78.8612C35.0076 78.6812 34.2636 78.4712 33.7236 78.2312C33.1836 77.9912 32.7996 77.6852 32.5716 77.3132C32.3436 76.9412 32.2296 76.4912 32.2296 75.9632C32.2296 75.0872 32.5536 74.3732 33.2016 73.8212C33.8616 73.2692 34.8096 72.9932 36.0456 72.9932C36.8736 72.9932 37.5696 73.1372 38.1336 73.4252C38.6976 73.7012 39.1356 74.0792 39.4476 74.5592C39.7716 75.0272 39.9756 75.5552 40.0596 76.1432L38.0976 76.2512C38.0376 75.9152 37.9176 75.6272 37.7376 75.3872C37.5696 75.1352 37.3416 74.9432 37.0536 74.8112C36.7656 74.6672 36.4236 74.5952 36.0276 74.5952C35.4156 74.5952 34.9596 74.7152 34.6596 74.9552C34.3596 75.1952 34.2096 75.5072 34.2096 75.8912C34.2096 76.1792 34.2756 76.4132 34.4076 76.5932C34.5516 76.7732 34.7796 76.9232 35.0916 77.0432C35.4036 77.1512 35.8176 77.2472 36.3336 77.3312C37.3296 77.4992 38.1096 77.7092 38.6736 77.9612C39.2376 78.2012 39.6336 78.5012 39.8616 78.8612C40.0896 79.2212 40.2036 79.6592 40.2036 80.1752C40.2036 80.7752 40.0356 81.2852 39.6996 81.7052C39.3636 82.1252 38.9016 82.4492 38.3136 82.6772C37.7256 82.8932 37.0476 83.0012 36.2796 83.0012ZM41.9545 82.7852V70.0052H43.8625V75.3692L43.6285 75.3332C43.7365 74.7932 43.9345 74.3552 44.2225 74.0192C44.5105 73.6712 44.8645 73.4132 45.2845 73.2452C45.7045 73.0772 46.1665 72.9932 46.6705 72.9932C47.3665 72.9932 47.9545 73.1492 48.4345 73.4612C48.9145 73.7612 49.2745 74.1872 49.5145 74.7392C49.7665 75.2912 49.8925 75.9212 49.8925 76.6292V82.7852H47.9845V77.1332C47.9845 76.2692 47.8345 75.6332 47.5345 75.2252C47.2465 74.8052 46.7905 74.5952 46.1665 74.5952C45.4705 74.5952 44.9125 74.8172 44.4925 75.2612C44.0725 75.6932 43.8625 76.3292 43.8625 77.1692V82.7852H41.9545ZM60.2782 82.7852C59.3662 82.7852 58.6942 82.5752 58.2622 82.1552C57.8302 81.7352 57.6142 81.0812 57.6142 80.1932V70.9592H59.5222V80.0492C59.5222 80.4932 59.6182 80.7992 59.8102 80.9672C60.0022 81.1352 60.2962 81.2192 60.6922 81.2192H62.0602V82.7852H60.2782ZM56.1562 74.7752V73.2092H62.0602V74.7752H56.1562ZM66.3329 83.0012C65.3369 83.0012 64.5389 82.7732 63.9389 82.3172C63.3509 81.8612 63.0569 81.2192 63.0569 80.3912C63.0569 79.5632 63.3029 78.9212 63.7949 78.4652C64.2989 77.9972 65.0729 77.6612 66.1169 77.4572L69.4109 76.8272C69.4109 76.0832 69.2369 75.5312 68.8889 75.1712C68.5409 74.7992 68.0249 74.6132 67.3409 74.6132C66.7289 74.6132 66.2489 74.7512 65.9009 75.0272C65.5529 75.2912 65.3129 75.6872 65.1809 76.2152L63.2189 76.0892C63.3989 75.1292 63.8429 74.3732 64.5509 73.8212C65.2709 73.2692 66.2009 72.9932 67.3409 72.9932C68.6369 72.9932 69.6209 73.3412 70.2929 74.0372C70.9769 74.7212 71.3189 75.6872 71.3189 76.9352V80.6612C71.3189 80.8892 71.3549 81.0512 71.4269 81.1472C71.5109 81.2312 71.6429 81.2732 71.8229 81.2732H72.1649V82.7852C72.1049 82.7972 72.0089 82.8092 71.8769 82.8212C71.7449 82.8332 71.6069 82.8392 71.4629 82.8392C71.0549 82.8392 70.7009 82.7732 70.4009 82.6412C70.1129 82.5092 69.8969 82.2932 69.7529 81.9932C69.6089 81.6812 69.5369 81.2672 69.5369 80.7512L69.7349 80.8412C69.6389 81.2612 69.4289 81.6332 69.1049 81.9572C68.7929 82.2812 68.3909 82.5392 67.8989 82.7312C67.4189 82.9112 66.8969 83.0012 66.3329 83.0012ZM66.6389 81.4892C67.2149 81.4892 67.7069 81.3812 68.1149 81.1652C68.5229 80.9372 68.8409 80.6252 69.0689 80.2292C69.2969 79.8332 69.4109 79.3832 69.4109 78.8792V78.2672L66.6029 78.8072C66.0269 78.9152 65.6189 79.0892 65.3789 79.3292C65.1509 79.5572 65.0369 79.8512 65.0369 80.2112C65.0369 80.6192 65.1749 80.9372 65.4509 81.1652C65.7389 81.3812 66.1349 81.4892 66.6389 81.4892ZM73.5959 85.4852V73.2092H75.3959L75.4499 75.2612L75.2339 75.1532C75.4739 74.4452 75.8699 73.9112 76.4219 73.5512C76.9739 73.1792 77.6099 72.9932 78.3299 72.9932C79.2659 72.9932 80.0339 73.2272 80.6339 73.6952C81.2459 74.1512 81.6959 74.7572 81.9839 75.5132C82.2839 76.2692 82.4339 77.0972 82.4339 77.9972C82.4339 78.8972 82.2839 79.7252 81.9839 80.4812C81.6959 81.2372 81.2459 81.8492 80.6339 82.3172C80.0339 82.7732 79.2659 83.0012 78.3299 83.0012C77.8499 83.0012 77.3999 82.9172 76.9799 82.7492C76.5599 82.5812 76.1999 82.3472 75.8999 82.0472C75.6119 81.7352 75.4079 81.3692 75.2879 80.9492L75.5039 80.7332V85.4852H73.5959ZM77.9879 81.3452C78.7559 81.3452 79.3559 81.0512 79.7879 80.4632C80.2319 79.8752 80.4539 79.0532 80.4539 77.9972C80.4539 76.9412 80.2319 76.1192 79.7879 75.5312C79.3559 74.9432 78.7559 74.6492 77.9879 74.6492C77.4839 74.6492 77.0459 74.7752 76.6739 75.0272C76.3019 75.2672 76.0139 75.6392 75.8099 76.1432C75.6059 76.6472 75.5039 77.2652 75.5039 77.9972C75.5039 78.7292 75.5999 79.3472 75.7919 79.8512C75.9959 80.3552 76.2839 80.7332 76.6559 80.9852C77.0399 81.2252 77.4839 81.3452 77.9879 81.3452ZM87.8812 83.0012C86.9812 83.0012 86.2192 82.8632 85.5952 82.5872C84.9832 82.3112 84.5092 81.9332 84.1732 81.4532C83.8372 80.9612 83.6452 80.3972 83.5972 79.7612L85.5592 79.6712C85.6552 80.1992 85.8832 80.6192 86.2432 80.9312C86.6032 81.2432 87.1492 81.3992 87.8812 81.3992C88.4812 81.3992 88.9552 81.3032 89.3032 81.1112C89.6512 80.9192 89.8252 80.6132 89.8252 80.1932C89.8252 79.9652 89.7652 79.7732 89.6452 79.6172C89.5372 79.4492 89.3212 79.3112 88.9972 79.2032C88.6732 79.0832 88.1932 78.9692 87.5572 78.8612C86.6092 78.6812 85.8652 78.4712 85.3252 78.2312C84.7852 77.9912 84.4012 77.6852 84.1732 77.3132C83.9452 76.9412 83.8312 76.4912 83.8312 75.9632C83.8312 75.0872 84.1552 74.3732 84.8032 73.8212C85.4632 73.2692 86.4112 72.9932 87.6472 72.9932C88.4752 72.9932 89.1712 73.1372 89.7352 73.4252C90.2992 73.7012 90.7372 74.0792 91.0492 74.5592C91.3732 75.0272 91.5772 75.5552 91.6612 76.1432L89.6992 76.2512C89.6392 75.9152 89.5192 75.6272 89.3392 75.3872C89.1712 75.1352 88.9432 74.9432 88.6552 74.8112C88.3672 74.6672 88.0252 74.5952 87.6292 74.5952C87.0172 74.5952 86.5612 74.7152 86.2612 74.9552C85.9612 75.1952 85.8112 75.5072 85.8112 75.8912C85.8112 76.1792 85.8772 76.4132 86.0092 76.5932C86.1532 76.7732 86.3812 76.9232 86.6932 77.0432C87.0052 77.1512 87.4192 77.2472 87.9352 77.3312C88.9312 77.4992 89.7112 77.7092 90.2752 77.9612C90.8392 78.2012 91.2352 78.5012 91.4632 78.8612C91.6912 79.2212 91.8052 79.6592 91.8052 80.1752C91.8052 80.7752 91.6372 81.2852 91.3012 81.7052C90.9652 82.1252 90.5032 82.4492 89.9152 82.6772C89.3272 82.8932 88.6492 83.0012 87.8812 83.0012Z" fill="#333333"/>
<path d="M103.624 69.7172L102.724 72.5432H103.732V74.8112H101.392V72.8132L102.526 69.7172H103.624ZM106.9 69.7172L106 72.5432H106.99V74.8112H104.668V72.8132L105.802 69.7172H106.9ZM113.766 83.0732C112.746 83.0732 111.858 82.8872 111.102 82.5152C110.358 82.1432 109.77 81.6272 109.338 80.9672C108.906 80.3072 108.654 79.5392 108.582 78.6632L110.58 78.5372C110.664 79.1372 110.838 79.6472 111.102 80.0672C111.366 80.4752 111.72 80.7872 112.164 81.0032C112.62 81.2072 113.166 81.3092 113.802 81.3092C114.354 81.3092 114.822 81.2432 115.206 81.1112C115.602 80.9672 115.902 80.7572 116.106 80.4812C116.31 80.2052 116.412 79.8692 116.412 79.4732C116.412 79.1132 116.322 78.7952 116.142 78.5192C115.974 78.2312 115.644 77.9732 115.152 77.7452C114.672 77.5052 113.964 77.2712 113.028 77.0432C112.008 76.7912 111.192 76.5152 110.58 76.2152C109.968 75.9152 109.524 75.5432 109.248 75.0992C108.984 74.6432 108.852 74.0852 108.852 73.4252C108.852 72.6932 109.026 72.0512 109.374 71.4992C109.734 70.9352 110.244 70.4972 110.904 70.1852C111.564 69.8732 112.356 69.7172 113.28 69.7172C114.252 69.7172 115.08 69.8972 115.764 70.2572C116.46 70.6172 117.006 71.1092 117.402 71.7332C117.81 72.3572 118.062 73.0712 118.158 73.8752L116.16 73.9832C116.1 73.4912 115.95 73.0592 115.71 72.6872C115.47 72.3032 115.146 72.0092 114.738 71.8052C114.33 71.5892 113.832 71.4812 113.244 71.4812C112.5 71.4812 111.912 71.6552 111.48 72.0032C111.06 72.3392 110.85 72.7892 110.85 73.3532C110.85 73.7132 110.934 74.0192 111.102 74.2712C111.282 74.5112 111.594 74.7212 112.038 74.9012C112.494 75.0812 113.136 75.2732 113.964 75.4772C115.068 75.7292 115.944 76.0412 116.592 76.4132C117.252 76.7732 117.72 77.1992 117.996 77.6912C118.272 78.1832 118.41 78.7412 118.41 79.3652C118.41 80.1212 118.212 80.7812 117.816 81.3452C117.432 81.8972 116.892 82.3232 116.196 82.6232C115.5 82.9232 114.69 83.0732 113.766 83.0732ZM124.71 83.0012C123.774 83.0012 122.964 82.7972 122.28 82.3892C121.608 81.9812 121.086 81.3992 120.714 80.6432C120.354 79.8872 120.174 79.0052 120.174 77.9972C120.174 76.9892 120.354 76.1132 120.714 75.3692C121.086 74.6132 121.608 74.0312 122.28 73.6232C122.952 73.2032 123.744 72.9932 124.656 72.9932C125.52 72.9932 126.282 73.1972 126.942 73.6052C127.602 74.0012 128.112 74.5772 128.472 75.3332C128.844 76.0892 129.03 77.0012 129.03 78.0692V78.5552H122.154C122.202 79.4912 122.448 80.1932 122.892 80.6612C123.348 81.1292 123.96 81.3632 124.728 81.3632C125.292 81.3632 125.76 81.2312 126.132 80.9672C126.504 80.7032 126.762 80.3492 126.906 79.9052L128.886 80.0312C128.634 80.9192 128.136 81.6392 127.392 82.1912C126.66 82.7312 125.766 83.0012 124.71 83.0012ZM122.154 77.1152H127.014C126.954 76.2632 126.708 75.6332 126.276 75.2252C125.856 74.8172 125.316 74.6132 124.656 74.6132C123.972 74.6132 123.408 74.8292 122.964 75.2612C122.532 75.6812 122.262 76.2992 122.154 77.1152ZM132.959 82.7852C132.335 82.7852 131.831 82.6232 131.447 82.2992C131.063 81.9752 130.871 81.4592 130.871 80.7512V70.0052H132.779V80.5712C132.779 80.7872 132.833 80.9492 132.941 81.0572C133.061 81.1652 133.229 81.2192 133.445 81.2192H134.201V82.7852H132.959ZM139.59 83.0012C138.654 83.0012 137.844 82.7972 137.16 82.3892C136.488 81.9812 135.966 81.3992 135.594 80.6432C135.234 79.8872 135.054 79.0052 135.054 77.9972C135.054 76.9892 135.234 76.1132 135.594 75.3692C135.966 74.6132 136.488 74.0312 137.16 73.6232C137.832 73.2032 138.624 72.9932 139.536 72.9932C140.4 72.9932 141.162 73.1972 141.822 73.6052C142.482 74.0012 142.992 74.5772 143.352 75.3332C143.724 76.0892 143.91 77.0012 143.91 78.0692V78.5552H137.034C137.082 79.4912 137.328 80.1932 137.772 80.6612C138.228 81.1292 138.84 81.3632 139.608 81.3632C140.172 81.3632 140.64 81.2312 141.012 80.9672C141.384 80.7032 141.642 80.3492 141.786 79.9052L143.766 80.0312C143.514 80.9192 143.016 81.6392 142.272 82.1912C141.54 82.7312 140.646 83.0012 139.59 83.0012ZM137.034 77.1152H141.894C141.834 76.2632 141.588 75.6332 141.156 75.2252C140.736 74.8172 140.196 74.6132 139.536 74.6132C138.852 74.6132 138.288 74.8292 137.844 75.2612C137.412 75.6812 137.142 76.2992 137.034 77.1152ZM149.605 83.0012C148.693 83.0012 147.895 82.7972 147.211 82.3892C146.527 81.9812 145.999 81.3992 145.627 80.6432C145.255 79.8872 145.069 79.0052 145.069 77.9972C145.069 76.9892 145.255 76.1132 145.627 75.3692C145.999 74.6132 146.527 74.0312 147.211 73.6232C147.895 73.2032 148.693 72.9932 149.605 72.9932C150.385 72.9932 151.075 73.1312 151.675 73.4072C152.287 73.6712 152.779 74.0612 153.151 74.5772C153.535 75.0932 153.781 75.7232 153.889 76.4672L151.891 76.5752C151.795 75.9512 151.543 75.4772 151.135 75.1532C150.727 74.8172 150.217 74.6492 149.605 74.6492C148.801 74.6492 148.171 74.9492 147.715 75.5492C147.271 76.1372 147.049 76.9532 147.049 77.9972C147.049 79.0412 147.271 79.8632 147.715 80.4632C148.171 81.0512 148.801 81.3452 149.605 81.3452C150.217 81.3452 150.727 81.1772 151.135 80.8412C151.543 80.4932 151.795 79.9712 151.891 79.2752L153.889 79.3832C153.781 80.1152 153.535 80.7512 153.151 81.2912C152.779 81.8312 152.287 82.2512 151.675 82.5512C151.075 82.8512 150.385 83.0012 149.605 83.0012ZM158.771 82.7852C157.859 82.7852 157.187 82.5752 156.755 82.1552C156.323 81.7352 156.107 81.0812 156.107 80.1932V70.9592H158.015V80.0492C158.015 80.4932 158.111 80.7992 158.303 80.9672C158.495 81.1352 158.789 81.2192 159.185 81.2192H160.553V82.7852H158.771ZM154.649 74.7752V73.2092H160.553V74.7752H154.649ZM166.696 82.7852V70.0052H174.994V71.7872H167.614L168.64 70.7252V76.5932L167.614 75.6752H174.67V77.4032H167.614L168.64 76.4852V82.7852H166.696ZM176.707 82.7852V73.2092H178.615V82.7852H176.707ZM176.671 71.8232V69.9152H178.651V71.8232H176.671ZM183.08 82.7852C182.456 82.7852 181.952 82.6232 181.568 82.2992C181.184 81.9752 180.992 81.4592 180.992 80.7512V70.0052H182.9V80.5712C182.9 80.7872 182.954 80.9492 183.062 81.0572C183.182 81.1652 183.35 81.2192 183.566 81.2192H184.322V82.7852H183.08ZM189.711 83.0012C188.775 83.0012 187.965 82.7972 187.281 82.3892C186.609 81.9812 186.087 81.3992 185.715 80.6432C185.355 79.8872 185.175 79.0052 185.175 77.9972C185.175 76.9892 185.355 76.1132 185.715 75.3692C186.087 74.6132 186.609 74.0312 187.281 73.6232C187.953 73.2032 188.745 72.9932 189.657 72.9932C190.521 72.9932 191.283 73.1972 191.943 73.6052C192.603 74.0012 193.113 74.5772 193.473 75.3332C193.845 76.0892 194.031 77.0012 194.031 78.0692V78.5552H187.155C187.203 79.4912 187.449 80.1932 187.893 80.6612C188.349 81.1292 188.961 81.3632 189.729 81.3632C190.293 81.3632 190.761 81.2312 191.133 80.9672C191.505 80.7032 191.763 80.3492 191.907 79.9052L193.887 80.0312C193.635 80.9192 193.137 81.6392 192.393 82.1912C191.661 82.7312 190.767 83.0012 189.711 83.0012ZM187.155 77.1152H192.015C191.955 76.2632 191.709 75.6332 191.277 75.2252C190.857 74.8172 190.317 74.6132 189.657 74.6132C188.973 74.6132 188.409 74.8292 187.965 75.2612C187.533 75.6812 187.263 76.2992 187.155 77.1152ZM199.474 83.0012C198.574 83.0012 197.812 82.8632 197.188 82.5872C196.576 82.3112 196.102 81.9332 195.766 81.4532C195.43 80.9612 195.238 80.3972 195.19 79.7612L197.152 79.6712C197.248 80.1992 197.476 80.6192 197.836 80.9312C198.196 81.2432 198.742 81.3992 199.474 81.3992C200.074 81.3992 200.548 81.3032 200.896 81.1112C201.244 80.9192 201.418 80.6132 201.418 80.1932C201.418 79.9652 201.358 79.7732 201.238 79.6172C201.13 79.4492 200.914 79.3112 200.59 79.2032C200.266 79.0832 199.786 78.9692 199.15 78.8612C198.202 78.6812 197.458 78.4712 196.918 78.2312C196.378 77.9912 195.994 77.6852 195.766 77.3132C195.538 76.9412 195.424 76.4912 195.424 75.9632C195.424 75.0872 195.748 74.3732 196.396 73.8212C197.056 73.2692 198.004 72.9932 199.24 72.9932C200.068 72.9932 200.764 73.1372 201.328 73.4252C201.892 73.7012 202.33 74.0792 202.642 74.5592C202.966 75.0272 203.17 75.5552 203.254 76.1432L201.292 76.2512C201.232 75.9152 201.112 75.6272 200.932 75.3872C200.764 75.1352 200.536 74.9432 200.248 74.8112C199.96 74.6672 199.618 74.5952 199.222 74.5952C198.61 74.5952 198.154 74.7152 197.854 74.9552C197.554 75.1952 197.404 75.5072 197.404 75.8912C197.404 76.1792 197.47 76.4132 197.602 76.5932C197.746 76.7732 197.974 76.9232 198.286 77.0432C198.598 77.1512 199.012 77.2472 199.528 77.3312C200.524 77.4992 201.304 77.7092 201.868 77.9612C202.432 78.2012 202.828 78.5012 203.056 78.8612C203.284 79.2212 203.398 79.6592 203.398 80.1752C203.398 80.7752 203.23 81.2852 202.894 81.7052C202.558 82.1252 202.096 82.4492 201.508 82.6772C200.92 82.8932 200.242 83.0012 199.474 83.0012ZM208.133 75.0992L209.033 72.2732H208.043V70.0052H210.365V72.0032L209.231 75.0992H208.133ZM204.857 75.0992L205.757 72.2732H204.767V70.0052H207.089V72.0032L205.955 75.0992H204.857Z" fill="#333333"/>
</svg>
