<svg width="217" height="154" viewBox="0 0 217 154" fill="none" xmlns="http://www.w3.org/2000/svg">
<path d="M109.4 19L118.47 0L96.5303 0L105.6 19H109.4ZM106.156 153.346C106.898 154.088 108.102 154.088 108.844 153.346L120.935 141.255C121.677 140.513 121.677 139.31 120.935 138.568C120.193 137.826 118.99 137.826 118.248 138.568L107.5 149.316L96.752 138.568C96.01 137.826 94.807 137.826 94.065 138.568C93.323 139.31 93.323 140.513 94.065 141.255L106.156 153.346ZM107.5 17.1H105.6L105.6 152.003H107.5H109.4L109.4 17.1H107.5Z" fill="#5CC05E"/>
<rect x="1" y="48.7812" width="214.6" height="46" rx="15" fill="white"/>
<rect x="1" y="48.7812" width="214.6" height="46" rx="15" stroke="#DDDDDD" stroke-width="2"/>
<path d="M16.374 77.7812V72.6512L11.892 65.0012H14.124L17.346 70.7072L20.586 65.0012H22.818L18.318 72.6512V77.7812H16.374ZM25.3969 77.9973C24.4009 77.9973 23.6029 77.7692 23.0029 77.3132C22.4149 76.8572 22.1209 76.2152 22.1209 75.3872C22.1209 74.5592 22.3669 73.9172 22.8589 73.4612C23.3629 72.9932 24.1369 72.6572 25.1809 72.4532L28.4749 71.8232C28.4749 71.0792 28.3009 70.5272 27.9529 70.1672C27.6049 69.7952 27.0889 69.6092 26.4049 69.6092C25.7929 69.6092 25.3129 69.7472 24.9649 70.0232C24.6169 70.2872 24.3769 70.6832 24.2449 71.2112L22.2829 71.0852C22.4629 70.1252 22.9069 69.3692 23.6149 68.8172C24.3349 68.2652 25.2649 67.9892 26.4049 67.9892C27.7009 67.9892 28.6849 68.3372 29.3569 69.0332C30.0409 69.7172 30.3829 70.6832 30.3829 71.9312V75.6572C30.3829 75.8852 30.4189 76.0472 30.4909 76.1432C30.5749 76.2272 30.7069 76.2692 30.8869 76.2692H31.2289V77.7812C31.1689 77.7933 31.0729 77.8053 30.9409 77.8173C30.8089 77.8293 30.6709 77.8353 30.5269 77.8353C30.1189 77.8353 29.7649 77.7692 29.4649 77.6372C29.1769 77.5052 28.9609 77.2892 28.8169 76.9892C28.6729 76.6772 28.6009 76.2632 28.6009 75.7472L28.7989 75.8372C28.7029 76.2572 28.4929 76.6292 28.1689 76.9532C27.8569 77.2772 27.4549 77.5352 26.9629 77.7272C26.4829 77.9073 25.9609 77.9973 25.3969 77.9973ZM25.7029 76.4852C26.2789 76.4852 26.7709 76.3772 27.1789 76.1612C27.5869 75.9332 27.9049 75.6212 28.1329 75.2252C28.3609 74.8292 28.4749 74.3792 28.4749 73.8752V73.2632L25.6669 73.8032C25.0909 73.9112 24.6829 74.0852 24.4429 74.3252C24.2149 74.5532 24.1009 74.8472 24.1009 75.2072C24.1009 75.6152 24.2389 75.9332 24.5149 76.1612C24.8029 76.3772 25.1989 76.4852 25.7029 76.4852ZM36.2796 77.9973C35.3796 77.9973 34.6176 77.8592 33.9936 77.5832C33.3816 77.3072 32.9076 76.9292 32.5716 76.4492C32.2356 75.9572 32.0436 75.3932 31.9956 74.7572L33.9576 74.6672C34.0536 75.1952 34.2816 75.6152 34.6416 75.9272C35.0016 76.2392 35.5476 76.3952 36.2796 76.3952C36.8796 76.3952 37.3536 76.2992 37.7016 76.1072C38.0496 75.9152 38.2236 75.6092 38.2236 75.1892C38.2236 74.9612 38.1636 74.7692 38.0436 74.6132C37.9356 74.4452 37.7196 74.3072 37.3956 74.1992C37.0716 74.0792 36.5916 73.9652 35.9556 73.8572C35.0076 73.6772 34.2636 73.4672 33.7236 73.2272C33.1836 72.9872 32.7996 72.6812 32.5716 72.3092C32.3436 71.9372 32.2296 71.4872 32.2296 70.9592C32.2296 70.0832 32.5536 69.3692 33.2016 68.8172C33.8616 68.2652 34.8096 67.9892 36.0456 67.9892C36.8736 67.9892 37.5696 68.1332 38.1336 68.4212C38.6976 68.6972 39.1356 69.0752 39.4476 69.5552C39.7716 70.0232 39.9756 70.5512 40.0596 71.1392L38.0976 71.2472C38.0376 70.9112 37.9176 70.6232 37.7376 70.3832C37.5696 70.1312 37.3416 69.9392 37.0536 69.8072C36.7656 69.6632 36.4236 69.5912 36.0276 69.5912C35.4156 69.5912 34.9596 69.7112 34.6596 69.9512C34.3596 70.1912 34.2096 70.5032 34.2096 70.8872C34.2096 71.1752 34.2756 71.4092 34.4076 71.5892C34.5516 71.7692 34.7796 71.9192 35.0916 72.0392C35.4036 72.1472 35.8176 72.2432 36.3336 72.3272C37.3296 72.4952 38.1096 72.7052 38.6736 72.9572C39.2376 73.1972 39.6336 73.4972 39.8616 73.8572C40.0896 74.2172 40.2036 74.6552 40.2036 75.1712C40.2036 75.7712 40.0356 76.2812 39.6996 76.7012C39.3636 77.1212 38.9016 77.4452 38.3136 77.6732C37.7256 77.8893 37.0476 77.9973 36.2796 77.9973ZM41.9545 77.7812V65.0012H43.8625V70.3652L43.6285 70.3292C43.7365 69.7892 43.9345 69.3512 44.2225 69.0152C44.5105 68.6672 44.8645 68.4092 45.2845 68.2412C45.7045 68.0732 46.1665 67.9892 46.6705 67.9892C47.3665 67.9892 47.9545 68.1452 48.4345 68.4572C48.9145 68.7572 49.2745 69.1832 49.5145 69.7352C49.7665 70.2872 49.8925 70.9172 49.8925 71.6252V77.7812H47.9845V72.1292C47.9845 71.2652 47.8345 70.6292 47.5345 70.2212C47.2465 69.8012 46.7905 69.5912 46.1665 69.5912C45.4705 69.5912 44.9125 69.8132 44.4925 70.2572C44.0725 70.6892 43.8625 71.3252 43.8625 72.1652V77.7812H41.9545ZM60.2782 77.7812C59.3662 77.7812 58.6942 77.5712 58.2622 77.1512C57.8302 76.7312 57.6142 76.0772 57.6142 75.1892V65.9552H59.5222V75.0452C59.5222 75.4892 59.6182 75.7952 59.8102 75.9632C60.0022 76.1312 60.2962 76.2152 60.6922 76.2152H62.0602V77.7812H60.2782ZM56.1562 69.7712V68.2052H62.0602V69.7712H56.1562ZM66.3329 77.9973C65.3369 77.9973 64.5389 77.7692 63.9389 77.3132C63.3509 76.8572 63.0569 76.2152 63.0569 75.3872C63.0569 74.5592 63.3029 73.9172 63.7949 73.4612C64.2989 72.9932 65.0729 72.6572 66.1169 72.4532L69.4109 71.8232C69.4109 71.0792 69.2369 70.5272 68.8889 70.1672C68.5409 69.7952 68.0249 69.6092 67.3409 69.6092C66.7289 69.6092 66.2489 69.7472 65.9009 70.0232C65.5529 70.2872 65.3129 70.6832 65.1809 71.2112L63.2189 71.0852C63.3989 70.1252 63.8429 69.3692 64.5509 68.8172C65.2709 68.2652 66.2009 67.9892 67.3409 67.9892C68.6369 67.9892 69.6209 68.3372 70.2929 69.0332C70.9769 69.7172 71.3189 70.6832 71.3189 71.9312V75.6572C71.3189 75.8852 71.3549 76.0472 71.4269 76.1432C71.5109 76.2272 71.6429 76.2692 71.8229 76.2692H72.1649V77.7812C72.1049 77.7933 72.0089 77.8053 71.8769 77.8173C71.7449 77.8293 71.6069 77.8353 71.4629 77.8353C71.0549 77.8353 70.7009 77.7692 70.4009 77.6372C70.1129 77.5052 69.8969 77.2892 69.7529 76.9892C69.6089 76.6772 69.5369 76.2632 69.5369 75.7472L69.7349 75.8372C69.6389 76.2572 69.4289 76.6292 69.1049 76.9532C68.7929 77.2772 68.3909 77.5352 67.8989 77.7272C67.4189 77.9073 66.8969 77.9973 66.3329 77.9973ZM66.6389 76.4852C67.2149 76.4852 67.7069 76.3772 68.1149 76.1612C68.5229 75.9332 68.8409 75.6212 69.0689 75.2252C69.2969 74.8292 69.4109 74.3792 69.4109 73.8752V73.2632L66.6029 73.8032C66.0269 73.9112 65.6189 74.0852 65.3789 74.3252C65.1509 74.5532 65.0369 74.8472 65.0369 75.2072C65.0369 75.6152 65.1749 75.9332 65.4509 76.1612C65.7389 76.3772 66.1349 76.4852 66.6389 76.4852ZM73.5959 80.4813V68.2052H75.3959L75.4499 70.2572L75.2339 70.1492C75.4739 69.4412 75.8699 68.9072 76.4219 68.5472C76.9739 68.1752 77.6099 67.9892 78.3299 67.9892C79.2659 67.9892 80.0339 68.2232 80.6339 68.6913C81.2459 69.1472 81.6959 69.7532 81.9839 70.5092C82.2839 71.2652 82.4339 72.0932 82.4339 72.9932C82.4339 73.8932 82.2839 74.7212 81.9839 75.4772C81.6959 76.2332 81.2459 76.8452 80.6339 77.3132C80.0339 77.7692 79.2659 77.9973 78.3299 77.9973C77.8499 77.9973 77.3999 77.9133 76.9799 77.7452C76.5599 77.5772 76.1999 77.3432 75.8999 77.0432C75.6119 76.7312 75.4079 76.3652 75.2879 75.9452L75.5039 75.7292V80.4813H73.5959ZM77.9879 76.3412C78.7559 76.3412 79.3559 76.0472 79.7879 75.4592C80.2319 74.8712 80.4539 74.0492 80.4539 72.9932C80.4539 71.9372 80.2319 71.1152 79.7879 70.5272C79.3559 69.9392 78.7559 69.6452 77.9879 69.6452C77.4839 69.6452 77.0459 69.7712 76.6739 70.0232C76.3019 70.2632 76.0139 70.6352 75.8099 71.1392C75.6059 71.6432 75.5039 72.2612 75.5039 72.9932C75.5039 73.7252 75.5999 74.3432 75.7919 74.8472C75.9959 75.3512 76.2839 75.7292 76.6559 75.9812C77.0399 76.2212 77.4839 76.3412 77.9879 76.3412ZM87.8812 77.9973C86.9812 77.9973 86.2192 77.8592 85.5952 77.5832C84.9832 77.3072 84.5092 76.9292 84.1732 76.4492C83.8372 75.9572 83.6452 75.3932 83.5972 74.7572L85.5592 74.6672C85.6552 75.1952 85.8832 75.6152 86.2432 75.9272C86.6032 76.2392 87.1492 76.3952 87.8812 76.3952C88.4812 76.3952 88.9552 76.2992 89.3032 76.1072C89.6512 75.9152 89.8252 75.6092 89.8252 75.1892C89.8252 74.9612 89.7652 74.7692 89.6452 74.6132C89.5372 74.4452 89.3212 74.3072 88.9972 74.1992C88.6732 74.0792 88.1932 73.9652 87.5572 73.8572C86.6092 73.6772 85.8652 73.4672 85.3252 73.2272C84.7852 72.9872 84.4012 72.6812 84.1732 72.3092C83.9452 71.9372 83.8312 71.4872 83.8312 70.9592C83.8312 70.0832 84.1552 69.3692 84.8032 68.8172C85.4632 68.2652 86.4112 67.9892 87.6472 67.9892C88.4752 67.9892 89.1712 68.1332 89.7352 68.4212C90.2992 68.6972 90.7372 69.0752 91.0492 69.5552C91.3732 70.0232 91.5772 70.5512 91.6612 71.1392L89.6992 71.2472C89.6392 70.9112 89.5192 70.6232 89.3392 70.3832C89.1712 70.1312 88.9432 69.9392 88.6552 69.8072C88.3672 69.6632 88.0252 69.5912 87.6292 69.5912C87.0172 69.5912 86.5612 69.7112 86.2612 69.9512C85.9612 70.1912 85.8112 70.5032 85.8112 70.8872C85.8112 71.1752 85.8772 71.4092 86.0092 71.5892C86.1532 71.7692 86.3812 71.9192 86.6932 72.0392C87.0052 72.1472 87.4192 72.2432 87.9352 72.3272C88.9312 72.4952 89.7112 72.7052 90.2752 72.9572C90.8392 73.1972 91.2352 73.4972 91.4632 73.8572C91.6912 74.2172 91.8052 74.6552 91.8052 75.1712C91.8052 75.7712 91.6372 76.2812 91.3012 76.7012C90.9652 77.1212 90.5032 77.4452 89.9152 77.6732C89.3272 77.8893 88.6492 77.9973 87.8812 77.9973Z" fill="#333333"/>
<path d="M103.624 64.7132L102.724 67.5392H103.732V69.8072H101.392V67.8092L102.526 64.7132H103.624ZM106.9 64.7132L106 67.5392H106.99V69.8072H104.668V67.8092L105.802 64.7132H106.9ZM109.158 77.7812V65.0012H113.928C115.392 65.0012 116.532 65.3552 117.348 66.0632C118.164 66.7592 118.572 67.7312 118.572 68.9792C118.572 69.8072 118.386 70.5272 118.014 71.1392C117.642 71.7392 117.108 72.2012 116.412 72.5252C115.728 72.8372 114.9 72.9932 113.928 72.9932H111.102V77.7812H109.158ZM111.102 71.2292H113.874C114.75 71.2292 115.416 71.0432 115.872 70.6712C116.328 70.2872 116.556 69.7232 116.556 68.9792C116.556 68.2472 116.328 67.7012 115.872 67.3412C115.416 66.9692 114.75 66.7832 113.874 66.7832H111.102V71.2292ZM124.042 77.9973C123.106 77.9973 122.296 77.7932 121.612 77.3852C120.94 76.9772 120.418 76.3952 120.046 75.6392C119.686 74.8832 119.506 74.0012 119.506 72.9932C119.506 71.9852 119.686 71.1092 120.046 70.3652C120.418 69.6092 120.94 69.0272 121.612 68.6192C122.284 68.1992 123.076 67.9892 123.988 67.9892C124.852 67.9892 125.614 68.1932 126.274 68.6012C126.934 68.9972 127.444 69.5732 127.804 70.3292C128.176 71.0852 128.362 71.9972 128.362 73.0652V73.5512H121.486C121.534 74.4872 121.78 75.1892 122.224 75.6572C122.68 76.1252 123.292 76.3592 124.06 76.3592C124.624 76.3592 125.092 76.2272 125.464 75.9632C125.836 75.6992 126.094 75.3452 126.238 74.9012L128.218 75.0272C127.966 75.9152 127.468 76.6352 126.724 77.1873C125.992 77.7273 125.098 77.9973 124.042 77.9973ZM121.486 72.1112H126.346C126.286 71.2592 126.04 70.6292 125.608 70.2212C125.188 69.8132 124.648 69.6092 123.988 69.6092C123.304 69.6092 122.74 69.8252 122.296 70.2572C121.864 70.6772 121.594 71.2952 121.486 72.1112ZM130.115 77.7812V68.2052H131.861L131.933 70.7612L131.699 70.6352C131.807 70.0112 132.011 69.5072 132.311 69.1232C132.611 68.7392 132.977 68.4572 133.409 68.2773C133.841 68.0852 134.309 67.9892 134.813 67.9892C135.533 67.9892 136.127 68.1512 136.595 68.4752C137.075 68.7872 137.435 69.2192 137.675 69.7712C137.927 70.3112 138.053 70.9292 138.053 71.6252V77.7812H136.145V72.2012C136.145 71.6372 136.085 71.1632 135.965 70.7792C135.845 70.3952 135.647 70.1012 135.371 69.8972C135.095 69.6932 134.735 69.5912 134.291 69.5912C133.619 69.5912 133.073 69.8132 132.653 70.2572C132.233 70.7012 132.023 71.3492 132.023 72.2012V77.7812H130.115ZM144.301 77.9973C143.389 77.9973 142.591 77.7932 141.907 77.3852C141.223 76.9772 140.695 76.3952 140.323 75.6392C139.951 74.8832 139.765 74.0012 139.765 72.9932C139.765 71.9852 139.951 71.1092 140.323 70.3652C140.695 69.6092 141.223 69.0272 141.907 68.6192C142.591 68.1992 143.389 67.9892 144.301 67.9892C145.081 67.9892 145.771 68.1272 146.371 68.4032C146.983 68.6672 147.475 69.0572 147.847 69.5732C148.231 70.0892 148.477 70.7192 148.585 71.4632L146.587 71.5712C146.491 70.9472 146.239 70.4732 145.831 70.1492C145.423 69.8132 144.913 69.6452 144.301 69.6452C143.497 69.6452 142.867 69.9452 142.411 70.5452C141.967 71.1332 141.745 71.9492 141.745 72.9932C141.745 74.0372 141.967 74.8592 142.411 75.4592C142.867 76.0472 143.497 76.3412 144.301 76.3412C144.913 76.3412 145.423 76.1732 145.831 75.8372C146.239 75.4892 146.491 74.9672 146.587 74.2712L148.585 74.3792C148.477 75.1112 148.231 75.7472 147.847 76.2872C147.475 76.8272 146.983 77.2472 146.371 77.5472C145.771 77.8472 145.081 77.9973 144.301 77.9973ZM150.146 77.7812V68.2052H152.054V77.7812H150.146ZM150.11 66.8192V64.9112H152.09V66.8192H150.11ZM156.519 77.7812C155.895 77.7812 155.391 77.6192 155.007 77.2952C154.623 76.9712 154.431 76.4552 154.431 75.7472V65.0012H156.339V75.5672C156.339 75.7832 156.393 75.9452 156.501 76.0532C156.621 76.1612 156.789 76.2152 157.005 76.2152H157.761V77.7812H156.519ZM163.726 77.7812V65.0012H165.67V77.7812H163.726ZM172.159 77.9973C171.247 77.9973 170.449 77.7932 169.765 77.3852C169.081 76.9772 168.553 76.3952 168.181 75.6392C167.809 74.8832 167.623 74.0012 167.623 72.9932C167.623 71.9852 167.809 71.1092 168.181 70.3652C168.553 69.6092 169.081 69.0272 169.765 68.6192C170.449 68.1992 171.247 67.9892 172.159 67.9892C172.939 67.9892 173.629 68.1272 174.229 68.4032C174.841 68.6672 175.333 69.0572 175.705 69.5732C176.089 70.0892 176.335 70.7192 176.443 71.4632L174.445 71.5712C174.349 70.9472 174.097 70.4732 173.689 70.1492C173.281 69.8132 172.771 69.6452 172.159 69.6452C171.355 69.6452 170.725 69.9452 170.269 70.5452C169.825 71.1332 169.603 71.9492 169.603 72.9932C169.603 74.0372 169.825 74.8592 170.269 75.4592C170.725 76.0472 171.355 76.3412 172.159 76.3412C172.771 76.3412 173.281 76.1732 173.689 75.8372C174.097 75.4892 174.349 74.9672 174.445 74.2712L176.443 74.3792C176.335 75.1112 176.089 75.7472 175.705 76.2872C175.333 76.8272 174.841 77.2472 174.229 77.5472C173.629 77.8472 172.939 77.9973 172.159 77.9973ZM181.946 77.9973C181.034 77.9973 180.236 77.7932 179.552 77.3852C178.868 76.9772 178.34 76.3952 177.968 75.6392C177.596 74.8832 177.41 74.0012 177.41 72.9932C177.41 71.9732 177.596 71.0912 177.968 70.3472C178.34 69.6032 178.868 69.0272 179.552 68.6192C180.236 68.1992 181.034 67.9892 181.946 67.9892C182.858 67.9892 183.656 68.1992 184.34 68.6192C185.024 69.0272 185.552 69.6032 185.924 70.3472C186.296 71.0912 186.482 71.9732 186.482 72.9932C186.482 74.0012 186.296 74.8832 185.924 75.6392C185.552 76.3952 185.024 76.9772 184.34 77.3852C183.656 77.7932 182.858 77.9973 181.946 77.9973ZM181.946 76.3412C182.762 76.3412 183.392 76.0472 183.836 75.4592C184.28 74.8592 184.502 74.0372 184.502 72.9932C184.502 71.9492 184.28 71.1332 183.836 70.5452C183.392 69.9452 182.762 69.6452 181.946 69.6452C181.142 69.6452 180.512 69.9452 180.056 70.5452C179.612 71.1332 179.39 71.9492 179.39 72.9932C179.39 74.0372 179.612 74.8592 180.056 75.4592C180.512 76.0472 181.142 76.3412 181.946 76.3412ZM188.23 77.7812V68.2052H189.976L190.048 70.7612L189.814 70.6352C189.922 70.0112 190.126 69.5072 190.426 69.1232C190.726 68.7392 191.092 68.4572 191.524 68.2773C191.956 68.0852 192.424 67.9892 192.928 67.9892C193.648 67.9892 194.242 68.1512 194.71 68.4752C195.19 68.7872 195.55 69.2192 195.79 69.7712C196.042 70.3112 196.168 70.9292 196.168 71.6252V77.7812H194.26V72.2012C194.26 71.6372 194.2 71.1632 194.08 70.7792C193.96 70.3952 193.762 70.1012 193.486 69.8972C193.21 69.6932 192.85 69.5912 192.406 69.5912C191.734 69.5912 191.188 69.8132 190.768 70.2572C190.348 70.7012 190.138 71.3492 190.138 72.2012V77.7812H188.23ZM201.493 70.0952L202.393 67.2692H201.403V65.0012H203.725V66.9992L202.591 70.0952H201.493ZM198.217 70.0952L199.117 67.2692H198.127V65.0012H200.449V66.9992L199.315 70.0952H198.217Z" fill="#333333"/>
</svg>
