<svg width="230" height="154" viewBox="0 0 230 154" fill="none" xmlns="http://www.w3.org/2000/svg">
<path d="M116.4 19L125.47 0L103.53 0L112.6 19H116.4ZM113.156 153.346C113.898 154.088 115.102 154.088 115.844 153.346L127.935 141.255C128.677 140.513 128.677 139.31 127.935 138.568C127.193 137.826 125.99 137.826 125.248 138.568L114.5 149.316L103.752 138.568C103.01 137.826 101.807 137.826 101.065 138.568C100.323 139.31 100.323 140.513 101.065 141.255L113.156 153.346ZM114.5 17.1H112.6L112.6 152.003H114.5H116.4L116.4 17.1H114.5Z" fill="#5CC05E"/>
<rect x="1" y="51.5156" width="227.6" height="50" rx="15" fill="white"/>
<rect x="1" y="51.5156" width="227.6" height="50" rx="15" stroke="#DDDDDD" stroke-width="2"/>
<path d="M16.374 82.5156V77.3856L11.892 69.7356H14.124L17.346 75.4416L20.586 69.7356H22.818L18.318 77.3856V82.5156H16.374ZM25.5769 82.7316C24.5809 82.7316 23.7829 82.5036 23.1829 82.0476C22.5949 81.5916 22.3009 80.9496 22.3009 80.1216C22.3009 79.2936 22.5469 78.6516 23.0389 78.1956C23.5429 77.7276 24.3169 77.3916 25.3609 77.1876L28.6549 76.5576C28.6549 75.8136 28.4809 75.2616 28.1329 74.9016C27.7849 74.5296 27.2689 74.3436 26.5849 74.3436C25.9729 74.3436 25.4929 74.4816 25.1449 74.7576C24.7969 75.0216 24.5569 75.4176 24.4249 75.9456L22.4629 75.8196C22.6429 74.8596 23.0869 74.1036 23.7949 73.5516C24.5149 72.9996 25.4449 72.7236 26.5849 72.7236C27.8809 72.7236 28.8649 73.0716 29.5369 73.7676C30.2209 74.4516 30.5629 75.4176 30.5629 76.6656V80.3916C30.5629 80.6196 30.5989 80.7816 30.6709 80.8776C30.7549 80.9616 30.8869 81.0036 31.0669 81.0036H31.4089V82.5156C31.3489 82.5276 31.2529 82.5396 31.1209 82.5516C30.9889 82.5636 30.8509 82.5696 30.7069 82.5696C30.2989 82.5696 29.9449 82.5036 29.6449 82.3716C29.3569 82.2396 29.1409 82.0236 28.9969 81.7236C28.8529 81.4116 28.7809 80.9976 28.7809 80.4816L28.9789 80.5716C28.8829 80.9916 28.6729 81.3636 28.3489 81.6876C28.0369 82.0116 27.6349 82.2696 27.1429 82.4616C26.6629 82.6416 26.1409 82.7316 25.5769 82.7316ZM25.8829 81.2196C26.4589 81.2196 26.9509 81.1116 27.3589 80.8956C27.7669 80.6676 28.0849 80.3556 28.3129 79.9596C28.5409 79.5636 28.6549 79.1136 28.6549 78.6096V77.9976L25.8469 78.5376C25.2709 78.6456 24.8629 78.8196 24.6229 79.0596C24.3949 79.2876 24.2809 79.5816 24.2809 79.9416C24.2809 80.3496 24.4189 80.6676 24.6949 80.8956C24.9829 81.1116 25.3789 81.2196 25.8829 81.2196ZM36.6396 82.7316C35.7396 82.7316 34.9776 82.5936 34.3536 82.3176C33.7416 82.0416 33.2676 81.6636 32.9316 81.1836C32.5956 80.6916 32.4036 80.1276 32.3556 79.4916L34.3176 79.4016C34.4136 79.9296 34.6416 80.3496 35.0016 80.6616C35.3616 80.9736 35.9076 81.1296 36.6396 81.1296C37.2396 81.1296 37.7136 81.0336 38.0616 80.8416C38.4096 80.6496 38.5836 80.3436 38.5836 79.9236C38.5836 79.6956 38.5236 79.5036 38.4036 79.3476C38.2956 79.1796 38.0796 79.0416 37.7556 78.9336C37.4316 78.8136 36.9516 78.6996 36.3156 78.5916C35.3676 78.4116 34.6236 78.2016 34.0836 77.9616C33.5436 77.7216 33.1596 77.4156 32.9316 77.0436C32.7036 76.6716 32.5896 76.2216 32.5896 75.6936C32.5896 74.8176 32.9136 74.1036 33.5616 73.5516C34.2216 72.9996 35.1696 72.7236 36.4056 72.7236C37.2336 72.7236 37.9296 72.8676 38.4936 73.1556C39.0576 73.4316 39.4956 73.8096 39.8076 74.2896C40.1316 74.7576 40.3356 75.2856 40.4196 75.8736L38.4576 75.9816C38.3976 75.6456 38.2776 75.3576 38.0976 75.1176C37.9296 74.8656 37.7016 74.6736 37.4136 74.5416C37.1256 74.3976 36.7836 74.3256 36.3876 74.3256C35.7756 74.3256 35.3196 74.4456 35.0196 74.6856C34.7196 74.9256 34.5696 75.2376 34.5696 75.6216C34.5696 75.9096 34.6356 76.1436 34.7676 76.3236C34.9116 76.5036 35.1396 76.6536 35.4516 76.7736C35.7636 76.8816 36.1776 76.9776 36.6936 77.0616C37.6896 77.2296 38.4696 77.4396 39.0336 77.6916C39.5976 77.9316 39.9936 78.2316 40.2216 78.5916C40.4496 78.9516 40.5636 79.3896 40.5636 79.9056C40.5636 80.5056 40.3956 81.0156 40.0596 81.4356C39.7236 81.8556 39.2616 82.1796 38.6736 82.4076C38.0856 82.6236 37.4076 82.7316 36.6396 82.7316ZM42.4945 82.5156V69.7356H44.4025V75.0996L44.1685 75.0636C44.2765 74.5236 44.4745 74.0856 44.7625 73.7496C45.0505 73.4016 45.4045 73.1436 45.8245 72.9756C46.2445 72.8076 46.7065 72.7236 47.2105 72.7236C47.9065 72.7236 48.4945 72.8796 48.9745 73.1916C49.4545 73.4916 49.8145 73.9176 50.0545 74.4696C50.3065 75.0216 50.4325 75.6516 50.4325 76.3596V82.5156H48.5245V76.8636C48.5245 75.9996 48.3745 75.3636 48.0745 74.9556C47.7865 74.5356 47.3305 74.3256 46.7065 74.3256C46.0105 74.3256 45.4525 74.5476 45.0325 74.9916C44.6125 75.4236 44.4025 76.0596 44.4025 76.8996V82.5156H42.4945ZM61.1783 82.5156C60.2663 82.5156 59.5943 82.3056 59.1623 81.8856C58.7303 81.4656 58.5143 80.8116 58.5143 79.9236V70.6896H60.4223V79.7796C60.4223 80.2236 60.5183 80.5296 60.7103 80.6976C60.9023 80.8656 61.1963 80.9496 61.5923 80.9496H62.9603V82.5156H61.1783ZM57.0563 74.5056V72.9396H62.9603V74.5056H57.0563ZM67.4129 82.7316C66.4169 82.7316 65.6189 82.5036 65.0189 82.0476C64.4309 81.5916 64.1369 80.9496 64.1369 80.1216C64.1369 79.2936 64.3829 78.6516 64.8749 78.1956C65.3789 77.7276 66.1529 77.3916 67.1969 77.1876L70.4909 76.5576C70.4909 75.8136 70.3169 75.2616 69.9689 74.9016C69.6209 74.5296 69.1049 74.3436 68.4209 74.3436C67.8089 74.3436 67.3289 74.4816 66.9809 74.7576C66.6329 75.0216 66.3929 75.4176 66.2609 75.9456L64.2989 75.8196C64.4789 74.8596 64.9229 74.1036 65.6309 73.5516C66.3509 72.9996 67.2809 72.7236 68.4209 72.7236C69.7169 72.7236 70.7009 73.0716 71.3729 73.7676C72.0569 74.4516 72.3989 75.4176 72.3989 76.6656V80.3916C72.3989 80.6196 72.4349 80.7816 72.5069 80.8776C72.5909 80.9616 72.7229 81.0036 72.9029 81.0036H73.2449V82.5156C73.1849 82.5276 73.0889 82.5396 72.9569 82.5516C72.8249 82.5636 72.6869 82.5696 72.5429 82.5696C72.1349 82.5696 71.7809 82.5036 71.4809 82.3716C71.1929 82.2396 70.9769 82.0236 70.8329 81.7236C70.6889 81.4116 70.6169 80.9976 70.6169 80.4816L70.8149 80.5716C70.7189 80.9916 70.5089 81.3636 70.1849 81.6876C69.8729 82.0116 69.4709 82.2696 68.9789 82.4616C68.4989 82.6416 67.9769 82.7316 67.4129 82.7316ZM67.7189 81.2196C68.2949 81.2196 68.7869 81.1116 69.1949 80.8956C69.6029 80.6676 69.9209 80.3556 70.1489 79.9596C70.3769 79.5636 70.4909 79.1136 70.4909 78.6096V77.9976L67.6829 78.5376C67.1069 78.6456 66.6989 78.8196 66.4589 79.0596C66.2309 79.2876 66.1169 79.5816 66.1169 79.9416C66.1169 80.3496 66.2549 80.6676 66.5309 80.8956C66.8189 81.1116 67.2149 81.2196 67.7189 81.2196ZM74.8559 85.2156V72.9396H76.6559L76.7099 74.9916L76.4939 74.8836C76.7339 74.1756 77.1299 73.6416 77.6819 73.2816C78.2339 72.9096 78.8699 72.7236 79.5899 72.7236C80.5259 72.7236 81.2939 72.9576 81.8939 73.4256C82.5059 73.8816 82.9559 74.4876 83.2439 75.2436C83.5439 75.9996 83.6939 76.8276 83.6939 77.7276C83.6939 78.6276 83.5439 79.4556 83.2439 80.2116C82.9559 80.9676 82.5059 81.5796 81.8939 82.0476C81.2939 82.5036 80.5259 82.7316 79.5899 82.7316C79.1099 82.7316 78.6599 82.6476 78.2399 82.4796C77.8199 82.3116 77.4599 82.0776 77.1599 81.7776C76.8719 81.4656 76.6679 81.0996 76.5479 80.6796L76.7639 80.4636V85.2156H74.8559ZM79.2479 81.0756C80.0159 81.0756 80.6159 80.7816 81.0479 80.1936C81.4919 79.6056 81.7139 78.7836 81.7139 77.7276C81.7139 76.6716 81.4919 75.8496 81.0479 75.2616C80.6159 74.6736 80.0159 74.3796 79.2479 74.3796C78.7439 74.3796 78.3059 74.5056 77.9339 74.7576C77.5619 74.9976 77.2739 75.3696 77.0699 75.8736C76.8659 76.3776 76.7639 76.9956 76.7639 77.7276C76.7639 78.4596 76.8599 79.0776 77.0519 79.5816C77.2559 80.0856 77.5439 80.4636 77.9159 80.7156C78.2999 80.9556 78.7439 81.0756 79.2479 81.0756ZM89.3213 82.7316C88.4213 82.7316 87.6593 82.5936 87.0353 82.3176C86.4233 82.0416 85.9493 81.6636 85.6133 81.1836C85.2773 80.6916 85.0853 80.1276 85.0373 79.4916L86.9993 79.4016C87.0953 79.9296 87.3233 80.3496 87.6833 80.6616C88.0433 80.9736 88.5893 81.1296 89.3213 81.1296C89.9213 81.1296 90.3953 81.0336 90.7433 80.8416C91.0913 80.6496 91.2653 80.3436 91.2653 79.9236C91.2653 79.6956 91.2053 79.5036 91.0853 79.3476C90.9773 79.1796 90.7613 79.0416 90.4373 78.9336C90.1133 78.8136 89.6333 78.6996 88.9973 78.5916C88.0493 78.4116 87.3053 78.2016 86.7653 77.9616C86.2253 77.7216 85.8413 77.4156 85.6133 77.0436C85.3853 76.6716 85.2713 76.2216 85.2713 75.6936C85.2713 74.8176 85.5953 74.1036 86.2433 73.5516C86.9033 72.9996 87.8513 72.7236 89.0873 72.7236C89.9153 72.7236 90.6113 72.8676 91.1753 73.1556C91.7393 73.4316 92.1773 73.8096 92.4893 74.2896C92.8133 74.7576 93.0173 75.2856 93.1013 75.8736L91.1393 75.9816C91.0793 75.6456 90.9593 75.3576 90.7793 75.1176C90.6113 74.8656 90.3833 74.6736 90.0953 74.5416C89.8073 74.3976 89.4653 74.3256 89.0693 74.3256C88.4573 74.3256 88.0013 74.4456 87.7013 74.6856C87.4013 74.9256 87.2513 75.2376 87.2513 75.6216C87.2513 75.9096 87.3173 76.1436 87.4493 76.3236C87.5933 76.5036 87.8213 76.6536 88.1333 76.7736C88.4453 76.8816 88.8593 76.9776 89.3753 77.0616C90.3713 77.2296 91.1513 77.4396 91.7153 77.6916C92.2793 77.9316 92.6753 78.2316 92.9033 78.5916C93.1313 78.9516 93.2453 79.3896 93.2453 79.9056C93.2453 80.5056 93.0773 81.0156 92.7413 81.4356C92.4053 81.8556 91.9433 82.1796 91.3553 82.4076C90.7673 82.6236 90.0893 82.7316 89.3213 82.7316Z" fill="black"/>
<path d="M105.624 69.4476L104.724 72.2736H105.732V74.5416H103.392V72.5436L104.526 69.4476H105.624ZM108.9 69.4476L108 72.2736H108.99V74.5416H106.668V72.5436L107.802 69.4476H108.9ZM111.338 82.5156V69.7356H116.108C117.572 69.7356 118.712 70.0896 119.528 70.7976C120.344 71.4936 120.752 72.4656 120.752 73.7136C120.752 74.5416 120.566 75.2616 120.194 75.8736C119.822 76.4736 119.288 76.9356 118.592 77.2596C117.908 77.5716 117.08 77.7276 116.108 77.7276H113.282V82.5156H111.338ZM113.282 75.9636H116.054C116.93 75.9636 117.596 75.7776 118.052 75.4056C118.508 75.0216 118.736 74.4576 118.736 73.7136C118.736 72.9816 118.508 72.4356 118.052 72.0756C117.596 71.7036 116.93 71.5176 116.054 71.5176H113.282V75.9636ZM122.811 82.5156V72.9396H124.557L124.629 75.4776L124.467 75.4236C124.599 74.5596 124.863 73.9296 125.259 73.5336C125.667 73.1376 126.213 72.9396 126.897 72.9396H127.815V74.6496H126.897C126.417 74.6496 126.015 74.7276 125.691 74.8836C125.367 75.0396 125.121 75.2796 124.953 75.6036C124.797 75.9276 124.719 76.3476 124.719 76.8636V82.5156H122.811ZM129.386 82.5156V72.9396H131.294V82.5156H129.386ZM129.35 71.5536V69.6456H131.33V71.5536H129.35ZM134.149 82.5156V72.9396H135.895L135.967 75.4956L135.733 75.3696C135.841 74.7456 136.045 74.2416 136.345 73.8576C136.645 73.4736 137.011 73.1916 137.443 73.0116C137.875 72.8196 138.343 72.7236 138.847 72.7236C139.567 72.7236 140.161 72.8856 140.629 73.2096C141.109 73.5216 141.469 73.9536 141.709 74.5056C141.961 75.0456 142.087 75.6636 142.087 76.3596V82.5156H140.179V76.9356C140.179 76.3716 140.119 75.8976 139.999 75.5136C139.879 75.1296 139.681 74.8356 139.405 74.6316C139.129 74.4276 138.769 74.3256 138.325 74.3256C137.653 74.3256 137.107 74.5476 136.687 74.9916C136.267 75.4356 136.057 76.0836 136.057 76.9356V82.5156H134.149ZM147.771 82.5156C146.859 82.5156 146.187 82.3056 145.755 81.8856C145.323 81.4656 145.107 80.8116 145.107 79.9236V70.6896H147.015V79.7796C147.015 80.2236 147.111 80.5296 147.303 80.6976C147.495 80.8656 147.789 80.9496 148.185 80.9496H149.553V82.5156H147.771ZM143.649 74.5056V72.9396H149.553V74.5056H143.649ZM155.57 82.5156C155.57 81.5556 155.714 80.6976 156.002 79.9416C156.29 79.1856 156.782 78.4836 157.478 77.8356C158.174 77.1876 159.134 76.5396 160.358 75.8916C160.946 75.5916 161.414 75.3156 161.762 75.0636C162.122 74.7996 162.38 74.5296 162.536 74.2536C162.692 73.9776 162.77 73.6416 162.77 73.2456C162.77 72.8376 162.68 72.4896 162.5 72.2016C162.332 71.9016 162.08 71.6676 161.744 71.4996C161.408 71.3196 160.982 71.2296 160.466 71.2296C159.65 71.2296 159.002 71.4516 158.522 71.8956C158.054 72.3276 157.76 72.9516 157.64 73.7676L155.624 73.6416C155.768 72.3576 156.254 71.3376 157.082 70.5816C157.922 69.8256 159.05 69.4476 160.466 69.4476C161.378 69.4476 162.152 69.6096 162.788 69.9336C163.436 70.2456 163.928 70.6836 164.264 71.2476C164.612 71.8116 164.786 72.4656 164.786 73.2096C164.786 73.8576 164.678 74.4156 164.462 74.8836C164.246 75.3516 163.886 75.7896 163.382 76.1976C162.878 76.5936 162.194 77.0196 161.33 77.4756C160.226 78.0636 159.392 78.6456 158.828 79.2216C158.264 79.7856 157.964 80.2896 157.928 80.7336H164.786V82.5156H155.57ZM171.771 82.5156V69.7356H180.069V71.5176H172.689L173.715 70.4556V76.3236L172.689 75.4056H179.745V77.1336H172.689L173.715 76.2156V82.5156H171.771ZM181.962 82.5156V72.9396H183.87V82.5156H181.962ZM181.926 71.5536V69.6456H183.906V71.5536H181.926ZM188.515 82.5156C187.891 82.5156 187.387 82.3536 187.003 82.0296C186.619 81.7056 186.427 81.1896 186.427 80.4816V69.7356H188.335V80.3016C188.335 80.5176 188.389 80.6796 188.497 80.7876C188.617 80.8956 188.785 80.9496 189.001 80.9496H189.757V82.5156H188.515ZM195.326 82.7316C194.39 82.7316 193.58 82.5276 192.896 82.1196C192.224 81.7116 191.702 81.1296 191.33 80.3736C190.97 79.6176 190.79 78.7356 190.79 77.7276C190.79 76.7196 190.97 75.8436 191.33 75.0996C191.702 74.3436 192.224 73.7616 192.896 73.3536C193.568 72.9336 194.36 72.7236 195.272 72.7236C196.136 72.7236 196.898 72.9276 197.558 73.3356C198.218 73.7316 198.728 74.3076 199.088 75.0636C199.46 75.8196 199.646 76.7316 199.646 77.7996V78.2856H192.77C192.818 79.2216 193.064 79.9236 193.508 80.3916C193.964 80.8596 194.576 81.0936 195.344 81.0936C195.908 81.0936 196.376 80.9616 196.748 80.6976C197.12 80.4336 197.378 80.0796 197.522 79.6356L199.502 79.7616C199.25 80.6496 198.752 81.3696 198.008 81.9216C197.276 82.4616 196.382 82.7316 195.326 82.7316ZM192.77 76.8456H197.63C197.57 75.9936 197.324 75.3636 196.892 74.9556C196.472 74.5476 195.932 74.3436 195.272 74.3436C194.588 74.3436 194.024 74.5596 193.58 74.9916C193.148 75.4116 192.878 76.0296 192.77 76.8456ZM205.269 82.7316C204.369 82.7316 203.607 82.5936 202.983 82.3176C202.371 82.0416 201.897 81.6636 201.561 81.1836C201.225 80.6916 201.033 80.1276 200.985 79.4916L202.947 79.4016C203.043 79.9296 203.271 80.3496 203.631 80.6616C203.991 80.9736 204.537 81.1296 205.269 81.1296C205.869 81.1296 206.343 81.0336 206.691 80.8416C207.039 80.6496 207.213 80.3436 207.213 79.9236C207.213 79.6956 207.153 79.5036 207.033 79.3476C206.925 79.1796 206.709 79.0416 206.385 78.9336C206.061 78.8136 205.581 78.6996 204.945 78.5916C203.997 78.4116 203.253 78.2016 202.713 77.9616C202.173 77.7216 201.789 77.4156 201.561 77.0436C201.333 76.6716 201.219 76.2216 201.219 75.6936C201.219 74.8176 201.543 74.1036 202.191 73.5516C202.851 72.9996 203.799 72.7236 205.035 72.7236C205.863 72.7236 206.559 72.8676 207.123 73.1556C207.687 73.4316 208.125 73.8096 208.437 74.2896C208.761 74.7576 208.965 75.2856 209.049 75.8736L207.087 75.9816C207.027 75.6456 206.907 75.3576 206.727 75.1176C206.559 74.8656 206.331 74.6736 206.043 74.5416C205.755 74.3976 205.413 74.3256 205.017 74.3256C204.405 74.3256 203.949 74.4456 203.649 74.6856C203.349 74.9256 203.199 75.2376 203.199 75.6216C203.199 75.9096 203.265 76.1436 203.397 76.3236C203.541 76.5036 203.769 76.6536 204.081 76.7736C204.393 76.8816 204.807 76.9776 205.323 77.0616C206.319 77.2296 207.099 77.4396 207.663 77.6916C208.227 77.9316 208.623 78.2316 208.851 78.5916C209.079 78.9516 209.193 79.3896 209.193 79.9056C209.193 80.5056 209.025 81.0156 208.689 81.4356C208.353 81.8556 207.891 82.1796 207.303 82.4076C206.715 82.6236 206.037 82.7316 205.269 82.7316ZM214.108 74.8296L215.008 72.0036H214.018V69.7356H216.34V71.7336L215.206 74.8296H214.108ZM210.832 74.8296L211.732 72.0036H210.742V69.7356H213.064V71.7336L211.93 74.8296H210.832Z" fill="black"/>
</svg>
