<svg width="178" height="154" viewBox="0 0 178 154" fill="none" xmlns="http://www.w3.org/2000/svg">
<path d="M98.9 19L107.97 0L86.0303 0L95.1 19H98.9ZM95.6565 153.346C96.3985 154.088 97.6015 154.088 98.3435 153.346L110.435 141.255C111.177 140.513 111.177 139.31 110.435 138.568C109.693 137.826 108.49 137.826 107.748 138.568L97 149.316L86.252 138.568C85.51 137.826 84.307 137.826 83.565 138.568C82.823 139.31 82.823 140.513 83.565 141.255L95.6565 153.346ZM97 17.1H95.1L95.1 152.003H97H98.9L98.9 17.1H97Z" fill="#5CC05E"/>
<rect x="1" y="49.6133" width="175.6" height="50" rx="15" fill="white"/>
<rect x="1" y="49.6133" width="175.6" height="50" rx="15" stroke="#DDDDDD" stroke-width="2"/>
<path d="M16.374 80.6133V75.4833L11.892 67.8333H14.124L17.346 73.5393L20.586 67.8333H22.818L18.318 75.4833V80.6133H16.374ZM25.5769 80.8293C24.5809 80.8293 23.7829 80.6013 23.1829 80.1453C22.5949 79.6893 22.3009 79.0473 22.3009 78.2193C22.3009 77.3913 22.5469 76.7493 23.0389 76.2933C23.5429 75.8253 24.3169 75.4893 25.3609 75.2853L28.6549 74.6553C28.6549 73.9113 28.4809 73.3593 28.1329 72.9993C27.7849 72.6273 27.2689 72.4413 26.5849 72.4413C25.9729 72.4413 25.4929 72.5793 25.1449 72.8553C24.7969 73.1193 24.5569 73.5153 24.4249 74.0433L22.4629 73.9173C22.6429 72.9573 23.0869 72.2013 23.7949 71.6493C24.5149 71.0973 25.4449 70.8213 26.5849 70.8213C27.8809 70.8213 28.8649 71.1693 29.5369 71.8653C30.2209 72.5493 30.5629 73.5153 30.5629 74.7633V78.4893C30.5629 78.7173 30.5989 78.8793 30.6709 78.9753C30.7549 79.0593 30.8869 79.1013 31.0669 79.1013H31.4089V80.6133C31.3489 80.6253 31.2529 80.6373 31.1209 80.6493C30.9889 80.6613 30.8509 80.6673 30.7069 80.6673C30.2989 80.6673 29.9449 80.6013 29.6449 80.4693C29.3569 80.3373 29.1409 80.1213 28.9969 79.8213C28.8529 79.5093 28.7809 79.0953 28.7809 78.5793L28.9789 78.6693C28.8829 79.0893 28.6729 79.4613 28.3489 79.7853C28.0369 80.1093 27.6349 80.3673 27.1429 80.5593C26.6629 80.7393 26.1409 80.8293 25.5769 80.8293ZM25.8829 79.3173C26.4589 79.3173 26.9509 79.2093 27.3589 78.9933C27.7669 78.7653 28.0849 78.4533 28.3129 78.0573C28.5409 77.6613 28.6549 77.2113 28.6549 76.7073V76.0953L25.8469 76.6353C25.2709 76.7433 24.8629 76.9173 24.6229 77.1573C24.3949 77.3853 24.2809 77.6793 24.2809 78.0393C24.2809 78.4473 24.4189 78.7653 24.6949 78.9933C24.9829 79.2093 25.3789 79.3173 25.8829 79.3173ZM36.6396 80.8293C35.7396 80.8293 34.9776 80.6913 34.3536 80.4153C33.7416 80.1393 33.2676 79.7613 32.9316 79.2813C32.5956 78.7893 32.4036 78.2253 32.3556 77.5893L34.3176 77.4993C34.4136 78.0273 34.6416 78.4473 35.0016 78.7593C35.3616 79.0713 35.9076 79.2273 36.6396 79.2273C37.2396 79.2273 37.7136 79.1313 38.0616 78.9393C38.4096 78.7473 38.5836 78.4413 38.5836 78.0213C38.5836 77.7933 38.5236 77.6013 38.4036 77.4453C38.2956 77.2773 38.0796 77.1393 37.7556 77.0313C37.4316 76.9113 36.9516 76.7973 36.3156 76.6893C35.3676 76.5093 34.6236 76.2993 34.0836 76.0593C33.5436 75.8193 33.1596 75.5133 32.9316 75.1413C32.7036 74.7693 32.5896 74.3193 32.5896 73.7913C32.5896 72.9153 32.9136 72.2013 33.5616 71.6493C34.2216 71.0973 35.1696 70.8213 36.4056 70.8213C37.2336 70.8213 37.9296 70.9653 38.4936 71.2533C39.0576 71.5293 39.4956 71.9073 39.8076 72.3873C40.1316 72.8553 40.3356 73.3833 40.4196 73.9713L38.4576 74.0793C38.3976 73.7433 38.2776 73.4553 38.0976 73.2153C37.9296 72.9633 37.7016 72.7713 37.4136 72.6393C37.1256 72.4953 36.7836 72.4233 36.3876 72.4233C35.7756 72.4233 35.3196 72.5433 35.0196 72.7833C34.7196 73.0233 34.5696 73.3353 34.5696 73.7193C34.5696 74.0073 34.6356 74.2413 34.7676 74.4213C34.9116 74.6013 35.1396 74.7513 35.4516 74.8713C35.7636 74.9793 36.1776 75.0753 36.6936 75.1593C37.6896 75.3273 38.4696 75.5373 39.0336 75.7893C39.5976 76.0293 39.9936 76.3293 40.2216 76.6893C40.4496 77.0493 40.5636 77.4873 40.5636 78.0033C40.5636 78.6033 40.3956 79.1133 40.0596 79.5333C39.7236 79.9533 39.2616 80.2773 38.6736 80.5053C38.0856 80.7213 37.4076 80.8293 36.6396 80.8293ZM42.4945 80.6133V67.8333H44.4025V73.1973L44.1685 73.1613C44.2765 72.6213 44.4745 72.1833 44.7625 71.8473C45.0505 71.4993 45.4045 71.2413 45.8245 71.0733C46.2445 70.9053 46.7065 70.8213 47.2105 70.8213C47.9065 70.8213 48.4945 70.9773 48.9745 71.2893C49.4545 71.5893 49.8145 72.0153 50.0545 72.5673C50.3065 73.1193 50.4325 73.7493 50.4325 74.4573V80.6133H48.5245V74.9613C48.5245 74.0973 48.3745 73.4613 48.0745 73.0533C47.7865 72.6333 47.3305 72.4233 46.7065 72.4233C46.0105 72.4233 45.4525 72.6453 45.0325 73.0893C44.6125 73.5213 44.4025 74.1573 44.4025 74.9973V80.6133H42.4945ZM61.1783 80.6133C60.2663 80.6133 59.5943 80.4033 59.1623 79.9833C58.7303 79.5633 58.5143 78.9093 58.5143 78.0213V68.7873H60.4223V77.8773C60.4223 78.3213 60.5183 78.6273 60.7103 78.7953C60.9023 78.9633 61.1963 79.0473 61.5923 79.0473H62.9603V80.6133H61.1783ZM57.0563 72.6033V71.0373H62.9603V72.6033H57.0563ZM67.4129 80.8293C66.4169 80.8293 65.6189 80.6013 65.0189 80.1453C64.4309 79.6893 64.1369 79.0473 64.1369 78.2193C64.1369 77.3913 64.3829 76.7493 64.8749 76.2933C65.3789 75.8253 66.1529 75.4893 67.1969 75.2853L70.4909 74.6553C70.4909 73.9113 70.3169 73.3593 69.9689 72.9993C69.6209 72.6273 69.1049 72.4413 68.4209 72.4413C67.8089 72.4413 67.3289 72.5793 66.9809 72.8553C66.6329 73.1193 66.3929 73.5153 66.2609 74.0433L64.2989 73.9173C64.4789 72.9573 64.9229 72.2013 65.6309 71.6493C66.3509 71.0973 67.2809 70.8213 68.4209 70.8213C69.7169 70.8213 70.7009 71.1693 71.3729 71.8653C72.0569 72.5493 72.3989 73.5153 72.3989 74.7633V78.4893C72.3989 78.7173 72.4349 78.8793 72.5069 78.9753C72.5909 79.0593 72.7229 79.1013 72.9029 79.1013H73.2449V80.6133C73.1849 80.6253 73.0889 80.6373 72.9569 80.6493C72.8249 80.6613 72.6869 80.6673 72.5429 80.6673C72.1349 80.6673 71.7809 80.6013 71.4809 80.4693C71.1929 80.3373 70.9769 80.1213 70.8329 79.8213C70.6889 79.5093 70.6169 79.0953 70.6169 78.5793L70.8149 78.6693C70.7189 79.0893 70.5089 79.4613 70.1849 79.7853C69.8729 80.1093 69.4709 80.3673 68.9789 80.5593C68.4989 80.7393 67.9769 80.8293 67.4129 80.8293ZM67.7189 79.3173C68.2949 79.3173 68.7869 79.2093 69.1949 78.9933C69.6029 78.7653 69.9209 78.4533 70.1489 78.0573C70.3769 77.6613 70.4909 77.2113 70.4909 76.7073V76.0953L67.6829 76.6353C67.1069 76.7433 66.6989 76.9173 66.4589 77.1573C66.2309 77.3853 66.1169 77.6793 66.1169 78.0393C66.1169 78.4473 66.2549 78.7653 66.5309 78.9933C66.8189 79.2093 67.2149 79.3173 67.7189 79.3173ZM74.8559 83.3133V71.0373H76.6559L76.7099 73.0893L76.4939 72.9813C76.7339 72.2733 77.1299 71.7393 77.6819 71.3793C78.2339 71.0073 78.8699 70.8213 79.5899 70.8213C80.5259 70.8213 81.2939 71.0553 81.8939 71.5233C82.5059 71.9793 82.9559 72.5853 83.2439 73.3413C83.5439 74.0973 83.6939 74.9253 83.6939 75.8253C83.6939 76.7253 83.5439 77.5533 83.2439 78.3093C82.9559 79.0653 82.5059 79.6773 81.8939 80.1453C81.2939 80.6013 80.5259 80.8293 79.5899 80.8293C79.1099 80.8293 78.6599 80.7453 78.2399 80.5773C77.8199 80.4093 77.4599 80.1753 77.1599 79.8753C76.8719 79.5633 76.6679 79.1973 76.5479 78.7773L76.7639 78.5613V83.3133H74.8559ZM79.2479 79.1733C80.0159 79.1733 80.6159 78.8793 81.0479 78.2913C81.4919 77.7033 81.7139 76.8813 81.7139 75.8253C81.7139 74.7693 81.4919 73.9473 81.0479 73.3593C80.6159 72.7713 80.0159 72.4773 79.2479 72.4773C78.7439 72.4773 78.3059 72.6033 77.9339 72.8553C77.5619 73.0953 77.2739 73.4673 77.0699 73.9713C76.8659 74.4753 76.7639 75.0933 76.7639 75.8253C76.7639 76.5573 76.8599 77.1753 77.0519 77.6793C77.2559 78.1833 77.5439 78.5613 77.9159 78.8133C78.2999 79.0533 78.7439 79.1733 79.2479 79.1733ZM89.3213 80.8293C88.4213 80.8293 87.6593 80.6913 87.0353 80.4153C86.4233 80.1393 85.9493 79.7613 85.6133 79.2813C85.2773 78.7893 85.0853 78.2253 85.0373 77.5893L86.9993 77.4993C87.0953 78.0273 87.3233 78.4473 87.6833 78.7593C88.0433 79.0713 88.5893 79.2273 89.3213 79.2273C89.9213 79.2273 90.3953 79.1313 90.7433 78.9393C91.0913 78.7473 91.2653 78.4413 91.2653 78.0213C91.2653 77.7933 91.2053 77.6013 91.0853 77.4453C90.9773 77.2773 90.7613 77.1393 90.4373 77.0313C90.1133 76.9113 89.6333 76.7973 88.9973 76.6893C88.0493 76.5093 87.3053 76.2993 86.7653 76.0593C86.2253 75.8193 85.8413 75.5133 85.6133 75.1413C85.3853 74.7693 85.2713 74.3193 85.2713 73.7913C85.2713 72.9153 85.5953 72.2013 86.2433 71.6493C86.9033 71.0973 87.8513 70.8213 89.0873 70.8213C89.9153 70.8213 90.6113 70.9653 91.1753 71.2533C91.7393 71.5293 92.1773 71.9073 92.4893 72.3873C92.8133 72.8553 93.0173 73.3833 93.1013 73.9713L91.1393 74.0793C91.0793 73.7433 90.9593 73.4553 90.7793 73.2153C90.6113 72.9633 90.3833 72.7713 90.0953 72.6393C89.8073 72.4953 89.4653 72.4233 89.0693 72.4233C88.4573 72.4233 88.0013 72.5433 87.7013 72.7833C87.4013 73.0233 87.2513 73.3353 87.2513 73.7193C87.2513 74.0073 87.3173 74.2413 87.4493 74.4213C87.5933 74.6013 87.8213 74.7513 88.1333 74.8713C88.4453 74.9793 88.8593 75.0753 89.3753 75.1593C90.3713 75.3273 91.1513 75.5373 91.7153 75.7893C92.2793 76.0293 92.6753 76.3293 92.9033 76.6893C93.1313 77.0493 93.2453 77.4873 93.2453 78.0033C93.2453 78.6033 93.0773 79.1133 92.7413 79.5333C92.4053 79.9533 91.9433 80.2773 91.3553 80.5053C90.7673 80.7213 90.0893 80.8293 89.3213 80.8293Z" fill="black"/>
<path d="M105.624 67.5453L104.724 70.3713H105.732V72.6393H103.392V70.6413L104.526 67.5453H105.624ZM108.9 67.5453L108 70.3713H108.99V72.6393H106.668V70.6413L107.802 67.5453H108.9ZM110.15 80.6133L114.758 67.8333H117.224L121.832 80.6133H119.762L118.592 77.2833H113.372L112.22 80.6133H110.15ZM113.984 75.5193H117.998L115.982 69.6873L113.984 75.5193ZM123.198 83.3133V71.0373H124.998L125.052 73.0893L124.836 72.9813C125.076 72.2733 125.472 71.7393 126.024 71.3793C126.576 71.0073 127.212 70.8213 127.932 70.8213C128.868 70.8213 129.636 71.0553 130.236 71.5233C130.848 71.9793 131.298 72.5853 131.586 73.3413C131.886 74.0973 132.036 74.9253 132.036 75.8253C132.036 76.7253 131.886 77.5533 131.586 78.3093C131.298 79.0653 130.848 79.6773 130.236 80.1453C129.636 80.6013 128.868 80.8293 127.932 80.8293C127.452 80.8293 127.002 80.7453 126.582 80.5773C126.162 80.4093 125.802 80.1753 125.502 79.8753C125.214 79.5633 125.01 79.1973 124.89 78.7773L125.106 78.5613V83.3133H123.198ZM127.59 79.1733C128.358 79.1733 128.958 78.8793 129.39 78.2913C129.834 77.7033 130.056 76.8813 130.056 75.8253C130.056 74.7693 129.834 73.9473 129.39 73.3593C128.958 72.7713 128.358 72.4773 127.59 72.4773C127.086 72.4773 126.648 72.6033 126.276 72.8553C125.904 73.0953 125.616 73.4673 125.412 73.9713C125.208 74.4753 125.106 75.0933 125.106 75.8253C125.106 76.5573 125.202 77.1753 125.394 77.6793C125.598 78.1833 125.886 78.5613 126.258 78.8133C126.642 79.0533 127.086 79.1733 127.59 79.1733ZM133.974 83.3133V71.0373H135.774L135.828 73.0893L135.612 72.9813C135.852 72.2733 136.248 71.7393 136.8 71.3793C137.352 71.0073 137.988 70.8213 138.708 70.8213C139.644 70.8213 140.412 71.0553 141.012 71.5233C141.624 71.9793 142.074 72.5853 142.362 73.3413C142.662 74.0973 142.812 74.9253 142.812 75.8253C142.812 76.7253 142.662 77.5533 142.362 78.3093C142.074 79.0653 141.624 79.6773 141.012 80.1453C140.412 80.6013 139.644 80.8293 138.708 80.8293C138.228 80.8293 137.778 80.7453 137.358 80.5773C136.938 80.4093 136.578 80.1753 136.278 79.8753C135.99 79.5633 135.786 79.1973 135.666 78.7773L135.882 78.5613V83.3133H133.974ZM138.366 79.1733C139.134 79.1733 139.734 78.8793 140.166 78.2913C140.61 77.7033 140.832 76.8813 140.832 75.8253C140.832 74.7693 140.61 73.9473 140.166 73.3593C139.734 72.7713 139.134 72.4773 138.366 72.4773C137.862 72.4773 137.424 72.6033 137.052 72.8553C136.68 73.0953 136.392 73.4673 136.188 73.9713C135.984 74.4753 135.882 75.0933 135.882 75.8253C135.882 76.5573 135.978 77.1753 136.17 77.6793C136.374 78.1833 136.662 78.5613 137.034 78.8133C137.418 79.0533 137.862 79.1733 138.366 79.1733ZM146.925 80.6133C146.301 80.6133 145.797 80.4513 145.413 80.1273C145.029 79.8033 144.837 79.2873 144.837 78.5793V67.8333H146.745V78.3993C146.745 78.6153 146.799 78.7773 146.907 78.8853C147.027 78.9933 147.195 79.0473 147.411 79.0473H148.167V80.6133H146.925ZM149.965 83.3133V81.7473H151.135C151.459 81.7473 151.699 81.6993 151.855 81.6033C152.011 81.5073 152.131 81.3453 152.215 81.1173L152.521 80.3253H151.927L148.471 71.0373H150.487L153.115 78.5613L155.617 71.0373H157.651L153.835 81.7293C153.643 82.2813 153.355 82.6833 152.971 82.9353C152.599 83.1873 152.077 83.3133 151.405 83.3133H149.965ZM162.182 72.9273L163.082 70.1013H162.092V67.8333H164.414V69.8313L163.28 72.9273H162.182ZM158.906 72.9273L159.806 70.1013H158.816V67.8333H161.138V69.8313L160.004 72.9273H158.906Z" fill="black"/>
</svg>
