<svg width="212" height="154" viewBox="0 0 212 154" fill="none" xmlns="http://www.w3.org/2000/svg">
<path d="M107.4 19L116.47 0L94.5303 0L103.6 19H107.4ZM104.156 153.346C104.898 154.088 106.102 154.088 106.844 153.346L118.935 141.255C119.677 140.513 119.677 139.31 118.935 138.568C118.193 137.826 116.99 137.826 116.248 138.568L105.5 149.316L94.752 138.568C94.01 137.826 92.807 137.826 92.065 138.568C91.323 139.31 91.323 140.513 92.065 141.255L104.156 153.346ZM105.5 17.1H103.6L103.6 152.003H105.5H107.4L107.4 17.1H105.5Z" fill="#5CC05E"/>
<rect x="1" y="52.7773" width="209.6" height="46" rx="15" fill="white"/>
<rect x="1" y="52.7773" width="209.6" height="46" rx="15" stroke="#DDDDDD" stroke-width="2"/>
<path d="M16.374 81.7773V76.6473L11.892 68.9973H14.124L17.346 74.7033L20.586 68.9973H22.818L18.318 76.6473V81.7773H16.374ZM25.3969 81.9933C24.4009 81.9933 23.6029 81.7653 23.0029 81.3093C22.4149 80.8533 22.1209 80.2113 22.1209 79.3833C22.1209 78.5553 22.3669 77.9133 22.8589 77.4573C23.3629 76.9893 24.1369 76.6533 25.1809 76.4493L28.4749 75.8193C28.4749 75.0753 28.3009 74.5233 27.9529 74.1633C27.6049 73.7913 27.0889 73.6053 26.4049 73.6053C25.7929 73.6053 25.3129 73.7433 24.9649 74.0193C24.6169 74.2833 24.3769 74.6793 24.2449 75.2073L22.2829 75.0813C22.4629 74.1213 22.9069 73.3653 23.6149 72.8133C24.3349 72.2613 25.2649 71.9853 26.4049 71.9853C27.7009 71.9853 28.6849 72.3333 29.3569 73.0293C30.0409 73.7133 30.3829 74.6793 30.3829 75.9273V79.6533C30.3829 79.8813 30.4189 80.0433 30.4909 80.1393C30.5749 80.2233 30.7069 80.2653 30.8869 80.2653H31.2289V81.7773C31.1689 81.7893 31.0729 81.8013 30.9409 81.8133C30.8089 81.8253 30.6709 81.8313 30.5269 81.8313C30.1189 81.8313 29.7649 81.7653 29.4649 81.6333C29.1769 81.5013 28.9609 81.2853 28.8169 80.9853C28.6729 80.6733 28.6009 80.2593 28.6009 79.7433L28.7989 79.8333C28.7029 80.2533 28.4929 80.6253 28.1689 80.9493C27.8569 81.2733 27.4549 81.5313 26.9629 81.7233C26.4829 81.9033 25.9609 81.9933 25.3969 81.9933ZM25.7029 80.4813C26.2789 80.4813 26.7709 80.3733 27.1789 80.1573C27.5869 79.9293 27.9049 79.6173 28.1329 79.2213C28.3609 78.8253 28.4749 78.3753 28.4749 77.8713V77.2593L25.6669 77.7993C25.0909 77.9073 24.6829 78.0813 24.4429 78.3213C24.2149 78.5493 24.1009 78.8433 24.1009 79.2033C24.1009 79.6113 24.2389 79.9293 24.5149 80.1573C24.8029 80.3733 25.1989 80.4813 25.7029 80.4813ZM36.2796 81.9933C35.3796 81.9933 34.6176 81.8553 33.9936 81.5793C33.3816 81.3033 32.9076 80.9253 32.5716 80.4453C32.2356 79.9533 32.0436 79.3893 31.9956 78.7533L33.9576 78.6633C34.0536 79.1913 34.2816 79.6113 34.6416 79.9233C35.0016 80.2353 35.5476 80.3913 36.2796 80.3913C36.8796 80.3913 37.3536 80.2953 37.7016 80.1033C38.0496 79.9113 38.2236 79.6053 38.2236 79.1853C38.2236 78.9573 38.1636 78.7653 38.0436 78.6093C37.9356 78.4413 37.7196 78.3033 37.3956 78.1953C37.0716 78.0753 36.5916 77.9613 35.9556 77.8533C35.0076 77.6733 34.2636 77.4633 33.7236 77.2233C33.1836 76.9833 32.7996 76.6773 32.5716 76.3053C32.3436 75.9333 32.2296 75.4833 32.2296 74.9553C32.2296 74.0793 32.5536 73.3653 33.2016 72.8133C33.8616 72.2613 34.8096 71.9853 36.0456 71.9853C36.8736 71.9853 37.5696 72.1293 38.1336 72.4173C38.6976 72.6933 39.1356 73.0713 39.4476 73.5513C39.7716 74.0193 39.9756 74.5473 40.0596 75.1353L38.0976 75.2433C38.0376 74.9073 37.9176 74.6193 37.7376 74.3793C37.5696 74.1273 37.3416 73.9353 37.0536 73.8033C36.7656 73.6593 36.4236 73.5873 36.0276 73.5873C35.4156 73.5873 34.9596 73.7073 34.6596 73.9473C34.3596 74.1873 34.2096 74.4993 34.2096 74.8833C34.2096 75.1713 34.2756 75.4053 34.4076 75.5853C34.5516 75.7653 34.7796 75.9153 35.0916 76.0353C35.4036 76.1433 35.8176 76.2393 36.3336 76.3233C37.3296 76.4913 38.1096 76.7013 38.6736 76.9533C39.2376 77.1933 39.6336 77.4933 39.8616 77.8533C40.0896 78.2133 40.2036 78.6513 40.2036 79.1673C40.2036 79.7673 40.0356 80.2773 39.6996 80.6973C39.3636 81.1173 38.9016 81.4413 38.3136 81.6693C37.7256 81.8853 37.0476 81.9933 36.2796 81.9933ZM41.9545 81.7773V68.9973H43.8625V74.3613L43.6285 74.3253C43.7365 73.7853 43.9345 73.3473 44.2225 73.0113C44.5105 72.6633 44.8645 72.4053 45.2845 72.2373C45.7045 72.0693 46.1665 71.9853 46.6705 71.9853C47.3665 71.9853 47.9545 72.1413 48.4345 72.4533C48.9145 72.7533 49.2745 73.1793 49.5145 73.7313C49.7665 74.2833 49.8925 74.9133 49.8925 75.6213V81.7773H47.9845V76.1253C47.9845 75.2613 47.8345 74.6253 47.5345 74.2173C47.2465 73.7973 46.7905 73.5873 46.1665 73.5873C45.4705 73.5873 44.9125 73.8093 44.4925 74.2533C44.0725 74.6853 43.8625 75.3213 43.8625 76.1613V81.7773H41.9545ZM60.2782 81.7773C59.3662 81.7773 58.6942 81.5673 58.2622 81.1473C57.8302 80.7273 57.6142 80.0733 57.6142 79.1853V69.9513H59.5222V79.0413C59.5222 79.4853 59.6182 79.7913 59.8102 79.9593C60.0022 80.1273 60.2962 80.2113 60.6922 80.2113H62.0602V81.7773H60.2782ZM56.1562 73.7673V72.2013H62.0602V73.7673H56.1562ZM66.3329 81.9933C65.3369 81.9933 64.5389 81.7653 63.9389 81.3093C63.3509 80.8533 63.0569 80.2113 63.0569 79.3833C63.0569 78.5553 63.3029 77.9133 63.7949 77.4573C64.2989 76.9893 65.0729 76.6533 66.1169 76.4493L69.4109 75.8193C69.4109 75.0753 69.2369 74.5233 68.8889 74.1633C68.5409 73.7913 68.0249 73.6053 67.3409 73.6053C66.7289 73.6053 66.2489 73.7433 65.9009 74.0193C65.5529 74.2833 65.3129 74.6793 65.1809 75.2073L63.2189 75.0813C63.3989 74.1213 63.8429 73.3653 64.5509 72.8133C65.2709 72.2613 66.2009 71.9853 67.3409 71.9853C68.6369 71.9853 69.6209 72.3333 70.2929 73.0293C70.9769 73.7133 71.3189 74.6793 71.3189 75.9273V79.6533C71.3189 79.8813 71.3549 80.0433 71.4269 80.1393C71.5109 80.2233 71.6429 80.2653 71.8229 80.2653H72.1649V81.7773C72.1049 81.7893 72.0089 81.8013 71.8769 81.8133C71.7449 81.8253 71.6069 81.8313 71.4629 81.8313C71.0549 81.8313 70.7009 81.7653 70.4009 81.6333C70.1129 81.5013 69.8969 81.2853 69.7529 80.9853C69.6089 80.6733 69.5369 80.2593 69.5369 79.7433L69.7349 79.8333C69.6389 80.2533 69.4289 80.6253 69.1049 80.9493C68.7929 81.2733 68.3909 81.5313 67.8989 81.7233C67.4189 81.9033 66.8969 81.9933 66.3329 81.9933ZM66.6389 80.4813C67.2149 80.4813 67.7069 80.3733 68.1149 80.1573C68.5229 79.9293 68.8409 79.6173 69.0689 79.2213C69.2969 78.8253 69.4109 78.3753 69.4109 77.8713V77.2593L66.6029 77.7993C66.0269 77.9073 65.6189 78.0813 65.3789 78.3213C65.1509 78.5493 65.0369 78.8433 65.0369 79.2033C65.0369 79.6113 65.1749 79.9293 65.4509 80.1573C65.7389 80.3733 66.1349 80.4813 66.6389 80.4813ZM73.5959 84.4773V72.2013H75.3959L75.4499 74.2533L75.2339 74.1453C75.4739 73.4373 75.8699 72.9033 76.4219 72.5433C76.9739 72.1713 77.6099 71.9853 78.3299 71.9853C79.2659 71.9853 80.0339 72.2193 80.6339 72.6873C81.2459 73.1433 81.6959 73.7493 81.9839 74.5053C82.2839 75.2613 82.4339 76.0893 82.4339 76.9893C82.4339 77.8893 82.2839 78.7173 81.9839 79.4733C81.6959 80.2293 81.2459 80.8413 80.6339 81.3093C80.0339 81.7653 79.2659 81.9933 78.3299 81.9933C77.8499 81.9933 77.3999 81.9093 76.9799 81.7413C76.5599 81.5733 76.1999 81.3393 75.8999 81.0393C75.6119 80.7273 75.4079 80.3613 75.2879 79.9413L75.5039 79.7253V84.4773H73.5959ZM77.9879 80.3373C78.7559 80.3373 79.3559 80.0433 79.7879 79.4553C80.2319 78.8673 80.4539 78.0453 80.4539 76.9893C80.4539 75.9333 80.2319 75.1113 79.7879 74.5233C79.3559 73.9353 78.7559 73.6413 77.9879 73.6413C77.4839 73.6413 77.0459 73.7673 76.6739 74.0193C76.3019 74.2593 76.0139 74.6313 75.8099 75.1353C75.6059 75.6393 75.5039 76.2573 75.5039 76.9893C75.5039 77.7213 75.5999 78.3393 75.7919 78.8433C75.9959 79.3473 76.2839 79.7253 76.6559 79.9773C77.0399 80.2173 77.4839 80.3373 77.9879 80.3373ZM87.8812 81.9933C86.9812 81.9933 86.2192 81.8553 85.5952 81.5793C84.9832 81.3033 84.5092 80.9253 84.1732 80.4453C83.8372 79.9533 83.6452 79.3893 83.5972 78.7533L85.5592 78.6633C85.6552 79.1913 85.8832 79.6113 86.2432 79.9233C86.6032 80.2353 87.1492 80.3913 87.8812 80.3913C88.4812 80.3913 88.9552 80.2953 89.3032 80.1033C89.6512 79.9113 89.8252 79.6053 89.8252 79.1853C89.8252 78.9573 89.7652 78.7653 89.6452 78.6093C89.5372 78.4413 89.3212 78.3033 88.9972 78.1953C88.6732 78.0753 88.1932 77.9613 87.5572 77.8533C86.6092 77.6733 85.8652 77.4633 85.3252 77.2233C84.7852 76.9833 84.4012 76.6773 84.1732 76.3053C83.9452 75.9333 83.8312 75.4833 83.8312 74.9553C83.8312 74.0793 84.1552 73.3653 84.8032 72.8133C85.4632 72.2613 86.4112 71.9853 87.6472 71.9853C88.4752 71.9853 89.1712 72.1293 89.7352 72.4173C90.2992 72.6933 90.7372 73.0713 91.0492 73.5513C91.3732 74.0193 91.5772 74.5473 91.6612 75.1353L89.6992 75.2433C89.6392 74.9073 89.5192 74.6193 89.3392 74.3793C89.1712 74.1273 88.9432 73.9353 88.6552 73.8033C88.3672 73.6593 88.0252 73.5873 87.6292 73.5873C87.0172 73.5873 86.5612 73.7073 86.2612 73.9473C85.9612 74.1873 85.8112 74.4993 85.8112 74.8833C85.8112 75.1713 85.8772 75.4053 86.0092 75.5853C86.1532 75.7653 86.3812 75.9153 86.6932 76.0353C87.0052 76.1433 87.4192 76.2393 87.9352 76.3233C88.9312 76.4913 89.7112 76.7013 90.2752 76.9533C90.8392 77.1933 91.2352 77.4933 91.4632 77.8533C91.6912 78.2133 91.8052 78.6513 91.8052 79.1673C91.8052 79.7673 91.6372 80.2773 91.3012 80.6973C90.9652 81.1173 90.5032 81.4413 89.9152 81.6693C89.3272 81.8853 88.6492 81.9933 87.8812 81.9933Z" fill="#333333"/>
<path d="M103.624 68.7093L102.724 71.5353H103.732V73.8033H101.392V71.8053L102.526 68.7093H103.624ZM106.9 68.7093L106 71.5353H106.99V73.8033H104.668V71.8053L105.802 68.7093H106.9ZM113.856 82.0653C112.848 82.0653 111.966 81.8733 111.21 81.4893C110.466 81.0933 109.89 80.5353 109.482 79.8153C109.086 79.0953 108.888 78.2433 108.888 77.2593V68.9793H110.832V77.2593C110.832 78.2313 111.096 78.9813 111.624 79.5093C112.152 80.0253 112.896 80.2833 113.856 80.2833C114.816 80.2833 115.56 80.0253 116.088 79.5093C116.616 78.9813 116.88 78.2313 116.88 77.2593V68.9793H118.824V77.2593C118.824 78.2433 118.62 79.0953 118.212 79.8153C117.816 80.5353 117.246 81.0933 116.502 81.4893C115.758 81.8733 114.876 82.0653 113.856 82.0653ZM121.278 84.4773V72.2013H123.078L123.132 74.2533L122.916 74.1453C123.156 73.4373 123.552 72.9033 124.104 72.5433C124.656 72.1713 125.292 71.9853 126.012 71.9853C126.948 71.9853 127.716 72.2193 128.316 72.6873C128.928 73.1433 129.378 73.7493 129.666 74.5053C129.966 75.2613 130.116 76.0893 130.116 76.9893C130.116 77.8893 129.966 78.7173 129.666 79.4733C129.378 80.2293 128.928 80.8413 128.316 81.3093C127.716 81.7653 126.948 81.9933 126.012 81.9933C125.532 81.9933 125.082 81.9093 124.662 81.7413C124.242 81.5733 123.882 81.3393 123.582 81.0393C123.294 80.7273 123.09 80.3613 122.97 79.9413L123.186 79.7253V84.4773H121.278ZM125.67 80.3373C126.438 80.3373 127.038 80.0433 127.47 79.4553C127.914 78.8673 128.136 78.0453 128.136 76.9893C128.136 75.9333 127.914 75.1113 127.47 74.5233C127.038 73.9353 126.438 73.6413 125.67 73.6413C125.166 73.6413 124.728 73.7673 124.356 74.0193C123.984 74.2593 123.696 74.6313 123.492 75.1353C123.288 75.6393 123.186 76.2573 123.186 76.9893C123.186 77.7213 123.282 78.3393 123.474 78.8433C123.678 79.3473 123.966 79.7253 124.338 79.9773C124.722 80.2173 125.166 80.3373 125.67 80.3373ZM134.049 81.7773C133.425 81.7773 132.921 81.6153 132.537 81.2913C132.153 80.9673 131.961 80.4513 131.961 79.7433V68.9973H133.869V79.5633C133.869 79.7793 133.923 79.9413 134.031 80.0493C134.151 80.1573 134.319 80.2113 134.535 80.2113H135.291V81.7773H134.049ZM140.68 81.9933C139.768 81.9933 138.97 81.7893 138.286 81.3813C137.602 80.9733 137.074 80.3913 136.702 79.6353C136.33 78.8793 136.144 77.9973 136.144 76.9893C136.144 75.9693 136.33 75.0873 136.702 74.3433C137.074 73.5993 137.602 73.0233 138.286 72.6153C138.97 72.1953 139.768 71.9853 140.68 71.9853C141.592 71.9853 142.39 72.1953 143.074 72.6153C143.758 73.0233 144.286 73.5993 144.658 74.3433C145.03 75.0873 145.216 75.9693 145.216 76.9893C145.216 77.9973 145.03 78.8793 144.658 79.6353C144.286 80.3913 143.758 80.9733 143.074 81.3813C142.39 81.7893 141.592 81.9933 140.68 81.9933ZM140.68 80.3373C141.496 80.3373 142.126 80.0433 142.57 79.4553C143.014 78.8553 143.236 78.0333 143.236 76.9893C143.236 75.9453 143.014 75.1293 142.57 74.5413C142.126 73.9413 141.496 73.6413 140.68 73.6413C139.876 73.6413 139.246 73.9413 138.79 74.5413C138.346 75.1293 138.124 75.9453 138.124 76.9893C138.124 78.0333 138.346 78.8553 138.79 79.4553C139.246 80.0433 139.876 80.3373 140.68 80.3373ZM149.84 81.9933C148.844 81.9933 148.046 81.7653 147.446 81.3093C146.858 80.8533 146.564 80.2113 146.564 79.3833C146.564 78.5553 146.81 77.9133 147.302 77.4573C147.806 76.9893 148.58 76.6533 149.624 76.4493L152.918 75.8193C152.918 75.0753 152.744 74.5233 152.396 74.1633C152.048 73.7913 151.532 73.6053 150.848 73.6053C150.236 73.6053 149.756 73.7433 149.408 74.0193C149.06 74.2833 148.82 74.6793 148.688 75.2073L146.726 75.0813C146.906 74.1213 147.35 73.3653 148.058 72.8133C148.778 72.2613 149.708 71.9853 150.848 71.9853C152.144 71.9853 153.128 72.3333 153.8 73.0293C154.484 73.7133 154.826 74.6793 154.826 75.9273V79.6533C154.826 79.8813 154.862 80.0433 154.934 80.1393C155.018 80.2233 155.15 80.2653 155.33 80.2653H155.672V81.7773C155.612 81.7893 155.516 81.8013 155.384 81.8133C155.252 81.8253 155.114 81.8313 154.97 81.8313C154.562 81.8313 154.208 81.7653 153.908 81.6333C153.62 81.5013 153.404 81.2853 153.26 80.9853C153.116 80.6733 153.044 80.2593 153.044 79.7433L153.242 79.8333C153.146 80.2533 152.936 80.6253 152.612 80.9493C152.3 81.2733 151.898 81.5313 151.406 81.7233C150.926 81.9033 150.404 81.9933 149.84 81.9933ZM150.146 80.4813C150.722 80.4813 151.214 80.3733 151.622 80.1573C152.03 79.9293 152.348 79.6173 152.576 79.2213C152.804 78.8253 152.918 78.3753 152.918 77.8713V77.2593L150.11 77.7993C149.534 77.9073 149.126 78.0813 148.886 78.3213C148.658 78.5493 148.544 78.8433 148.544 79.2033C148.544 79.6113 148.682 79.9293 148.958 80.1573C149.246 80.3733 149.642 80.4813 150.146 80.4813ZM160.434 81.9933C159.618 81.9933 158.904 81.7893 158.292 81.3813C157.692 80.9733 157.23 80.3973 156.906 79.6533C156.594 78.8973 156.438 78.0093 156.438 76.9893C156.438 75.9693 156.6 75.0873 156.924 74.3433C157.248 73.5873 157.71 73.0053 158.31 72.5973C158.91 72.1893 159.618 71.9853 160.434 71.9853C161.094 71.9853 161.682 72.1233 162.198 72.3993C162.714 72.6753 163.104 73.0593 163.368 73.5513V68.9973H165.276V81.7773H163.494L163.44 80.3373C163.176 80.8533 162.774 81.2613 162.234 81.5613C161.706 81.8493 161.106 81.9933 160.434 81.9933ZM160.938 80.3373C161.454 80.3373 161.892 80.2053 162.252 79.9413C162.612 79.6773 162.888 79.2933 163.08 78.7893C163.272 78.2853 163.368 77.6853 163.368 76.9893C163.368 76.2693 163.272 75.6633 163.08 75.1713C162.888 74.6673 162.612 74.2893 162.252 74.0373C161.892 73.7733 161.454 73.6413 160.938 73.6413C160.17 73.6413 159.558 73.9413 159.102 74.5413C158.646 75.1293 158.418 75.9453 158.418 76.9893C158.418 78.0213 158.646 78.8373 159.102 79.4373C159.558 80.0373 160.17 80.3373 160.938 80.3373ZM171.01 81.7773L175.618 68.9973H178.084L182.692 81.7773H180.622L179.452 78.4473H174.232L173.08 81.7773H171.01ZM174.844 76.6833H178.858L176.842 70.8513L174.844 76.6833ZM185.932 81.7773C185.308 81.7773 184.804 81.6153 184.42 81.2913C184.036 80.9673 183.844 80.4513 183.844 79.7433V68.9973H185.752V79.5633C185.752 79.7793 185.806 79.9413 185.914 80.0493C186.034 80.1573 186.202 80.2113 186.418 80.2113H187.174V81.7773H185.932ZM190.656 81.7773C190.032 81.7773 189.528 81.6153 189.144 81.2913C188.76 80.9673 188.568 80.4513 188.568 79.7433V68.9973H190.476V79.5633C190.476 79.7793 190.53 79.9413 190.638 80.0493C190.758 80.1573 190.926 80.2113 191.142 80.2113H191.898V81.7773H190.656ZM196.276 74.0913L197.176 71.2653H196.186V68.9973H198.508V70.9953L197.374 74.0913H196.276ZM193 74.0913L193.9 71.2653H192.91V68.9973H195.232V70.9953L194.098 74.0913H193Z" fill="#333333"/>
</svg>
