<svg width="203" height="154" viewBox="0 0 203 154" fill="none" xmlns="http://www.w3.org/2000/svg">
<path d="M102.4 19L111.47 0L89.5303 0L98.6 19H102.4ZM99.1565 153.346C99.8985 154.088 101.102 154.088 101.844 153.346L113.935 141.255C114.677 140.513 114.677 139.31 113.935 138.568C113.193 137.826 111.99 137.826 111.248 138.568L100.5 149.316L89.752 138.568C89.01 137.826 87.807 137.826 87.065 138.568C86.323 139.31 86.323 140.513 87.065 141.255L99.1565 153.346ZM100.5 17.1H98.6L98.6 152.003H100.5H102.4L102.4 17.1H100.5Z" fill="#5CC05E"/>
<rect x="1" y="51.5078" width="200.6" height="50" rx="15" fill="white"/>
<rect x="1" y="51.5078" width="200.6" height="50" rx="15" stroke="#DDDDDD" stroke-width="2"/>
<path d="M16.374 82.5078V77.3778L11.892 69.7278H14.124L17.346 75.4338L20.586 69.7278H22.818L18.318 77.3778V82.5078H16.374ZM25.5769 82.7238C24.5809 82.7238 23.7829 82.4958 23.1829 82.0398C22.5949 81.5838 22.3009 80.9418 22.3009 80.1138C22.3009 79.2858 22.5469 78.6438 23.0389 78.1878C23.5429 77.7198 24.3169 77.3838 25.3609 77.1798L28.6549 76.5498C28.6549 75.8058 28.4809 75.2538 28.1329 74.8938C27.7849 74.5218 27.2689 74.3358 26.5849 74.3358C25.9729 74.3358 25.4929 74.4738 25.1449 74.7498C24.7969 75.0138 24.5569 75.4098 24.4249 75.9378L22.4629 75.8118C22.6429 74.8518 23.0869 74.0958 23.7949 73.5438C24.5149 72.9918 25.4449 72.7158 26.5849 72.7158C27.8809 72.7158 28.8649 73.0638 29.5369 73.7598C30.2209 74.4438 30.5629 75.4098 30.5629 76.6578V80.3838C30.5629 80.6118 30.5989 80.7738 30.6709 80.8698C30.7549 80.9538 30.8869 80.9958 31.0669 80.9958H31.4089V82.5078C31.3489 82.5198 31.2529 82.5318 31.1209 82.5438C30.9889 82.5558 30.8509 82.5618 30.7069 82.5618C30.2989 82.5618 29.9449 82.4958 29.6449 82.3638C29.3569 82.2318 29.1409 82.0158 28.9969 81.7158C28.8529 81.4038 28.7809 80.9898 28.7809 80.4738L28.9789 80.5638C28.8829 80.9838 28.6729 81.3558 28.3489 81.6798C28.0369 82.0038 27.6349 82.2618 27.1429 82.4538C26.6629 82.6338 26.1409 82.7238 25.5769 82.7238ZM25.8829 81.2118C26.4589 81.2118 26.9509 81.1038 27.3589 80.8878C27.7669 80.6598 28.0849 80.3478 28.3129 79.9518C28.5409 79.5558 28.6549 79.1058 28.6549 78.6018V77.9898L25.8469 78.5298C25.2709 78.6378 24.8629 78.8118 24.6229 79.0518C24.3949 79.2798 24.2809 79.5738 24.2809 79.9338C24.2809 80.3418 24.4189 80.6598 24.6949 80.8878C24.9829 81.1038 25.3789 81.2118 25.8829 81.2118ZM36.6396 82.7238C35.7396 82.7238 34.9776 82.5858 34.3536 82.3098C33.7416 82.0338 33.2676 81.6558 32.9316 81.1758C32.5956 80.6838 32.4036 80.1198 32.3556 79.4838L34.3176 79.3938C34.4136 79.9218 34.6416 80.3418 35.0016 80.6538C35.3616 80.9658 35.9076 81.1218 36.6396 81.1218C37.2396 81.1218 37.7136 81.0258 38.0616 80.8338C38.4096 80.6418 38.5836 80.3358 38.5836 79.9158C38.5836 79.6878 38.5236 79.4958 38.4036 79.3398C38.2956 79.1718 38.0796 79.0338 37.7556 78.9258C37.4316 78.8058 36.9516 78.6918 36.3156 78.5838C35.3676 78.4038 34.6236 78.1938 34.0836 77.9538C33.5436 77.7138 33.1596 77.4078 32.9316 77.0358C32.7036 76.6638 32.5896 76.2138 32.5896 75.6858C32.5896 74.8098 32.9136 74.0958 33.5616 73.5438C34.2216 72.9918 35.1696 72.7158 36.4056 72.7158C37.2336 72.7158 37.9296 72.8598 38.4936 73.1478C39.0576 73.4238 39.4956 73.8018 39.8076 74.2818C40.1316 74.7498 40.3356 75.2778 40.4196 75.8658L38.4576 75.9738C38.3976 75.6378 38.2776 75.3498 38.0976 75.1098C37.9296 74.8578 37.7016 74.6658 37.4136 74.5338C37.1256 74.3898 36.7836 74.3178 36.3876 74.3178C35.7756 74.3178 35.3196 74.4378 35.0196 74.6778C34.7196 74.9178 34.5696 75.2298 34.5696 75.6138C34.5696 75.9018 34.6356 76.1358 34.7676 76.3158C34.9116 76.4958 35.1396 76.6458 35.4516 76.7658C35.7636 76.8738 36.1776 76.9698 36.6936 77.0538C37.6896 77.2218 38.4696 77.4318 39.0336 77.6838C39.5976 77.9238 39.9936 78.2238 40.2216 78.5838C40.4496 78.9438 40.5636 79.3818 40.5636 79.8978C40.5636 80.4978 40.3956 81.0078 40.0596 81.4278C39.7236 81.8478 39.2616 82.1718 38.6736 82.3998C38.0856 82.6158 37.4076 82.7238 36.6396 82.7238ZM42.4945 82.5078V69.7278H44.4025V75.0918L44.1685 75.0558C44.2765 74.5158 44.4745 74.0778 44.7625 73.7418C45.0505 73.3938 45.4045 73.1358 45.8245 72.9678C46.2445 72.7998 46.7065 72.7158 47.2105 72.7158C47.9065 72.7158 48.4945 72.8718 48.9745 73.1838C49.4545 73.4838 49.8145 73.9098 50.0545 74.4618C50.3065 75.0138 50.4325 75.6438 50.4325 76.3518V82.5078H48.5245V76.8558C48.5245 75.9918 48.3745 75.3558 48.0745 74.9478C47.7865 74.5278 47.3305 74.3178 46.7065 74.3178C46.0105 74.3178 45.4525 74.5398 45.0325 74.9838C44.6125 75.4158 44.4025 76.0518 44.4025 76.8918V82.5078H42.4945ZM61.1783 82.5078C60.2663 82.5078 59.5943 82.2978 59.1623 81.8778C58.7303 81.4578 58.5143 80.8038 58.5143 79.9158V70.6818H60.4223V79.7718C60.4223 80.2158 60.5183 80.5218 60.7103 80.6898C60.9023 80.8578 61.1963 80.9418 61.5923 80.9418H62.9603V82.5078H61.1783ZM57.0563 74.4978V72.9318H62.9603V74.4978H57.0563ZM67.4129 82.7238C66.4169 82.7238 65.6189 82.4958 65.0189 82.0398C64.4309 81.5838 64.1369 80.9418 64.1369 80.1138C64.1369 79.2858 64.3829 78.6438 64.8749 78.1878C65.3789 77.7198 66.1529 77.3838 67.1969 77.1798L70.4909 76.5498C70.4909 75.8058 70.3169 75.2538 69.9689 74.8938C69.6209 74.5218 69.1049 74.3358 68.4209 74.3358C67.8089 74.3358 67.3289 74.4738 66.9809 74.7498C66.6329 75.0138 66.3929 75.4098 66.2609 75.9378L64.2989 75.8118C64.4789 74.8518 64.9229 74.0958 65.6309 73.5438C66.3509 72.9918 67.2809 72.7158 68.4209 72.7158C69.7169 72.7158 70.7009 73.0638 71.3729 73.7598C72.0569 74.4438 72.3989 75.4098 72.3989 76.6578V80.3838C72.3989 80.6118 72.4349 80.7738 72.5069 80.8698C72.5909 80.9538 72.7229 80.9958 72.9029 80.9958H73.2449V82.5078C73.1849 82.5198 73.0889 82.5318 72.9569 82.5438C72.8249 82.5558 72.6869 82.5618 72.5429 82.5618C72.1349 82.5618 71.7809 82.4958 71.4809 82.3638C71.1929 82.2318 70.9769 82.0158 70.8329 81.7158C70.6889 81.4038 70.6169 80.9898 70.6169 80.4738L70.8149 80.5638C70.7189 80.9838 70.5089 81.3558 70.1849 81.6798C69.8729 82.0038 69.4709 82.2618 68.9789 82.4538C68.4989 82.6338 67.9769 82.7238 67.4129 82.7238ZM67.7189 81.2118C68.2949 81.2118 68.7869 81.1038 69.1949 80.8878C69.6029 80.6598 69.9209 80.3478 70.1489 79.9518C70.3769 79.5558 70.4909 79.1058 70.4909 78.6018V77.9898L67.6829 78.5298C67.1069 78.6378 66.6989 78.8118 66.4589 79.0518C66.2309 79.2798 66.1169 79.5738 66.1169 79.9338C66.1169 80.3418 66.2549 80.6598 66.5309 80.8878C66.8189 81.1038 67.2149 81.2118 67.7189 81.2118ZM74.8559 85.2078V72.9318H76.6559L76.7099 74.9838L76.4939 74.8758C76.7339 74.1678 77.1299 73.6338 77.6819 73.2738C78.2339 72.9018 78.8699 72.7158 79.5899 72.7158C80.5259 72.7158 81.2939 72.9498 81.8939 73.4178C82.5059 73.8738 82.9559 74.4798 83.2439 75.2358C83.5439 75.9918 83.6939 76.8198 83.6939 77.7198C83.6939 78.6198 83.5439 79.4478 83.2439 80.2038C82.9559 80.9598 82.5059 81.5718 81.8939 82.0398C81.2939 82.4958 80.5259 82.7238 79.5899 82.7238C79.1099 82.7238 78.6599 82.6398 78.2399 82.4718C77.8199 82.3038 77.4599 82.0698 77.1599 81.7698C76.8719 81.4578 76.6679 81.0918 76.5479 80.6718L76.7639 80.4558V85.2078H74.8559ZM79.2479 81.0678C80.0159 81.0678 80.6159 80.7738 81.0479 80.1858C81.4919 79.5978 81.7139 78.7758 81.7139 77.7198C81.7139 76.6638 81.4919 75.8418 81.0479 75.2538C80.6159 74.6658 80.0159 74.3718 79.2479 74.3718C78.7439 74.3718 78.3059 74.4978 77.9339 74.7498C77.5619 74.9898 77.2739 75.3618 77.0699 75.8658C76.8659 76.3698 76.7639 76.9878 76.7639 77.7198C76.7639 78.4518 76.8599 79.0698 77.0519 79.5738C77.2559 80.0778 77.5439 80.4558 77.9159 80.7078C78.2999 80.9478 78.7439 81.0678 79.2479 81.0678ZM89.3213 82.7238C88.4213 82.7238 87.6593 82.5858 87.0353 82.3098C86.4233 82.0338 85.9493 81.6558 85.6133 81.1758C85.2773 80.6838 85.0853 80.1198 85.0373 79.4838L86.9993 79.3938C87.0953 79.9218 87.3233 80.3418 87.6833 80.6538C88.0433 80.9658 88.5893 81.1218 89.3213 81.1218C89.9213 81.1218 90.3953 81.0258 90.7433 80.8338C91.0913 80.6418 91.2653 80.3358 91.2653 79.9158C91.2653 79.6878 91.2053 79.4958 91.0853 79.3398C90.9773 79.1718 90.7613 79.0338 90.4373 78.9258C90.1133 78.8058 89.6333 78.6918 88.9973 78.5838C88.0493 78.4038 87.3053 78.1938 86.7653 77.9538C86.2253 77.7138 85.8413 77.4078 85.6133 77.0358C85.3853 76.6638 85.2713 76.2138 85.2713 75.6858C85.2713 74.8098 85.5953 74.0958 86.2433 73.5438C86.9033 72.9918 87.8513 72.7158 89.0873 72.7158C89.9153 72.7158 90.6113 72.8598 91.1753 73.1478C91.7393 73.4238 92.1773 73.8018 92.4893 74.2818C92.8133 74.7498 93.0173 75.2778 93.1013 75.8658L91.1393 75.9738C91.0793 75.6378 90.9593 75.3498 90.7793 75.1098C90.6113 74.8578 90.3833 74.6658 90.0953 74.5338C89.8073 74.3898 89.4653 74.3178 89.0693 74.3178C88.4573 74.3178 88.0013 74.4378 87.7013 74.6778C87.4013 74.9178 87.2513 75.2298 87.2513 75.6138C87.2513 75.9018 87.3173 76.1358 87.4493 76.3158C87.5933 76.4958 87.8213 76.6458 88.1333 76.7658C88.4453 76.8738 88.8593 76.9698 89.3753 77.0538C90.3713 77.2218 91.1513 77.4318 91.7153 77.6838C92.2793 77.9238 92.6753 78.2238 92.9033 78.5838C93.1313 78.9438 93.2453 79.3818 93.2453 79.8978C93.2453 80.4978 93.0773 81.0078 92.7413 81.4278C92.4053 81.8478 91.9433 82.1718 91.3553 82.3998C90.7673 82.6158 90.0893 82.7238 89.3213 82.7238Z" fill="black"/>
<path d="M105.624 69.4398L104.724 72.2658H105.732V74.5338H103.392V72.5358L104.526 69.4398H105.624ZM108.9 69.4398L108 72.2658H108.99V74.5338H106.668V72.5358L107.802 69.4398H108.9ZM111.338 82.5078V69.7278H116.108C117.572 69.7278 118.712 70.0818 119.528 70.7898C120.344 71.4858 120.752 72.4578 120.752 73.7058C120.752 74.5338 120.566 75.2538 120.194 75.8658C119.822 76.4658 119.288 76.9278 118.592 77.2518C117.908 77.5638 117.08 77.7198 116.108 77.7198H113.282V82.5078H111.338ZM113.282 75.9558H116.054C116.93 75.9558 117.596 75.7698 118.052 75.3978C118.508 75.0138 118.736 74.4498 118.736 73.7058C118.736 72.9738 118.508 72.4278 118.052 72.0678C117.596 71.6958 116.93 71.5098 116.054 71.5098H113.282V75.9558ZM125.247 82.7238C124.251 82.7238 123.453 82.4958 122.853 82.0398C122.265 81.5838 121.971 80.9418 121.971 80.1138C121.971 79.2858 122.217 78.6438 122.709 78.1878C123.213 77.7198 123.987 77.3838 125.031 77.1798L128.325 76.5498C128.325 75.8058 128.151 75.2538 127.803 74.8938C127.455 74.5218 126.939 74.3358 126.255 74.3358C125.643 74.3358 125.163 74.4738 124.815 74.7498C124.467 75.0138 124.227 75.4098 124.095 75.9378L122.133 75.8118C122.313 74.8518 122.757 74.0958 123.465 73.5438C124.185 72.9918 125.115 72.7158 126.255 72.7158C127.551 72.7158 128.535 73.0638 129.207 73.7598C129.891 74.4438 130.233 75.4098 130.233 76.6578V80.3838C130.233 80.6118 130.269 80.7738 130.341 80.8698C130.425 80.9538 130.557 80.9958 130.737 80.9958H131.079V82.5078C131.019 82.5198 130.923 82.5318 130.791 82.5438C130.659 82.5558 130.521 82.5618 130.377 82.5618C129.969 82.5618 129.615 82.4958 129.315 82.3638C129.027 82.2318 128.811 82.0158 128.667 81.7158C128.523 81.4038 128.451 80.9898 128.451 80.4738L128.649 80.5638C128.553 80.9838 128.343 81.3558 128.019 81.6798C127.707 82.0038 127.305 82.2618 126.813 82.4538C126.333 82.6338 125.811 82.7238 125.247 82.7238ZM125.553 81.2118C126.129 81.2118 126.621 81.1038 127.029 80.8878C127.437 80.6598 127.755 80.3478 127.983 79.9518C128.211 79.5558 128.325 79.1058 128.325 78.6018V77.9898L125.517 78.5298C124.941 78.6378 124.533 78.8118 124.293 79.0518C124.065 79.2798 123.951 79.5738 123.951 79.9338C123.951 80.3418 124.089 80.6598 124.365 80.8878C124.653 81.1038 125.049 81.2118 125.553 81.2118ZM132.791 85.2078V83.6418H133.961C134.285 83.6418 134.525 83.5938 134.681 83.4978C134.837 83.4018 134.957 83.2398 135.041 83.0118L135.347 82.2198H134.753L131.297 72.9318H133.313L135.941 80.4558L138.443 72.9318H140.477L136.661 83.6238C136.469 84.1758 136.181 84.5778 135.797 84.8298C135.425 85.0818 134.903 85.2078 134.231 85.2078H132.791ZM146.289 82.5078C146.289 81.5478 146.433 80.6898 146.721 79.9338C147.009 79.1778 147.501 78.4758 148.197 77.8278C148.893 77.1798 149.853 76.5318 151.077 75.8838C151.665 75.5838 152.133 75.3078 152.481 75.0558C152.841 74.7918 153.099 74.5218 153.255 74.2458C153.411 73.9698 153.489 73.6338 153.489 73.2378C153.489 72.8298 153.399 72.4818 153.219 72.1938C153.051 71.8938 152.799 71.6598 152.463 71.4918C152.127 71.3118 151.701 71.2218 151.185 71.2218C150.369 71.2218 149.721 71.4438 149.241 71.8878C148.773 72.3198 148.479 72.9438 148.359 73.7598L146.343 73.6338C146.487 72.3498 146.973 71.3298 147.801 70.5738C148.641 69.8178 149.769 69.4398 151.185 69.4398C152.097 69.4398 152.871 69.6018 153.507 69.9258C154.155 70.2378 154.647 70.6758 154.983 71.2398C155.331 71.8038 155.505 72.4578 155.505 73.2018C155.505 73.8498 155.397 74.4078 155.181 74.8758C154.965 75.3438 154.605 75.7818 154.101 76.1898C153.597 76.5858 152.913 77.0118 152.049 77.4678C150.945 78.0558 150.111 78.6378 149.547 79.2138C148.983 79.7778 148.683 80.2818 148.647 80.7258H155.505V82.5078H146.289ZM157.321 82.5078V80.2398H159.643V82.5078H157.321ZM166.031 82.7958C165.059 82.7958 164.201 82.6518 163.457 82.3638C162.713 82.0758 162.131 81.6498 161.711 81.0858C161.303 80.5218 161.099 79.8318 161.099 79.0158C161.099 78.0798 161.381 77.3058 161.945 76.6938C162.509 76.0818 163.265 75.6738 164.213 75.4698L164.249 75.8298C163.481 75.6498 162.863 75.3198 162.395 74.8398C161.939 74.3598 161.711 73.7298 161.711 72.9498C161.711 72.2658 161.885 71.6598 162.233 71.1318C162.581 70.6038 163.073 70.1898 163.709 69.8898C164.357 69.5898 165.131 69.4398 166.031 69.4398C166.919 69.4398 167.687 69.5898 168.335 69.8898C168.983 70.1898 169.475 70.6038 169.811 71.1318C170.159 71.6598 170.333 72.2658 170.333 72.9498C170.333 73.7298 170.105 74.3598 169.649 74.8398C169.193 75.3078 168.575 75.6378 167.795 75.8298L167.831 75.4698C168.791 75.6738 169.553 76.0818 170.117 76.6938C170.681 77.3058 170.963 78.0798 170.963 79.0158C170.963 79.8318 170.753 80.5218 170.333 81.0858C169.925 81.6498 169.349 82.0758 168.605 82.3638C167.861 82.6518 167.003 82.7958 166.031 82.7958ZM166.031 81.0138C166.919 81.0138 167.621 80.8338 168.137 80.4738C168.665 80.1018 168.929 79.5498 168.929 78.8178C168.929 78.1218 168.689 77.5638 168.209 77.1438C167.741 76.7238 167.015 76.5138 166.031 76.5138C165.047 76.5138 164.315 76.7238 163.835 77.1438C163.355 77.5638 163.115 78.1218 163.115 78.8178C163.115 79.5498 163.379 80.1018 163.907 80.4738C164.435 80.8338 165.143 81.0138 166.031 81.0138ZM166.031 74.9118C166.763 74.9118 167.327 74.7618 167.723 74.4618C168.131 74.1498 168.335 73.6758 168.335 73.0398C168.335 72.4878 168.137 72.0438 167.741 71.7078C167.357 71.3718 166.787 71.2038 166.031 71.2038C165.275 71.2038 164.699 71.3718 164.303 71.7078C163.907 72.0438 163.709 72.4878 163.709 73.0398C163.709 73.6758 163.913 74.1498 164.321 74.4618C164.729 74.7618 165.299 74.9118 166.031 74.9118ZM177.281 82.7958C176.309 82.7958 175.451 82.6518 174.707 82.3638C173.963 82.0758 173.381 81.6498 172.961 81.0858C172.553 80.5218 172.349 79.8318 172.349 79.0158C172.349 78.0798 172.631 77.3058 173.195 76.6938C173.759 76.0818 174.515 75.6738 175.463 75.4698L175.499 75.8298C174.731 75.6498 174.113 75.3198 173.645 74.8398C173.189 74.3598 172.961 73.7298 172.961 72.9498C172.961 72.2658 173.135 71.6598 173.483 71.1318C173.831 70.6038 174.323 70.1898 174.959 69.8898C175.607 69.5898 176.381 69.4398 177.281 69.4398C178.169 69.4398 178.937 69.5898 179.585 69.8898C180.233 70.1898 180.725 70.6038 181.061 71.1318C181.409 71.6598 181.583 72.2658 181.583 72.9498C181.583 73.7298 181.355 74.3598 180.899 74.8398C180.443 75.3078 179.825 75.6378 179.045 75.8298L179.081 75.4698C180.041 75.6738 180.803 76.0818 181.367 76.6938C181.931 77.3058 182.213 78.0798 182.213 79.0158C182.213 79.8318 182.003 80.5218 181.583 81.0858C181.175 81.6498 180.599 82.0758 179.855 82.3638C179.111 82.6518 178.253 82.7958 177.281 82.7958ZM177.281 81.0138C178.169 81.0138 178.871 80.8338 179.387 80.4738C179.915 80.1018 180.179 79.5498 180.179 78.8178C180.179 78.1218 179.939 77.5638 179.459 77.1438C178.991 76.7238 178.265 76.5138 177.281 76.5138C176.297 76.5138 175.565 76.7238 175.085 77.1438C174.605 77.5638 174.365 78.1218 174.365 78.8178C174.365 79.5498 174.629 80.1018 175.157 80.4738C175.685 80.8338 176.393 81.0138 177.281 81.0138ZM177.281 74.9118C178.013 74.9118 178.577 74.7618 178.973 74.4618C179.381 74.1498 179.585 73.6758 179.585 73.0398C179.585 72.4878 179.387 72.0438 178.991 71.7078C178.607 71.3718 178.037 71.2038 177.281 71.2038C176.525 71.2038 175.949 71.3718 175.553 71.7078C175.157 72.0438 174.959 72.4878 174.959 73.0398C174.959 73.6758 175.163 74.1498 175.571 74.4618C175.979 74.7618 176.549 74.9118 177.281 74.9118ZM187.055 74.8218L187.955 71.9958H186.965V69.7278H189.287V71.7258L188.153 74.8218H187.055ZM183.779 74.8218L184.679 71.9958H183.689V69.7278H186.011V71.7258L184.877 74.8218H183.779Z" fill="black"/>
</svg>
