<svg width="250" height="154" viewBox="0 0 250 154" fill="none" xmlns="http://www.w3.org/2000/svg">
<path d="M126.9 19L135.97 0L114.03 0L123.1 19H126.9ZM123.656 153.346C124.398 154.088 125.602 154.088 126.344 153.346L138.435 141.255C139.177 140.513 139.177 139.31 138.435 138.568C137.693 137.826 136.49 137.826 135.748 138.568L125 149.316L114.252 138.568C113.51 137.826 112.307 137.826 111.565 138.568C110.823 139.31 110.823 140.513 111.565 141.255L123.656 153.346ZM125 17.1H123.1L123.1 152.003H125H126.9L126.9 17.1H125Z" fill="#5CC05E"/>
<rect x="1" y="36" width="247.4" height="50" rx="15" fill="white"/>
<rect x="1" y="36" width="247.4" height="50" rx="15" stroke="#DDDDDD" stroke-width="2"/>
<path d="M16.374 67V61.87L11.892 54.22H14.124L17.346 59.926L20.586 54.22H22.818L18.318 61.87V67H16.374ZM25.5769 67.216C24.5809 67.216 23.7829 66.988 23.1829 66.532C22.5949 66.076 22.3009 65.434 22.3009 64.606C22.3009 63.778 22.5469 63.136 23.0389 62.68C23.5429 62.212 24.3169 61.876 25.3609 61.672L28.6549 61.042C28.6549 60.298 28.4809 59.746 28.1329 59.386C27.7849 59.014 27.2689 58.828 26.5849 58.828C25.9729 58.828 25.4929 58.966 25.1449 59.242C24.7969 59.506 24.5569 59.902 24.4249 60.43L22.4629 60.304C22.6429 59.344 23.0869 58.588 23.7949 58.036C24.5149 57.484 25.4449 57.208 26.5849 57.208C27.8809 57.208 28.8649 57.556 29.5369 58.252C30.2209 58.936 30.5629 59.902 30.5629 61.15V64.876C30.5629 65.104 30.5989 65.266 30.6709 65.362C30.7549 65.446 30.8869 65.488 31.0669 65.488H31.4089V67C31.3489 67.012 31.2529 67.024 31.1209 67.036C30.9889 67.048 30.8509 67.054 30.7069 67.054C30.2989 67.054 29.9449 66.988 29.6449 66.856C29.3569 66.724 29.1409 66.508 28.9969 66.208C28.8529 65.896 28.7809 65.482 28.7809 64.966L28.9789 65.056C28.8829 65.476 28.6729 65.848 28.3489 66.172C28.0369 66.496 27.6349 66.754 27.1429 66.946C26.6629 67.126 26.1409 67.216 25.5769 67.216ZM25.8829 65.704C26.4589 65.704 26.9509 65.596 27.3589 65.38C27.7669 65.152 28.0849 64.84 28.3129 64.444C28.5409 64.048 28.6549 63.598 28.6549 63.094V62.482L25.8469 63.022C25.2709 63.13 24.8629 63.304 24.6229 63.544C24.3949 63.772 24.2809 64.066 24.2809 64.426C24.2809 64.834 24.4189 65.152 24.6949 65.38C24.9829 65.596 25.3789 65.704 25.8829 65.704ZM36.6396 67.216C35.7396 67.216 34.9776 67.078 34.3536 66.802C33.7416 66.526 33.2676 66.148 32.9316 65.668C32.5956 65.176 32.4036 64.612 32.3556 63.976L34.3176 63.886C34.4136 64.414 34.6416 64.834 35.0016 65.146C35.3616 65.458 35.9076 65.614 36.6396 65.614C37.2396 65.614 37.7136 65.518 38.0616 65.326C38.4096 65.134 38.5836 64.828 38.5836 64.408C38.5836 64.18 38.5236 63.988 38.4036 63.832C38.2956 63.664 38.0796 63.526 37.7556 63.418C37.4316 63.298 36.9516 63.184 36.3156 63.076C35.3676 62.896 34.6236 62.686 34.0836 62.446C33.5436 62.206 33.1596 61.9 32.9316 61.528C32.7036 61.156 32.5896 60.706 32.5896 60.178C32.5896 59.302 32.9136 58.588 33.5616 58.036C34.2216 57.484 35.1696 57.208 36.4056 57.208C37.2336 57.208 37.9296 57.352 38.4936 57.64C39.0576 57.916 39.4956 58.294 39.8076 58.774C40.1316 59.242 40.3356 59.77 40.4196 60.358L38.4576 60.466C38.3976 60.13 38.2776 59.842 38.0976 59.602C37.9296 59.35 37.7016 59.158 37.4136 59.026C37.1256 58.882 36.7836 58.81 36.3876 58.81C35.7756 58.81 35.3196 58.93 35.0196 59.17C34.7196 59.41 34.5696 59.722 34.5696 60.106C34.5696 60.394 34.6356 60.628 34.7676 60.808C34.9116 60.988 35.1396 61.138 35.4516 61.258C35.7636 61.366 36.1776 61.462 36.6936 61.546C37.6896 61.714 38.4696 61.924 39.0336 62.176C39.5976 62.416 39.9936 62.716 40.2216 63.076C40.4496 63.436 40.5636 63.874 40.5636 64.39C40.5636 64.99 40.3956 65.5 40.0596 65.92C39.7236 66.34 39.2616 66.664 38.6736 66.892C38.0856 67.108 37.4076 67.216 36.6396 67.216ZM42.4945 67V54.22H44.4025V59.584L44.1685 59.548C44.2765 59.008 44.4745 58.57 44.7625 58.234C45.0505 57.886 45.4045 57.628 45.8245 57.46C46.2445 57.292 46.7065 57.208 47.2105 57.208C47.9065 57.208 48.4945 57.364 48.9745 57.676C49.4545 57.976 49.8145 58.402 50.0545 58.954C50.3065 59.506 50.4325 60.136 50.4325 60.844V67H48.5245V61.348C48.5245 60.484 48.3745 59.848 48.0745 59.44C47.7865 59.02 47.3305 58.81 46.7065 58.81C46.0105 58.81 45.4525 59.032 45.0325 59.476C44.6125 59.908 44.4025 60.544 44.4025 61.384V67H42.4945ZM61.1783 67C60.2663 67 59.5943 66.79 59.1623 66.37C58.7303 65.95 58.5143 65.296 58.5143 64.408V55.174H60.4223V64.264C60.4223 64.708 60.5183 65.014 60.7103 65.182C60.9023 65.35 61.1963 65.434 61.5923 65.434H62.9603V67H61.1783ZM57.0563 58.99V57.424H62.9603V58.99H57.0563ZM67.4129 67.216C66.4169 67.216 65.6189 66.988 65.0189 66.532C64.4309 66.076 64.1369 65.434 64.1369 64.606C64.1369 63.778 64.3829 63.136 64.8749 62.68C65.3789 62.212 66.1529 61.876 67.1969 61.672L70.4909 61.042C70.4909 60.298 70.3169 59.746 69.9689 59.386C69.6209 59.014 69.1049 58.828 68.4209 58.828C67.8089 58.828 67.3289 58.966 66.9809 59.242C66.6329 59.506 66.3929 59.902 66.2609 60.43L64.2989 60.304C64.4789 59.344 64.9229 58.588 65.6309 58.036C66.3509 57.484 67.2809 57.208 68.4209 57.208C69.7169 57.208 70.7009 57.556 71.3729 58.252C72.0569 58.936 72.3989 59.902 72.3989 61.15V64.876C72.3989 65.104 72.4349 65.266 72.5069 65.362C72.5909 65.446 72.7229 65.488 72.9029 65.488H73.2449V67C73.1849 67.012 73.0889 67.024 72.9569 67.036C72.8249 67.048 72.6869 67.054 72.5429 67.054C72.1349 67.054 71.7809 66.988 71.4809 66.856C71.1929 66.724 70.9769 66.508 70.8329 66.208C70.6889 65.896 70.6169 65.482 70.6169 64.966L70.8149 65.056C70.7189 65.476 70.5089 65.848 70.1849 66.172C69.8729 66.496 69.4709 66.754 68.9789 66.946C68.4989 67.126 67.9769 67.216 67.4129 67.216ZM67.7189 65.704C68.2949 65.704 68.7869 65.596 69.1949 65.38C69.6029 65.152 69.9209 64.84 70.1489 64.444C70.3769 64.048 70.4909 63.598 70.4909 63.094V62.482L67.6829 63.022C67.1069 63.13 66.6989 63.304 66.4589 63.544C66.2309 63.772 66.1169 64.066 66.1169 64.426C66.1169 64.834 66.2549 65.152 66.5309 65.38C66.8189 65.596 67.2149 65.704 67.7189 65.704ZM74.8559 69.7V57.424H76.6559L76.7099 59.476L76.4939 59.368C76.7339 58.66 77.1299 58.126 77.6819 57.766C78.2339 57.394 78.8699 57.208 79.5899 57.208C80.5259 57.208 81.2939 57.442 81.8939 57.91C82.5059 58.366 82.9559 58.972 83.2439 59.728C83.5439 60.484 83.6939 61.312 83.6939 62.212C83.6939 63.112 83.5439 63.94 83.2439 64.696C82.9559 65.452 82.5059 66.064 81.8939 66.532C81.2939 66.988 80.5259 67.216 79.5899 67.216C79.1099 67.216 78.6599 67.132 78.2399 66.964C77.8199 66.796 77.4599 66.562 77.1599 66.262C76.8719 65.95 76.6679 65.584 76.5479 65.164L76.7639 64.948V69.7H74.8559ZM79.2479 65.56C80.0159 65.56 80.6159 65.266 81.0479 64.678C81.4919 64.09 81.7139 63.268 81.7139 62.212C81.7139 61.156 81.4919 60.334 81.0479 59.746C80.6159 59.158 80.0159 58.864 79.2479 58.864C78.7439 58.864 78.3059 58.99 77.9339 59.242C77.5619 59.482 77.2739 59.854 77.0699 60.358C76.8659 60.862 76.7639 61.48 76.7639 62.212C76.7639 62.944 76.8599 63.562 77.0519 64.066C77.2559 64.57 77.5439 64.948 77.9159 65.2C78.2999 65.44 78.7439 65.56 79.2479 65.56ZM89.3213 67.216C88.4213 67.216 87.6593 67.078 87.0353 66.802C86.4233 66.526 85.9493 66.148 85.6133 65.668C85.2773 65.176 85.0853 64.612 85.0373 63.976L86.9993 63.886C87.0953 64.414 87.3233 64.834 87.6833 65.146C88.0433 65.458 88.5893 65.614 89.3213 65.614C89.9213 65.614 90.3953 65.518 90.7433 65.326C91.0913 65.134 91.2653 64.828 91.2653 64.408C91.2653 64.18 91.2053 63.988 91.0853 63.832C90.9773 63.664 90.7613 63.526 90.4373 63.418C90.1133 63.298 89.6333 63.184 88.9973 63.076C88.0493 62.896 87.3053 62.686 86.7653 62.446C86.2253 62.206 85.8413 61.9 85.6133 61.528C85.3853 61.156 85.2713 60.706 85.2713 60.178C85.2713 59.302 85.5953 58.588 86.2433 58.036C86.9033 57.484 87.8513 57.208 89.0873 57.208C89.9153 57.208 90.6113 57.352 91.1753 57.64C91.7393 57.916 92.1773 58.294 92.4893 58.774C92.8133 59.242 93.0173 59.77 93.1013 60.358L91.1393 60.466C91.0793 60.13 90.9593 59.842 90.7793 59.602C90.6113 59.35 90.3833 59.158 90.0953 59.026C89.8073 58.882 89.4653 58.81 89.0693 58.81C88.4573 58.81 88.0013 58.93 87.7013 59.17C87.4013 59.41 87.2513 59.722 87.2513 60.106C87.2513 60.394 87.3173 60.628 87.4493 60.808C87.5933 60.988 87.8213 61.138 88.1333 61.258C88.4453 61.366 88.8593 61.462 89.3753 61.546C90.3713 61.714 91.1513 61.924 91.7153 62.176C92.2793 62.416 92.6753 62.716 92.9033 63.076C93.1313 63.436 93.2453 63.874 93.2453 64.39C93.2453 64.99 93.0773 65.5 92.7413 65.92C92.4053 66.34 91.9433 66.664 91.3553 66.892C90.7673 67.108 90.0893 67.216 89.3213 67.216Z" fill="black"/>
<path d="M105.624 53.932L104.724 56.758H105.732V59.026H103.392V57.028L104.526 53.932H105.624ZM108.9 53.932L108 56.758H108.99V59.026H106.668V57.028L107.802 53.932H108.9ZM111.338 67V54.22H116.108C117.572 54.22 118.712 54.574 119.528 55.282C120.344 55.978 120.752 56.95 120.752 58.198C120.752 59.026 120.566 59.746 120.194 60.358C119.822 60.958 119.288 61.42 118.592 61.744C117.908 62.056 117.08 62.212 116.108 62.212H113.282V67H111.338ZM113.282 60.448H116.054C116.93 60.448 117.596 60.262 118.052 59.89C118.508 59.506 118.736 58.942 118.736 58.198C118.736 57.466 118.508 56.92 118.052 56.56C117.596 56.188 116.93 56.002 116.054 56.002H113.282V60.448ZM126.402 67.216C125.466 67.216 124.656 67.012 123.972 66.604C123.3 66.196 122.778 65.614 122.406 64.858C122.046 64.102 121.866 63.22 121.866 62.212C121.866 61.204 122.046 60.328 122.406 59.584C122.778 58.828 123.3 58.246 123.972 57.838C124.644 57.418 125.436 57.208 126.348 57.208C127.212 57.208 127.974 57.412 128.634 57.82C129.294 58.216 129.804 58.792 130.164 59.548C130.536 60.304 130.722 61.216 130.722 62.284V62.77H123.846C123.894 63.706 124.14 64.408 124.584 64.876C125.04 65.344 125.652 65.578 126.42 65.578C126.984 65.578 127.452 65.446 127.824 65.182C128.196 64.918 128.454 64.564 128.598 64.12L130.578 64.246C130.326 65.134 129.828 65.854 129.084 66.406C128.352 66.946 127.458 67.216 126.402 67.216ZM123.846 61.33H128.706C128.646 60.478 128.4 59.848 127.968 59.44C127.548 59.032 127.008 58.828 126.348 58.828C125.664 58.828 125.1 59.044 124.656 59.476C124.224 59.896 123.954 60.514 123.846 61.33ZM132.655 67V57.424H134.401L134.473 59.98L134.239 59.854C134.347 59.23 134.551 58.726 134.851 58.342C135.151 57.958 135.517 57.676 135.949 57.496C136.381 57.304 136.849 57.208 137.353 57.208C138.073 57.208 138.667 57.37 139.135 57.694C139.615 58.006 139.975 58.438 140.215 58.99C140.467 59.53 140.593 60.148 140.593 60.844V67H138.685V61.42C138.685 60.856 138.625 60.382 138.505 59.998C138.385 59.614 138.187 59.32 137.911 59.116C137.635 58.912 137.275 58.81 136.831 58.81C136.159 58.81 135.613 59.032 135.193 59.476C134.773 59.92 134.563 60.568 134.563 61.42V67H132.655ZM147.021 67.216C146.109 67.216 145.311 67.012 144.627 66.604C143.943 66.196 143.415 65.614 143.043 64.858C142.671 64.102 142.485 63.22 142.485 62.212C142.485 61.204 142.671 60.328 143.043 59.584C143.415 58.828 143.943 58.246 144.627 57.838C145.311 57.418 146.109 57.208 147.021 57.208C147.801 57.208 148.491 57.346 149.091 57.622C149.703 57.886 150.195 58.276 150.567 58.792C150.951 59.308 151.197 59.938 151.305 60.682L149.307 60.79C149.211 60.166 148.959 59.692 148.551 59.368C148.143 59.032 147.633 58.864 147.021 58.864C146.217 58.864 145.587 59.164 145.131 59.764C144.687 60.352 144.465 61.168 144.465 62.212C144.465 63.256 144.687 64.078 145.131 64.678C145.587 65.266 146.217 65.56 147.021 65.56C147.633 65.56 148.143 65.392 148.551 65.056C148.959 64.708 149.211 64.186 149.307 63.49L151.305 63.598C151.197 64.33 150.951 64.966 150.567 65.506C150.195 66.046 149.703 66.466 149.091 66.766C148.491 67.066 147.801 67.216 147.021 67.216ZM153.046 67V57.424H154.954V67H153.046ZM153.01 56.038V54.13H154.99V56.038H153.01ZM159.599 67C158.975 67 158.471 66.838 158.087 66.514C157.703 66.19 157.511 65.674 157.511 64.966V54.22H159.419V64.786C159.419 65.002 159.473 65.164 159.581 65.272C159.701 65.38 159.869 65.434 160.085 65.434H160.841V67H159.599ZM167.166 67V54.22H169.11V67H167.166ZM175.779 67.216C174.867 67.216 174.069 67.012 173.385 66.604C172.701 66.196 172.173 65.614 171.801 64.858C171.429 64.102 171.243 63.22 171.243 62.212C171.243 61.204 171.429 60.328 171.801 59.584C172.173 58.828 172.701 58.246 173.385 57.838C174.069 57.418 174.867 57.208 175.779 57.208C176.559 57.208 177.249 57.346 177.849 57.622C178.461 57.886 178.953 58.276 179.325 58.792C179.709 59.308 179.955 59.938 180.063 60.682L178.065 60.79C177.969 60.166 177.717 59.692 177.309 59.368C176.901 59.032 176.391 58.864 175.779 58.864C174.975 58.864 174.345 59.164 173.889 59.764C173.445 60.352 173.223 61.168 173.223 62.212C173.223 63.256 173.445 64.078 173.889 64.678C174.345 65.266 174.975 65.56 175.779 65.56C176.391 65.56 176.901 65.392 177.309 65.056C177.717 64.708 177.969 64.186 178.065 63.49L180.063 63.598C179.955 64.33 179.709 64.966 179.325 65.506C178.953 66.046 178.461 66.466 177.849 66.766C177.249 67.066 176.559 67.216 175.779 67.216ZM185.746 67.216C184.834 67.216 184.036 67.012 183.352 66.604C182.668 66.196 182.14 65.614 181.768 64.858C181.396 64.102 181.21 63.22 181.21 62.212C181.21 61.192 181.396 60.31 181.768 59.566C182.14 58.822 182.668 58.246 183.352 57.838C184.036 57.418 184.834 57.208 185.746 57.208C186.658 57.208 187.456 57.418 188.14 57.838C188.824 58.246 189.352 58.822 189.724 59.566C190.096 60.31 190.282 61.192 190.282 62.212C190.282 63.22 190.096 64.102 189.724 64.858C189.352 65.614 188.824 66.196 188.14 66.604C187.456 67.012 186.658 67.216 185.746 67.216ZM185.746 65.56C186.562 65.56 187.192 65.266 187.636 64.678C188.08 64.078 188.302 63.256 188.302 62.212C188.302 61.168 188.08 60.352 187.636 59.764C187.192 59.164 186.562 58.864 185.746 58.864C184.942 58.864 184.312 59.164 183.856 59.764C183.412 60.352 183.19 61.168 183.19 62.212C183.19 63.256 183.412 64.078 183.856 64.678C184.312 65.266 184.942 65.56 185.746 65.56ZM192.21 67V57.424H193.956L194.028 59.98L193.794 59.854C193.902 59.23 194.106 58.726 194.406 58.342C194.706 57.958 195.072 57.676 195.504 57.496C195.936 57.304 196.404 57.208 196.908 57.208C197.628 57.208 198.222 57.37 198.69 57.694C199.17 58.006 199.53 58.438 199.77 58.99C200.022 59.53 200.148 60.148 200.148 60.844V67H198.24V61.42C198.24 60.856 198.18 60.382 198.06 59.998C197.94 59.614 197.742 59.32 197.466 59.116C197.19 58.912 196.83 58.81 196.386 58.81C195.714 58.81 195.168 59.032 194.748 59.476C194.328 59.92 194.118 60.568 194.118 61.42V67H192.21ZM205.653 59.314L206.553 56.488H205.563V54.22H207.885V56.218L206.751 59.314H205.653ZM202.377 59.314L203.277 56.488H202.287V54.22H204.609V56.218L203.475 59.314H202.377Z" fill="black"/>
</svg>
