<svg width="216" height="154" viewBox="0 0 216 154" fill="none" xmlns="http://www.w3.org/2000/svg">
<path d="M119.9 19L128.97 0L107.03 0L116.1 19H119.9ZM116.656 153.346C117.398 154.088 118.602 154.088 119.344 153.346L131.435 141.255C132.177 140.513 132.177 139.31 131.435 138.568C130.693 137.826 129.49 137.826 128.748 138.568L118 149.316L107.252 138.568C106.51 137.826 105.307 137.826 104.565 138.568C103.823 139.31 103.823 140.513 104.565 141.255L116.656 153.346ZM118 17.1H116.1L116.1 152.003H118H119.9L119.9 17.1H118Z" fill="#5CC05E"/>
<rect x="1" y="48.8164" width="213.6" height="50" rx="15" fill="white"/>
<rect x="1" y="48.8164" width="213.6" height="50" rx="15" stroke="#DDDDDD" stroke-width="2"/>
<path d="M16.374 79.8164V74.6864L11.892 67.0364H14.124L17.346 72.7424L20.586 67.0364H22.818L18.318 74.6864V79.8164H16.374ZM25.5769 80.0324C24.5809 80.0324 23.7829 79.8044 23.1829 79.3484C22.5949 78.8924 22.3009 78.2504 22.3009 77.4224C22.3009 76.5944 22.5469 75.9524 23.0389 75.4964C23.5429 75.0284 24.3169 74.6924 25.3609 74.4884L28.6549 73.8584C28.6549 73.1144 28.4809 72.5624 28.1329 72.2024C27.7849 71.8304 27.2689 71.6444 26.5849 71.6444C25.9729 71.6444 25.4929 71.7824 25.1449 72.0584C24.7969 72.3224 24.5569 72.7184 24.4249 73.2464L22.4629 73.1204C22.6429 72.1604 23.0869 71.4044 23.7949 70.8524C24.5149 70.3004 25.4449 70.0244 26.5849 70.0244C27.8809 70.0244 28.8649 70.3724 29.5369 71.0684C30.2209 71.7524 30.5629 72.7184 30.5629 73.9664V77.6924C30.5629 77.9204 30.5989 78.0824 30.6709 78.1784C30.7549 78.2624 30.8869 78.3044 31.0669 78.3044H31.4089V79.8164C31.3489 79.8284 31.2529 79.8404 31.1209 79.8524C30.9889 79.8644 30.8509 79.8704 30.7069 79.8704C30.2989 79.8704 29.9449 79.8044 29.6449 79.6724C29.3569 79.5404 29.1409 79.3244 28.9969 79.0244C28.8529 78.7124 28.7809 78.2984 28.7809 77.7824L28.9789 77.8724C28.8829 78.2924 28.6729 78.6644 28.3489 78.9884C28.0369 79.3124 27.6349 79.5704 27.1429 79.7624C26.6629 79.9424 26.1409 80.0324 25.5769 80.0324ZM25.8829 78.5204C26.4589 78.5204 26.9509 78.4124 27.3589 78.1964C27.7669 77.9684 28.0849 77.6564 28.3129 77.2604C28.5409 76.8644 28.6549 76.4144 28.6549 75.9104V75.2984L25.8469 75.8384C25.2709 75.9464 24.8629 76.1204 24.6229 76.3604C24.3949 76.5884 24.2809 76.8824 24.2809 77.2424C24.2809 77.6504 24.4189 77.9684 24.6949 78.1964C24.9829 78.4124 25.3789 78.5204 25.8829 78.5204ZM36.6396 80.0324C35.7396 80.0324 34.9776 79.8944 34.3536 79.6184C33.7416 79.3424 33.2676 78.9644 32.9316 78.4844C32.5956 77.9924 32.4036 77.4284 32.3556 76.7924L34.3176 76.7024C34.4136 77.2304 34.6416 77.6504 35.0016 77.9624C35.3616 78.2744 35.9076 78.4304 36.6396 78.4304C37.2396 78.4304 37.7136 78.3344 38.0616 78.1424C38.4096 77.9504 38.5836 77.6444 38.5836 77.2244C38.5836 76.9964 38.5236 76.8044 38.4036 76.6484C38.2956 76.4804 38.0796 76.3424 37.7556 76.2344C37.4316 76.1144 36.9516 76.0004 36.3156 75.8924C35.3676 75.7124 34.6236 75.5024 34.0836 75.2624C33.5436 75.0224 33.1596 74.7164 32.9316 74.3444C32.7036 73.9724 32.5896 73.5224 32.5896 72.9944C32.5896 72.1184 32.9136 71.4044 33.5616 70.8524C34.2216 70.3004 35.1696 70.0244 36.4056 70.0244C37.2336 70.0244 37.9296 70.1684 38.4936 70.4564C39.0576 70.7324 39.4956 71.1104 39.8076 71.5904C40.1316 72.0584 40.3356 72.5864 40.4196 73.1744L38.4576 73.2824C38.3976 72.9464 38.2776 72.6584 38.0976 72.4184C37.9296 72.1664 37.7016 71.9744 37.4136 71.8424C37.1256 71.6984 36.7836 71.6264 36.3876 71.6264C35.7756 71.6264 35.3196 71.7464 35.0196 71.9864C34.7196 72.2264 34.5696 72.5384 34.5696 72.9224C34.5696 73.2104 34.6356 73.4444 34.7676 73.6244C34.9116 73.8044 35.1396 73.9544 35.4516 74.0744C35.7636 74.1824 36.1776 74.2784 36.6936 74.3624C37.6896 74.5304 38.4696 74.7404 39.0336 74.9924C39.5976 75.2324 39.9936 75.5324 40.2216 75.8924C40.4496 76.2524 40.5636 76.6904 40.5636 77.2064C40.5636 77.8064 40.3956 78.3164 40.0596 78.7364C39.7236 79.1564 39.2616 79.4804 38.6736 79.7084C38.0856 79.9244 37.4076 80.0324 36.6396 80.0324ZM42.4945 79.8164V67.0364H44.4025V72.4004L44.1685 72.3644C44.2765 71.8244 44.4745 71.3864 44.7625 71.0504C45.0505 70.7024 45.4045 70.4444 45.8245 70.2764C46.2445 70.1084 46.7065 70.0244 47.2105 70.0244C47.9065 70.0244 48.4945 70.1804 48.9745 70.4924C49.4545 70.7924 49.8145 71.2184 50.0545 71.7704C50.3065 72.3224 50.4325 72.9524 50.4325 73.6604V79.8164H48.5245V74.1644C48.5245 73.3004 48.3745 72.6644 48.0745 72.2564C47.7865 71.8364 47.3305 71.6264 46.7065 71.6264C46.0105 71.6264 45.4525 71.8484 45.0325 72.2924C44.6125 72.7244 44.4025 73.3604 44.4025 74.2004V79.8164H42.4945ZM61.1783 79.8164C60.2663 79.8164 59.5943 79.6064 59.1623 79.1864C58.7303 78.7664 58.5143 78.1124 58.5143 77.2244V67.9904H60.4223V77.0804C60.4223 77.5244 60.5183 77.8304 60.7103 77.9984C60.9023 78.1664 61.1963 78.2504 61.5923 78.2504H62.9603V79.8164H61.1783ZM57.0563 71.8064V70.2404H62.9603V71.8064H57.0563ZM67.4129 80.0324C66.4169 80.0324 65.6189 79.8044 65.0189 79.3484C64.4309 78.8924 64.1369 78.2504 64.1369 77.4224C64.1369 76.5944 64.3829 75.9524 64.8749 75.4964C65.3789 75.0284 66.1529 74.6924 67.1969 74.4884L70.4909 73.8584C70.4909 73.1144 70.3169 72.5624 69.9689 72.2024C69.6209 71.8304 69.1049 71.6444 68.4209 71.6444C67.8089 71.6444 67.3289 71.7824 66.9809 72.0584C66.6329 72.3224 66.3929 72.7184 66.2609 73.2464L64.2989 73.1204C64.4789 72.1604 64.9229 71.4044 65.6309 70.8524C66.3509 70.3004 67.2809 70.0244 68.4209 70.0244C69.7169 70.0244 70.7009 70.3724 71.3729 71.0684C72.0569 71.7524 72.3989 72.7184 72.3989 73.9664V77.6924C72.3989 77.9204 72.4349 78.0824 72.5069 78.1784C72.5909 78.2624 72.7229 78.3044 72.9029 78.3044H73.2449V79.8164C73.1849 79.8284 73.0889 79.8404 72.9569 79.8524C72.8249 79.8644 72.6869 79.8704 72.5429 79.8704C72.1349 79.8704 71.7809 79.8044 71.4809 79.6724C71.1929 79.5404 70.9769 79.3244 70.8329 79.0244C70.6889 78.7124 70.6169 78.2984 70.6169 77.7824L70.8149 77.8724C70.7189 78.2924 70.5089 78.6644 70.1849 78.9884C69.8729 79.3124 69.4709 79.5704 68.9789 79.7624C68.4989 79.9424 67.9769 80.0324 67.4129 80.0324ZM67.7189 78.5204C68.2949 78.5204 68.7869 78.4124 69.1949 78.1964C69.6029 77.9684 69.9209 77.6564 70.1489 77.2604C70.3769 76.8644 70.4909 76.4144 70.4909 75.9104V75.2984L67.6829 75.8384C67.1069 75.9464 66.6989 76.1204 66.4589 76.3604C66.2309 76.5884 66.1169 76.8824 66.1169 77.2424C66.1169 77.6504 66.2549 77.9684 66.5309 78.1964C66.8189 78.4124 67.2149 78.5204 67.7189 78.5204ZM74.8559 82.5164V70.2404H76.6559L76.7099 72.2924L76.4939 72.1844C76.7339 71.4764 77.1299 70.9424 77.6819 70.5824C78.2339 70.2104 78.8699 70.0244 79.5899 70.0244C80.5259 70.0244 81.2939 70.2584 81.8939 70.7264C82.5059 71.1824 82.9559 71.7884 83.2439 72.5444C83.5439 73.3004 83.6939 74.1284 83.6939 75.0284C83.6939 75.9284 83.5439 76.7564 83.2439 77.5124C82.9559 78.2684 82.5059 78.8804 81.8939 79.3484C81.2939 79.8044 80.5259 80.0324 79.5899 80.0324C79.1099 80.0324 78.6599 79.9484 78.2399 79.7804C77.8199 79.6124 77.4599 79.3784 77.1599 79.0784C76.8719 78.7664 76.6679 78.4004 76.5479 77.9804L76.7639 77.7644V82.5164H74.8559ZM79.2479 78.3764C80.0159 78.3764 80.6159 78.0824 81.0479 77.4944C81.4919 76.9064 81.7139 76.0844 81.7139 75.0284C81.7139 73.9724 81.4919 73.1504 81.0479 72.5624C80.6159 71.9744 80.0159 71.6804 79.2479 71.6804C78.7439 71.6804 78.3059 71.8064 77.9339 72.0584C77.5619 72.2984 77.2739 72.6704 77.0699 73.1744C76.8659 73.6784 76.7639 74.2964 76.7639 75.0284C76.7639 75.7604 76.8599 76.3784 77.0519 76.8824C77.2559 77.3864 77.5439 77.7644 77.9159 78.0164C78.2999 78.2564 78.7439 78.3764 79.2479 78.3764ZM89.3213 80.0324C88.4213 80.0324 87.6593 79.8944 87.0353 79.6184C86.4233 79.3424 85.9493 78.9644 85.6133 78.4844C85.2773 77.9924 85.0853 77.4284 85.0373 76.7924L86.9993 76.7024C87.0953 77.2304 87.3233 77.6504 87.6833 77.9624C88.0433 78.2744 88.5893 78.4304 89.3213 78.4304C89.9213 78.4304 90.3953 78.3344 90.7433 78.1424C91.0913 77.9504 91.2653 77.6444 91.2653 77.2244C91.2653 76.9964 91.2053 76.8044 91.0853 76.6484C90.9773 76.4804 90.7613 76.3424 90.4373 76.2344C90.1133 76.1144 89.6333 76.0004 88.9973 75.8924C88.0493 75.7124 87.3053 75.5024 86.7653 75.2624C86.2253 75.0224 85.8413 74.7164 85.6133 74.3444C85.3853 73.9724 85.2713 73.5224 85.2713 72.9944C85.2713 72.1184 85.5953 71.4044 86.2433 70.8524C86.9033 70.3004 87.8513 70.0244 89.0873 70.0244C89.9153 70.0244 90.6113 70.1684 91.1753 70.4564C91.7393 70.7324 92.1773 71.1104 92.4893 71.5904C92.8133 72.0584 93.0173 72.5864 93.1013 73.1744L91.1393 73.2824C91.0793 72.9464 90.9593 72.6584 90.7793 72.4184C90.6113 72.1664 90.3833 71.9744 90.0953 71.8424C89.8073 71.6984 89.4653 71.6264 89.0693 71.6264C88.4573 71.6264 88.0013 71.7464 87.7013 71.9864C87.4013 72.2264 87.2513 72.5384 87.2513 72.9224C87.2513 73.2104 87.3173 73.4444 87.4493 73.6244C87.5933 73.8044 87.8213 73.9544 88.1333 74.0744C88.4453 74.1824 88.8593 74.2784 89.3753 74.3624C90.3713 74.5304 91.1513 74.7404 91.7153 74.9924C92.2793 75.2324 92.6753 75.5324 92.9033 75.8924C93.1313 76.2524 93.2453 76.6904 93.2453 77.2064C93.2453 77.8064 93.0773 78.3164 92.7413 78.7364C92.4053 79.1564 91.9433 79.4804 91.3553 79.7084C90.7673 79.9244 90.0893 80.0324 89.3213 80.0324Z" fill="black"/>
<path d="M105.624 66.7484L104.724 69.5744H105.732V71.8424H103.392V69.8444L104.526 66.7484H105.624ZM108.9 66.7484L108 69.5744H108.99V71.8424H106.668V69.8444L107.802 66.7484H108.9ZM116.036 80.1044C115.028 80.1044 114.146 79.9124 113.39 79.5284C112.646 79.1324 112.07 78.5744 111.662 77.8544C111.266 77.1344 111.068 76.2824 111.068 75.2984V67.0184H113.012V75.2984C113.012 76.2704 113.276 77.0204 113.804 77.5484C114.332 78.0644 115.076 78.3224 116.036 78.3224C116.996 78.3224 117.74 78.0644 118.268 77.5484C118.796 77.0204 119.06 76.2704 119.06 75.2984V67.0184H121.004V75.2984C121.004 76.2824 120.8 77.1344 120.392 77.8544C119.996 78.5744 119.426 79.1324 118.682 79.5284C117.938 79.9124 117.056 80.1044 116.036 80.1044ZM123.638 82.5164V70.2404H125.438L125.492 72.2924L125.276 72.1844C125.516 71.4764 125.912 70.9424 126.464 70.5824C127.016 70.2104 127.652 70.0244 128.372 70.0244C129.308 70.0244 130.076 70.2584 130.676 70.7264C131.288 71.1824 131.738 71.7884 132.026 72.5444C132.326 73.3004 132.476 74.1284 132.476 75.0284C132.476 75.9284 132.326 76.7564 132.026 77.5124C131.738 78.2684 131.288 78.8804 130.676 79.3484C130.076 79.8044 129.308 80.0324 128.372 80.0324C127.892 80.0324 127.442 79.9484 127.022 79.7804C126.602 79.6124 126.242 79.3784 125.942 79.0784C125.654 78.7664 125.45 78.4004 125.33 77.9804L125.546 77.7644V82.5164H123.638ZM128.03 78.3764C128.798 78.3764 129.398 78.0824 129.83 77.4944C130.274 76.9064 130.496 76.0844 130.496 75.0284C130.496 73.9724 130.274 73.1504 129.83 72.5624C129.398 71.9744 128.798 71.6804 128.03 71.6804C127.526 71.6804 127.088 71.8064 126.716 72.0584C126.344 72.2984 126.056 72.6704 125.852 73.1744C125.648 73.6784 125.546 74.2964 125.546 75.0284C125.546 75.7604 125.642 76.3784 125.834 76.8824C126.038 77.3864 126.326 77.7644 126.698 78.0164C127.082 78.2564 127.526 78.3764 128.03 78.3764ZM136.589 79.8164C135.965 79.8164 135.461 79.6544 135.077 79.3304C134.693 79.0064 134.501 78.4904 134.501 77.7824V67.0364H136.409V77.6024C136.409 77.8184 136.463 77.9804 136.571 78.0884C136.691 78.1964 136.859 78.2504 137.075 78.2504H137.831V79.8164H136.589ZM143.4 80.0324C142.488 80.0324 141.69 79.8284 141.006 79.4204C140.322 79.0124 139.794 78.4304 139.422 77.6744C139.05 76.9184 138.864 76.0364 138.864 75.0284C138.864 74.0084 139.05 73.1264 139.422 72.3824C139.794 71.6384 140.322 71.0624 141.006 70.6544C141.69 70.2344 142.488 70.0244 143.4 70.0244C144.312 70.0244 145.11 70.2344 145.794 70.6544C146.478 71.0624 147.006 71.6384 147.378 72.3824C147.75 73.1264 147.936 74.0084 147.936 75.0284C147.936 76.0364 147.75 76.9184 147.378 77.6744C147.006 78.4304 146.478 79.0124 145.794 79.4204C145.11 79.8284 144.312 80.0324 143.4 80.0324ZM143.4 78.3764C144.216 78.3764 144.846 78.0824 145.29 77.4944C145.734 76.8944 145.956 76.0724 145.956 75.0284C145.956 73.9844 145.734 73.1684 145.29 72.5804C144.846 71.9804 144.216 71.6804 143.4 71.6804C142.596 71.6804 141.966 71.9804 141.51 72.5804C141.066 73.1684 140.844 73.9844 140.844 75.0284C140.844 76.0724 141.066 76.8944 141.51 77.4944C141.966 78.0824 142.596 78.3764 143.4 78.3764ZM152.74 80.0324C151.744 80.0324 150.946 79.8044 150.346 79.3484C149.758 78.8924 149.464 78.2504 149.464 77.4224C149.464 76.5944 149.71 75.9524 150.202 75.4964C150.706 75.0284 151.48 74.6924 152.524 74.4884L155.818 73.8584C155.818 73.1144 155.644 72.5624 155.296 72.2024C154.948 71.8304 154.432 71.6444 153.748 71.6444C153.136 71.6444 152.656 71.7824 152.308 72.0584C151.96 72.3224 151.72 72.7184 151.588 73.2464L149.626 73.1204C149.806 72.1604 150.25 71.4044 150.958 70.8524C151.678 70.3004 152.608 70.0244 153.748 70.0244C155.044 70.0244 156.028 70.3724 156.7 71.0684C157.384 71.7524 157.726 72.7184 157.726 73.9664V77.6924C157.726 77.9204 157.762 78.0824 157.834 78.1784C157.918 78.2624 158.05 78.3044 158.23 78.3044H158.572V79.8164C158.512 79.8284 158.416 79.8404 158.284 79.8524C158.152 79.8644 158.014 79.8704 157.87 79.8704C157.462 79.8704 157.108 79.8044 156.808 79.6724C156.52 79.5404 156.304 79.3244 156.16 79.0244C156.016 78.7124 155.944 78.2984 155.944 77.7824L156.142 77.8724C156.046 78.2924 155.836 78.6644 155.512 78.9884C155.2 79.3124 154.798 79.5704 154.306 79.7624C153.826 79.9424 153.304 80.0324 152.74 80.0324ZM153.046 78.5204C153.622 78.5204 154.114 78.4124 154.522 78.1964C154.93 77.9684 155.248 77.6564 155.476 77.2604C155.704 76.8644 155.818 76.4144 155.818 75.9104V75.2984L153.01 75.8384C152.434 75.9464 152.026 76.1204 151.786 76.3604C151.558 76.5884 151.444 76.8824 151.444 77.2424C151.444 77.6504 151.582 77.9684 151.858 78.1964C152.146 78.4124 152.542 78.5204 153.046 78.5204ZM163.514 80.0324C162.698 80.0324 161.984 79.8284 161.372 79.4204C160.772 79.0124 160.31 78.4364 159.986 77.6924C159.674 76.9364 159.518 76.0484 159.518 75.0284C159.518 74.0084 159.68 73.1264 160.004 72.3824C160.328 71.6264 160.79 71.0444 161.39 70.6364C161.99 70.2284 162.698 70.0244 163.514 70.0244C164.174 70.0244 164.762 70.1624 165.278 70.4384C165.794 70.7144 166.184 71.0984 166.448 71.5904V67.0364H168.356V79.8164H166.574L166.52 78.3764C166.256 78.8924 165.854 79.3004 165.314 79.6004C164.786 79.8884 164.186 80.0324 163.514 80.0324ZM164.018 78.3764C164.534 78.3764 164.972 78.2444 165.332 77.9804C165.692 77.7164 165.968 77.3324 166.16 76.8284C166.352 76.3244 166.448 75.7244 166.448 75.0284C166.448 74.3084 166.352 73.7024 166.16 73.2104C165.968 72.7064 165.692 72.3284 165.332 72.0764C164.972 71.8124 164.534 71.6804 164.018 71.6804C163.25 71.6804 162.638 71.9804 162.182 72.5804C161.726 73.1684 161.498 73.9844 161.498 75.0284C161.498 76.0604 161.726 76.8764 162.182 77.4764C162.638 78.0764 163.25 78.3764 164.018 78.3764ZM174.45 79.8164L179.058 67.0364H181.524L186.132 79.8164H184.062L182.892 76.4864H177.672L176.52 79.8164H174.45ZM178.284 74.7224H182.298L180.282 68.8904L178.284 74.7224ZM189.552 79.8164C188.928 79.8164 188.424 79.6544 188.04 79.3304C187.656 79.0064 187.464 78.4904 187.464 77.7824V67.0364H189.372V77.6024C189.372 77.8184 189.426 77.9804 189.534 78.0884C189.654 78.1964 189.822 78.2504 190.038 78.2504H190.794V79.8164H189.552ZM194.456 79.8164C193.832 79.8164 193.328 79.6544 192.944 79.3304C192.56 79.0064 192.368 78.4904 192.368 77.7824V67.0364H194.276V77.6024C194.276 77.8184 194.33 77.9804 194.438 78.0884C194.558 78.1964 194.726 78.2504 194.942 78.2504H195.698V79.8164H194.456ZM200.256 72.1304L201.156 69.3044H200.166V67.0364H202.488V69.0344L201.354 72.1304H200.256ZM196.98 72.1304L197.88 69.3044H196.89V67.0364H199.212V69.0344L198.078 72.1304H196.98Z" fill="black"/>
</svg>
