<svg width="174" height="154" viewBox="0 0 174 154" fill="none" xmlns="http://www.w3.org/2000/svg">
<path d="M88.4 19L97.4697 0L75.5303 0L84.6 19H88.4ZM85.1565 153.346C85.8985 154.088 87.1015 154.088 87.8435 153.346L99.935 141.255C100.677 140.513 100.677 139.31 99.935 138.568C99.193 137.826 97.99 137.826 97.248 138.568L86.5 149.316L75.752 138.568C75.01 137.826 73.807 137.826 73.065 138.568C72.323 139.31 72.323 140.513 73.065 141.255L85.1565 153.346ZM86.5 17.1H84.6L84.6 152.003H86.5H88.4L88.4 17.1H86.5Z" fill="#5CC05E"/>
<rect x="1" y="51.5039" width="172" height="50" rx="15" fill="white"/>
<rect x="1" y="51.5039" width="172" height="50" rx="15" stroke="#DDDDDD" stroke-width="2"/>
<path d="M16.374 82.5039V77.3739L11.892 69.7239H14.124L17.346 75.4299L20.586 69.7239H22.818L18.318 77.3739V82.5039H16.374ZM25.5769 82.7199C24.5809 82.7199 23.7829 82.4919 23.1829 82.0359C22.5949 81.5799 22.3009 80.9379 22.3009 80.1099C22.3009 79.2819 22.5469 78.6399 23.0389 78.1839C23.5429 77.7159 24.3169 77.3799 25.3609 77.1759L28.6549 76.5459C28.6549 75.8019 28.4809 75.2499 28.1329 74.8899C27.7849 74.5179 27.2689 74.3319 26.5849 74.3319C25.9729 74.3319 25.4929 74.4699 25.1449 74.7459C24.7969 75.0099 24.5569 75.4059 24.4249 75.9339L22.4629 75.8079C22.6429 74.8479 23.0869 74.0919 23.7949 73.5399C24.5149 72.9879 25.4449 72.7119 26.5849 72.7119C27.8809 72.7119 28.8649 73.0599 29.5369 73.7559C30.2209 74.4399 30.5629 75.4059 30.5629 76.6539V80.3799C30.5629 80.6079 30.5989 80.7699 30.6709 80.8659C30.7549 80.9499 30.8869 80.9919 31.0669 80.9919H31.4089V82.5039C31.3489 82.5159 31.2529 82.5279 31.1209 82.5399C30.9889 82.5519 30.8509 82.5579 30.7069 82.5579C30.2989 82.5579 29.9449 82.4919 29.6449 82.3599C29.3569 82.2279 29.1409 82.0119 28.9969 81.7119C28.8529 81.3999 28.7809 80.9859 28.7809 80.4699L28.9789 80.5599C28.8829 80.9799 28.6729 81.3519 28.3489 81.6759C28.0369 81.9999 27.6349 82.2579 27.1429 82.4499C26.6629 82.6299 26.1409 82.7199 25.5769 82.7199ZM25.8829 81.2079C26.4589 81.2079 26.9509 81.0999 27.3589 80.8839C27.7669 80.6559 28.0849 80.3439 28.3129 79.9479C28.5409 79.5519 28.6549 79.1019 28.6549 78.5979V77.9859L25.8469 78.5259C25.2709 78.6339 24.8629 78.8079 24.6229 79.0479C24.3949 79.2759 24.2809 79.5699 24.2809 79.9299C24.2809 80.3379 24.4189 80.6559 24.6949 80.8839C24.9829 81.0999 25.3789 81.2079 25.8829 81.2079ZM36.6396 82.7199C35.7396 82.7199 34.9776 82.5819 34.3536 82.3059C33.7416 82.0299 33.2676 81.6519 32.9316 81.1719C32.5956 80.6799 32.4036 80.1159 32.3556 79.4799L34.3176 79.3899C34.4136 79.9179 34.6416 80.3379 35.0016 80.6499C35.3616 80.9619 35.9076 81.1179 36.6396 81.1179C37.2396 81.1179 37.7136 81.0219 38.0616 80.8299C38.4096 80.6379 38.5836 80.3319 38.5836 79.9119C38.5836 79.6839 38.5236 79.4919 38.4036 79.3359C38.2956 79.1679 38.0796 79.0299 37.7556 78.9219C37.4316 78.8019 36.9516 78.6879 36.3156 78.5799C35.3676 78.3999 34.6236 78.1899 34.0836 77.9499C33.5436 77.7099 33.1596 77.4039 32.9316 77.0319C32.7036 76.6599 32.5896 76.2099 32.5896 75.6819C32.5896 74.8059 32.9136 74.0919 33.5616 73.5399C34.2216 72.9879 35.1696 72.7119 36.4056 72.7119C37.2336 72.7119 37.9296 72.8559 38.4936 73.1439C39.0576 73.4199 39.4956 73.7979 39.8076 74.2779C40.1316 74.7459 40.3356 75.2739 40.4196 75.8619L38.4576 75.9699C38.3976 75.6339 38.2776 75.3459 38.0976 75.1059C37.9296 74.8539 37.7016 74.6619 37.4136 74.5299C37.1256 74.3859 36.7836 74.3139 36.3876 74.3139C35.7756 74.3139 35.3196 74.4339 35.0196 74.6739C34.7196 74.9139 34.5696 75.2259 34.5696 75.6099C34.5696 75.8979 34.6356 76.1319 34.7676 76.3119C34.9116 76.4919 35.1396 76.6419 35.4516 76.7619C35.7636 76.8699 36.1776 76.9659 36.6936 77.0499C37.6896 77.2179 38.4696 77.4279 39.0336 77.6799C39.5976 77.9199 39.9936 78.2199 40.2216 78.5799C40.4496 78.9399 40.5636 79.3779 40.5636 79.8939C40.5636 80.4939 40.3956 81.0039 40.0596 81.4239C39.7236 81.8439 39.2616 82.1679 38.6736 82.3959C38.0856 82.6119 37.4076 82.7199 36.6396 82.7199ZM42.4945 82.5039V69.7239H44.4025V75.0879L44.1685 75.0519C44.2765 74.5119 44.4745 74.0739 44.7625 73.7379C45.0505 73.3899 45.4045 73.1319 45.8245 72.9639C46.2445 72.7959 46.7065 72.7119 47.2105 72.7119C47.9065 72.7119 48.4945 72.8679 48.9745 73.1799C49.4545 73.4799 49.8145 73.9059 50.0545 74.4579C50.3065 75.0099 50.4325 75.6399 50.4325 76.3479V82.5039H48.5245V76.8519C48.5245 75.9879 48.3745 75.3519 48.0745 74.9439C47.7865 74.5239 47.3305 74.3139 46.7065 74.3139C46.0105 74.3139 45.4525 74.5359 45.0325 74.9799C44.6125 75.4119 44.4025 76.0479 44.4025 76.8879V82.5039H42.4945ZM57.5063 82.5039V72.9279H59.4143V82.5039H57.5063ZM57.4703 71.5419V69.6339H59.4503V71.5419H57.4703ZM65.6259 82.7199C64.7259 82.7199 63.9639 82.5819 63.3399 82.3059C62.7279 82.0299 62.2539 81.6519 61.9179 81.1719C61.5819 80.6799 61.3899 80.1159 61.3419 79.4799L63.3039 79.3899C63.3999 79.9179 63.6279 80.3379 63.9879 80.6499C64.3479 80.9619 64.8939 81.1179 65.6259 81.1179C66.2259 81.1179 66.6999 81.0219 67.0479 80.8299C67.3959 80.6379 67.5699 80.3319 67.5699 79.9119C67.5699 79.6839 67.5099 79.4919 67.3899 79.3359C67.2819 79.1679 67.0659 79.0299 66.7419 78.9219C66.4179 78.8019 65.9379 78.6879 65.3019 78.5799C64.3539 78.3999 63.6099 78.1899 63.0699 77.9499C62.5299 77.7099 62.1459 77.4039 61.9179 77.0319C61.6899 76.6599 61.5759 76.2099 61.5759 75.6819C61.5759 74.8059 61.8999 74.0919 62.5479 73.5399C63.2079 72.9879 64.1559 72.7119 65.3919 72.7119C66.2199 72.7119 66.9159 72.8559 67.4799 73.1439C68.0439 73.4199 68.4819 73.7979 68.7939 74.2779C69.1179 74.7459 69.3219 75.2739 69.4059 75.8619L67.4439 75.9699C67.3839 75.6339 67.2639 75.3459 67.0839 75.1059C66.9159 74.8539 66.6879 74.6619 66.3999 74.5299C66.1119 74.3859 65.7699 74.3139 65.3739 74.3139C64.7619 74.3139 64.3059 74.4339 64.0059 74.6739C63.7059 74.9139 63.5559 75.2259 63.5559 75.6099C63.5559 75.8979 63.6219 76.1319 63.7539 76.3119C63.8979 76.4919 64.1259 76.6419 64.4379 76.7619C64.7499 76.8699 65.1639 76.9659 65.6799 77.0499C66.6759 77.2179 67.4559 77.4279 68.0199 77.6799C68.5839 77.9199 68.9799 78.2199 69.2079 78.5799C69.4359 78.9399 69.5499 79.3779 69.5499 79.8939C69.5499 80.4939 69.3819 81.0039 69.0459 81.4239C68.7099 81.8439 68.2479 82.1679 67.6599 82.3959C67.0719 82.6119 66.3939 82.7199 65.6259 82.7199ZM76.0336 82.5039V72.9279H77.7796L77.8516 75.4659L77.6896 75.4119C77.8216 74.5479 78.0856 73.9179 78.4816 73.5219C78.8896 73.1259 79.4356 72.9279 80.1196 72.9279H81.0376V74.6379H80.1196C79.6396 74.6379 79.2376 74.7159 78.9136 74.8719C78.5896 75.0279 78.3436 75.2679 78.1756 75.5919C78.0196 75.9159 77.9416 76.3359 77.9416 76.8519V82.5039H76.0336ZM86.3389 82.7199C85.4029 82.7199 84.5929 82.5159 83.9089 82.1079C83.2369 81.6999 82.7149 81.1179 82.3429 80.3619C81.9829 79.6059 81.8029 78.7239 81.8029 77.7159C81.8029 76.7079 81.9829 75.8319 82.3429 75.0879C82.7149 74.3319 83.2369 73.7499 83.9089 73.3419C84.5809 72.9219 85.3729 72.7119 86.2849 72.7119C87.1489 72.7119 87.9109 72.9159 88.5709 73.3239C89.2309 73.7199 89.7409 74.2959 90.1009 75.0519C90.4729 75.8079 90.6589 76.7199 90.6589 77.7879V78.2739H83.7829C83.8309 79.2099 84.0769 79.9119 84.5209 80.3799C84.9769 80.8479 85.5889 81.0819 86.3569 81.0819C86.9209 81.0819 87.3889 80.9499 87.7609 80.6859C88.1329 80.4219 88.3909 80.0679 88.5349 79.6239L90.5149 79.7499C90.2629 80.6379 89.7649 81.3579 89.0209 81.9099C88.2889 82.4499 87.3949 82.7199 86.3389 82.7199ZM83.7829 76.8339H88.6429C88.5829 75.9819 88.3369 75.3519 87.9049 74.9439C87.4849 74.5359 86.9449 74.3319 86.2849 74.3319C85.6009 74.3319 85.0369 74.5479 84.5929 74.9799C84.1609 75.3999 83.8909 76.0179 83.7829 76.8339ZM95.9942 82.7199C95.1782 82.7199 94.4642 82.5159 93.8522 82.1079C93.2522 81.6999 92.7902 81.1239 92.4662 80.3799C92.1542 79.6239 91.9982 78.7359 91.9982 77.7159C91.9982 76.6959 92.1602 75.8139 92.4842 75.0699C92.8082 74.3139 93.2702 73.7319 93.8702 73.3239C94.4702 72.9159 95.1782 72.7119 95.9942 72.7119C96.6542 72.7119 97.2422 72.8499 97.7582 73.1259C98.2742 73.4019 98.6642 73.7859 98.9282 74.2779V69.7239H100.836V82.5039H99.0542L99.0002 81.0639C98.7362 81.5799 98.3342 81.9879 97.7942 82.2879C97.2662 82.5759 96.6662 82.7199 95.9942 82.7199ZM96.4982 81.0639C97.0142 81.0639 97.4522 80.9319 97.8122 80.6679C98.1722 80.4039 98.4482 80.0199 98.6402 79.5159C98.8322 79.0119 98.9282 78.4119 98.9282 77.7159C98.9282 76.9959 98.8322 76.3899 98.6402 75.8979C98.4482 75.3939 98.1722 75.0159 97.8122 74.7639C97.4522 74.4999 97.0142 74.3679 96.4982 74.3679C95.7302 74.3679 95.1182 74.6679 94.6622 75.2679C94.2062 75.8559 93.9782 76.6719 93.9782 77.7159C93.9782 78.7479 94.2062 79.5639 94.6622 80.1639C95.1182 80.7639 95.7302 81.0639 96.4982 81.0639ZM103.227 82.5039V72.9279H105.135V82.5039H103.227ZM103.191 71.5419V69.6339H105.171V71.5419H103.191ZM107.991 82.5039V72.9279H109.737L109.809 75.4659L109.647 75.4119C109.779 74.5479 110.043 73.9179 110.439 73.5219C110.847 73.1259 111.393 72.9279 112.077 72.9279H112.995V74.6379H112.077C111.597 74.6379 111.195 74.7159 110.871 74.8719C110.547 75.0279 110.301 75.2679 110.133 75.5919C109.977 75.9159 109.899 76.3359 109.899 76.8519V82.5039H107.991ZM118.296 82.7199C117.36 82.7199 116.55 82.5159 115.866 82.1079C115.194 81.6999 114.672 81.1179 114.3 80.3619C113.94 79.6059 113.76 78.7239 113.76 77.7159C113.76 76.7079 113.94 75.8319 114.3 75.0879C114.672 74.3319 115.194 73.7499 115.866 73.3419C116.538 72.9219 117.33 72.7119 118.242 72.7119C119.106 72.7119 119.868 72.9159 120.528 73.3239C121.188 73.7199 121.698 74.2959 122.058 75.0519C122.43 75.8079 122.616 76.7199 122.616 77.7879V78.2739H115.74C115.788 79.2099 116.034 79.9119 116.478 80.3799C116.934 80.8479 117.546 81.0819 118.314 81.0819C118.878 81.0819 119.346 80.9499 119.718 80.6859C120.09 80.4219 120.348 80.0679 120.492 79.6239L122.472 79.7499C122.22 80.6379 121.722 81.3579 120.978 81.9099C120.246 82.4499 119.352 82.7199 118.296 82.7199ZM115.74 76.8339H120.6C120.54 75.9819 120.294 75.3519 119.862 74.9439C119.442 74.5359 118.902 74.3319 118.242 74.3319C117.558 74.3319 116.994 74.5479 116.55 74.9799C116.118 75.3999 115.848 76.0179 115.74 76.8339ZM128.491 82.7199C127.579 82.7199 126.781 82.5159 126.097 82.1079C125.413 81.6999 124.885 81.1179 124.513 80.3619C124.141 79.6059 123.955 78.7239 123.955 77.7159C123.955 76.7079 124.141 75.8319 124.513 75.0879C124.885 74.3319 125.413 73.7499 126.097 73.3419C126.781 72.9219 127.579 72.7119 128.491 72.7119C129.271 72.7119 129.961 72.8499 130.561 73.1259C131.173 73.3899 131.665 73.7799 132.037 74.2959C132.421 74.8119 132.667 75.4419 132.775 76.1859L130.777 76.2939C130.681 75.6699 130.429 75.1959 130.021 74.8719C129.613 74.5359 129.103 74.3679 128.491 74.3679C127.687 74.3679 127.057 74.6679 126.601 75.2679C126.157 75.8559 125.935 76.6719 125.935 77.7159C125.935 78.7599 126.157 79.5819 126.601 80.1819C127.057 80.7699 127.687 81.0639 128.491 81.0639C129.103 81.0639 129.613 80.8959 130.021 80.5599C130.429 80.2119 130.681 79.6899 130.777 78.9939L132.775 79.1019C132.667 79.8339 132.421 80.4699 132.037 81.0099C131.665 81.5499 131.173 81.9699 130.561 82.2699C129.961 82.5699 129.271 82.7199 128.491 82.7199ZM137.836 82.5039C136.924 82.5039 136.252 82.2939 135.82 81.8739C135.388 81.4539 135.172 80.7999 135.172 79.9119V70.6779H137.08V79.7679C137.08 80.2119 137.176 80.5179 137.368 80.6859C137.56 80.8539 137.854 80.9379 138.25 80.9379H139.618V82.5039H137.836ZM133.714 74.4939V72.9279H139.618V74.4939H133.714ZM145.226 82.7199C144.29 82.7199 143.48 82.5159 142.796 82.1079C142.124 81.6999 141.602 81.1179 141.23 80.3619C140.87 79.6059 140.69 78.7239 140.69 77.7159C140.69 76.7079 140.87 75.8319 141.23 75.0879C141.602 74.3319 142.124 73.7499 142.796 73.3419C143.468 72.9219 144.26 72.7119 145.172 72.7119C146.036 72.7119 146.798 72.9159 147.458 73.3239C148.118 73.7199 148.628 74.2959 148.988 75.0519C149.36 75.8079 149.546 76.7199 149.546 77.7879V78.2739H142.67C142.718 79.2099 142.964 79.9119 143.408 80.3799C143.864 80.8479 144.476 81.0819 145.244 81.0819C145.808 81.0819 146.276 80.9499 146.648 80.6859C147.02 80.4219 147.278 80.0679 147.422 79.6239L149.402 79.7499C149.15 80.6379 148.652 81.3579 147.908 81.9099C147.176 82.4499 146.282 82.7199 145.226 82.7199ZM142.67 76.8339H147.53C147.47 75.9819 147.224 75.3519 146.792 74.9439C146.372 74.5359 145.832 74.3319 145.172 74.3319C144.488 74.3319 143.924 74.5479 143.48 74.9799C143.048 75.3999 142.778 76.0179 142.67 76.8339ZM154.881 82.7199C154.065 82.7199 153.351 82.5159 152.739 82.1079C152.139 81.6999 151.677 81.1239 151.353 80.3799C151.041 79.6239 150.885 78.7359 150.885 77.7159C150.885 76.6959 151.047 75.8139 151.371 75.0699C151.695 74.3139 152.157 73.7319 152.757 73.3239C153.357 72.9159 154.065 72.7119 154.881 72.7119C155.541 72.7119 156.129 72.8499 156.645 73.1259C157.161 73.4019 157.551 73.7859 157.815 74.2779V69.7239H159.723V82.5039H157.941L157.887 81.0639C157.623 81.5799 157.221 81.9879 156.681 82.2879C156.153 82.5759 155.553 82.7199 154.881 82.7199ZM155.385 81.0639C155.901 81.0639 156.339 80.9319 156.699 80.6679C157.059 80.4039 157.335 80.0199 157.527 79.5159C157.719 79.0119 157.815 78.4119 157.815 77.7159C157.815 76.9959 157.719 76.3899 157.527 75.8979C157.335 75.3939 157.059 75.0159 156.699 74.7639C156.339 74.4999 155.901 74.3679 155.385 74.3679C154.617 74.3679 154.005 74.6679 153.549 75.2679C153.093 75.8559 152.865 76.6719 152.865 77.7159C152.865 78.7479 153.093 79.5639 153.549 80.1639C154.005 80.7639 154.617 81.0639 155.385 81.0639Z" fill="black"/>
</svg>
