<svg width="250" height="154" viewBox="0 0 250 154" fill="none" xmlns="http://www.w3.org/2000/svg">
<path d="M126.9 19L135.97 0L114.03 0L123.1 19H126.9ZM123.656 153.346C124.398 154.088 125.602 154.088 126.344 153.346L138.435 141.255C139.177 140.513 139.177 139.31 138.435 138.568C137.693 137.826 136.49 137.826 135.748 138.568L125 149.316L114.252 138.568C113.51 137.826 112.307 137.826 111.565 138.568C110.823 139.31 110.823 140.513 111.565 141.255L123.656 153.346ZM125 17.1H123.1L123.1 152.003H125H126.9L126.9 17.1H125Z" fill="#5CC05E"/>
<rect x="1" y="36" width="247.4" height="50" rx="15" fill="white"/>
<rect x="1" y="36" width="247.4" height="50" rx="15" stroke="#DDDDDD" stroke-width="2"/>
<path d="M16.374 67V61.87L11.892 54.22H14.124L17.346 59.926L20.586 54.22H22.818L18.318 61.87V67H16.374ZM25.5769 67.216C24.5809 67.216 23.7829 66.988 23.1829 66.532C22.5949 66.076 22.3009 65.434 22.3009 64.606C22.3009 63.778 22.5469 63.136 23.0389 62.68C23.5429 62.212 24.3169 61.876 25.3609 61.672L28.6549 61.042C28.6549 60.298 28.4809 59.746 28.1329 59.386C27.7849 59.014 27.2689 58.828 26.5849 58.828C25.9729 58.828 25.4929 58.966 25.1449 59.242C24.7969 59.506 24.5569 59.902 24.4249 60.43L22.4629 60.304C22.6429 59.344 23.0869 58.588 23.7949 58.036C24.5149 57.484 25.4449 57.208 26.5849 57.208C27.8809 57.208 28.8649 57.556 29.5369 58.252C30.2209 58.936 30.5629 59.902 30.5629 61.15V64.876C30.5629 65.104 30.5989 65.266 30.6709 65.362C30.7549 65.446 30.8869 65.488 31.0669 65.488H31.4089V67C31.3489 67.012 31.2529 67.024 31.1209 67.036C30.9889 67.048 30.8509 67.054 30.7069 67.054C30.2989 67.054 29.9449 66.988 29.6449 66.856C29.3569 66.724 29.1409 66.508 28.9969 66.208C28.8529 65.896 28.7809 65.482 28.7809 64.966L28.9789 65.056C28.8829 65.476 28.6729 65.848 28.3489 66.172C28.0369 66.496 27.6349 66.754 27.1429 66.946C26.6629 67.126 26.1409 67.216 25.5769 67.216ZM25.8829 65.704C26.4589 65.704 26.9509 65.596 27.3589 65.38C27.7669 65.152 28.0849 64.84 28.3129 64.444C28.5409 64.048 28.6549 63.598 28.6549 63.094V62.482L25.8469 63.022C25.2709 63.13 24.8629 63.304 24.6229 63.544C24.3949 63.772 24.2809 64.066 24.2809 64.426C24.2809 64.834 24.4189 65.152 24.6949 65.38C24.9829 65.596 25.3789 65.704 25.8829 65.704ZM36.6396 67.216C35.7396 67.216 34.9776 67.078 34.3536 66.802C33.7416 66.526 33.2676 66.148 32.9316 65.668C32.5956 65.176 32.4036 64.612 32.3556 63.976L34.3176 63.886C34.4136 64.414 34.6416 64.834 35.0016 65.146C35.3616 65.458 35.9076 65.614 36.6396 65.614C37.2396 65.614 37.7136 65.518 38.0616 65.326C38.4096 65.134 38.5836 64.828 38.5836 64.408C38.5836 64.18 38.5236 63.988 38.4036 63.832C38.2956 63.664 38.0796 63.526 37.7556 63.418C37.4316 63.298 36.9516 63.184 36.3156 63.076C35.3676 62.896 34.6236 62.686 34.0836 62.446C33.5436 62.206 33.1596 61.9 32.9316 61.528C32.7036 61.156 32.5896 60.706 32.5896 60.178C32.5896 59.302 32.9136 58.588 33.5616 58.036C34.2216 57.484 35.1696 57.208 36.4056 57.208C37.2336 57.208 37.9296 57.352 38.4936 57.64C39.0576 57.916 39.4956 58.294 39.8076 58.774C40.1316 59.242 40.3356 59.77 40.4196 60.358L38.4576 60.466C38.3976 60.13 38.2776 59.842 38.0976 59.602C37.9296 59.35 37.7016 59.158 37.4136 59.026C37.1256 58.882 36.7836 58.81 36.3876 58.81C35.7756 58.81 35.3196 58.93 35.0196 59.17C34.7196 59.41 34.5696 59.722 34.5696 60.106C34.5696 60.394 34.6356 60.628 34.7676 60.808C34.9116 60.988 35.1396 61.138 35.4516 61.258C35.7636 61.366 36.1776 61.462 36.6936 61.546C37.6896 61.714 38.4696 61.924 39.0336 62.176C39.5976 62.416 39.9936 62.716 40.2216 63.076C40.4496 63.436 40.5636 63.874 40.5636 64.39C40.5636 64.99 40.3956 65.5 40.0596 65.92C39.7236 66.34 39.2616 66.664 38.6736 66.892C38.0856 67.108 37.4076 67.216 36.6396 67.216ZM42.4945 67V54.22H44.4025V59.584L44.1685 59.548C44.2765 59.008 44.4745 58.57 44.7625 58.234C45.0505 57.886 45.4045 57.628 45.8245 57.46C46.2445 57.292 46.7065 57.208 47.2105 57.208C47.9065 57.208 48.4945 57.364 48.9745 57.676C49.4545 57.976 49.8145 58.402 50.0545 58.954C50.3065 59.506 50.4325 60.136 50.4325 60.844V67H48.5245V61.348C48.5245 60.484 48.3745 59.848 48.0745 59.44C47.7865 59.02 47.3305 58.81 46.7065 58.81C46.0105 58.81 45.4525 59.032 45.0325 59.476C44.6125 59.908 44.4025 60.544 44.4025 61.384V67H42.4945ZM61.1783 67C60.2663 67 59.5943 66.79 59.1623 66.37C58.7303 65.95 58.5143 65.296 58.5143 64.408V55.174H60.4223V64.264C60.4223 64.708 60.5183 65.014 60.7103 65.182C60.9023 65.35 61.1963 65.434 61.5923 65.434H62.9603V67H61.1783ZM57.0563 58.99V57.424H62.9603V58.99H57.0563ZM67.4129 67.216C66.4169 67.216 65.6189 66.988 65.0189 66.532C64.4309 66.076 64.1369 65.434 64.1369 64.606C64.1369 63.778 64.3829 63.136 64.8749 62.68C65.3789 62.212 66.1529 61.876 67.1969 61.672L70.4909 61.042C70.4909 60.298 70.3169 59.746 69.9689 59.386C69.6209 59.014 69.1049 58.828 68.4209 58.828C67.8089 58.828 67.3289 58.966 66.9809 59.242C66.6329 59.506 66.3929 59.902 66.2609 60.43L64.2989 60.304C64.4789 59.344 64.9229 58.588 65.6309 58.036C66.3509 57.484 67.2809 57.208 68.4209 57.208C69.7169 57.208 70.7009 57.556 71.3729 58.252C72.0569 58.936 72.3989 59.902 72.3989 61.15V64.876C72.3989 65.104 72.4349 65.266 72.5069 65.362C72.5909 65.446 72.7229 65.488 72.9029 65.488H73.2449V67C73.1849 67.012 73.0889 67.024 72.9569 67.036C72.8249 67.048 72.6869 67.054 72.5429 67.054C72.1349 67.054 71.7809 66.988 71.4809 66.856C71.1929 66.724 70.9769 66.508 70.8329 66.208C70.6889 65.896 70.6169 65.482 70.6169 64.966L70.8149 65.056C70.7189 65.476 70.5089 65.848 70.1849 66.172C69.8729 66.496 69.4709 66.754 68.9789 66.946C68.4989 67.126 67.9769 67.216 67.4129 67.216ZM67.7189 65.704C68.2949 65.704 68.7869 65.596 69.1949 65.38C69.6029 65.152 69.9209 64.84 70.1489 64.444C70.3769 64.048 70.4909 63.598 70.4909 63.094V62.482L67.6829 63.022C67.1069 63.13 66.6989 63.304 66.4589 63.544C66.2309 63.772 66.1169 64.066 66.1169 64.426C66.1169 64.834 66.2549 65.152 66.5309 65.38C66.8189 65.596 67.2149 65.704 67.7189 65.704ZM74.8559 69.7V57.424H76.6559L76.7099 59.476L76.4939 59.368C76.7339 58.66 77.1299 58.126 77.6819 57.766C78.2339 57.394 78.8699 57.208 79.5899 57.208C80.5259 57.208 81.2939 57.442 81.8939 57.91C82.5059 58.366 82.9559 58.972 83.2439 59.728C83.5439 60.484 83.6939 61.312 83.6939 62.212C83.6939 63.112 83.5439 63.94 83.2439 64.696C82.9559 65.452 82.5059 66.064 81.8939 66.532C81.2939 66.988 80.5259 67.216 79.5899 67.216C79.1099 67.216 78.6599 67.132 78.2399 66.964C77.8199 66.796 77.4599 66.562 77.1599 66.262C76.8719 65.95 76.6679 65.584 76.5479 65.164L76.7639 64.948V69.7H74.8559ZM79.2479 65.56C80.0159 65.56 80.6159 65.266 81.0479 64.678C81.4919 64.09 81.7139 63.268 81.7139 62.212C81.7139 61.156 81.4919 60.334 81.0479 59.746C80.6159 59.158 80.0159 58.864 79.2479 58.864C78.7439 58.864 78.3059 58.99 77.9339 59.242C77.5619 59.482 77.2739 59.854 77.0699 60.358C76.8659 60.862 76.7639 61.48 76.7639 62.212C76.7639 62.944 76.8599 63.562 77.0519 64.066C77.2559 64.57 77.5439 64.948 77.9159 65.2C78.2999 65.44 78.7439 65.56 79.2479 65.56ZM89.3213 67.216C88.4213 67.216 87.6593 67.078 87.0353 66.802C86.4233 66.526 85.9493 66.148 85.6133 65.668C85.2773 65.176 85.0853 64.612 85.0373 63.976L86.9993 63.886C87.0953 64.414 87.3233 64.834 87.6833 65.146C88.0433 65.458 88.5893 65.614 89.3213 65.614C89.9213 65.614 90.3953 65.518 90.7433 65.326C91.0913 65.134 91.2653 64.828 91.2653 64.408C91.2653 64.18 91.2053 63.988 91.0853 63.832C90.9773 63.664 90.7613 63.526 90.4373 63.418C90.1133 63.298 89.6333 63.184 88.9973 63.076C88.0493 62.896 87.3053 62.686 86.7653 62.446C86.2253 62.206 85.8413 61.9 85.6133 61.528C85.3853 61.156 85.2713 60.706 85.2713 60.178C85.2713 59.302 85.5953 58.588 86.2433 58.036C86.9033 57.484 87.8513 57.208 89.0873 57.208C89.9153 57.208 90.6113 57.352 91.1753 57.64C91.7393 57.916 92.1773 58.294 92.4893 58.774C92.8133 59.242 93.0173 59.77 93.1013 60.358L91.1393 60.466C91.0793 60.13 90.9593 59.842 90.7793 59.602C90.6113 59.35 90.3833 59.158 90.0953 59.026C89.8073 58.882 89.4653 58.81 89.0693 58.81C88.4573 58.81 88.0013 58.93 87.7013 59.17C87.4013 59.41 87.2513 59.722 87.2513 60.106C87.2513 60.394 87.3173 60.628 87.4493 60.808C87.5933 60.988 87.8213 61.138 88.1333 61.258C88.4453 61.366 88.8593 61.462 89.3753 61.546C90.3713 61.714 91.1513 61.924 91.7153 62.176C92.2793 62.416 92.6753 62.716 92.9033 63.076C93.1313 63.436 93.2453 63.874 93.2453 64.39C93.2453 64.99 93.0773 65.5 92.7413 65.92C92.4053 66.34 91.9433 66.664 91.3553 66.892C90.7673 67.108 90.0893 67.216 89.3213 67.216Z" fill="black"/>
<path d="M105.624 53.932L104.724 56.758H105.732V59.026H103.392V57.028L104.526 53.932H105.624ZM108.9 53.932L108 56.758H108.99V59.026H106.668V57.028L107.802 53.932H108.9ZM115.946 67.288C114.926 67.288 114.038 67.102 113.282 66.73C112.538 66.358 111.95 65.842 111.518 65.182C111.086 64.522 110.834 63.754 110.762 62.878L112.76 62.752C112.844 63.352 113.018 63.862 113.282 64.282C113.546 64.69 113.9 65.002 114.344 65.218C114.8 65.422 115.346 65.524 115.982 65.524C116.534 65.524 117.002 65.458 117.386 65.326C117.782 65.182 118.082 64.972 118.286 64.696C118.49 64.42 118.592 64.084 118.592 63.688C118.592 63.328 118.502 63.01 118.322 62.734C118.154 62.446 117.824 62.188 117.332 61.96C116.852 61.72 116.144 61.486 115.208 61.258C114.188 61.006 113.372 60.73 112.76 60.43C112.148 60.13 111.704 59.758 111.428 59.314C111.164 58.858 111.032 58.3 111.032 57.64C111.032 56.908 111.206 56.266 111.554 55.714C111.914 55.15 112.424 54.712 113.084 54.4C113.744 54.088 114.536 53.932 115.46 53.932C116.432 53.932 117.26 54.112 117.944 54.472C118.64 54.832 119.186 55.324 119.582 55.948C119.99 56.572 120.242 57.286 120.338 58.09L118.34 58.198C118.28 57.706 118.13 57.274 117.89 56.902C117.65 56.518 117.326 56.224 116.918 56.02C116.51 55.804 116.012 55.696 115.424 55.696C114.68 55.696 114.092 55.87 113.66 56.218C113.24 56.554 113.03 57.004 113.03 57.568C113.03 57.928 113.114 58.234 113.282 58.486C113.462 58.726 113.774 58.936 114.218 59.116C114.674 59.296 115.316 59.488 116.144 59.692C117.248 59.944 118.124 60.256 118.772 60.628C119.432 60.988 119.9 61.414 120.176 61.906C120.452 62.398 120.59 62.956 120.59 63.58C120.59 64.336 120.392 64.996 119.996 65.56C119.612 66.112 119.072 66.538 118.376 66.838C117.68 67.138 116.87 67.288 115.946 67.288ZM127.07 67.216C126.134 67.216 125.324 67.012 124.64 66.604C123.968 66.196 123.446 65.614 123.074 64.858C122.714 64.102 122.534 63.22 122.534 62.212C122.534 61.204 122.714 60.328 123.074 59.584C123.446 58.828 123.968 58.246 124.64 57.838C125.312 57.418 126.104 57.208 127.016 57.208C127.88 57.208 128.642 57.412 129.302 57.82C129.962 58.216 130.472 58.792 130.832 59.548C131.204 60.304 131.39 61.216 131.39 62.284V62.77H124.514C124.562 63.706 124.808 64.408 125.252 64.876C125.708 65.344 126.32 65.578 127.088 65.578C127.652 65.578 128.12 65.446 128.492 65.182C128.864 64.918 129.122 64.564 129.266 64.12L131.246 64.246C130.994 65.134 130.496 65.854 129.752 66.406C129.02 66.946 128.126 67.216 127.07 67.216ZM124.514 61.33H129.374C129.314 60.478 129.068 59.848 128.636 59.44C128.216 59.032 127.676 58.828 127.016 58.828C126.332 58.828 125.768 59.044 125.324 59.476C124.892 59.896 124.622 60.514 124.514 61.33ZM135.499 67C134.875 67 134.371 66.838 133.987 66.514C133.603 66.19 133.411 65.674 133.411 64.966V54.22H135.319V64.786C135.319 65.002 135.373 65.164 135.481 65.272C135.601 65.38 135.769 65.434 135.985 65.434H136.741V67H135.499ZM142.31 67.216C141.374 67.216 140.564 67.012 139.88 66.604C139.208 66.196 138.686 65.614 138.314 64.858C137.954 64.102 137.774 63.22 137.774 62.212C137.774 61.204 137.954 60.328 138.314 59.584C138.686 58.828 139.208 58.246 139.88 57.838C140.552 57.418 141.344 57.208 142.256 57.208C143.12 57.208 143.882 57.412 144.542 57.82C145.202 58.216 145.712 58.792 146.072 59.548C146.444 60.304 146.63 61.216 146.63 62.284V62.77H139.754C139.802 63.706 140.048 64.408 140.492 64.876C140.948 65.344 141.56 65.578 142.328 65.578C142.892 65.578 143.36 65.446 143.732 65.182C144.104 64.918 144.362 64.564 144.506 64.12L146.486 64.246C146.234 65.134 145.736 65.854 144.992 66.406C144.26 66.946 143.366 67.216 142.31 67.216ZM139.754 61.33H144.614C144.554 60.478 144.308 59.848 143.876 59.44C143.456 59.032 142.916 58.828 142.256 58.828C141.572 58.828 141.008 59.044 140.564 59.476C140.132 59.896 139.862 60.514 139.754 61.33ZM152.505 67.216C151.593 67.216 150.795 67.012 150.111 66.604C149.427 66.196 148.899 65.614 148.527 64.858C148.155 64.102 147.969 63.22 147.969 62.212C147.969 61.204 148.155 60.328 148.527 59.584C148.899 58.828 149.427 58.246 150.111 57.838C150.795 57.418 151.593 57.208 152.505 57.208C153.285 57.208 153.975 57.346 154.575 57.622C155.187 57.886 155.679 58.276 156.051 58.792C156.435 59.308 156.681 59.938 156.789 60.682L154.791 60.79C154.695 60.166 154.443 59.692 154.035 59.368C153.627 59.032 153.117 58.864 152.505 58.864C151.701 58.864 151.071 59.164 150.615 59.764C150.171 60.352 149.949 61.168 149.949 62.212C149.949 63.256 150.171 64.078 150.615 64.678C151.071 65.266 151.701 65.56 152.505 65.56C153.117 65.56 153.627 65.392 154.035 65.056C154.443 64.708 154.695 64.186 154.791 63.49L156.789 63.598C156.681 64.33 156.435 64.966 156.051 65.506C155.679 66.046 155.187 66.466 154.575 66.766C153.975 67.066 153.285 67.216 152.505 67.216ZM161.851 67C160.939 67 160.267 66.79 159.835 66.37C159.403 65.95 159.187 65.296 159.187 64.408V55.174H161.095V64.264C161.095 64.708 161.191 65.014 161.383 65.182C161.575 65.35 161.869 65.434 162.265 65.434H163.633V67H161.851ZM157.729 58.99V57.424H163.633V58.99H157.729ZM170.136 67V54.22H178.434V56.002H171.054L172.08 54.94V60.808L171.054 59.89H178.11V61.618H171.054L172.08 60.7V67H170.136ZM180.327 67V57.424H182.235V67H180.327ZM180.291 56.038V54.13H182.271V56.038H180.291ZM186.88 67C186.256 67 185.752 66.838 185.368 66.514C184.984 66.19 184.792 65.674 184.792 64.966V54.22H186.7V64.786C186.7 65.002 186.754 65.164 186.862 65.272C186.982 65.38 187.15 65.434 187.366 65.434H188.122V67H186.88ZM193.691 67.216C192.755 67.216 191.945 67.012 191.261 66.604C190.589 66.196 190.067 65.614 189.695 64.858C189.335 64.102 189.155 63.22 189.155 62.212C189.155 61.204 189.335 60.328 189.695 59.584C190.067 58.828 190.589 58.246 191.261 57.838C191.933 57.418 192.725 57.208 193.637 57.208C194.501 57.208 195.263 57.412 195.923 57.82C196.583 58.216 197.093 58.792 197.453 59.548C197.825 60.304 198.011 61.216 198.011 62.284V62.77H191.135C191.183 63.706 191.429 64.408 191.873 64.876C192.329 65.344 192.941 65.578 193.709 65.578C194.273 65.578 194.741 65.446 195.113 65.182C195.485 64.918 195.743 64.564 195.887 64.12L197.867 64.246C197.615 65.134 197.117 65.854 196.373 66.406C195.641 66.946 194.747 67.216 193.691 67.216ZM191.135 61.33H195.995C195.935 60.478 195.689 59.848 195.257 59.44C194.837 59.032 194.297 58.828 193.637 58.828C192.953 58.828 192.389 59.044 191.945 59.476C191.513 59.896 191.243 60.514 191.135 61.33ZM203.634 67.216C202.734 67.216 201.972 67.078 201.348 66.802C200.736 66.526 200.262 66.148 199.926 65.668C199.59 65.176 199.398 64.612 199.35 63.976L201.312 63.886C201.408 64.414 201.636 64.834 201.996 65.146C202.356 65.458 202.902 65.614 203.634 65.614C204.234 65.614 204.708 65.518 205.056 65.326C205.404 65.134 205.578 64.828 205.578 64.408C205.578 64.18 205.518 63.988 205.398 63.832C205.29 63.664 205.074 63.526 204.75 63.418C204.426 63.298 203.946 63.184 203.31 63.076C202.362 62.896 201.618 62.686 201.078 62.446C200.538 62.206 200.154 61.9 199.926 61.528C199.698 61.156 199.584 60.706 199.584 60.178C199.584 59.302 199.908 58.588 200.556 58.036C201.216 57.484 202.164 57.208 203.4 57.208C204.228 57.208 204.924 57.352 205.488 57.64C206.052 57.916 206.49 58.294 206.802 58.774C207.126 59.242 207.33 59.77 207.414 60.358L205.452 60.466C205.392 60.13 205.272 59.842 205.092 59.602C204.924 59.35 204.696 59.158 204.408 59.026C204.12 58.882 203.778 58.81 203.382 58.81C202.77 58.81 202.314 58.93 202.014 59.17C201.714 59.41 201.564 59.722 201.564 60.106C201.564 60.394 201.63 60.628 201.762 60.808C201.906 60.988 202.134 61.138 202.446 61.258C202.758 61.366 203.172 61.462 203.688 61.546C204.684 61.714 205.464 61.924 206.028 62.176C206.592 62.416 206.988 62.716 207.216 63.076C207.444 63.436 207.558 63.874 207.558 64.39C207.558 64.99 207.39 65.5 207.054 65.92C206.718 66.34 206.256 66.664 205.668 66.892C205.08 67.108 204.402 67.216 203.634 67.216ZM212.473 59.314L213.373 56.488H212.383V54.22H214.705V56.218L213.571 59.314H212.473ZM209.197 59.314L210.097 56.488H209.107V54.22H211.429V56.218L210.295 59.314H209.197Z" fill="black"/>
</svg>
