<svg width="195" height="154" viewBox="0 0 195 154" fill="none" xmlns="http://www.w3.org/2000/svg">
<path d="M98.4 19L107.47 0L85.5303 0L94.6 19H98.4ZM95.1565 153.346C95.8985 154.088 97.1015 154.088 97.8435 153.346L109.935 141.255C110.677 140.513 110.677 139.31 109.935 138.568C109.193 137.826 107.99 137.826 107.248 138.568L96.5 149.316L85.752 138.568C85.01 137.826 83.807 137.826 83.065 138.568C82.323 139.31 82.323 140.513 83.065 141.255L95.1565 153.346ZM96.5 17.1H94.6L94.6 152.003H96.5H98.4L98.4 17.1H96.5Z" fill="#5CC05E"/>
<rect x="1" y="51.5156" width="192.6" height="50" rx="15" fill="white"/>
<rect x="1" y="51.5156" width="192.6" height="50" rx="15" stroke="#DDDDDD" stroke-width="2"/>
<path d="M16.374 82.5156V77.3856L11.892 69.7356H14.124L17.346 75.4416L20.586 69.7356H22.818L18.318 77.3856V82.5156H16.374ZM25.5769 82.7316C24.5809 82.7316 23.7829 82.5036 23.1829 82.0476C22.5949 81.5916 22.3009 80.9496 22.3009 80.1216C22.3009 79.2936 22.5469 78.6516 23.0389 78.1956C23.5429 77.7276 24.3169 77.3916 25.3609 77.1876L28.6549 76.5576C28.6549 75.8136 28.4809 75.2616 28.1329 74.9016C27.7849 74.5296 27.2689 74.3436 26.5849 74.3436C25.9729 74.3436 25.4929 74.4816 25.1449 74.7576C24.7969 75.0216 24.5569 75.4176 24.4249 75.9456L22.4629 75.8196C22.6429 74.8596 23.0869 74.1036 23.7949 73.5516C24.5149 72.9996 25.4449 72.7236 26.5849 72.7236C27.8809 72.7236 28.8649 73.0716 29.5369 73.7676C30.2209 74.4516 30.5629 75.4176 30.5629 76.6656V80.3916C30.5629 80.6196 30.5989 80.7816 30.6709 80.8776C30.7549 80.9616 30.8869 81.0036 31.0669 81.0036H31.4089V82.5156C31.3489 82.5276 31.2529 82.5396 31.1209 82.5516C30.9889 82.5636 30.8509 82.5696 30.7069 82.5696C30.2989 82.5696 29.9449 82.5036 29.6449 82.3716C29.3569 82.2396 29.1409 82.0236 28.9969 81.7236C28.8529 81.4116 28.7809 80.9976 28.7809 80.4816L28.9789 80.5716C28.8829 80.9916 28.6729 81.3636 28.3489 81.6876C28.0369 82.0116 27.6349 82.2696 27.1429 82.4616C26.6629 82.6416 26.1409 82.7316 25.5769 82.7316ZM25.8829 81.2196C26.4589 81.2196 26.9509 81.1116 27.3589 80.8956C27.7669 80.6676 28.0849 80.3556 28.3129 79.9596C28.5409 79.5636 28.6549 79.1136 28.6549 78.6096V77.9976L25.8469 78.5376C25.2709 78.6456 24.8629 78.8196 24.6229 79.0596C24.3949 79.2876 24.2809 79.5816 24.2809 79.9416C24.2809 80.3496 24.4189 80.6676 24.6949 80.8956C24.9829 81.1116 25.3789 81.2196 25.8829 81.2196ZM36.6396 82.7316C35.7396 82.7316 34.9776 82.5936 34.3536 82.3176C33.7416 82.0416 33.2676 81.6636 32.9316 81.1836C32.5956 80.6916 32.4036 80.1276 32.3556 79.4916L34.3176 79.4016C34.4136 79.9296 34.6416 80.3496 35.0016 80.6616C35.3616 80.9736 35.9076 81.1296 36.6396 81.1296C37.2396 81.1296 37.7136 81.0336 38.0616 80.8416C38.4096 80.6496 38.5836 80.3436 38.5836 79.9236C38.5836 79.6956 38.5236 79.5036 38.4036 79.3476C38.2956 79.1796 38.0796 79.0416 37.7556 78.9336C37.4316 78.8136 36.9516 78.6996 36.3156 78.5916C35.3676 78.4116 34.6236 78.2016 34.0836 77.9616C33.5436 77.7216 33.1596 77.4156 32.9316 77.0436C32.7036 76.6716 32.5896 76.2216 32.5896 75.6936C32.5896 74.8176 32.9136 74.1036 33.5616 73.5516C34.2216 72.9996 35.1696 72.7236 36.4056 72.7236C37.2336 72.7236 37.9296 72.8676 38.4936 73.1556C39.0576 73.4316 39.4956 73.8096 39.8076 74.2896C40.1316 74.7576 40.3356 75.2856 40.4196 75.8736L38.4576 75.9816C38.3976 75.6456 38.2776 75.3576 38.0976 75.1176C37.9296 74.8656 37.7016 74.6736 37.4136 74.5416C37.1256 74.3976 36.7836 74.3256 36.3876 74.3256C35.7756 74.3256 35.3196 74.4456 35.0196 74.6856C34.7196 74.9256 34.5696 75.2376 34.5696 75.6216C34.5696 75.9096 34.6356 76.1436 34.7676 76.3236C34.9116 76.5036 35.1396 76.6536 35.4516 76.7736C35.7636 76.8816 36.1776 76.9776 36.6936 77.0616C37.6896 77.2296 38.4696 77.4396 39.0336 77.6916C39.5976 77.9316 39.9936 78.2316 40.2216 78.5916C40.4496 78.9516 40.5636 79.3896 40.5636 79.9056C40.5636 80.5056 40.3956 81.0156 40.0596 81.4356C39.7236 81.8556 39.2616 82.1796 38.6736 82.4076C38.0856 82.6236 37.4076 82.7316 36.6396 82.7316ZM42.4945 82.5156V69.7356H44.4025V75.0996L44.1685 75.0636C44.2765 74.5236 44.4745 74.0856 44.7625 73.7496C45.0505 73.4016 45.4045 73.1436 45.8245 72.9756C46.2445 72.8076 46.7065 72.7236 47.2105 72.7236C47.9065 72.7236 48.4945 72.8796 48.9745 73.1916C49.4545 73.4916 49.8145 73.9176 50.0545 74.4696C50.3065 75.0216 50.4325 75.6516 50.4325 76.3596V82.5156H48.5245V76.8636C48.5245 75.9996 48.3745 75.3636 48.0745 74.9556C47.7865 74.5356 47.3305 74.3256 46.7065 74.3256C46.0105 74.3256 45.4525 74.5476 45.0325 74.9916C44.6125 75.4236 44.4025 76.0596 44.4025 76.8996V82.5156H42.4945ZM61.1783 82.5156C60.2663 82.5156 59.5943 82.3056 59.1623 81.8856C58.7303 81.4656 58.5143 80.8116 58.5143 79.9236V70.6896H60.4223V79.7796C60.4223 80.2236 60.5183 80.5296 60.7103 80.6976C60.9023 80.8656 61.1963 80.9496 61.5923 80.9496H62.9603V82.5156H61.1783ZM57.0563 74.5056V72.9396H62.9603V74.5056H57.0563ZM67.4129 82.7316C66.4169 82.7316 65.6189 82.5036 65.0189 82.0476C64.4309 81.5916 64.1369 80.9496 64.1369 80.1216C64.1369 79.2936 64.3829 78.6516 64.8749 78.1956C65.3789 77.7276 66.1529 77.3916 67.1969 77.1876L70.4909 76.5576C70.4909 75.8136 70.3169 75.2616 69.9689 74.9016C69.6209 74.5296 69.1049 74.3436 68.4209 74.3436C67.8089 74.3436 67.3289 74.4816 66.9809 74.7576C66.6329 75.0216 66.3929 75.4176 66.2609 75.9456L64.2989 75.8196C64.4789 74.8596 64.9229 74.1036 65.6309 73.5516C66.3509 72.9996 67.2809 72.7236 68.4209 72.7236C69.7169 72.7236 70.7009 73.0716 71.3729 73.7676C72.0569 74.4516 72.3989 75.4176 72.3989 76.6656V80.3916C72.3989 80.6196 72.4349 80.7816 72.5069 80.8776C72.5909 80.9616 72.7229 81.0036 72.9029 81.0036H73.2449V82.5156C73.1849 82.5276 73.0889 82.5396 72.9569 82.5516C72.8249 82.5636 72.6869 82.5696 72.5429 82.5696C72.1349 82.5696 71.7809 82.5036 71.4809 82.3716C71.1929 82.2396 70.9769 82.0236 70.8329 81.7236C70.6889 81.4116 70.6169 80.9976 70.6169 80.4816L70.8149 80.5716C70.7189 80.9916 70.5089 81.3636 70.1849 81.6876C69.8729 82.0116 69.4709 82.2696 68.9789 82.4616C68.4989 82.6416 67.9769 82.7316 67.4129 82.7316ZM67.7189 81.2196C68.2949 81.2196 68.7869 81.1116 69.1949 80.8956C69.6029 80.6676 69.9209 80.3556 70.1489 79.9596C70.3769 79.5636 70.4909 79.1136 70.4909 78.6096V77.9976L67.6829 78.5376C67.1069 78.6456 66.6989 78.8196 66.4589 79.0596C66.2309 79.2876 66.1169 79.5816 66.1169 79.9416C66.1169 80.3496 66.2549 80.6676 66.5309 80.8956C66.8189 81.1116 67.2149 81.2196 67.7189 81.2196ZM74.8559 85.2156V72.9396H76.6559L76.7099 74.9916L76.4939 74.8836C76.7339 74.1756 77.1299 73.6416 77.6819 73.2816C78.2339 72.9096 78.8699 72.7236 79.5899 72.7236C80.5259 72.7236 81.2939 72.9576 81.8939 73.4256C82.5059 73.8816 82.9559 74.4876 83.2439 75.2436C83.5439 75.9996 83.6939 76.8276 83.6939 77.7276C83.6939 78.6276 83.5439 79.4556 83.2439 80.2116C82.9559 80.9676 82.5059 81.5796 81.8939 82.0476C81.2939 82.5036 80.5259 82.7316 79.5899 82.7316C79.1099 82.7316 78.6599 82.6476 78.2399 82.4796C77.8199 82.3116 77.4599 82.0776 77.1599 81.7776C76.8719 81.4656 76.6679 81.0996 76.5479 80.6796L76.7639 80.4636V85.2156H74.8559ZM79.2479 81.0756C80.0159 81.0756 80.6159 80.7816 81.0479 80.1936C81.4919 79.6056 81.7139 78.7836 81.7139 77.7276C81.7139 76.6716 81.4919 75.8496 81.0479 75.2616C80.6159 74.6736 80.0159 74.3796 79.2479 74.3796C78.7439 74.3796 78.3059 74.5056 77.9339 74.7576C77.5619 74.9976 77.2739 75.3696 77.0699 75.8736C76.8659 76.3776 76.7639 76.9956 76.7639 77.7276C76.7639 78.4596 76.8599 79.0776 77.0519 79.5816C77.2559 80.0856 77.5439 80.4636 77.9159 80.7156C78.2999 80.9556 78.7439 81.0756 79.2479 81.0756ZM89.3213 82.7316C88.4213 82.7316 87.6593 82.5936 87.0353 82.3176C86.4233 82.0416 85.9493 81.6636 85.6133 81.1836C85.2773 80.6916 85.0853 80.1276 85.0373 79.4916L86.9993 79.4016C87.0953 79.9296 87.3233 80.3496 87.6833 80.6616C88.0433 80.9736 88.5893 81.1296 89.3213 81.1296C89.9213 81.1296 90.3953 81.0336 90.7433 80.8416C91.0913 80.6496 91.2653 80.3436 91.2653 79.9236C91.2653 79.6956 91.2053 79.5036 91.0853 79.3476C90.9773 79.1796 90.7613 79.0416 90.4373 78.9336C90.1133 78.8136 89.6333 78.6996 88.9973 78.5916C88.0493 78.4116 87.3053 78.2016 86.7653 77.9616C86.2253 77.7216 85.8413 77.4156 85.6133 77.0436C85.3853 76.6716 85.2713 76.2216 85.2713 75.6936C85.2713 74.8176 85.5953 74.1036 86.2433 73.5516C86.9033 72.9996 87.8513 72.7236 89.0873 72.7236C89.9153 72.7236 90.6113 72.8676 91.1753 73.1556C91.7393 73.4316 92.1773 73.8096 92.4893 74.2896C92.8133 74.7576 93.0173 75.2856 93.1013 75.8736L91.1393 75.9816C91.0793 75.6456 90.9593 75.3576 90.7793 75.1176C90.6113 74.8656 90.3833 74.6736 90.0953 74.5416C89.8073 74.3976 89.4653 74.3256 89.0693 74.3256C88.4573 74.3256 88.0013 74.4456 87.7013 74.6856C87.4013 74.9256 87.2513 75.2376 87.2513 75.6216C87.2513 75.9096 87.3173 76.1436 87.4493 76.3236C87.5933 76.5036 87.8213 76.6536 88.1333 76.7736C88.4453 76.8816 88.8593 76.9776 89.3753 77.0616C90.3713 77.2296 91.1513 77.4396 91.7153 77.6916C92.2793 77.9316 92.6753 78.2316 92.9033 78.5916C93.1313 78.9516 93.2453 79.3896 93.2453 79.9056C93.2453 80.5056 93.0773 81.0156 92.7413 81.4356C92.4053 81.8556 91.9433 82.1796 91.3553 82.4076C90.7673 82.6236 90.0893 82.7316 89.3213 82.7316Z" fill="black"/>
<path d="M108.72 82.7316C108.06 82.7316 107.472 82.5876 106.956 82.2996C106.452 81.9996 106.062 81.5916 105.786 81.0756L105.732 82.5156H103.95V69.7356H105.858V74.2896C106.11 73.8696 106.482 73.5036 106.974 73.1916C107.478 72.8796 108.06 72.7236 108.72 72.7236C109.548 72.7236 110.268 72.9276 110.88 73.3356C111.492 73.7436 111.96 74.3256 112.284 75.0816C112.62 75.8256 112.788 76.7076 112.788 77.7276C112.788 78.7476 112.62 79.6356 112.284 80.3916C111.96 81.1356 111.492 81.7116 110.88 82.1196C110.268 82.5276 109.548 82.7316 108.72 82.7316ZM108.414 81.0756C109.146 81.0756 109.728 80.7816 110.16 80.1936C110.592 79.5936 110.808 78.7716 110.808 77.7276C110.808 76.6836 110.592 75.8676 110.16 75.2796C109.728 74.6796 109.152 74.3796 108.432 74.3796C107.892 74.3796 107.43 74.5116 107.046 74.7756C106.662 75.0396 106.368 75.4236 106.164 75.9276C105.96 76.4196 105.858 77.0196 105.858 77.7276C105.858 78.4116 105.96 79.0056 106.164 79.5096C106.368 80.0136 106.662 80.4036 107.046 80.6796C107.43 80.9436 107.886 81.0756 108.414 81.0756ZM118.667 82.7316C117.755 82.7316 116.957 82.5276 116.273 82.1196C115.589 81.7116 115.061 81.1296 114.689 80.3736C114.317 79.6176 114.131 78.7356 114.131 77.7276C114.131 76.7076 114.317 75.8256 114.689 75.0816C115.061 74.3376 115.589 73.7616 116.273 73.3536C116.957 72.9336 117.755 72.7236 118.667 72.7236C119.579 72.7236 120.377 72.9336 121.061 73.3536C121.745 73.7616 122.273 74.3376 122.645 75.0816C123.017 75.8256 123.203 76.7076 123.203 77.7276C123.203 78.7356 123.017 79.6176 122.645 80.3736C122.273 81.1296 121.745 81.7116 121.061 82.1196C120.377 82.5276 119.579 82.7316 118.667 82.7316ZM118.667 81.0756C119.483 81.0756 120.113 80.7816 120.557 80.1936C121.001 79.5936 121.223 78.7716 121.223 77.7276C121.223 76.6836 121.001 75.8676 120.557 75.2796C120.113 74.6796 119.483 74.3796 118.667 74.3796C117.863 74.3796 117.233 74.6796 116.777 75.2796C116.333 75.8676 116.111 76.6836 116.111 77.7276C116.111 78.7716 116.333 79.5936 116.777 80.1936C117.233 80.7816 117.863 81.0756 118.667 81.0756ZM128.452 82.5156C127.54 82.5156 126.868 82.3056 126.436 81.8856C126.004 81.4656 125.788 80.8116 125.788 79.9236V70.6896H127.696V79.7796C127.696 80.2236 127.792 80.5296 127.984 80.6976C128.176 80.8656 128.47 80.9496 128.866 80.9496H130.234V82.5156H128.452ZM124.33 74.5056V72.9396H130.234V74.5056H124.33ZM132.058 82.5156V69.7356H133.966V75.0996L133.732 75.0636C133.84 74.5236 134.038 74.0856 134.326 73.7496C134.614 73.4016 134.968 73.1436 135.388 72.9756C135.808 72.8076 136.27 72.7236 136.774 72.7236C137.47 72.7236 138.058 72.8796 138.538 73.1916C139.018 73.4916 139.378 73.9176 139.618 74.4696C139.87 75.0216 139.996 75.6516 139.996 76.3596V82.5156H138.088V76.8636C138.088 75.9996 137.938 75.3636 137.638 74.9556C137.35 74.5356 136.894 74.3256 136.27 74.3256C135.574 74.3256 135.016 74.5476 134.596 74.9916C134.176 75.4236 133.966 76.0596 133.966 76.8996V82.5156H132.058ZM148.041 82.5156V72.3276C148.041 71.5356 148.263 70.9056 148.707 70.4376C149.151 69.9696 149.847 69.7356 150.795 69.7356H152.487V71.3016H151.047C150.675 71.3016 150.399 71.4036 150.219 71.6076C150.039 71.7996 149.949 72.0756 149.949 72.4356V82.5156H148.041ZM146.709 74.6136V73.0656H152.343V74.6136H146.709ZM154.215 82.5156V72.9396H156.123V82.5156H154.215ZM154.197 71.5536V69.6456H156.177V71.5536H154.197ZM160.794 82.5156C160.17 82.5156 159.666 82.3536 159.282 82.0296C158.898 81.7056 158.706 81.1896 158.706 80.4816V69.7356H160.614V80.3016C160.614 80.5176 160.668 80.6796 160.776 80.7876C160.896 80.8956 161.064 80.9496 161.28 80.9496H162.036V82.5156H160.794ZM167.605 82.7316C166.669 82.7316 165.859 82.5276 165.175 82.1196C164.503 81.7116 163.981 81.1296 163.609 80.3736C163.249 79.6176 163.069 78.7356 163.069 77.7276C163.069 76.7196 163.249 75.8436 163.609 75.0996C163.981 74.3436 164.503 73.7616 165.175 73.3536C165.847 72.9336 166.639 72.7236 167.551 72.7236C168.415 72.7236 169.177 72.9276 169.837 73.3356C170.497 73.7316 171.007 74.3076 171.367 75.0636C171.739 75.8196 171.925 76.7316 171.925 77.7996V78.2856H165.049C165.097 79.2216 165.343 79.9236 165.787 80.3916C166.243 80.8596 166.855 81.0936 167.623 81.0936C168.187 81.0936 168.655 80.9616 169.027 80.6976C169.399 80.4336 169.657 80.0796 169.801 79.6356L171.781 79.7616C171.529 80.6496 171.031 81.3696 170.287 81.9216C169.555 82.4616 168.661 82.7316 167.605 82.7316ZM165.049 76.8456H169.909C169.849 75.9936 169.603 75.3636 169.171 74.9556C168.751 74.5476 168.211 74.3436 167.551 74.3436C166.867 74.3436 166.303 74.5596 165.859 74.9916C165.427 75.4116 165.157 76.0296 165.049 76.8456ZM177.548 82.7316C176.648 82.7316 175.886 82.5936 175.262 82.3176C174.65 82.0416 174.176 81.6636 173.84 81.1836C173.504 80.6916 173.312 80.1276 173.264 79.4916L175.226 79.4016C175.322 79.9296 175.55 80.3496 175.91 80.6616C176.27 80.9736 176.816 81.1296 177.548 81.1296C178.148 81.1296 178.622 81.0336 178.97 80.8416C179.318 80.6496 179.492 80.3436 179.492 79.9236C179.492 79.6956 179.432 79.5036 179.312 79.3476C179.204 79.1796 178.988 79.0416 178.664 78.9336C178.34 78.8136 177.86 78.6996 177.224 78.5916C176.276 78.4116 175.532 78.2016 174.992 77.9616C174.452 77.7216 174.068 77.4156 173.84 77.0436C173.612 76.6716 173.498 76.2216 173.498 75.6936C173.498 74.8176 173.822 74.1036 174.47 73.5516C175.13 72.9996 176.078 72.7236 177.314 72.7236C178.142 72.7236 178.838 72.8676 179.402 73.1556C179.966 73.4316 180.404 73.8096 180.716 74.2896C181.04 74.7576 181.244 75.2856 181.328 75.8736L179.366 75.9816C179.306 75.6456 179.186 75.3576 179.006 75.1176C178.838 74.8656 178.61 74.6736 178.322 74.5416C178.034 74.3976 177.692 74.3256 177.296 74.3256C176.684 74.3256 176.228 74.4456 175.928 74.6856C175.628 74.9256 175.478 75.2376 175.478 75.6216C175.478 75.9096 175.544 76.1436 175.676 76.3236C175.82 76.5036 176.048 76.6536 176.36 76.7736C176.672 76.8816 177.086 76.9776 177.602 77.0616C178.598 77.2296 179.378 77.4396 179.942 77.6916C180.506 77.9316 180.902 78.2316 181.13 78.5916C181.358 78.9516 181.472 79.3896 181.472 79.9056C181.472 80.5056 181.304 81.0156 180.968 81.4356C180.632 81.8556 180.17 82.1796 179.582 82.4076C178.994 82.6236 178.316 82.7316 177.548 82.7316Z" fill="black"/>
</svg>
