<?xml version="1.0" encoding="UTF-8"?>
<svg width="754" height="62" viewBox="0 0 754 62" fill="none" xmlns="http://www.w3.org/2000/svg">
<path d="M0 11.7605V0.000468224H6.3V11.7605H0ZM6.2959 11.7605V0.000468224H12.5959V11.7605H6.2959ZM12.5918 11.7605V0.000468224H18.8918V11.7605H12.5918ZM18.8877 11.7605V0.000468224H25.1877V11.7605H18.8877ZM25.1836 11.7605V0.000468224H31.4836V11.7605H25.1836ZM31.4795 11.7605V0.000468224H37.7795V11.7605H31.4795ZM37.7754 11.7605V0.000468224H44.0754V11.7605H37.7754ZM46.8223 11.7605H46.0243V6.89897H44.0713V6.10097H46.8223V11.7605ZM47.6203 11.7605V5.30297H44.0713V4.50497H48.4183V11.7605H47.6203ZM50.3672 11.7605V0.000468224H56.6672V11.7605H50.3672ZM56.6631 11.7605V0.000468224H62.9631V11.7605H56.6631ZM62.959 11.7605V0.000468224H69.259V11.7605H62.959ZM72.0059 11.7605H71.2079V6.89897H69.2549V6.10097H72.0059V11.7605ZM72.8039 11.7605V5.30297H69.2549V4.50497H73.6019V11.7605H72.8039ZM94.4385 11.7605V0.000468224H100.738V11.7605H94.4385ZM100.734 11.7605V0.000468224H107.034V11.7605H100.734ZM109.781 11.7605H108.983V6.89897H107.03V6.10097H109.781V11.7605ZM110.579 11.7605V5.30297H107.03V4.50497H111.377V11.7605H110.579ZM119.622 11.7605V0.000468224H125.922V11.7605H119.622ZM125.918 11.7605V0.000468224H132.218V11.7605H125.918ZM132.214 11.7605V0.000468224H138.514V11.7605H132.214ZM138.51 11.7605V0.000468224H144.81V11.7605H138.51ZM144.806 11.7605V0.000468224H151.106V11.7605H144.806ZM151.102 11.7605V0.000468224H157.402V11.7605H151.102ZM160.148 11.7605H159.35V6.89897H157.397V6.10097H160.148V11.7605ZM160.946 11.7605V5.30297H157.397V4.50497H161.744V11.7605H160.946ZM169.989 11.7605V0.000468224H176.289V11.7605H169.989ZM176.285 11.7605V0.000468224H182.585V11.7605H176.285ZM185.332 11.7605H184.534V6.89897H182.581V6.10097H185.332V11.7605ZM186.13 11.7605V5.30297H182.581V4.50497H186.928V11.7605H186.13ZM188.877 11.7605V0.000468224H195.177V11.7605H188.877ZM195.173 11.7605V0.000468224H201.473V11.7605H195.173ZM201.469 11.7605V0.000468224H207.769V11.7605H201.469ZM210.516 11.7605H209.718V6.89897H207.765V6.10097H210.516V11.7605ZM211.314 11.7605V5.30297H207.765V4.50497H212.112V11.7605H211.314ZM232.948 11.7605V0.000468224H239.248V11.7605H232.948ZM239.244 11.7605V0.000468224H245.544V11.7605H239.244ZM248.291 11.7605H247.493V6.89897H245.54V6.10097H248.291V11.7605ZM249.089 11.7605V5.30297H245.54V4.50497H249.887V11.7605H249.089ZM251.836 11.7605V0.000468224H258.136V11.7605H251.836ZM258.132 11.7605V0.000468224H264.432V11.7605H258.132ZM264.428 11.7605V0.000468224H270.728V11.7605H264.428ZM270.724 11.7605V0.000468224H277.024V11.7605H270.724ZM277.02 11.7605V0.000468224H283.32V11.7605H277.02ZM283.315 11.7605V0.000468224H289.615V11.7605H283.315ZM289.611 11.7605V0.000468224H295.911V11.7605H289.611ZM298.658 11.7605H297.86V6.89897H295.907V6.10097H298.658V11.7605ZM299.456 11.7605V5.30297H295.907V4.50497H300.254V11.7605H299.456ZM302.203 11.7605V0.000468224H308.503V11.7605H302.203ZM308.499 11.7605V0.000468224H314.799V11.7605H308.499ZM314.795 11.7605V0.000468224H321.095V11.7605H314.795ZM321.091 11.7605V0.000468224H327.391V11.7605H321.091ZM327.387 11.7605V0.000468224H333.687V11.7605H327.387ZM333.683 11.7605V0.000468224H339.983V11.7605H333.683ZM339.979 11.7605V0.000468224H346.279V11.7605H339.979ZM349.025 11.7605H348.227V6.89897H346.274V6.10097H349.025V11.7605ZM349.823 11.7605V5.30297H346.274V4.50497H350.621V11.7605H349.823ZM352.57 11.7605V0.000468224H358.87V11.7605H352.57ZM358.866 11.7605V0.000468224H365.166V11.7605H358.866ZM365.162 11.7605V0.000468224H371.462V11.7605H365.162ZM371.458 11.7605V0.000468224H377.758V11.7605H371.458ZM377.754 11.7605V0.000468224H384.054V11.7605H377.754ZM384.05 11.7605V0.000468224H390.35V11.7605H384.05ZM393.097 11.7605H392.299V6.89897H390.346V6.10097H393.097V11.7605ZM393.895 11.7605V5.30297H390.346V4.50497H394.693V11.7605H393.895ZM428.121 11.7605V0.000468224H434.421V11.7605H428.121ZM434.417 11.7605V0.000468224H440.717V11.7605H434.417ZM440.713 11.7605V0.000468224H447.013V11.7605H440.713ZM447.009 11.7605V0.000468224H453.309V11.7605H447.009ZM453.305 11.7605V0.000468224H459.605V11.7605H453.305ZM459.601 11.7605V0.000468224H465.901V11.7605H459.601ZM465.896 11.7605V0.000468224H472.196V11.7605H465.896ZM472.192 11.7605V0.000468224H478.492V11.7605H472.192ZM481.239 11.7605H480.441V6.89897H478.488V6.10097H481.239V11.7605ZM482.037 11.7605V5.30297H478.488V4.50497H482.835V11.7605H482.037ZM484.784 11.7605V0.000468224H491.084V11.7605H484.784ZM491.08 11.7605V0.000468224H497.38V11.7605H491.08ZM500.127 11.7605H499.329V6.89897H497.376V6.10097H500.127V11.7605ZM500.925 11.7605V5.30297H497.376V4.50497H501.723V11.7605H500.925ZM522.56 11.7605V0.000468224H528.86V11.7605H522.56ZM528.855 11.7605V0.000468224H535.155V11.7605H528.855ZM537.902 11.7605H537.104V6.89897H535.151V6.10097H537.902V11.7605ZM538.7 11.7605V5.30297H535.151V4.50497H539.498V11.7605H538.7ZM541.447 11.7605V0.000468224H547.747V11.7605H541.447ZM547.743 11.7605V0.000468224H554.043V11.7605H547.743ZM554.039 11.7605V0.000468224H560.339V11.7605H554.039ZM560.335 11.7605V0.000468224H566.635V11.7605H560.335ZM566.631 11.7605V0.000468224H572.931V11.7605H566.631ZM572.927 11.7605V0.000468224H579.227V11.7605H572.927ZM581.974 11.7605H581.176V6.89897H579.223V6.10097H581.974V11.7605ZM582.772 11.7605V5.30297H579.223V4.50497H583.57V11.7605H582.772ZM591.814 11.7605V0.000468224H598.114V11.7605H591.814ZM598.11 11.7605V0.000468224H604.41V11.7605H598.11ZM604.406 11.7605V0.000468224H610.706V11.7605H604.406ZM613.453 11.7605H612.655V6.89897H610.702V6.10097H613.453V11.7605ZM614.251 11.7605V5.30297H610.702V4.50497H615.049V11.7605H614.251ZM635.886 11.7605V0.000468224H642.186V11.7605H635.886ZM642.182 11.7605V0.000468224H648.482V11.7605H642.182ZM651.229 11.7605H650.431V6.89897H648.478V6.10097H651.229V11.7605ZM652.027 11.7605V5.30297H648.478V4.50497H652.825V11.7605H652.027ZM654.773 11.7605V0.000468224H661.073V11.7605H654.773ZM661.069 11.7605V0.000468224H667.369V11.7605H661.069ZM667.365 11.7605V0.000468224H673.665V11.7605H667.365ZM673.661 11.7605V0.000468224H679.961V11.7605H673.661ZM679.957 11.7605V0.000468224H686.257V11.7605H679.957ZM686.253 11.7605V0.000468224H692.553V11.7605H686.253ZM692.549 11.7605V0.000468224H698.849V11.7605H692.549ZM701.596 11.7605H700.798V6.89897H698.845V6.10097H701.596V11.7605ZM702.394 11.7605V5.30297H698.845V4.50497H703.192V11.7605H702.394ZM705.141 11.7605V0.000468224H711.441V11.7605H705.141ZM711.437 11.7605V0.000468224H717.737V11.7605H711.437ZM717.732 11.7605V0.000468224H724.032V11.7605H717.732ZM724.028 11.7605V0.000468224H730.328V11.7605H724.028ZM730.324 11.7605V0.000468224H736.624V11.7605H730.324ZM736.62 11.7605V0.000468224H742.92V11.7605H736.62ZM745.667 11.7605H744.869V6.89897H742.916V6.10097H745.667V11.7605ZM746.465 11.7605V5.30297H742.916V4.50497H747.263V11.7605H746.465ZM0 22.7605V11.0005H6.3V22.7605H0ZM6.2959 22.7605V11.0005H12.5959V22.7605H6.2959ZM15.3428 22.7605H14.5448V15.505H18.8918V16.303H15.3428V22.7605ZM16.1408 22.7605V17.101H18.8918V17.899H16.9388V22.7605H16.1408ZM18.8877 17.101H25.1877V17.899H18.8877V17.101ZM18.8877 16.303V15.505H25.1877V16.303H18.8877ZM25.1836 17.101H31.4836V17.899H25.1836V17.101ZM25.1836 16.303V15.505H31.4836V16.303H25.1836ZM31.4795 17.101H37.7795V17.899H31.4795V17.101ZM31.4795 16.303V15.505H37.7795V16.303H31.4795ZM37.7754 17.101H44.0754V17.899H37.7754V17.101ZM37.7754 16.303V15.505H44.0754V16.303H37.7754ZM44.0713 17.101H47.6203V11.0005H48.4183V17.899H44.0713V17.101ZM44.0713 16.303V15.505H46.0243V11.0005H46.8223V16.303H44.0713ZM50.3672 22.7605V11.0005H56.6672V22.7605H50.3672ZM56.6631 22.7605V11.0005H62.9631V22.7605H56.6631ZM62.959 22.7605V11.0005H69.259V22.7605H62.959ZM69.2549 22.7605V11.0005H75.5549V22.7605H69.2549ZM78.3018 22.7605H77.5038V17.899H75.5508V17.101H78.3018V22.7605ZM79.0998 22.7605V16.303H75.5508V15.505H79.8978V22.7605H79.0998ZM94.4385 22.7605V11.0005H100.738V22.7605H94.4385ZM100.734 22.7605V11.0005H107.034V22.7605H100.734ZM109.781 22.7605H108.983V11.0005H109.781V22.7605ZM110.579 11.0005H111.377V22.7605H110.579V11.0005ZM113.326 22.7605V11.0005H119.626V22.7605H113.326ZM119.622 22.7605V11.0005H125.922V22.7605H119.622ZM128.669 22.7605H127.871V15.505H132.218V16.303H128.669V22.7605ZM129.467 22.7605V17.101H132.218V17.899H130.265V22.7605H129.467ZM132.214 17.101H138.514V17.899H132.214V17.101ZM132.214 16.303V15.505H138.514V16.303H132.214ZM138.51 17.101H144.81V17.899H138.51V17.101ZM138.51 16.303V15.505H144.81V16.303H138.51ZM144.806 17.101H151.106V17.899H144.806V17.101ZM144.806 16.303V15.505H151.106V16.303H144.806ZM151.102 17.101H157.402V17.899H151.102V17.101ZM151.102 16.303V15.505H157.402V16.303H151.102ZM157.397 17.101H160.946V11.0005H161.744V17.899H157.397V17.101ZM157.397 16.303V15.505H159.35V11.0005H160.148V16.303H157.397ZM169.989 22.7605V11.0005H176.289V22.7605H169.989ZM176.285 22.7605V11.0005H182.585V22.7605H176.285ZM185.332 22.7605H184.534V11.0005H185.332V22.7605ZM186.13 11.0005H186.928V22.7605H186.13V11.0005ZM188.877 22.7605V11.0005H195.177V22.7605H188.877ZM195.173 22.7605V11.0005H201.473V22.7605H195.173ZM201.469 22.7605V11.0005H207.769V22.7605H201.469ZM207.765 22.7605V11.0005H214.065V22.7605H207.765ZM216.812 22.7605H216.014V17.899H214.061V17.101H216.812V22.7605ZM217.61 22.7605V16.303H214.061V15.505H218.408V22.7605H217.61ZM232.948 22.7605V11.0005H239.248V22.7605H232.948ZM239.244 22.7605V11.0005H245.544V22.7605H239.244ZM248.291 22.7605H247.493V11.0005H248.291V22.7605ZM249.089 11.0005H249.887V22.7605H249.089V11.0005ZM251.836 22.7605V11.0005H258.136V22.7605H251.836ZM258.132 22.7605V11.0005H264.432V22.7605H258.132ZM267.179 22.7605H266.381V15.505H270.728V16.303H267.179V22.7605ZM267.977 22.7605V17.101H270.728V17.899H268.775V22.7605H267.977ZM270.724 17.101H277.024V17.899H270.724V17.101ZM270.724 16.303V15.505H277.024V16.303H270.724ZM277.02 17.101H283.32V17.899H277.02V17.101ZM277.02 16.303V15.505H283.32V16.303H277.02ZM283.315 17.101H289.615V17.899H283.315V17.101ZM283.315 16.303V15.505H289.615V16.303H283.315ZM289.611 17.101H295.911V17.899H289.611V17.101ZM289.611 16.303V15.505H295.911V16.303H289.611ZM295.907 17.101H299.456V11.0005H300.254V17.899H295.907V17.101ZM295.907 16.303V15.505H297.86V11.0005H298.658V16.303H295.907ZM302.203 22.7605V11.0005H308.503V22.7605H302.203ZM308.499 22.7605V11.0005H314.799V22.7605H308.499ZM317.546 22.7605H316.748V15.505H321.095V16.303H317.546V22.7605ZM318.344 22.7605V17.101H321.095V17.899H319.142V22.7605H318.344ZM321.091 17.101H327.391V17.899H321.091V17.101ZM321.091 16.303V15.505H327.391V16.303H321.091ZM327.387 17.101H333.687V17.899H327.387V17.101ZM327.387 16.303V15.505H333.687V16.303H327.387ZM333.683 17.101H339.983V17.899H333.683V17.101ZM333.683 16.303V15.505H339.983V16.303H333.683ZM339.979 17.101H346.279V17.899H339.979V17.101ZM339.979 16.303V15.505H346.279V16.303H339.979ZM346.274 17.101H349.823V11.0005H350.621V17.899H346.274V17.101ZM346.274 16.303V15.505H348.227V11.0005H349.025V16.303H346.274ZM352.57 22.7605V11.0005H358.87V22.7605H352.57ZM358.866 22.7605V11.0005H365.166V22.7605H358.866ZM367.913 22.7605H367.115V15.505H371.462V16.303H367.913V22.7605ZM368.711 22.7605V17.101H371.462V17.899H369.509V22.7605H368.711ZM371.458 17.101H377.758V17.899H371.458V17.101ZM371.458 16.303V15.505H377.758V16.303H371.458ZM377.754 17.101H384.054V17.899H377.754V17.101ZM377.754 16.303V15.505H384.054V16.303H377.754ZM384.05 22.7605V11.0005H390.35V22.7605H384.05ZM390.346 22.7605V11.0005H396.646V22.7605H390.346ZM399.393 22.7605H398.595V17.899H396.642V17.101H399.393V22.7605ZM400.191 22.7605V16.303H396.642V15.505H400.989V22.7605H400.191ZM430.074 17.899V11.0005H430.872V17.101H434.421V17.899H430.074ZM434.421 16.303H431.67V11.0005H432.468V15.505H434.421V16.303ZM434.417 17.101H440.717V17.899H434.417V17.101ZM434.417 16.303V15.505H440.717V16.303H434.417ZM440.713 17.101H447.013V17.899H440.713V17.101ZM440.713 16.303V15.505H447.013V16.303H440.713ZM447.009 22.7605V11.0005H453.309V22.7605H447.009ZM453.305 22.7605V11.0005H459.605V22.7605H453.305ZM462.352 22.7605H461.554V15.505H465.901V16.303H462.352V22.7605ZM463.15 22.7605V17.101H465.901V17.899H463.948V22.7605H463.15ZM465.896 17.101H472.196V17.899H465.896V17.101ZM465.896 16.303V15.505H472.196V16.303H465.896ZM472.192 17.101H478.492V17.899H472.192V17.101ZM472.192 16.303V15.505H478.492V16.303H472.192ZM478.488 17.101H482.037V11.0005H482.835V17.899H478.488V17.101ZM478.488 16.303V15.505H480.441V11.0005H481.239V16.303H478.488ZM484.784 22.7605V11.0005H491.084V22.7605H484.784ZM491.08 22.7605V11.0005H497.38V22.7605H491.08ZM500.127 22.7605H499.329V11.0005H500.127V22.7605ZM500.925 11.0005H501.723V22.7605H500.925V11.0005ZM522.56 22.7605V11.0005H528.86V22.7605H522.56ZM528.855 22.7605V11.0005H535.155V22.7605H528.855ZM537.902 22.7605H537.104V11.0005H537.902V22.7605ZM538.7 11.0005H539.498V22.7605H538.7V11.0005ZM541.447 22.7605V11.0005H547.747V22.7605H541.447ZM547.743 22.7605V11.0005H554.043V22.7605H547.743ZM556.79 22.7605H555.992V15.505H560.339V16.303H556.79V22.7605ZM557.588 22.7605V17.101H560.339V17.899H558.386V22.7605H557.588ZM560.335 17.101H566.635V17.899H560.335V17.101ZM560.335 16.303V15.505H566.635V16.303H560.335ZM566.631 17.101H572.931V17.899H566.631V17.101ZM566.631 16.303V15.505H572.931V16.303H566.631ZM572.927 22.7605V11.0005H579.227V22.7605H572.927ZM579.223 22.7605V11.0005H585.523V22.7605H579.223ZM588.27 22.7605H587.472V17.899H585.519V17.101H588.27V22.7605ZM589.068 22.7605V16.303H585.519V15.505H589.866V22.7605H589.068ZM591.814 22.7605V11.0005H598.114V22.7605H591.814ZM598.11 22.7605V11.0005H604.41V22.7605H598.11ZM604.406 22.7605V11.0005H610.706V22.7605H604.406ZM610.702 22.7605V11.0005H617.002V22.7605H610.702ZM619.749 22.7605H618.951V17.899H616.998V17.101H619.749V22.7605ZM620.547 22.7605V16.303H616.998V15.505H621.345V22.7605H620.547ZM635.886 22.7605V11.0005H642.186V22.7605H635.886ZM642.182 22.7605V11.0005H648.482V22.7605H642.182ZM651.229 22.7605H650.431V11.0005H651.229V22.7605ZM652.027 11.0005H652.825V22.7605H652.027V11.0005ZM654.773 22.7605V11.0005H661.073V22.7605H654.773ZM661.069 22.7605V11.0005H667.369V22.7605H661.069ZM670.116 22.7605H669.318V15.505H673.665V16.303H670.116V22.7605ZM670.914 22.7605V17.101H673.665V17.899H671.712V22.7605H670.914ZM673.661 17.101H679.961V17.899H673.661V17.101ZM673.661 16.303V15.505H679.961V16.303H673.661ZM679.957 17.101H686.257V17.899H679.957V17.101ZM679.957 16.303V15.505H686.257V16.303H679.957ZM686.253 17.101H692.553V17.899H686.253V17.101ZM686.253 16.303V15.505H692.553V16.303H686.253ZM692.549 17.101H698.849V17.899H692.549V17.101ZM692.549 16.303V15.505H698.849V16.303H692.549ZM698.845 17.101H702.394V11.0005H703.192V17.899H698.845V17.101ZM698.845 16.303V15.505H700.798V11.0005H701.596V16.303H698.845ZM705.141 22.7605V11.0005H711.441V22.7605H705.141ZM711.437 22.7605V11.0005H717.737V22.7605H711.437ZM720.483 22.7605H719.685V15.505H724.032V16.303H720.483V22.7605ZM721.281 22.7605V17.101H724.032V17.899H722.079V22.7605H721.281ZM724.028 17.101H730.328V17.899H724.028V17.101ZM724.028 16.303V15.505H730.328V16.303H724.028ZM730.324 17.101H736.624V17.899H730.324V17.101ZM730.324 16.303V15.505H736.624V16.303H730.324ZM736.62 22.7605V11.0005H742.92V22.7605H736.62ZM742.916 22.7605V11.0005H749.216V22.7605H742.916ZM751.963 22.7605H751.165V17.899H749.212V17.101H751.963V22.7605ZM752.761 22.7605V16.303H749.212V15.505H753.559V22.7605H752.761ZM0 33.7605V22.0005H6.3V33.7605H0ZM6.2959 33.7605V22.0005H12.5959V33.7605H6.2959ZM12.5918 33.7605V22.0005H18.8918V33.7605H12.5918ZM18.8877 33.7605V22.0005H25.1877V33.7605H18.8877ZM25.1836 33.7605V22.0005H31.4836V33.7605H25.1836ZM34.2305 33.7605H33.4325V28.899H31.4795V28.101H34.2305V33.7605ZM35.0285 33.7605V27.303H31.4795V26.505H35.8265V33.7605H35.0285ZM50.3672 33.7605V22.0005H56.6672V33.7605H50.3672ZM56.6631 33.7605V22.0005H62.9631V33.7605H56.6631ZM65.71 33.7605H64.912V26.505H69.259V27.303H65.71V33.7605ZM66.508 33.7605V28.101H69.259V28.899H67.306V33.7605H66.508ZM69.2549 33.7605V22.0005H75.5549V33.7605H69.2549ZM75.5508 33.7605V22.0005H81.8508V33.7605H75.5508ZM84.5977 33.7605H83.7997V28.899H81.8467V28.101H84.5977V33.7605ZM85.3957 33.7605V27.303H81.8467V26.505H86.1937V33.7605H85.3957ZM94.4385 33.7605V22.0005H100.738V33.7605H94.4385ZM100.734 33.7605V22.0005H107.034V33.7605H100.734ZM109.781 33.7605H108.983V22.0005H109.781V33.7605ZM110.579 22.0005H111.377V33.7605H110.579V22.0005ZM113.326 33.7605V22.0005H119.626V33.7605H113.326ZM119.622 33.7605V22.0005H125.922V33.7605H119.622ZM128.669 33.7605H127.871V22.0005H128.669V33.7605ZM129.467 22.0005H130.265V33.7605H129.467V22.0005ZM144.806 33.7605V22.0005H151.106V33.7605H144.806ZM151.102 33.7605V22.0005H157.402V33.7605H151.102ZM157.397 33.7605V22.0005H163.697V33.7605H157.397ZM166.444 33.7605H165.646V28.899H163.693V28.101H166.444V33.7605ZM167.242 33.7605V27.303H163.693V26.505H168.04V33.7605H167.242ZM169.989 33.7605V22.0005H176.289V33.7605H169.989ZM176.285 33.7605V22.0005H182.585V33.7605H176.285ZM185.332 33.7605H184.534V22.0005H185.332V33.7605ZM186.13 22.0005H186.928V33.7605H186.13V22.0005ZM188.877 33.7605V22.0005H195.177V33.7605H188.877ZM195.173 33.7605V22.0005H201.473V33.7605H195.173ZM204.22 33.7605H203.422V26.505H207.769V27.303H204.22V33.7605ZM205.018 33.7605V28.101H207.769V28.899H205.816V33.7605H205.018ZM207.765 33.7605V22.0005H214.065V33.7605H207.765ZM214.061 33.7605V22.0005H220.361V33.7605H214.061ZM223.107 33.7605H222.309V28.899H220.356V28.101H223.107V33.7605ZM223.905 33.7605V27.303H220.356V26.505H224.703V33.7605H223.905ZM232.948 33.7605V22.0005H239.248V33.7605H232.948ZM239.244 33.7605V22.0005H245.544V33.7605H239.244ZM248.291 33.7605H247.493V22.0005H248.291V33.7605ZM249.089 22.0005H249.887V33.7605H249.089V22.0005ZM251.836 33.7605V22.0005H258.136V33.7605H251.836ZM258.132 33.7605V22.0005H264.432V33.7605H258.132ZM264.428 33.7605V22.0005H270.728V33.7605H264.428ZM270.724 33.7605V22.0005H277.024V33.7605H270.724ZM277.02 33.7605V22.0005H283.32V33.7605H277.02ZM286.066 33.7605H285.268V28.899H283.315V28.101H286.066V33.7605ZM286.864 33.7605V27.303H283.315V26.505H287.662V33.7605H286.864ZM302.203 33.7605V22.0005H308.503V33.7605H302.203ZM308.499 33.7605V22.0005H314.799V33.7605H308.499ZM314.795 33.7605V22.0005H321.095V33.7605H314.795ZM321.091 33.7605V22.0005H327.391V33.7605H321.091ZM327.387 33.7605V22.0005H333.687V33.7605H327.387ZM336.434 33.7605H335.636V28.899H333.683V28.101H336.434V33.7605ZM337.232 33.7605V27.303H333.683V26.505H338.03V33.7605H337.232ZM352.57 33.7605V22.0005H358.87V33.7605H352.57ZM358.866 33.7605V22.0005H365.166V33.7605H358.866ZM365.162 33.7605V22.0005H371.462V33.7605H365.162ZM371.458 33.7605V22.0005H377.758V33.7605H371.458ZM377.754 33.7605V22.0005H384.054V33.7605H377.754ZM384.05 33.7605V22.0005H390.35V33.7605H384.05ZM393.097 33.7605H392.299V26.505H396.646V27.303H393.097V33.7605ZM393.895 33.7605V28.101H396.646V28.899H394.693V33.7605H393.895ZM396.642 28.101H400.191V22.0005H400.989V28.899H396.642V28.101ZM396.642 27.303V26.505H398.595V22.0005H399.393V27.303H396.642ZM447.009 33.7605V22.0005H453.309V33.7605H447.009ZM453.305 33.7605V22.0005H459.605V33.7605H453.305ZM462.352 33.7605H461.554V22.0005H462.352V33.7605ZM463.15 22.0005H463.948V33.7605H463.15V22.0005ZM484.784 33.7605V22.0005H491.084V33.7605H484.784ZM491.08 33.7605V22.0005H497.38V33.7605H491.08ZM500.127 33.7605H499.329V22.0005H500.127V33.7605ZM500.925 22.0005H501.723V33.7605H500.925V22.0005ZM522.56 33.7605V22.0005H528.86V33.7605H522.56ZM528.855 33.7605V22.0005H535.155V33.7605H528.855ZM537.902 33.7605H537.104V22.0005H537.902V33.7605ZM538.7 22.0005H539.498V33.7605H538.7V22.0005ZM541.447 33.7605V22.0005H547.747V33.7605H541.447ZM547.743 33.7605V22.0005H554.043V33.7605H547.743ZM554.039 33.7605V22.0005H560.339V33.7605H554.039ZM560.335 33.7605V22.0005H566.635V33.7605H560.335ZM566.631 33.7605V22.0005H572.931V33.7605H566.631ZM572.927 33.7605V22.0005H579.227V33.7605H572.927ZM581.974 33.7605H581.176V26.505H585.523V27.303H581.974V33.7605ZM582.772 33.7605V28.101H585.523V28.899H583.57V33.7605H582.772ZM585.519 28.101H589.068V22.0005H589.866V28.899H585.519V28.101ZM585.519 27.303V26.505H587.472V22.0005H588.27V27.303H585.519ZM591.814 33.7605V22.0005H598.114V33.7605H591.814ZM598.11 33.7605V22.0005H604.41V33.7605H598.11ZM607.157 33.7605H606.359V26.505H610.706V27.303H607.157V33.7605ZM607.955 33.7605V28.101H610.706V28.899H608.753V33.7605H607.955ZM610.702 33.7605V22.0005H617.002V33.7605H610.702ZM616.998 33.7605V22.0005H623.298V33.7605H616.998ZM626.045 33.7605H625.247V28.899H623.294V28.101H626.045V33.7605ZM626.843 33.7605V27.303H623.294V26.505H627.641V33.7605H626.843ZM635.886 33.7605V22.0005H642.186V33.7605H635.886ZM642.182 33.7605V22.0005H648.482V33.7605H642.182ZM651.229 33.7605H650.431V22.0005H651.229V33.7605ZM652.027 22.0005H652.825V33.7605H652.027V22.0005ZM654.773 33.7605V22.0005H661.073V33.7605H654.773ZM661.069 33.7605V22.0005H667.369V33.7605H661.069ZM667.365 33.7605V22.0005H673.665V33.7605H667.365ZM673.661 33.7605V22.0005H679.961V33.7605H673.661ZM679.957 33.7605V22.0005H686.257V33.7605H679.957ZM689.004 33.7605H688.206V28.899H686.253V28.101H689.004V33.7605ZM689.802 33.7605V27.303H686.253V26.505H690.6V33.7605H689.802ZM705.141 33.7605V22.0005H711.441V33.7605H705.141ZM711.437 33.7605V22.0005H717.737V33.7605H711.437ZM720.483 33.7605H719.685V22.0005H720.483V33.7605ZM721.281 22.0005H722.079V33.7605H721.281V22.0005ZM736.62 33.7605V22.0005H742.92V33.7605H736.62ZM742.916 33.7605V22.0005H749.216V33.7605H742.916ZM751.963 33.7605H751.165V22.0005H751.963V33.7605ZM752.761 22.0005H753.559V33.7605H752.761V22.0005ZM0 44.7605V33.0005H6.3V44.7605H0ZM6.2959 44.7605V33.0005H12.5959V44.7605H6.2959ZM15.3428 44.7605H14.5448V37.505H18.8918V38.303H15.3428V44.7605ZM16.1408 44.7605V39.101H18.8918V39.899H16.9388V44.7605H16.1408ZM18.8877 39.101H25.1877V39.899H18.8877V39.101ZM18.8877 38.303V37.505H25.1877V38.303H18.8877ZM25.1836 39.101H31.4836V39.899H25.1836V39.101ZM25.1836 38.303V37.505H31.4836V38.303H25.1836ZM31.4795 39.101H35.0285V33.0005H35.8265V39.899H31.4795V39.101ZM31.4795 38.303V37.505H33.4325V33.0005H34.2305V38.303H31.4795ZM50.3672 44.7605V33.0005H56.6672V44.7605H50.3672ZM56.6631 44.7605V33.0005H62.9631V44.7605H56.6631ZM65.71 44.7605H64.912V33.0005H65.71V44.7605ZM66.508 33.0005H67.306V44.7605H66.508V33.0005ZM71.2079 39.899V33.0005H72.0059V39.101H75.5549V39.899H71.2079ZM75.5549 38.303H72.8039V33.0005H73.6019V37.505H75.5549V38.303ZM75.5508 44.7605V33.0005H81.8508V44.7605H75.5508ZM81.8467 44.7605V33.0005H88.1467V44.7605H81.8467ZM90.8936 44.7605H90.0956V39.899H88.1426V39.101H90.8936V44.7605ZM91.6916 44.7605V38.303H88.1426V37.505H92.4896V44.7605H91.6916ZM94.4385 44.7605V33.0005H100.738V44.7605H94.4385ZM100.734 44.7605V33.0005H107.034V44.7605H100.734ZM109.781 44.7605H108.983V33.0005H109.781V44.7605ZM110.579 33.0005H111.377V44.7605H110.579V33.0005ZM113.326 44.7605V33.0005H119.626V44.7605H113.326ZM119.622 44.7605V33.0005H125.922V44.7605H119.622ZM128.669 44.7605H127.871V33.0005H128.669V44.7605ZM129.467 33.0005H130.265V44.7605H129.467V33.0005ZM151.102 44.7605V33.0005H157.402V44.7605H151.102ZM157.397 44.7605V33.0005H163.697V44.7605H157.397ZM166.444 44.7605H165.646V33.0005H166.444V44.7605ZM167.242 33.0005H168.04V44.7605H167.242V33.0005ZM169.989 44.7605V33.0005H176.289V44.7605H169.989ZM176.285 44.7605V33.0005H182.585V44.7605H176.285ZM185.332 44.7605H184.534V33.0005H185.332V44.7605ZM186.13 33.0005H186.928V44.7605H186.13V33.0005ZM188.877 44.7605V33.0005H195.177V44.7605H188.877ZM195.173 44.7605V33.0005H201.473V44.7605H195.173ZM204.22 44.7605H203.422V33.0005H204.22V44.7605ZM205.018 33.0005H205.816V44.7605H205.018V33.0005ZM209.718 39.899V33.0005H210.516V39.101H214.065V39.899H209.718ZM214.065 38.303H211.314V33.0005H212.112V37.505H214.065V38.303ZM214.061 44.7605V33.0005H220.361V44.7605H214.061ZM220.356 44.7605V33.0005H226.656V44.7605H220.356ZM229.403 44.7605H228.605V39.899H226.652V39.101H229.403V44.7605ZM230.201 44.7605V38.303H226.652V37.505H230.999V44.7605H230.201ZM232.948 44.7605V33.0005H239.248V44.7605H232.948ZM239.244 44.7605V33.0005H245.544V44.7605H239.244ZM248.291 44.7605H247.493V33.0005H248.291V44.7605ZM249.089 33.0005H249.887V44.7605H249.089V33.0005ZM251.836 44.7605V33.0005H258.136V44.7605H251.836ZM258.132 44.7605V33.0005H264.432V44.7605H258.132ZM267.179 44.7605H266.381V37.505H270.728V38.303H267.179V44.7605ZM267.977 44.7605V39.101H270.728V39.899H268.775V44.7605H267.977ZM270.724 39.101H277.024V39.899H270.724V39.101ZM270.724 38.303V37.505H277.024V38.303H270.724ZM277.02 39.101H283.32V39.899H277.02V39.101ZM277.02 38.303V37.505H283.32V38.303H277.02ZM283.315 39.101H286.864V33.0005H287.662V39.899H283.315V39.101ZM283.315 38.303V37.505H285.268V33.0005H286.066V38.303H283.315ZM302.203 44.7605V33.0005H308.503V44.7605H302.203ZM308.499 44.7605V33.0005H314.799V44.7605H308.499ZM317.546 44.7605H316.748V37.505H321.095V38.303H317.546V44.7605ZM318.344 44.7605V39.101H321.095V39.899H319.142V44.7605H318.344ZM321.091 39.101H327.391V39.899H321.091V39.101ZM321.091 38.303V37.505H327.391V38.303H321.091ZM327.387 39.101H333.687V39.899H327.387V39.101ZM327.387 38.303V37.505H333.687V38.303H327.387ZM333.683 39.101H337.232V33.0005H338.03V39.899H333.683V39.101ZM333.683 38.303V37.505H335.636V33.0005H336.434V38.303H333.683ZM352.57 44.7605V33.0005H358.87V44.7605H352.57ZM358.866 44.7605V33.0005H365.166V44.7605H358.866ZM367.913 44.7605H367.115V37.505H371.462V38.303H367.913V44.7605ZM368.711 44.7605V39.101H371.462V39.899H369.509V44.7605H368.711ZM371.458 39.101H377.758V39.899H371.458V39.101ZM371.458 38.303V37.505H377.758V38.303H371.458ZM377.754 39.101H384.054V39.899H377.754V39.101ZM377.754 38.303V37.505H384.054V38.303H377.754ZM384.05 44.7605V33.0005H390.35V44.7605H384.05ZM390.346 44.7605V33.0005H396.646V44.7605H390.346ZM399.393 44.7605H398.595V39.899H396.642V39.101H399.393V44.7605ZM400.191 44.7605V38.303H396.642V37.505H400.989V44.7605H400.191ZM447.009 44.7605V33.0005H453.309V44.7605H447.009ZM453.305 44.7605V33.0005H459.605V44.7605H453.305ZM462.352 44.7605H461.554V33.0005H462.352V44.7605ZM463.15 33.0005H463.948V44.7605H463.15V33.0005ZM484.784 44.7605V33.0005H491.084V44.7605H484.784ZM491.08 44.7605V33.0005H497.38V44.7605H491.08ZM500.127 44.7605H499.329V33.0005H500.127V44.7605ZM500.925 33.0005H501.723V44.7605H500.925V33.0005ZM522.56 44.7605V33.0005H528.86V44.7605H522.56ZM528.855 44.7605V33.0005H535.155V44.7605H528.855ZM537.902 44.7605H537.104V33.0005H537.902V44.7605ZM538.7 33.0005H539.498V44.7605H538.7V33.0005ZM541.447 44.7605V33.0005H547.747V44.7605H541.447ZM547.743 44.7605V33.0005H554.043V44.7605H547.743ZM556.79 44.7605H555.992V37.505H560.339V38.303H556.79V44.7605ZM557.588 44.7605V39.101H560.339V39.899H558.386V44.7605H557.588ZM560.335 39.101H566.635V39.899H560.335V39.101ZM560.335 38.303V37.505H566.635V38.303H560.335ZM566.631 39.101H572.931V39.899H566.631V39.101ZM566.631 38.303V37.505H572.931V38.303H566.631ZM572.927 44.7605V33.0005H579.227V44.7605H572.927ZM579.223 44.7605V33.0005H585.523V44.7605H579.223ZM588.27 44.7605H587.472V39.899H585.519V39.101H588.27V44.7605ZM589.068 44.7605V38.303H585.519V37.505H589.866V44.7605H589.068ZM591.814 44.7605V33.0005H598.114V44.7605H591.814ZM598.11 44.7605V33.0005H604.41V44.7605H598.11ZM607.157 44.7605H606.359V33.0005H607.157V44.7605ZM607.955 33.0005H608.753V44.7605H607.955V33.0005ZM612.655 39.899V33.0005H613.453V39.101H617.002V39.899H612.655ZM617.002 38.303H614.251V33.0005H615.049V37.505H617.002V38.303ZM616.998 44.7605V33.0005H623.298V44.7605H616.998ZM623.294 44.7605V33.0005H629.594V44.7605H623.294ZM632.341 44.7605H631.543V39.899H629.59V39.101H632.341V44.7605ZM633.139 44.7605V38.303H629.59V37.505H633.937V44.7605H633.139ZM635.886 44.7605V33.0005H642.186V44.7605H635.886ZM642.182 44.7605V33.0005H648.482V44.7605H642.182ZM651.229 44.7605H650.431V33.0005H651.229V44.7605ZM652.027 33.0005H652.825V44.7605H652.027V33.0005ZM654.773 44.7605V33.0005H661.073V44.7605H654.773ZM661.069 44.7605V33.0005H667.369V44.7605H661.069ZM670.116 44.7605H669.318V37.505H673.665V38.303H670.116V44.7605ZM670.914 44.7605V39.101H673.665V39.899H671.712V44.7605H670.914ZM673.661 39.101H679.961V39.899H673.661V39.101ZM673.661 38.303V37.505H679.961V38.303H673.661ZM679.957 39.101H686.257V39.899H679.957V39.101ZM679.957 38.303V37.505H686.257V38.303H679.957ZM686.253 39.101H689.802V33.0005H690.6V39.899H686.253V39.101ZM686.253 38.303V37.505H688.206V33.0005H689.004V38.303H686.253ZM705.141 44.7605V33.0005H711.441V44.7605H705.141ZM711.437 44.7605V33.0005H717.737V44.7605H711.437ZM720.483 44.7605H719.685V33.0005H720.483V44.7605ZM721.281 33.0005H722.079V44.7605H721.281V33.0005ZM736.62 44.7605V33.0005H742.92V44.7605H736.62ZM742.916 44.7605V33.0005H749.216V44.7605H742.916ZM751.963 44.7605H751.165V33.0005H751.963V44.7605ZM752.761 33.0005H753.559V44.7605H752.761V33.0005ZM0 55.7605V44.0005H6.3V55.7605H0ZM6.2959 55.7605V44.0005H12.5959V55.7605H6.2959ZM12.5918 55.7605V44.0005H18.8918V55.7605H12.5918ZM18.8877 55.7605V44.0005H25.1877V55.7605H18.8877ZM25.1836 55.7605V44.0005H31.4836V55.7605H25.1836ZM31.4795 55.7605V44.0005H37.7795V55.7605H31.4795ZM37.7754 55.7605V44.0005H44.0754V55.7605H37.7754ZM46.8223 55.7605H46.0243V50.899H44.0713V50.101H46.8223V55.7605ZM47.6203 55.7605V49.303H44.0713V48.505H48.4183V55.7605H47.6203ZM50.3672 55.7605V44.0005H56.6672V55.7605H50.3672ZM56.6631 55.7605V44.0005H62.9631V55.7605H56.6631ZM65.71 55.7605H64.912V44.0005H65.71V55.7605ZM66.508 44.0005H67.306V55.7605H66.508V44.0005ZM77.5038 50.899V44.0005H78.3018V50.101H81.8508V50.899H77.5038ZM81.8508 49.303H79.0998V44.0005H79.8978V48.505H81.8508V49.303ZM81.8467 55.7605V44.0005H88.1467V55.7605H81.8467ZM88.1426 55.7605V44.0005H94.4426V55.7605H88.1426ZM94.4385 55.7605V44.0005H100.738V55.7605H94.4385ZM100.734 55.7605V44.0005H107.034V55.7605H100.734ZM109.781 55.7605H108.983V44.0005H109.781V55.7605ZM110.579 44.0005H111.377V55.7605H110.579V44.0005ZM115.279 50.899V44.0005H116.077V50.101H119.626V50.899H115.279ZM119.626 49.303H116.875V44.0005H117.673V48.505H119.626V49.303ZM119.622 55.7605V44.0005H125.922V55.7605H119.622ZM125.918 55.7605V44.0005H132.218V55.7605H125.918ZM132.214 55.7605V44.0005H138.514V55.7605H132.214ZM138.51 55.7605V44.0005H144.81V55.7605H138.51ZM144.806 55.7605V44.0005H151.106V55.7605H144.806ZM151.102 55.7605V44.0005H157.402V55.7605H151.102ZM160.148 55.7605H159.35V48.505H163.697V49.303H160.148V55.7605ZM160.946 55.7605V50.101H163.697V50.899H161.744V55.7605H160.946ZM163.693 50.101H167.242V44.0005H168.04V50.899H163.693V50.101ZM163.693 49.303V48.505H165.646V44.0005H166.444V49.303H163.693ZM169.989 55.7605V44.0005H176.289V55.7605H169.989ZM176.285 55.7605V44.0005H182.585V55.7605H176.285ZM185.332 55.7605H184.534V44.0005H185.332V55.7605ZM186.13 44.0005H186.928V55.7605H186.13V44.0005ZM188.877 55.7605V44.0005H195.177V55.7605H188.877ZM195.173 55.7605V44.0005H201.473V55.7605H195.173ZM204.22 55.7605H203.422V44.0005H204.22V55.7605ZM205.018 44.0005H205.816V55.7605H205.018V44.0005ZM216.014 50.899V44.0005H216.812V50.101H220.361V50.899H216.014ZM220.361 49.303H217.61V44.0005H218.408V48.505H220.361V49.303ZM220.356 55.7605V44.0005H226.656V55.7605H220.356ZM226.652 55.7605V44.0005H232.952V55.7605H226.652ZM232.948 55.7605V44.0005H239.248V55.7605H232.948ZM239.244 55.7605V44.0005H245.544V55.7605H239.244ZM248.291 55.7605H247.493V44.0005H248.291V55.7605ZM249.089 44.0005H249.887V55.7605H249.089V44.0005ZM251.836 55.7605V44.0005H258.136V55.7605H251.836ZM258.132 55.7605V44.0005H264.432V55.7605H258.132ZM264.428 55.7605V44.0005H270.728V55.7605H264.428ZM270.724 55.7605V44.0005H277.024V55.7605H270.724ZM277.02 55.7605V44.0005H283.32V55.7605H277.02ZM283.315 55.7605V44.0005H289.615V55.7605H283.315ZM289.611 55.7605V44.0005H295.911V55.7605H289.611ZM298.658 55.7605H297.86V50.899H295.907V50.101H298.658V55.7605ZM299.456 55.7605V49.303H295.907V48.505H300.254V55.7605H299.456ZM302.203 55.7605V44.0005H308.503V55.7605H302.203ZM308.499 55.7605V44.0005H314.799V55.7605H308.499ZM314.795 55.7605V44.0005H321.095V55.7605H314.795ZM321.091 55.7605V44.0005H327.391V55.7605H321.091ZM327.387 55.7605V44.0005H333.687V55.7605H327.387ZM333.683 55.7605V44.0005H339.983V55.7605H333.683ZM339.979 55.7605V44.0005H346.279V55.7605H339.979ZM349.025 55.7605H348.227V50.899H346.274V50.101H349.025V55.7605ZM349.823 55.7605V49.303H346.274V48.505H350.621V55.7605H349.823ZM352.57 55.7605V44.0005H358.87V55.7605H352.57ZM358.866 55.7605V44.0005H365.166V55.7605H358.866ZM367.913 55.7605H367.115V44.0005H367.913V55.7605ZM368.711 44.0005H369.509V55.7605H368.711V44.0005ZM384.05 55.7605V44.0005H390.35V55.7605H384.05ZM390.346 55.7605V44.0005H396.646V55.7605H390.346ZM399.393 55.7605H398.595V44.0005H399.393V55.7605ZM400.191 44.0005H400.989V55.7605H400.191V44.0005ZM447.009 55.7605V44.0005H453.309V55.7605H447.009ZM453.305 55.7605V44.0005H459.605V55.7605H453.305ZM462.352 55.7605H461.554V44.0005H462.352V55.7605ZM463.15 44.0005H463.948V55.7605H463.15V44.0005ZM486.737 50.899V44.0005H487.535V50.101H491.084V50.899H486.737ZM491.084 49.303H488.333V44.0005H489.131V48.505H491.084V49.303ZM491.08 55.7605V44.0005H497.38V55.7605H491.08ZM497.376 55.7605V44.0005H503.676V55.7605H497.376ZM503.672 55.7605V44.0005H509.972V55.7605H503.672ZM509.968 55.7605V44.0005H516.268V55.7605H509.968ZM516.264 55.7605V44.0005H522.564V55.7605H516.264ZM522.56 55.7605V44.0005H528.86V55.7605H522.56ZM531.606 55.7605H530.808V48.505H535.155V49.303H531.606V55.7605ZM532.404 55.7605V50.101H535.155V50.899H533.202V55.7605H532.404ZM535.151 50.101H538.7V44.0005H539.498V50.899H535.151V50.101ZM535.151 49.303V48.505H537.104V44.0005H537.902V49.303H535.151ZM541.447 55.7605V44.0005H547.747V55.7605H541.447ZM547.743 55.7605V44.0005H554.043V55.7605H547.743ZM556.79 55.7605H555.992V44.0005H556.79V55.7605ZM557.588 44.0005H558.386V55.7605H557.588V44.0005ZM572.927 55.7605V44.0005H579.227V55.7605H572.927ZM579.223 55.7605V44.0005H585.523V55.7605H579.223ZM588.27 55.7605H587.472V44.0005H588.27V55.7605ZM589.068 44.0005H589.866V55.7605H589.068V44.0005ZM591.814 55.7605V44.0005H598.114V55.7605H591.814ZM598.11 55.7605V44.0005H604.41V55.7605H598.11ZM607.157 55.7605H606.359V44.0005H607.157V55.7605ZM607.955 44.0005H608.753V55.7605H607.955V44.0005ZM618.951 50.899V44.0005H619.749V50.101H623.298V50.899H618.951ZM623.298 49.303H620.547V44.0005H621.345V48.505H623.298V49.303ZM623.294 55.7605V44.0005H629.594V55.7605H623.294ZM629.59 55.7605V44.0005H635.89V55.7605H629.59ZM635.886 55.7605V44.0005H642.186V55.7605H635.886ZM642.182 55.7605V44.0005H648.482V55.7605H642.182ZM651.229 55.7605H650.431V44.0005H651.229V55.7605ZM652.027 44.0005H652.825V55.7605H652.027V44.0005ZM654.773 55.7605V44.0005H661.073V55.7605H654.773ZM661.069 55.7605V44.0005H667.369V55.7605H661.069ZM667.365 55.7605V44.0005H673.665V55.7605H667.365ZM673.661 55.7605V44.0005H679.961V55.7605H673.661ZM679.957 55.7605V44.0005H686.257V55.7605H679.957ZM686.253 55.7605V44.0005H692.553V55.7605H686.253ZM692.549 55.7605V44.0005H698.849V55.7605H692.549ZM701.596 55.7605H700.798V50.899H698.845V50.101H701.596V55.7605ZM702.394 55.7605V49.303H698.845V48.505H703.192V55.7605H702.394ZM705.141 55.7605V44.0005H711.441V55.7605H705.141ZM711.437 55.7605V44.0005H717.737V55.7605H711.437ZM717.732 55.7605V44.0005H724.032V55.7605H717.732ZM724.028 55.7605V44.0005H730.328V55.7605H724.028ZM730.324 55.7605V44.0005H736.624V55.7605H730.324ZM736.62 55.7605V44.0005H742.92V55.7605H736.62ZM745.667 55.7605H744.869V48.505H749.216V49.303H745.667V55.7605ZM746.465 55.7605V50.101H749.216V50.899H747.263V55.7605H746.465ZM749.212 50.101H752.761V44.0005H753.559V50.899H749.212V50.101ZM749.212 49.303V48.505H751.165V44.0005H751.963V49.303H749.212ZM1.953 61.899V55.0005H2.751V61.101H6.3V61.899H1.953ZM6.3 60.303H3.549V55.0005H4.347V59.505H6.3V60.303ZM6.2959 61.101H12.5959V61.899H6.2959V61.101ZM6.2959 60.303V59.505H12.5959V60.303H6.2959ZM12.5918 61.101H18.8918V61.899H12.5918V61.101ZM12.5918 60.303V59.505H18.8918V60.303H12.5918ZM18.8877 61.101H25.1877V61.899H18.8877V61.101ZM18.8877 60.303V59.505H25.1877V60.303H18.8877ZM25.1836 61.101H31.4836V61.899H25.1836V61.101ZM25.1836 60.303V59.505H31.4836V60.303H25.1836ZM31.4795 61.101H37.7795V61.899H31.4795V61.101ZM31.4795 60.303V59.505H37.7795V60.303H31.4795ZM37.7754 61.101H44.0754V61.899H37.7754V61.101ZM37.7754 60.303V59.505H44.0754V60.303H37.7754ZM44.0713 61.101H47.6203V55.0005H48.4183V61.899H44.0713V61.101ZM44.0713 60.303V59.505H46.0243V55.0005H46.8223V60.303H44.0713ZM52.3202 61.899V55.0005H53.1182V61.101H56.6672V61.899H52.3202ZM56.6672 60.303H53.9162V55.0005H54.7142V59.505H56.6672V60.303ZM56.6631 61.101H62.9631V61.899H56.6631V61.101ZM56.6631 60.303V59.505H62.9631V60.303H56.6631ZM62.959 61.101H66.508V55.0005H67.306V61.899H62.959V61.101ZM62.959 60.303V59.505H64.912V55.0005H65.71V60.303H62.959ZM83.7997 61.899V55.0005H84.5977V61.101H88.1467V61.899H83.7997ZM88.1467 60.303H85.3957V55.0005H86.1937V59.505H88.1467V60.303ZM88.1426 61.101H94.4426V61.899H88.1426V61.101ZM88.1426 60.303V59.505H94.4426V60.303H88.1426ZM94.4385 61.101H100.738V61.899H94.4385V61.101ZM94.4385 60.303V59.505H100.738V60.303H94.4385ZM100.734 61.101H107.034V61.899H100.734V61.101ZM100.734 60.303V59.505H107.034V60.303H100.734ZM107.03 61.101H110.579V55.0005H111.377V61.899H107.03V61.101ZM107.03 60.303V59.505H108.983V55.0005H109.781V60.303H107.03ZM121.575 61.899V55.0005H122.373V61.101H125.922V61.899H121.575ZM125.922 60.303H123.171V55.0005H123.969V59.505H125.922V60.303ZM125.918 61.101H132.218V61.899H125.918V61.101ZM125.918 60.303V59.505H132.218V60.303H125.918ZM132.214 61.101H138.514V61.899H132.214V61.101ZM132.214 60.303V59.505H138.514V60.303H132.214ZM138.51 61.101H144.81V61.899H138.51V61.101ZM138.51 60.303V59.505H144.81V60.303H138.51ZM144.806 61.101H151.106V61.899H144.806V61.101ZM144.806 60.303V59.505H151.106V60.303H144.806ZM151.102 61.101H157.402V61.899H151.102V61.101ZM151.102 60.303V59.505H157.402V60.303H151.102ZM157.397 61.101H160.946V55.0005H161.744V61.899H157.397V61.101ZM157.397 60.303V59.505H159.35V55.0005H160.148V60.303H157.397ZM171.942 61.899V55.0005H172.74V61.101H176.289V61.899H171.942ZM176.289 60.303H173.538V55.0005H174.336V59.505H176.289V60.303ZM176.285 61.101H182.585V61.899H176.285V61.101ZM176.285 60.303V59.505H182.585V60.303H176.285ZM182.581 61.101H186.13V55.0005H186.928V61.899H182.581V61.101ZM182.581 60.303V59.505H184.534V55.0005H185.332V60.303H182.581ZM190.83 61.899V55.0005H191.628V61.101H195.177V61.899H190.83ZM195.177 60.303H192.426V55.0005H193.224V59.505H195.177V60.303ZM195.173 61.101H201.473V61.899H195.173V61.101ZM195.173 60.303V59.505H201.473V60.303H195.173ZM201.469 61.101H205.018V55.0005H205.816V61.899H201.469V61.101ZM201.469 60.303V59.505H203.422V55.0005H204.22V60.303H201.469ZM222.309 61.899V55.0005H223.107V61.101H226.656V61.899H222.309ZM226.656 60.303H223.905V55.0005H224.703V59.505H226.656V60.303ZM226.652 61.101H232.952V61.899H226.652V61.101ZM226.652 60.303V59.505H232.952V60.303H226.652ZM232.948 61.101H239.248V61.899H232.948V61.101ZM232.948 60.303V59.505H239.248V60.303H232.948ZM239.244 61.101H245.544V61.899H239.244V61.101ZM239.244 60.303V59.505H245.544V60.303H239.244ZM245.54 61.101H249.089V55.0005H249.887V61.899H245.54V61.101ZM245.54 60.303V59.505H247.493V55.0005H248.291V60.303H245.54ZM253.789 61.899V55.0005H254.587V61.101H258.136V61.899H253.789ZM258.136 60.303H255.385V55.0005H256.183V59.505H258.136V60.303ZM258.132 61.101H264.432V61.899H258.132V61.101ZM258.132 60.303V59.505H264.432V60.303H258.132ZM264.428 61.101H270.728V61.899H264.428V61.101ZM264.428 60.303V59.505H270.728V60.303H264.428ZM270.724 61.101H277.024V61.899H270.724V61.101ZM270.724 60.303V59.505H277.024V60.303H270.724ZM277.02 61.101H283.32V61.899H277.02V61.101ZM277.02 60.303V59.505H283.32V60.303H277.02ZM283.315 61.101H289.615V61.899H283.315V61.101ZM283.315 60.303V59.505H289.615V60.303H283.315ZM289.611 61.101H295.911V61.899H289.611V61.101ZM289.611 60.303V59.505H295.911V60.303H289.611ZM295.907 61.101H299.456V55.0005H300.254V61.899H295.907V61.101ZM295.907 60.303V59.505H297.86V55.0005H298.658V60.303H295.907ZM304.156 61.899V55.0005H304.954V61.101H308.503V61.899H304.156ZM308.503 60.303H305.752V55.0005H306.55V59.505H308.503V60.303ZM308.499 61.101H314.799V61.899H308.499V61.101ZM308.499 60.303V59.505H314.799V60.303H308.499ZM314.795 61.101H321.095V61.899H314.795V61.101ZM314.795 60.303V59.505H321.095V60.303H314.795ZM321.091 61.101H327.391V61.899H321.091V61.101ZM321.091 60.303V59.505H327.391V60.303H321.091ZM327.387 61.101H333.687V61.899H327.387V61.101ZM327.387 60.303V59.505H333.687V60.303H327.387ZM333.683 61.101H339.983V61.899H333.683V61.101ZM333.683 60.303V59.505H339.983V60.303H333.683ZM339.979 61.101H346.279V61.899H339.979V61.101ZM339.979 60.303V59.505H346.279V60.303H339.979ZM346.274 61.101H349.823V55.0005H350.621V61.899H346.274V61.101ZM346.274 60.303V59.505H348.227V55.0005H349.025V60.303H346.274ZM354.523 61.899V55.0005H355.321V61.101H358.87V61.899H354.523ZM358.87 60.303H356.119V55.0005H356.917V59.505H358.87V60.303ZM358.866 61.101H365.166V61.899H358.866V61.101ZM358.866 60.303V59.505H365.166V60.303H358.866ZM365.162 61.101H368.711V55.0005H369.509V61.899H365.162V61.101ZM365.162 60.303V59.505H367.115V55.0005H367.913V60.303H365.162ZM386.003 61.899V55.0005H386.801V61.101H390.35V61.899H386.003ZM390.35 60.303H387.599V55.0005H388.397V59.505H390.35V60.303ZM390.346 61.101H396.646V61.899H390.346V61.101ZM390.346 60.303V59.505H396.646V60.303H390.346ZM396.642 61.101H400.191V55.0005H400.989V61.899H396.642V61.101ZM396.642 60.303V59.505H398.595V55.0005H399.393V60.303H396.642ZM448.962 61.899V55.0005H449.76V61.101H453.309V61.899H448.962ZM453.309 60.303H450.558V55.0005H451.356V59.505H453.309V60.303ZM453.305 61.101H459.605V61.899H453.305V61.101ZM453.305 60.303V59.505H459.605V60.303H453.305ZM459.601 61.101H463.15V55.0005H463.948V61.899H459.601V61.101ZM459.601 60.303V59.505H461.554V55.0005H462.352V60.303H459.601ZM493.033 61.899V55.0005H493.831V61.101H497.38V61.899H493.033ZM497.38 60.303H494.629V55.0005H495.427V59.505H497.38V60.303ZM497.376 61.101H503.676V61.899H497.376V61.101ZM497.376 60.303V59.505H503.676V60.303H497.376ZM503.672 61.101H509.972V61.899H503.672V61.101ZM503.672 60.303V59.505H509.972V60.303H503.672ZM509.968 61.101H516.268V61.899H509.968V61.101ZM509.968 60.303V59.505H516.268V60.303H509.968ZM516.264 61.101H522.564V61.899H516.264V61.101ZM516.264 60.303V59.505H522.564V60.303H516.264ZM522.56 61.101H528.86V61.899H522.56V61.101ZM522.56 60.303V59.505H528.86V60.303H522.56ZM528.855 61.101H532.404V55.0005H533.202V61.899H528.855V61.101ZM528.855 60.303V59.505H530.808V55.0005H531.606V60.303H528.855ZM543.4 61.899V55.0005H544.198V61.101H547.747V61.899H543.4ZM547.747 60.303H544.996V55.0005H545.794V59.505H547.747V60.303ZM547.743 61.101H554.043V61.899H547.743V61.101ZM547.743 60.303V59.505H554.043V60.303H547.743ZM554.039 61.101H557.588V55.0005H558.386V61.899H554.039V61.101ZM554.039 60.303V59.505H555.992V55.0005H556.79V60.303H554.039ZM574.88 61.899V55.0005H575.678V61.101H579.227V61.899H574.88ZM579.227 60.303H576.476V55.0005H577.274V59.505H579.227V60.303ZM579.223 61.101H585.523V61.899H579.223V61.101ZM579.223 60.303V59.505H585.523V60.303H579.223ZM585.519 61.101H589.068V55.0005H589.866V61.899H585.519V61.101ZM585.519 60.303V59.505H587.472V55.0005H588.27V60.303H585.519ZM593.767 61.899V55.0005H594.565V61.101H598.114V61.899H593.767ZM598.114 60.303H595.363V55.0005H596.161V59.505H598.114V60.303ZM598.11 61.101H604.41V61.899H598.11V61.101ZM598.11 60.303V59.505H604.41V60.303H598.11ZM604.406 61.101H607.955V55.0005H608.753V61.899H604.406V61.101ZM604.406 60.303V59.505H606.359V55.0005H607.157V60.303H604.406ZM625.247 61.899V55.0005H626.045V61.101H629.594V61.899H625.247ZM629.594 60.303H626.843V55.0005H627.641V59.505H629.594V60.303ZM629.59 61.101H635.89V61.899H629.59V61.101ZM629.59 60.303V59.505H635.89V60.303H629.59ZM635.886 61.101H642.186V61.899H635.886V61.101ZM635.886 60.303V59.505H642.186V60.303H635.886ZM642.182 61.101H648.482V61.899H642.182V61.101ZM642.182 60.303V59.505H648.482V60.303H642.182ZM648.478 61.101H652.027V55.0005H652.825V61.899H648.478V61.101ZM648.478 60.303V59.505H650.431V55.0005H651.229V60.303H648.478ZM656.726 61.899V55.0005H657.524V61.101H661.073V61.899H656.726ZM661.073 60.303H658.322V55.0005H659.12V59.505H661.073V60.303ZM661.069 61.101H667.369V61.899H661.069V61.101ZM661.069 60.303V59.505H667.369V60.303H661.069ZM667.365 61.101H673.665V61.899H667.365V61.101ZM667.365 60.303V59.505H673.665V60.303H667.365ZM673.661 61.101H679.961V61.899H673.661V61.101ZM673.661 60.303V59.505H679.961V60.303H673.661ZM679.957 61.101H686.257V61.899H679.957V61.101ZM679.957 60.303V59.505H686.257V60.303H679.957ZM686.253 61.101H692.553V61.899H686.253V61.101ZM686.253 60.303V59.505H692.553V60.303H686.253ZM692.549 61.101H698.849V61.899H692.549V61.101ZM692.549 60.303V59.505H698.849V60.303H692.549ZM698.845 61.101H702.394V55.0005H703.192V61.899H698.845V61.101ZM698.845 60.303V59.505H700.798V55.0005H701.596V60.303H698.845ZM707.094 61.899V55.0005H707.892V61.101H711.441V61.899H707.094ZM711.441 60.303H708.69V55.0005H709.488V59.505H711.441V60.303ZM711.437 61.101H717.737V61.899H711.437V61.101ZM711.437 60.303V59.505H717.737V60.303H711.437ZM717.732 61.101H724.032V61.899H717.732V61.101ZM717.732 60.303V59.505H724.032V60.303H717.732ZM724.028 61.101H730.328V61.899H724.028V61.101ZM724.028 60.303V59.505H730.328V60.303H724.028ZM730.324 61.101H736.624V61.899H730.324V61.101ZM730.324 60.303V59.505H736.624V60.303H730.324ZM736.62 61.101H742.92V61.899H736.62V61.101ZM736.62 60.303V59.505H742.92V60.303H736.62ZM742.916 61.101H746.465V55.0005H747.263V61.899H742.916V61.101ZM742.916 60.303V59.505H744.869V55.0005H745.667V60.303H742.916Z" fill="#293DBD"/>
</svg>