<svg width="786" height="62" viewBox="0 0 786 62" fill="none" xmlns="http://www.w3.org/2000/svg">
<path d="M0 11.7605V0.000468224H6.3V11.7605H0ZM6.2959 11.7605V0.000468224H12.5959V11.7605H6.2959ZM12.5918 11.7605V0.000468224H18.8918V11.7605H12.5918ZM18.8877 11.7605V0.000468224H25.1877V11.7605H18.8877ZM25.1836 11.7605V0.000468224H31.4836V11.7605H25.1836ZM31.4795 11.7605V0.000468224H37.7795V11.7605H31.4795ZM40.5264 11.7605H39.7284V6.89897H37.7754V6.10097H40.5264V11.7605ZM41.3244 11.7605V5.30297H37.7754V4.50497H42.1224V11.7605H41.3244ZM50.3672 11.7605V0.000468224H56.6672V11.7605H50.3672ZM56.6631 11.7605V0.000468224H62.9631V11.7605H56.6631ZM62.959 11.7605V0.000468224H69.259V11.7605H62.959ZM69.2549 11.7605V0.000468224H75.5549V11.7605H69.2549ZM75.5508 11.7605V0.000468224H81.8508V11.7605H75.5508ZM81.8467 11.7605V0.000468224H88.1467V11.7605H81.8467ZM90.8936 11.7605H90.0956V6.89897H88.1426V6.10097H90.8936V11.7605ZM91.6916 11.7605V5.30297H88.1426V4.50497H92.4896V11.7605H91.6916ZM107.03 11.7605V0.000468224H113.33V11.7605H107.03ZM113.326 11.7605V0.000468224H119.626V11.7605H113.326ZM119.622 11.7605V0.000468224H125.922V11.7605H119.622ZM125.918 11.7605V0.000468224H132.218V11.7605H125.918ZM132.214 11.7605V0.000468224H138.514V11.7605H132.214ZM138.51 11.7605V0.000468224H144.81V11.7605H138.51ZM147.557 11.7605H146.759V6.89897H144.806V6.10097H147.557V11.7605ZM148.355 11.7605V5.30297H144.806V4.50497H149.153V11.7605H148.355ZM157.397 11.7605V0.000468224H163.697V11.7605H157.397ZM163.693 11.7605V0.000468224H169.993V11.7605H163.693ZM169.989 11.7605V0.000468224H176.289V11.7605H169.989ZM176.285 11.7605V0.000468224H182.585V11.7605H176.285ZM182.581 11.7605V0.000468224H188.881V11.7605H182.581ZM188.877 11.7605V0.000468224H195.177V11.7605H188.877ZM197.924 11.7605H197.126V6.89897H195.173V6.10097H197.924V11.7605ZM198.722 11.7605V5.30297H195.173V4.50497H199.52V11.7605H198.722ZM207.765 11.7605V0.000468224H214.065V11.7605H207.765ZM214.061 11.7605V0.000468224H220.361V11.7605H214.061ZM223.107 11.7605H222.309V6.89897H220.356V6.10097H223.107V11.7605ZM223.905 11.7605V5.30297H220.356V4.50497H224.703V11.7605H223.905ZM245.54 11.7605V0.000468224H251.84V11.7605H245.54ZM251.836 11.7605V0.000468224H258.136V11.7605H251.836ZM260.883 11.7605H260.085V6.89897H258.132V6.10097H260.883V11.7605ZM261.681 11.7605V5.30297H258.132V4.50497H262.479V11.7605H261.681ZM270.724 11.7605V0.000468224H277.024V11.7605H270.724ZM277.02 11.7605V0.000468224H283.32V11.7605H277.02ZM283.315 11.7605V0.000468224H289.615V11.7605H283.315ZM289.611 11.7605V0.000468224H295.911V11.7605H289.611ZM295.907 11.7605V0.000468224H302.207V11.7605H295.907ZM302.203 11.7605V0.000468224H308.503V11.7605H302.203ZM311.25 11.7605H310.452V6.89897H308.499V6.10097H311.25V11.7605ZM312.048 11.7605V5.30297H308.499V4.50497H312.846V11.7605H312.048ZM314.795 11.7605V0.000468224H321.095V11.7605H314.795ZM321.091 11.7605V0.000468224H327.391V11.7605H321.091ZM327.387 11.7605V0.000468224H333.687V11.7605H327.387ZM333.683 11.7605V0.000468224H339.983V11.7605H333.683ZM339.979 11.7605V0.000468224H346.279V11.7605H339.979ZM346.274 11.7605V0.000468224H352.574V11.7605H346.274ZM352.57 11.7605V0.000468224H358.87V11.7605H352.57ZM358.866 11.7605V0.000468224H365.166V11.7605H358.866ZM367.913 11.7605H367.115V6.89897H365.162V6.10097H367.913V11.7605ZM368.711 11.7605V5.30297H365.162V4.50497H369.509V11.7605H368.711ZM396.642 11.7605V0.000468224H402.942V11.7605H396.642ZM402.938 11.7605V0.000468224H409.238V11.7605H402.938ZM409.233 11.7605V0.000468224H415.533V11.7605H409.233ZM415.529 11.7605V0.000468224H421.829V11.7605H415.529ZM421.825 11.7605V0.000468224H428.125V11.7605H421.825ZM428.121 11.7605V0.000468224H434.421V11.7605H428.121ZM437.168 11.7605H436.37V6.89897H434.417V6.10097H437.168V11.7605ZM437.966 11.7605V5.30297H434.417V4.50497H438.764V11.7605H437.966ZM447.009 11.7605V0.000468224H453.309V11.7605H447.009ZM453.305 11.7605V0.000468224H459.605V11.7605H453.305ZM459.601 11.7605V0.000468224H465.901V11.7605H459.601ZM465.896 11.7605V0.000468224H472.196V11.7605H465.896ZM472.192 11.7605V0.000468224H478.492V11.7605H472.192ZM478.488 11.7605V0.000468224H484.788V11.7605H478.488ZM484.784 11.7605V0.000468224H491.084V11.7605H484.784ZM493.831 11.7605H493.033V6.89897H491.08V6.10097H493.831V11.7605ZM494.629 11.7605V5.30297H491.08V4.50497H495.427V11.7605H494.629ZM497.376 11.7605V0.000468224H503.676V11.7605H497.376ZM503.672 11.7605V0.000468224H509.972V11.7605H503.672ZM509.968 11.7605V0.000468224H516.268V11.7605H509.968ZM516.264 11.7605V0.000468224H522.564V11.7605H516.264ZM522.56 11.7605V0.000468224H528.86V11.7605H522.56ZM528.855 11.7605V0.000468224H535.155V11.7605H528.855ZM535.151 11.7605V0.000468224H541.451V11.7605H535.151ZM544.198 11.7605H543.4V6.89897H541.447V6.10097H544.198V11.7605ZM544.996 11.7605V5.30297H541.447V4.50497H545.794V11.7605H544.996ZM547.743 11.7605V0.000468224H554.043V11.7605H547.743ZM554.039 11.7605V0.000468224H560.339V11.7605H554.039ZM563.086 11.7605H562.288V6.89897H560.335V6.10097H563.086V11.7605ZM563.884 11.7605V5.30297H560.335V4.50497H564.682V11.7605H563.884ZM572.927 11.7605V0.000468224H579.227V11.7605H572.927ZM579.223 11.7605V0.000468224H585.523V11.7605H579.223ZM585.519 11.7605V0.000468224H591.819V11.7605H585.519ZM591.814 11.7605V0.000468224H598.114V11.7605H591.814ZM598.11 11.7605V0.000468224H604.41V11.7605H598.11ZM604.406 11.7605V0.000468224H610.706V11.7605H604.406ZM613.453 11.7605H612.655V6.89897H610.702V6.10097H613.453V11.7605ZM614.251 11.7605V5.30297H610.702V4.50497H615.049V11.7605H614.251ZM623.294 11.7605V0.000468224H629.594V11.7605H623.294ZM629.59 11.7605V0.000468224H635.89V11.7605H629.59ZM635.886 11.7605V0.000468224H642.186V11.7605H635.886ZM644.933 11.7605H644.135V6.89897H642.182V6.10097H644.933V11.7605ZM645.731 11.7605V5.30297H642.182V4.50497H646.529V11.7605H645.731ZM667.365 11.7605V0.000468224H673.665V11.7605H667.365ZM673.661 11.7605V0.000468224H679.961V11.7605H673.661ZM682.708 11.7605H681.91V6.89897H679.957V6.10097H682.708V11.7605ZM683.506 11.7605V5.30297H679.957V4.50497H684.304V11.7605H683.506ZM686.253 11.7605V0.000468224H692.553V11.7605H686.253ZM692.549 11.7605V0.000468224H698.849V11.7605H692.549ZM698.845 11.7605V0.000468224H705.145V11.7605H698.845ZM705.141 11.7605V0.000468224H711.441V11.7605H705.141ZM711.437 11.7605V0.000468224H717.737V11.7605H711.437ZM717.732 11.7605V0.000468224H724.032V11.7605H717.732ZM724.028 11.7605V0.000468224H730.328V11.7605H724.028ZM733.075 11.7605H732.277V6.89897H730.324V6.10097H733.075V11.7605ZM733.873 11.7605V5.30297H730.324V4.50497H734.671V11.7605H733.873ZM736.62 11.7605V0.000468224H742.92V11.7605H736.62ZM742.916 11.7605V0.000468224H749.216V11.7605H742.916ZM749.212 11.7605V0.000468224H755.512V11.7605H749.212ZM755.508 11.7605V0.000468224H761.808V11.7605H755.508ZM761.804 11.7605V0.000468224H768.104V11.7605H761.804ZM768.1 11.7605V0.000468224H774.4V11.7605H768.1ZM777.147 11.7605H776.349V6.89897H774.396V6.10097H777.147V11.7605ZM777.945 11.7605V5.30297H774.396V4.50497H778.743V11.7605H777.945ZM0 22.7605V11.0005H6.3V22.7605H0ZM6.2959 22.7605V11.0005H12.5959V22.7605H6.2959ZM15.3428 22.7605H14.5448V15.505H18.8918V16.303H15.3428V22.7605ZM16.1408 22.7605V17.101H18.8918V17.899H16.9388V22.7605H16.1408ZM18.8877 17.101H25.1877V17.899H18.8877V17.101ZM18.8877 16.303V15.505H25.1877V16.303H18.8877ZM25.1836 17.101H31.4836V17.899H25.1836V17.101ZM25.1836 16.303V15.505H31.4836V16.303H25.1836ZM31.4795 22.7605V11.0005H37.7795V22.7605H31.4795ZM37.7754 22.7605V11.0005H44.0754V22.7605H37.7754ZM46.8223 22.7605H46.0243V17.899H44.0713V17.101H46.8223V22.7605ZM47.6203 22.7605V16.303H44.0713V15.505H48.4183V22.7605H47.6203ZM50.3672 22.7605V11.0005H56.6672V22.7605H50.3672ZM56.6631 22.7605V11.0005H62.9631V22.7605H56.6631ZM65.71 22.7605H64.912V15.505H69.259V16.303H65.71V22.7605ZM66.508 22.7605V17.101H69.259V17.899H67.306V22.7605H66.508ZM69.2549 17.101H75.5549V17.899H69.2549V17.101ZM69.2549 16.303V15.505H75.5549V16.303H69.2549ZM75.5508 17.101H81.8508V17.899H75.5508V17.101ZM75.5508 16.303V15.505H81.8508V16.303H75.5508ZM81.8467 22.7605V11.0005H88.1467V22.7605H81.8467ZM88.1426 22.7605V11.0005H94.4426V22.7605H88.1426ZM97.1895 22.7605H96.3915V17.899H94.4385V17.101H97.1895V22.7605ZM97.9875 22.7605V16.303H94.4385V15.505H98.7855V22.7605H97.9875ZM100.734 22.7605V11.0005H107.034V22.7605H100.734ZM107.03 22.7605V11.0005H113.33V22.7605H107.03ZM116.077 22.7605H115.279V15.505H119.626V16.303H116.077V22.7605ZM116.875 22.7605V17.101H119.626V17.899H117.673V22.7605H116.875ZM119.622 17.101H125.922V17.899H119.622V17.101ZM119.622 16.303V15.505H125.922V16.303H119.622ZM125.918 17.101H132.218V17.899H125.918V17.101ZM125.918 16.303V15.505H132.218V16.303H125.918ZM132.214 17.101H138.514V17.899H132.214V17.101ZM132.214 16.303V15.505H138.514V16.303H132.214ZM138.51 22.7605V11.0005H144.81V22.7605H138.51ZM144.806 22.7605V11.0005H151.106V22.7605H144.806ZM153.853 22.7605H153.055V17.899H151.102V17.101H153.853V22.7605ZM154.651 22.7605V16.303H151.102V15.505H155.449V22.7605H154.651ZM157.397 22.7605V11.0005H163.697V22.7605H157.397ZM163.693 22.7605V11.0005H169.993V22.7605H163.693ZM172.74 22.7605H171.942V15.505H176.289V16.303H172.74V22.7605ZM173.538 22.7605V17.101H176.289V17.899H174.336V22.7605H173.538ZM176.285 17.101H182.585V17.899H176.285V17.101ZM176.285 16.303V15.505H182.585V16.303H176.285ZM182.581 17.101H188.881V17.899H182.581V17.101ZM182.581 16.303V15.505H188.881V16.303H182.581ZM188.877 22.7605V11.0005H195.177V22.7605H188.877ZM195.173 22.7605V11.0005H201.473V22.7605H195.173ZM204.22 22.7605H203.422V17.899H201.469V17.101H204.22V22.7605ZM205.018 22.7605V16.303H201.469V15.505H205.816V22.7605H205.018ZM207.765 22.7605V11.0005H214.065V22.7605H207.765ZM214.061 22.7605V11.0005H220.361V22.7605H214.061ZM223.107 22.7605H222.309V11.0005H223.107V22.7605ZM223.905 11.0005H224.703V22.7605H223.905V11.0005ZM245.54 22.7605V11.0005H251.84V22.7605H245.54ZM251.836 22.7605V11.0005H258.136V22.7605H251.836ZM260.883 22.7605H260.085V11.0005H260.883V22.7605ZM261.681 11.0005H262.479V22.7605H261.681V11.0005ZM264.428 22.7605V11.0005H270.728V22.7605H264.428ZM270.724 22.7605V11.0005H277.024V22.7605H270.724ZM279.771 22.7605H278.973V15.505H283.32V16.303H279.771V22.7605ZM280.569 22.7605V17.101H283.32V17.899H281.367V22.7605H280.569ZM283.315 17.101H289.615V17.899H283.315V17.101ZM283.315 16.303V15.505H289.615V16.303H283.315ZM289.611 17.101H295.911V17.899H289.611V17.101ZM289.611 16.303V15.505H295.911V16.303H289.611ZM295.907 17.101H302.207V17.899H295.907V17.101ZM295.907 16.303V15.505H302.207V16.303H295.907ZM302.203 17.101H308.503V17.899H302.203V17.101ZM302.203 16.303V15.505H308.503V16.303H302.203ZM308.499 17.101H312.048V11.0005H312.846V17.899H308.499V17.101ZM308.499 16.303V15.505H310.452V11.0005H311.25V16.303H308.499ZM316.748 17.899V11.0005H317.546V17.101H321.095V17.899H316.748ZM321.095 16.303H318.344V11.0005H319.142V15.505H321.095V16.303ZM321.091 17.101H327.391V17.899H321.091V17.101ZM321.091 16.303V15.505H327.391V16.303H321.091ZM327.387 17.101H333.687V17.899H327.387V17.101ZM327.387 16.303V15.505H333.687V16.303H327.387ZM333.683 22.7605V11.0005H339.983V22.7605H333.683ZM339.979 22.7605V11.0005H346.279V22.7605H339.979ZM349.025 22.7605H348.227V15.505H352.574V16.303H349.025V22.7605ZM349.823 22.7605V17.101H352.574V17.899H350.621V22.7605H349.823ZM352.57 17.101H358.87V17.899H352.57V17.101ZM352.57 16.303V15.505H358.87V16.303H352.57ZM358.866 17.101H365.166V17.899H358.866V17.101ZM358.866 16.303V15.505H365.166V16.303H358.866ZM365.162 17.101H368.711V11.0005H369.509V17.899H365.162V17.101ZM365.162 16.303V15.505H367.115V11.0005H367.913V16.303H365.162ZM396.642 22.7605V11.0005H402.942V22.7605H396.642ZM402.938 22.7605V11.0005H409.238V22.7605H402.938ZM411.984 22.7605H411.186V15.505H415.533V16.303H411.984V22.7605ZM412.782 22.7605V17.101H415.533V17.899H413.58V22.7605H412.782ZM415.529 17.101H421.829V17.899H415.529V17.101ZM415.529 16.303V15.505H421.829V16.303H415.529ZM421.825 17.101H428.125V17.899H421.825V17.101ZM421.825 16.303V15.505H428.125V16.303H421.825ZM428.121 22.7605V11.0005H434.421V22.7605H428.121ZM434.417 22.7605V11.0005H440.717V22.7605H434.417ZM443.464 22.7605H442.666V17.899H440.713V17.101H443.464V22.7605ZM444.262 22.7605V16.303H440.713V15.505H445.06V22.7605H444.262ZM447.009 22.7605V11.0005H453.309V22.7605H447.009ZM453.305 22.7605V11.0005H459.605V22.7605H453.305ZM462.352 22.7605H461.554V15.505H465.901V16.303H462.352V22.7605ZM463.15 22.7605V17.101H465.901V17.899H463.948V22.7605H463.15ZM465.896 17.101H472.196V17.899H465.896V17.101ZM465.896 16.303V15.505H472.196V16.303H465.896ZM472.192 17.101H478.492V17.899H472.192V17.101ZM472.192 16.303V15.505H478.492V16.303H472.192ZM478.488 17.101H484.788V17.899H478.488V17.101ZM478.488 16.303V15.505H484.788V16.303H478.488ZM484.784 17.101H491.084V17.899H484.784V17.101ZM484.784 16.303V15.505H491.084V16.303H484.784ZM491.08 17.101H494.629V11.0005H495.427V17.899H491.08V17.101ZM491.08 16.303V15.505H493.033V11.0005H493.831V16.303H491.08ZM497.376 22.7605V11.0005H503.676V22.7605H497.376ZM503.672 22.7605V11.0005H509.972V22.7605H503.672ZM512.719 22.7605H511.921V15.505H516.268V16.303H512.719V22.7605ZM513.517 22.7605V17.101H516.268V17.899H514.315V22.7605H513.517ZM516.264 17.101H522.564V17.899H516.264V17.101ZM516.264 16.303V15.505H522.564V16.303H516.264ZM522.56 17.101H528.86V17.899H522.56V17.101ZM522.56 16.303V15.505H528.86V16.303H522.56ZM528.855 17.101H535.155V17.899H528.855V17.101ZM528.855 16.303V15.505H535.155V16.303H528.855ZM535.151 17.101H541.451V17.899H535.151V17.101ZM535.151 16.303V15.505H541.451V16.303H535.151ZM541.447 17.101H544.996V11.0005H545.794V17.899H541.447V17.101ZM541.447 16.303V15.505H543.4V11.0005H544.198V16.303H541.447ZM547.743 22.7605V11.0005H554.043V22.7605H547.743ZM554.039 22.7605V11.0005H560.339V22.7605H554.039ZM563.086 22.7605H562.288V11.0005H563.086V22.7605ZM563.884 11.0005H564.682V22.7605H563.884V11.0005ZM566.631 22.7605V11.0005H572.931V22.7605H566.631ZM572.927 22.7605V11.0005H579.227V22.7605H572.927ZM581.974 22.7605H581.176V15.505H585.523V16.303H581.974V22.7605ZM582.772 22.7605V17.101H585.523V17.899H583.57V22.7605H582.772ZM585.519 17.101H591.819V17.899H585.519V17.101ZM585.519 16.303V15.505H591.819V16.303H585.519ZM591.814 17.101H598.114V17.899H591.814V17.101ZM591.814 16.303V15.505H598.114V16.303H591.814ZM598.11 17.101H604.41V17.899H598.11V17.101ZM598.11 16.303V15.505H604.41V16.303H598.11ZM604.406 17.101H610.706V17.899H604.406V17.101ZM604.406 16.303V15.505H610.706V16.303H604.406ZM610.702 17.101H614.251V11.0005H615.049V17.899H610.702V17.101ZM610.702 16.303V15.505H612.655V11.0005H613.453V16.303H610.702ZM623.294 22.7605V11.0005H629.594V22.7605H623.294ZM629.59 22.7605V11.0005H635.89V22.7605H629.59ZM635.886 22.7605V11.0005H642.186V22.7605H635.886ZM642.182 22.7605V11.0005H648.482V22.7605H642.182ZM651.229 22.7605H650.431V17.899H648.478V17.101H651.229V22.7605ZM652.027 22.7605V16.303H648.478V15.505H652.825V22.7605H652.027ZM667.365 22.7605V11.0005H673.665V22.7605H667.365ZM673.661 22.7605V11.0005H679.961V22.7605H673.661ZM682.708 22.7605H681.91V11.0005H682.708V22.7605ZM683.506 11.0005H684.304V22.7605H683.506V11.0005ZM686.253 22.7605V11.0005H692.553V22.7605H686.253ZM692.549 22.7605V11.0005H698.849V22.7605H692.549ZM701.596 22.7605H700.798V15.505H705.145V16.303H701.596V22.7605ZM702.394 22.7605V17.101H705.145V17.899H703.192V22.7605H702.394ZM705.141 17.101H711.441V17.899H705.141V17.101ZM705.141 16.303V15.505H711.441V16.303H705.141ZM711.437 17.101H717.737V17.899H711.437V17.101ZM711.437 16.303V15.505H717.737V16.303H711.437ZM717.732 17.101H724.032V17.899H717.732V17.101ZM717.732 16.303V15.505H724.032V16.303H717.732ZM724.028 17.101H730.328V17.899H724.028V17.101ZM724.028 16.303V15.505H730.328V16.303H724.028ZM730.324 17.101H733.873V11.0005H734.671V17.899H730.324V17.101ZM730.324 16.303V15.505H732.277V11.0005H733.075V16.303H730.324ZM736.62 22.7605V11.0005H742.92V22.7605H736.62ZM742.916 22.7605V11.0005H749.216V22.7605H742.916ZM751.963 22.7605H751.165V15.505H755.512V16.303H751.963V22.7605ZM752.761 22.7605V17.101H755.512V17.899H753.559V22.7605H752.761ZM755.508 17.101H761.808V17.899H755.508V17.101ZM755.508 16.303V15.505H761.808V16.303H755.508ZM761.804 17.101H768.104V17.899H761.804V17.101ZM761.804 16.303V15.505H768.104V16.303H761.804ZM768.1 22.7605V11.0005H774.4V22.7605H768.1ZM774.396 22.7605V11.0005H780.696V22.7605H774.396ZM783.442 22.7605H782.644V17.899H780.691V17.101H783.442V22.7605ZM784.24 22.7605V16.303H780.691V15.505H785.038V22.7605H784.24ZM0 33.7605V22.0005H6.3V33.7605H0ZM6.2959 33.7605V22.0005H12.5959V33.7605H6.2959ZM12.5918 33.7605V22.0005H18.8918V33.7605H12.5918ZM18.8877 33.7605V22.0005H25.1877V33.7605H18.8877ZM25.1836 33.7605V22.0005H31.4836V33.7605H25.1836ZM31.4795 33.7605V22.0005H37.7795V33.7605H31.4795ZM40.5264 33.7605H39.7284V26.505H44.0754V27.303H40.5264V33.7605ZM41.3244 33.7605V28.101H44.0754V28.899H42.1224V33.7605H41.3244ZM44.0713 28.101H47.6203V22.0005H48.4183V28.899H44.0713V28.101ZM44.0713 27.303V26.505H46.0243V22.0005H46.8223V27.303H44.0713ZM50.3672 33.7605V22.0005H56.6672V33.7605H50.3672ZM56.6631 33.7605V22.0005H62.9631V33.7605H56.6631ZM62.959 33.7605V22.0005H69.259V33.7605H62.959ZM69.2549 33.7605V22.0005H75.5549V33.7605H69.2549ZM75.5508 33.7605V22.0005H81.8508V33.7605H75.5508ZM81.8467 33.7605V22.0005H88.1467V33.7605H81.8467ZM90.8936 33.7605H90.0956V26.505H94.4426V27.303H90.8936V33.7605ZM91.6916 33.7605V28.101H94.4426V28.899H92.4896V33.7605H91.6916ZM94.4385 28.101H97.9875V22.0005H98.7855V28.899H94.4385V28.101ZM94.4385 27.303V26.505H96.3915V22.0005H97.1895V27.303H94.4385ZM100.734 33.7605V22.0005H107.034V33.7605H100.734ZM107.03 33.7605V22.0005H113.33V33.7605H107.03ZM116.077 33.7605H115.279V22.0005H116.077V33.7605ZM116.875 22.0005H117.673V33.7605H116.875V22.0005ZM138.51 33.7605V22.0005H144.81V33.7605H138.51ZM144.806 33.7605V22.0005H151.106V33.7605H144.806ZM153.853 33.7605H153.055V22.0005H153.853V33.7605ZM154.651 22.0005H155.449V33.7605H154.651V22.0005ZM157.397 33.7605V22.0005H163.697V33.7605H157.397ZM163.693 33.7605V22.0005H169.993V33.7605H163.693ZM172.74 33.7605H171.942V22.0005H172.74V33.7605ZM173.538 22.0005H174.336V33.7605H173.538V22.0005ZM188.877 33.7605V22.0005H195.177V33.7605H188.877ZM195.173 33.7605V22.0005H201.473V33.7605H195.173ZM204.22 33.7605H203.422V22.0005H204.22V33.7605ZM205.018 22.0005H205.816V33.7605H205.018V22.0005ZM207.765 33.7605V22.0005H214.065V33.7605H207.765ZM214.061 33.7605V22.0005H220.361V33.7605H214.061ZM223.107 33.7605H222.309V22.0005H223.107V33.7605ZM223.905 22.0005H224.703V33.7605H223.905V22.0005ZM245.54 33.7605V22.0005H251.84V33.7605H245.54ZM251.836 33.7605V22.0005H258.136V33.7605H251.836ZM260.883 33.7605H260.085V22.0005H260.883V33.7605ZM261.681 22.0005H262.479V33.7605H261.681V22.0005ZM264.428 33.7605V22.0005H270.728V33.7605H264.428ZM270.724 33.7605V22.0005H277.024V33.7605H270.724ZM279.771 33.7605H278.973V22.0005H279.771V33.7605ZM280.569 22.0005H281.367V33.7605H280.569V22.0005ZM333.683 33.7605V22.0005H339.983V33.7605H333.683ZM339.979 33.7605V22.0005H346.279V33.7605H339.979ZM349.025 33.7605H348.227V22.0005H349.025V33.7605ZM349.823 22.0005H350.621V33.7605H349.823V22.0005ZM396.642 33.7605V22.0005H402.942V33.7605H396.642ZM402.938 33.7605V22.0005H409.238V33.7605H402.938ZM411.984 33.7605H411.186V22.0005H411.984V33.7605ZM412.782 22.0005H413.58V33.7605H412.782V22.0005ZM428.121 33.7605V22.0005H434.421V33.7605H428.121ZM434.417 33.7605V22.0005H440.717V33.7605H434.417ZM443.464 33.7605H442.666V22.0005H443.464V33.7605ZM444.262 22.0005H445.06V33.7605H444.262V22.0005ZM447.009 33.7605V22.0005H453.309V33.7605H447.009ZM453.305 33.7605V22.0005H459.605V33.7605H453.305ZM459.601 33.7605V22.0005H465.901V33.7605H459.601ZM465.896 33.7605V22.0005H472.196V33.7605H465.896ZM472.192 33.7605V22.0005H478.492V33.7605H472.192ZM481.239 33.7605H480.441V28.899H478.488V28.101H481.239V33.7605ZM482.037 33.7605V27.303H478.488V26.505H482.835V33.7605H482.037ZM497.376 33.7605V22.0005H503.676V33.7605H497.376ZM503.672 33.7605V22.0005H509.972V33.7605H503.672ZM509.968 33.7605V22.0005H516.268V33.7605H509.968ZM516.264 33.7605V22.0005H522.564V33.7605H516.264ZM522.56 33.7605V22.0005H528.86V33.7605H522.56ZM528.855 33.7605V22.0005H535.155V33.7605H528.855ZM535.151 33.7605V22.0005H541.451V33.7605H535.151ZM544.198 33.7605H543.4V28.899H541.447V28.101H544.198V33.7605ZM544.996 33.7605V27.303H541.447V26.505H545.794V33.7605H544.996ZM547.743 33.7605V22.0005H554.043V33.7605H547.743ZM554.039 33.7605V22.0005H560.339V33.7605H554.039ZM563.086 33.7605H562.288V22.0005H563.086V33.7605ZM563.884 22.0005H564.682V33.7605H563.884V22.0005ZM566.631 33.7605V22.0005H572.931V33.7605H566.631ZM572.927 33.7605V22.0005H579.227V33.7605H572.927ZM581.974 33.7605H581.176V22.0005H581.974V33.7605ZM582.772 22.0005H583.57V33.7605H582.772V22.0005ZM598.11 33.7605V22.0005H604.41V33.7605H598.11ZM604.406 33.7605V22.0005H610.706V33.7605H604.406ZM610.702 33.7605V22.0005H617.002V33.7605H610.702ZM619.749 33.7605H618.951V28.899H616.998V28.101H619.749V33.7605ZM620.547 33.7605V27.303H616.998V26.505H621.345V33.7605H620.547ZM623.294 33.7605V22.0005H629.594V33.7605H623.294ZM629.59 33.7605V22.0005H635.89V33.7605H629.59ZM638.637 33.7605H637.839V26.505H642.186V27.303H638.637V33.7605ZM639.435 33.7605V28.101H642.186V28.899H640.233V33.7605H639.435ZM642.182 33.7605V22.0005H648.482V33.7605H642.182ZM648.478 33.7605V22.0005H654.778V33.7605H648.478ZM657.524 33.7605H656.726V28.899H654.773V28.101H657.524V33.7605ZM658.322 33.7605V27.303H654.773V26.505H659.12V33.7605H658.322ZM667.365 33.7605V22.0005H673.665V33.7605H667.365ZM673.661 33.7605V22.0005H679.961V33.7605H673.661ZM682.708 33.7605H681.91V22.0005H682.708V33.7605ZM683.506 22.0005H684.304V33.7605H683.506V22.0005ZM686.253 33.7605V22.0005H692.553V33.7605H686.253ZM692.549 33.7605V22.0005H698.849V33.7605H692.549ZM698.845 33.7605V22.0005H705.145V33.7605H698.845ZM705.141 33.7605V22.0005H711.441V33.7605H705.141ZM711.437 33.7605V22.0005H717.737V33.7605H711.437ZM720.483 33.7605H719.685V28.899H717.732V28.101H720.483V33.7605ZM721.281 33.7605V27.303H717.732V26.505H722.079V33.7605H721.281ZM736.62 33.7605V22.0005H742.92V33.7605H736.62ZM742.916 33.7605V22.0005H749.216V33.7605H742.916ZM749.212 33.7605V22.0005H755.512V33.7605H749.212ZM755.508 33.7605V22.0005H761.808V33.7605H755.508ZM761.804 33.7605V22.0005H768.104V33.7605H761.804ZM768.1 33.7605V22.0005H774.4V33.7605H768.1ZM777.147 33.7605H776.349V26.505H780.696V27.303H777.147V33.7605ZM777.945 33.7605V28.101H780.696V28.899H778.743V33.7605H777.945ZM780.691 28.101H784.24V22.0005H785.038V28.899H780.691V28.101ZM780.691 27.303V26.505H782.644V22.0005H783.442V27.303H780.691ZM0 44.7605V33.0005H6.3V44.7605H0ZM6.2959 44.7605V33.0005H12.5959V44.7605H6.2959ZM15.3428 44.7605H14.5448V37.505H18.8918V38.303H15.3428V44.7605ZM16.1408 44.7605V39.101H18.8918V39.899H16.9388V44.7605H16.1408ZM18.8877 39.101H25.1877V39.899H18.8877V39.101ZM18.8877 38.303V37.505H25.1877V38.303H18.8877ZM25.1836 39.101H31.4836V39.899H25.1836V39.101ZM25.1836 38.303V37.505H31.4836V38.303H25.1836ZM31.4795 39.101H37.7795V39.899H31.4795V39.101ZM31.4795 38.303V37.505H37.7795V38.303H31.4795ZM37.7754 39.101H41.3244V33.0005H42.1224V39.899H37.7754V39.101ZM37.7754 38.303V37.505H39.7284V33.0005H40.5264V38.303H37.7754ZM50.3672 44.7605V33.0005H56.6672V44.7605H50.3672ZM56.6631 44.7605V33.0005H62.9631V44.7605H56.6631ZM65.71 44.7605H64.912V37.505H69.259V38.303H65.71V44.7605ZM66.508 44.7605V39.101H69.259V39.899H67.306V44.7605H66.508ZM69.2549 39.101H75.5549V39.899H69.2549V39.101ZM69.2549 38.303V37.505H75.5549V38.303H69.2549ZM75.5508 39.101H81.8508V39.899H75.5508V39.101ZM75.5508 38.303V37.505H81.8508V38.303H75.5508ZM81.8467 44.7605V33.0005H88.1467V44.7605H81.8467ZM88.1426 44.7605V33.0005H94.4426V44.7605H88.1426ZM97.1895 44.7605H96.3915V39.899H94.4385V39.101H97.1895V44.7605ZM97.9875 44.7605V38.303H94.4385V37.505H98.7855V44.7605H97.9875ZM100.734 44.7605V33.0005H107.034V44.7605H100.734ZM107.03 44.7605V33.0005H113.33V44.7605H107.03ZM116.077 44.7605H115.279V33.0005H116.077V44.7605ZM116.875 33.0005H117.673V44.7605H116.875V33.0005ZM138.51 44.7605V33.0005H144.81V44.7605H138.51ZM144.806 44.7605V33.0005H151.106V44.7605H144.806ZM153.853 44.7605H153.055V33.0005H153.853V44.7605ZM154.651 33.0005H155.449V44.7605H154.651V33.0005ZM157.397 44.7605V33.0005H163.697V44.7605H157.397ZM163.693 44.7605V33.0005H169.993V44.7605H163.693ZM172.74 44.7605H171.942V33.0005H172.74V44.7605ZM173.538 33.0005H174.336V44.7605H173.538V33.0005ZM188.877 44.7605V33.0005H195.177V44.7605H188.877ZM195.173 44.7605V33.0005H201.473V44.7605H195.173ZM204.22 44.7605H203.422V33.0005H204.22V44.7605ZM205.018 33.0005H205.816V44.7605H205.018V33.0005ZM207.765 44.7605V33.0005H214.065V44.7605H207.765ZM214.061 44.7605V33.0005H220.361V44.7605H214.061ZM223.107 44.7605H222.309V33.0005H223.107V44.7605ZM223.905 33.0005H224.703V44.7605H223.905V33.0005ZM245.54 44.7605V33.0005H251.84V44.7605H245.54ZM251.836 44.7605V33.0005H258.136V44.7605H251.836ZM260.883 44.7605H260.085V33.0005H260.883V44.7605ZM261.681 33.0005H262.479V44.7605H261.681V33.0005ZM264.428 44.7605V33.0005H270.728V44.7605H264.428ZM270.724 44.7605V33.0005H277.024V44.7605H270.724ZM279.771 44.7605H278.973V33.0005H279.771V44.7605ZM280.569 33.0005H281.367V44.7605H280.569V33.0005ZM333.683 44.7605V33.0005H339.983V44.7605H333.683ZM339.979 44.7605V33.0005H346.279V44.7605H339.979ZM349.025 44.7605H348.227V33.0005H349.025V44.7605ZM349.823 33.0005H350.621V44.7605H349.823V33.0005ZM396.642 44.7605V33.0005H402.942V44.7605H396.642ZM402.938 44.7605V33.0005H409.238V44.7605H402.938ZM411.984 44.7605H411.186V33.0005H411.984V44.7605ZM412.782 33.0005H413.58V44.7605H412.782V33.0005ZM428.121 44.7605V33.0005H434.421V44.7605H428.121ZM434.417 44.7605V33.0005H440.717V44.7605H434.417ZM443.464 44.7605H442.666V33.0005H443.464V44.7605ZM444.262 33.0005H445.06V44.7605H444.262V33.0005ZM447.009 44.7605V33.0005H453.309V44.7605H447.009ZM453.305 44.7605V33.0005H459.605V44.7605H453.305ZM462.352 44.7605H461.554V37.505H465.901V38.303H462.352V44.7605ZM463.15 44.7605V39.101H465.901V39.899H463.948V44.7605H463.15ZM465.896 39.101H472.196V39.899H465.896V39.101ZM465.896 38.303V37.505H472.196V38.303H465.896ZM472.192 39.101H478.492V39.899H472.192V39.101ZM472.192 38.303V37.505H478.492V38.303H472.192ZM478.488 39.101H482.037V33.0005H482.835V39.899H478.488V39.101ZM478.488 38.303V37.505H480.441V33.0005H481.239V38.303H478.488ZM499.329 39.899V33.0005H500.127V39.101H503.676V39.899H499.329ZM503.676 38.303H500.925V33.0005H501.723V37.505H503.676V38.303ZM503.672 39.101H509.972V39.899H503.672V39.101ZM503.672 38.303V37.505H509.972V38.303H503.672ZM509.968 39.101H516.268V39.899H509.968V39.101ZM509.968 38.303V37.505H516.268V38.303H509.968ZM516.264 39.101H522.564V39.899H516.264V39.101ZM516.264 38.303V37.505H522.564V38.303H516.264ZM522.56 39.101H528.86V39.899H522.56V39.101ZM522.56 38.303V37.505H528.86V38.303H522.56ZM528.855 44.7605V33.0005H535.155V44.7605H528.855ZM535.151 44.7605V33.0005H541.451V44.7605H535.151ZM544.198 44.7605H543.4V33.0005H544.198V44.7605ZM544.996 33.0005H545.794V44.7605H544.996V33.0005ZM547.743 44.7605V33.0005H554.043V44.7605H547.743ZM554.039 44.7605V33.0005H560.339V44.7605H554.039ZM563.086 44.7605H562.288V33.0005H563.086V44.7605ZM563.884 33.0005H564.682V44.7605H563.884V33.0005ZM566.631 44.7605V33.0005H572.931V44.7605H566.631ZM572.927 44.7605V33.0005H579.227V44.7605H572.927ZM581.974 44.7605H581.176V33.0005H581.974V44.7605ZM582.772 33.0005H583.57V44.7605H582.772V33.0005ZM604.406 44.7605V33.0005H610.706V44.7605H604.406ZM610.702 44.7605V33.0005H617.002V44.7605H610.702ZM619.749 44.7605H618.951V33.0005H619.749V44.7605ZM620.547 33.0005H621.345V44.7605H620.547V33.0005ZM623.294 44.7605V33.0005H629.594V44.7605H623.294ZM629.59 44.7605V33.0005H635.89V44.7605H629.59ZM638.637 44.7605H637.839V33.0005H638.637V44.7605ZM639.435 33.0005H640.233V44.7605H639.435V33.0005ZM644.135 39.899V33.0005H644.933V39.101H648.482V39.899H644.135ZM648.482 38.303H645.731V33.0005H646.529V37.505H648.482V38.303ZM648.478 44.7605V33.0005H654.778V44.7605H648.478ZM654.773 44.7605V33.0005H661.073V44.7605H654.773ZM663.82 44.7605H663.022V39.899H661.069V39.101H663.82V44.7605ZM664.618 44.7605V38.303H661.069V37.505H665.416V44.7605H664.618ZM667.365 44.7605V33.0005H673.665V44.7605H667.365ZM673.661 44.7605V33.0005H679.961V44.7605H673.661ZM682.708 44.7605H681.91V33.0005H682.708V44.7605ZM683.506 33.0005H684.304V44.7605H683.506V33.0005ZM686.253 44.7605V33.0005H692.553V44.7605H686.253ZM692.549 44.7605V33.0005H698.849V44.7605H692.549ZM701.596 44.7605H700.798V37.505H705.145V38.303H701.596V44.7605ZM702.394 44.7605V39.101H705.145V39.899H703.192V44.7605H702.394ZM705.141 39.101H711.441V39.899H705.141V39.101ZM705.141 38.303V37.505H711.441V38.303H705.141ZM711.437 39.101H717.737V39.899H711.437V39.101ZM711.437 38.303V37.505H717.737V38.303H711.437ZM717.732 39.101H721.281V33.0005H722.079V39.899H717.732V39.101ZM717.732 38.303V37.505H719.685V33.0005H720.483V38.303H717.732ZM736.62 44.7605V33.0005H742.92V44.7605H736.62ZM742.916 44.7605V33.0005H749.216V44.7605H742.916ZM751.963 44.7605H751.165V37.505H755.512V38.303H751.963V44.7605ZM752.761 44.7605V39.101H755.512V39.899H753.559V44.7605H752.761ZM755.508 39.101H761.808V39.899H755.508V39.101ZM755.508 38.303V37.505H761.808V38.303H755.508ZM761.804 39.101H768.104V39.899H761.804V39.101ZM761.804 38.303V37.505H768.104V38.303H761.804ZM768.1 44.7605V33.0005H774.4V44.7605H768.1ZM774.396 44.7605V33.0005H780.696V44.7605H774.396ZM783.442 44.7605H782.644V39.899H780.691V39.101H783.442V44.7605ZM784.24 44.7605V38.303H780.691V37.505H785.038V44.7605H784.24ZM0 55.7605V44.0005H6.3V55.7605H0ZM6.2959 55.7605V44.0005H12.5959V55.7605H6.2959ZM15.3428 55.7605H14.5448V44.0005H15.3428V55.7605ZM16.1408 44.0005H16.9388V55.7605H16.1408V44.0005ZM50.3672 55.7605V44.0005H56.6672V55.7605H50.3672ZM56.6631 55.7605V44.0005H62.9631V55.7605H56.6631ZM65.71 55.7605H64.912V44.0005H65.71V55.7605ZM66.508 44.0005H67.306V55.7605H66.508V44.0005ZM81.8467 55.7605V44.0005H88.1467V55.7605H81.8467ZM88.1426 55.7605V44.0005H94.4426V55.7605H88.1426ZM97.1895 55.7605H96.3915V44.0005H97.1895V55.7605ZM97.9875 44.0005H98.7855V55.7605H97.9875V44.0005ZM102.687 50.899V44.0005H103.485V50.101H107.034V50.899H102.687ZM107.034 49.303H104.283V44.0005H105.081V48.505H107.034V49.303ZM107.03 55.7605V44.0005H113.33V55.7605H107.03ZM113.326 55.7605V44.0005H119.626V55.7605H113.326ZM119.622 55.7605V44.0005H125.922V55.7605H119.622ZM125.918 55.7605V44.0005H132.218V55.7605H125.918ZM132.214 55.7605V44.0005H138.514V55.7605H132.214ZM138.51 55.7605V44.0005H144.81V55.7605H138.51ZM147.557 55.7605H146.759V48.505H151.106V49.303H147.557V55.7605ZM148.355 55.7605V50.101H151.106V50.899H149.153V55.7605H148.355ZM151.102 50.101H154.651V44.0005H155.449V50.899H151.102V50.101ZM151.102 49.303V48.505H153.055V44.0005H153.853V49.303H151.102ZM157.397 55.7605V44.0005H163.697V55.7605H157.397ZM163.693 55.7605V44.0005H169.993V55.7605H163.693ZM169.989 55.7605V44.0005H176.289V55.7605H169.989ZM176.285 55.7605V44.0005H182.585V55.7605H176.285ZM182.581 55.7605V44.0005H188.881V55.7605H182.581ZM188.877 55.7605V44.0005H195.177V55.7605H188.877ZM197.924 55.7605H197.126V48.505H201.473V49.303H197.924V55.7605ZM198.722 55.7605V50.101H201.473V50.899H199.52V55.7605H198.722ZM201.469 50.101H205.018V44.0005H205.816V50.899H201.469V50.101ZM201.469 49.303V48.505H203.422V44.0005H204.22V49.303H201.469ZM209.718 50.899V44.0005H210.516V50.101H214.065V50.899H209.718ZM214.065 49.303H211.314V44.0005H212.112V48.505H214.065V49.303ZM214.061 55.7605V44.0005H220.361V55.7605H214.061ZM220.356 55.7605V44.0005H226.656V55.7605H220.356ZM226.652 55.7605V44.0005H232.952V55.7605H226.652ZM232.948 55.7605V44.0005H239.248V55.7605H232.948ZM239.244 55.7605V44.0005H245.544V55.7605H239.244ZM245.54 55.7605V44.0005H251.84V55.7605H245.54ZM254.587 55.7605H253.789V48.505H258.136V49.303H254.587V55.7605ZM255.385 55.7605V50.101H258.136V50.899H256.183V55.7605H255.385ZM258.132 50.101H261.681V44.0005H262.479V50.899H258.132V50.101ZM258.132 49.303V48.505H260.085V44.0005H260.883V49.303H258.132ZM266.381 50.899V44.0005H267.179V50.101H270.728V50.899H266.381ZM270.728 49.303H267.977V44.0005H268.775V48.505H270.728V49.303ZM270.724 55.7605V44.0005H277.024V55.7605H270.724ZM277.02 55.7605V44.0005H283.32V55.7605H277.02ZM283.315 55.7605V44.0005H289.615V55.7605H283.315ZM289.611 55.7605V44.0005H295.911V55.7605H289.611ZM295.907 55.7605V44.0005H302.207V55.7605H295.907ZM302.203 55.7605V44.0005H308.503V55.7605H302.203ZM311.25 55.7605H310.452V50.899H308.499V50.101H311.25V55.7605ZM312.048 55.7605V49.303H308.499V48.505H312.846V55.7605H312.048ZM333.683 55.7605V44.0005H339.983V55.7605H333.683ZM339.979 55.7605V44.0005H346.279V55.7605H339.979ZM349.025 55.7605H348.227V44.0005H349.025V55.7605ZM349.823 44.0005H350.621V55.7605H349.823V44.0005ZM396.642 55.7605V44.0005H402.942V55.7605H396.642ZM402.938 55.7605V44.0005H409.238V55.7605H402.938ZM409.233 55.7605V44.0005H415.533V55.7605H409.233ZM415.529 55.7605V44.0005H421.829V55.7605H415.529ZM421.825 55.7605V44.0005H428.125V55.7605H421.825ZM428.121 55.7605V44.0005H434.421V55.7605H428.121ZM437.168 55.7605H436.37V48.505H440.717V49.303H437.168V55.7605ZM437.966 55.7605V50.101H440.717V50.899H438.764V55.7605H437.966ZM440.713 50.101H444.262V44.0005H445.06V50.899H440.713V50.101ZM440.713 49.303V48.505H442.666V44.0005H443.464V49.303H440.713ZM447.009 55.7605V44.0005H453.309V55.7605H447.009ZM453.305 55.7605V44.0005H459.605V55.7605H453.305ZM459.601 55.7605V44.0005H465.901V55.7605H459.601ZM465.896 55.7605V44.0005H472.196V55.7605H465.896ZM472.192 55.7605V44.0005H478.492V55.7605H472.192ZM478.488 55.7605V44.0005H484.788V55.7605H478.488ZM484.784 55.7605V44.0005H491.084V55.7605H484.784ZM493.831 55.7605H493.033V50.899H491.08V50.101H493.831V55.7605ZM494.629 55.7605V49.303H491.08V48.505H495.427V55.7605H494.629ZM497.376 55.7605V44.0005H503.676V55.7605H497.376ZM503.672 55.7605V44.0005H509.972V55.7605H503.672ZM509.968 55.7605V44.0005H516.268V55.7605H509.968ZM516.264 55.7605V44.0005H522.564V55.7605H516.264ZM522.56 55.7605V44.0005H528.86V55.7605H522.56ZM528.855 55.7605V44.0005H535.155V55.7605H528.855ZM535.151 55.7605V44.0005H541.451V55.7605H535.151ZM544.198 55.7605H543.4V44.0005H544.198V55.7605ZM544.996 44.0005H545.794V55.7605H544.996V44.0005ZM547.743 55.7605V44.0005H554.043V55.7605H547.743ZM554.039 55.7605V44.0005H560.339V55.7605H554.039ZM563.086 55.7605H562.288V44.0005H563.086V55.7605ZM563.884 44.0005H564.682V55.7605H563.884V44.0005ZM568.584 50.899V44.0005H569.382V50.101H572.931V50.899H568.584ZM572.931 49.303H570.18V44.0005H570.978V48.505H572.931V49.303ZM572.927 55.7605V44.0005H579.227V55.7605H572.927ZM579.223 55.7605V44.0005H585.523V55.7605H579.223ZM585.519 55.7605V44.0005H591.819V55.7605H585.519ZM591.814 55.7605V44.0005H598.114V55.7605H591.814ZM598.11 55.7605V44.0005H604.41V55.7605H598.11ZM604.406 55.7605V44.0005H610.706V55.7605H604.406ZM613.453 55.7605H612.655V48.505H617.002V49.303H613.453V55.7605ZM614.251 55.7605V50.101H617.002V50.899H615.049V55.7605H614.251ZM616.998 50.101H620.547V44.0005H621.345V50.899H616.998V50.101ZM616.998 49.303V48.505H618.951V44.0005H619.749V49.303H616.998ZM623.294 55.7605V44.0005H629.594V55.7605H623.294ZM629.59 55.7605V44.0005H635.89V55.7605H629.59ZM638.637 55.7605H637.839V44.0005H638.637V55.7605ZM639.435 44.0005H640.233V55.7605H639.435V44.0005ZM650.431 50.899V44.0005H651.229V50.101H654.778V50.899H650.431ZM654.778 49.303H652.027V44.0005H652.825V48.505H654.778V49.303ZM654.773 55.7605V44.0005H661.073V55.7605H654.773ZM661.069 55.7605V44.0005H667.369V55.7605H661.069ZM667.365 55.7605V44.0005H673.665V55.7605H667.365ZM673.661 55.7605V44.0005H679.961V55.7605H673.661ZM682.708 55.7605H681.91V44.0005H682.708V55.7605ZM683.506 44.0005H684.304V55.7605H683.506V44.0005ZM686.253 55.7605V44.0005H692.553V55.7605H686.253ZM692.549 55.7605V44.0005H698.849V55.7605H692.549ZM698.845 55.7605V44.0005H705.145V55.7605H698.845ZM705.141 55.7605V44.0005H711.441V55.7605H705.141ZM711.437 55.7605V44.0005H717.737V55.7605H711.437ZM717.732 55.7605V44.0005H724.032V55.7605H717.732ZM724.028 55.7605V44.0005H730.328V55.7605H724.028ZM733.075 55.7605H732.277V50.899H730.324V50.101H733.075V55.7605ZM733.873 55.7605V49.303H730.324V48.505H734.671V55.7605H733.873ZM736.62 55.7605V44.0005H742.92V55.7605H736.62ZM742.916 55.7605V44.0005H749.216V55.7605H742.916ZM751.963 55.7605H751.165V44.0005H751.963V55.7605ZM752.761 44.0005H753.559V55.7605H752.761V44.0005ZM768.1 55.7605V44.0005H774.4V55.7605H768.1ZM774.396 55.7605V44.0005H780.696V55.7605H774.396ZM783.442 55.7605H782.644V44.0005H783.442V55.7605ZM784.24 44.0005H785.038V55.7605H784.24V44.0005ZM1.953 61.899V55.0005H2.751V61.101H6.3V61.899H1.953ZM6.3 60.303H3.549V55.0005H4.347V59.505H6.3V60.303ZM6.2959 61.101H12.5959V61.899H6.2959V61.101ZM6.2959 60.303V59.505H12.5959V60.303H6.2959ZM12.5918 61.101H16.1408V55.0005H16.9388V61.899H12.5918V61.101ZM12.5918 60.303V59.505H14.5448V55.0005H15.3428V60.303H12.5918ZM52.3202 61.899V55.0005H53.1182V61.101H56.6672V61.899H52.3202ZM56.6672 60.303H53.9162V55.0005H54.7142V59.505H56.6672V60.303ZM56.6631 61.101H62.9631V61.899H56.6631V61.101ZM56.6631 60.303V59.505H62.9631V60.303H56.6631ZM62.959 61.101H66.508V55.0005H67.306V61.899H62.959V61.101ZM62.959 60.303V59.505H64.912V55.0005H65.71V60.303H62.959ZM83.7997 61.899V55.0005H84.5977V61.101H88.1467V61.899H83.7997ZM88.1467 60.303H85.3957V55.0005H86.1937V59.505H88.1467V60.303ZM88.1426 61.101H94.4426V61.899H88.1426V61.101ZM88.1426 60.303V59.505H94.4426V60.303H88.1426ZM94.4385 61.101H97.9875V55.0005H98.7855V61.899H94.4385V61.101ZM94.4385 60.303V59.505H96.3915V55.0005H97.1895V60.303H94.4385ZM108.983 61.899V55.0005H109.781V61.101H113.33V61.899H108.983ZM113.33 60.303H110.579V55.0005H111.377V59.505H113.33V60.303ZM113.326 61.101H119.626V61.899H113.326V61.101ZM113.326 60.303V59.505H119.626V60.303H113.326ZM119.622 61.101H125.922V61.899H119.622V61.101ZM119.622 60.303V59.505H125.922V60.303H119.622ZM125.918 61.101H132.218V61.899H125.918V61.101ZM125.918 60.303V59.505H132.218V60.303H125.918ZM132.214 61.101H138.514V61.899H132.214V61.101ZM132.214 60.303V59.505H138.514V60.303H132.214ZM138.51 61.101H144.81V61.899H138.51V61.101ZM138.51 60.303V59.505H144.81V60.303H138.51ZM144.806 61.101H148.355V55.0005H149.153V61.899H144.806V61.101ZM144.806 60.303V59.505H146.759V55.0005H147.557V60.303H144.806ZM159.35 61.899V55.0005H160.148V61.101H163.697V61.899H159.35ZM163.697 60.303H160.946V55.0005H161.744V59.505H163.697V60.303ZM163.693 61.101H169.993V61.899H163.693V61.101ZM163.693 60.303V59.505H169.993V60.303H163.693ZM169.989 61.101H176.289V61.899H169.989V61.101ZM169.989 60.303V59.505H176.289V60.303H169.989ZM176.285 61.101H182.585V61.899H176.285V61.101ZM176.285 60.303V59.505H182.585V60.303H176.285ZM182.581 61.101H188.881V61.899H182.581V61.101ZM182.581 60.303V59.505H188.881V60.303H182.581ZM188.877 61.101H195.177V61.899H188.877V61.101ZM188.877 60.303V59.505H195.177V60.303H188.877ZM195.173 61.101H198.722V55.0005H199.52V61.899H195.173V61.101ZM195.173 60.303V59.505H197.126V55.0005H197.924V60.303H195.173ZM216.014 61.899V55.0005H216.812V61.101H220.361V61.899H216.014ZM220.361 60.303H217.61V55.0005H218.408V59.505H220.361V60.303ZM220.356 61.101H226.656V61.899H220.356V61.101ZM220.356 60.303V59.505H226.656V60.303H220.356ZM226.652 61.101H232.952V61.899H226.652V61.101ZM226.652 60.303V59.505H232.952V60.303H226.652ZM232.948 61.101H239.248V61.899H232.948V61.101ZM232.948 60.303V59.505H239.248V60.303H232.948ZM239.244 61.101H245.544V61.899H239.244V61.101ZM239.244 60.303V59.505H245.544V60.303H239.244ZM245.54 61.101H251.84V61.899H245.54V61.101ZM245.54 60.303V59.505H251.84V60.303H245.54ZM251.836 61.101H255.385V55.0005H256.183V61.899H251.836V61.101ZM251.836 60.303V59.505H253.789V55.0005H254.587V60.303H251.836ZM272.677 61.899V55.0005H273.475V61.101H277.024V61.899H272.677ZM277.024 60.303H274.273V55.0005H275.071V59.505H277.024V60.303ZM277.02 61.101H283.32V61.899H277.02V61.101ZM277.02 60.303V59.505H283.32V60.303H277.02ZM283.315 61.101H289.615V61.899H283.315V61.101ZM283.315 60.303V59.505H289.615V60.303H283.315ZM289.611 61.101H295.911V61.899H289.611V61.101ZM289.611 60.303V59.505H295.911V60.303H289.611ZM295.907 61.101H302.207V61.899H295.907V61.101ZM295.907 60.303V59.505H302.207V60.303H295.907ZM302.203 61.101H308.503V61.899H302.203V61.101ZM302.203 60.303V59.505H308.503V60.303H302.203ZM308.499 61.101H312.048V55.0005H312.846V61.899H308.499V61.101ZM308.499 60.303V59.505H310.452V55.0005H311.25V60.303H308.499ZM335.636 61.899V55.0005H336.434V61.101H339.983V61.899H335.636ZM339.983 60.303H337.232V55.0005H338.03V59.505H339.983V60.303ZM339.979 61.101H346.279V61.899H339.979V61.101ZM339.979 60.303V59.505H346.279V60.303H339.979ZM346.274 61.101H349.823V55.0005H350.621V61.899H346.274V61.101ZM346.274 60.303V59.505H348.227V55.0005H349.025V60.303H346.274ZM398.595 61.899V55.0005H399.393V61.101H402.942V61.899H398.595ZM402.942 60.303H400.191V55.0005H400.989V59.505H402.942V60.303ZM402.938 61.101H409.238V61.899H402.938V61.101ZM402.938 60.303V59.505H409.238V60.303H402.938ZM409.233 61.101H415.533V61.899H409.233V61.101ZM409.233 60.303V59.505H415.533V60.303H409.233ZM415.529 61.101H421.829V61.899H415.529V61.101ZM415.529 60.303V59.505H421.829V60.303H415.529ZM421.825 61.101H428.125V61.899H421.825V61.101ZM421.825 60.303V59.505H428.125V60.303H421.825ZM428.121 61.101H434.421V61.899H428.121V61.101ZM428.121 60.303V59.505H434.421V60.303H428.121ZM434.417 61.101H437.966V55.0005H438.764V61.899H434.417V61.101ZM434.417 60.303V59.505H436.37V55.0005H437.168V60.303H434.417ZM448.962 61.899V55.0005H449.76V61.101H453.309V61.899H448.962ZM453.309 60.303H450.558V55.0005H451.356V59.505H453.309V60.303ZM453.305 61.101H459.605V61.899H453.305V61.101ZM453.305 60.303V59.505H459.605V60.303H453.305ZM459.601 61.101H465.901V61.899H459.601V61.101ZM459.601 60.303V59.505H465.901V60.303H459.601ZM465.896 61.101H472.196V61.899H465.896V61.101ZM465.896 60.303V59.505H472.196V60.303H465.896ZM472.192 61.101H478.492V61.899H472.192V61.101ZM472.192 60.303V59.505H478.492V60.303H472.192ZM478.488 61.101H484.788V61.899H478.488V61.101ZM478.488 60.303V59.505H484.788V60.303H478.488ZM484.784 61.101H491.084V61.899H484.784V61.101ZM484.784 60.303V59.505H491.084V60.303H484.784ZM491.08 61.101H494.629V55.0005H495.427V61.899H491.08V61.101ZM491.08 60.303V59.505H493.033V55.0005H493.831V60.303H491.08ZM499.329 61.899V55.0005H500.127V61.101H503.676V61.899H499.329ZM503.676 60.303H500.925V55.0005H501.723V59.505H503.676V60.303ZM503.672 61.101H509.972V61.899H503.672V61.101ZM503.672 60.303V59.505H509.972V60.303H503.672ZM509.968 61.101H516.268V61.899H509.968V61.101ZM509.968 60.303V59.505H516.268V60.303H509.968ZM516.264 61.101H522.564V61.899H516.264V61.101ZM516.264 60.303V59.505H522.564V60.303H516.264ZM522.56 61.101H528.86V61.899H522.56V61.101ZM522.56 60.303V59.505H528.86V60.303H522.56ZM528.855 61.101H535.155V61.899H528.855V61.101ZM528.855 60.303V59.505H535.155V60.303H528.855ZM535.151 61.101H541.451V61.899H535.151V61.101ZM535.151 60.303V59.505H541.451V60.303H535.151ZM541.447 61.101H544.996V55.0005H545.794V61.899H541.447V61.101ZM541.447 60.303V59.505H543.4V55.0005H544.198V60.303H541.447ZM549.696 61.899V55.0005H550.494V61.101H554.043V61.899H549.696ZM554.043 60.303H551.292V55.0005H552.09V59.505H554.043V60.303ZM554.039 61.101H560.339V61.899H554.039V61.101ZM554.039 60.303V59.505H560.339V60.303H554.039ZM560.335 61.101H563.884V55.0005H564.682V61.899H560.335V61.101ZM560.335 60.303V59.505H562.288V55.0005H563.086V60.303H560.335ZM574.88 61.899V55.0005H575.678V61.101H579.227V61.899H574.88ZM579.227 60.303H576.476V55.0005H577.274V59.505H579.227V60.303ZM579.223 61.101H585.523V61.899H579.223V61.101ZM579.223 60.303V59.505H585.523V60.303H579.223ZM585.519 61.101H591.819V61.899H585.519V61.101ZM585.519 60.303V59.505H591.819V60.303H585.519ZM591.814 61.101H598.114V61.899H591.814V61.101ZM591.814 60.303V59.505H598.114V60.303H591.814ZM598.11 61.101H604.41V61.899H598.11V61.101ZM598.11 60.303V59.505H604.41V60.303H598.11ZM604.406 61.101H610.706V61.899H604.406V61.101ZM604.406 60.303V59.505H610.706V60.303H604.406ZM610.702 61.101H614.251V55.0005H615.049V61.899H610.702V61.101ZM610.702 60.303V59.505H612.655V55.0005H613.453V60.303H610.702ZM625.247 61.899V55.0005H626.045V61.101H629.594V61.899H625.247ZM629.594 60.303H626.843V55.0005H627.641V59.505H629.594V60.303ZM629.59 61.101H635.89V61.899H629.59V61.101ZM629.59 60.303V59.505H635.89V60.303H629.59ZM635.886 61.101H639.435V55.0005H640.233V61.899H635.886V61.101ZM635.886 60.303V59.505H637.839V55.0005H638.637V60.303H635.886ZM656.726 61.899V55.0005H657.524V61.101H661.073V61.899H656.726ZM661.073 60.303H658.322V55.0005H659.12V59.505H661.073V60.303ZM661.069 61.101H667.369V61.899H661.069V61.101ZM661.069 60.303V59.505H667.369V60.303H661.069ZM667.365 61.101H673.665V61.899H667.365V61.101ZM667.365 60.303V59.505H673.665V60.303H667.365ZM673.661 61.101H679.961V61.899H673.661V61.101ZM673.661 60.303V59.505H679.961V60.303H673.661ZM679.957 61.101H683.506V55.0005H684.304V61.899H679.957V61.101ZM679.957 60.303V59.505H681.91V55.0005H682.708V60.303H679.957ZM688.206 61.899V55.0005H689.004V61.101H692.553V61.899H688.206ZM692.553 60.303H689.802V55.0005H690.6V59.505H692.553V60.303ZM692.549 61.101H698.849V61.899H692.549V61.101ZM692.549 60.303V59.505H698.849V60.303H692.549ZM698.845 61.101H705.145V61.899H698.845V61.101ZM698.845 60.303V59.505H705.145V60.303H698.845ZM705.141 61.101H711.441V61.899H705.141V61.101ZM705.141 60.303V59.505H711.441V60.303H705.141ZM711.437 61.101H717.737V61.899H711.437V61.101ZM711.437 60.303V59.505H717.737V60.303H711.437ZM717.732 61.101H724.032V61.899H717.732V61.101ZM717.732 60.303V59.505H724.032V60.303H717.732ZM724.028 61.101H730.328V61.899H724.028V61.101ZM724.028 60.303V59.505H730.328V60.303H724.028ZM730.324 61.101H733.873V55.0005H734.671V61.899H730.324V61.101ZM730.324 60.303V59.505H732.277V55.0005H733.075V60.303H730.324ZM738.573 61.899V55.0005H739.371V61.101H742.92V61.899H738.573ZM742.92 60.303H740.169V55.0005H740.967V59.505H742.92V60.303ZM742.916 61.101H749.216V61.899H742.916V61.101ZM742.916 60.303V59.505H749.216V60.303H742.916ZM749.212 61.101H752.761V55.0005H753.559V61.899H749.212V61.101ZM749.212 60.303V59.505H751.165V55.0005H751.963V60.303H749.212ZM770.053 61.899V55.0005H770.851V61.101H774.4V61.899H770.053ZM774.4 60.303H771.649V55.0005H772.447V59.505H774.4V60.303ZM774.396 61.101H780.696V61.899H774.396V61.101ZM774.396 60.303V59.505H780.696V60.303H774.396ZM780.691 61.101H784.24V55.0005H785.038V61.899H780.691V61.101ZM780.691 60.303V59.505H782.644V55.0005H783.442V60.303H780.691Z" fill="#293DBD"/>
</svg>
