<svg width="64" height="64" viewBox="0 0 64 64" fill="none" xmlns="http://www.w3.org/2000/svg">
<path d="M21.3535 14.0685C22.7929 14.0685 24.2322 14.2054 25.6031 14.4794C26.7683 14.7533 27.865 15.2327 28.8931 15.9175C29.7842 16.6024 30.5381 17.4926 31.0179 18.5199C31.5663 19.8211 31.8404 21.1907 31.7719 22.5604C31.8404 24.067 31.4292 25.5736 30.6752 26.8748C29.8527 28.1075 28.6875 29.0663 27.3852 29.6826C29.2358 30.162 30.8123 31.3262 31.8404 32.8329C32.8686 34.4764 33.3484 36.394 33.3484 38.3115C33.3484 39.8866 33.0742 41.3932 32.3888 42.7629C31.7719 43.9956 30.8808 45.0229 29.8527 45.9131C28.756 46.7349 27.4537 47.3513 26.1514 47.6937C24.7806 48.1046 23.3412 48.2416 21.9018 48.2416H6V14H21.3535V14.0685ZM20.3939 27.9021C21.4905 27.9706 22.6558 27.6281 23.5468 26.9433C24.4379 26.19 24.9177 25.0258 24.7806 23.7931C24.7806 23.1083 24.6435 22.4234 24.3693 21.8071C24.0952 21.3277 23.7524 20.9168 23.2726 20.6429C22.7929 20.3689 22.2445 20.095 21.6962 20.0265C21.0793 19.8895 20.4624 19.8895 19.8455 19.8895H13.1284V27.9021H20.3939ZM20.8051 42.5575C21.4905 42.5575 22.176 42.489 22.7929 42.352C23.4097 42.215 23.9581 41.9411 24.5064 41.5987C24.9862 41.2563 25.3975 40.7769 25.6716 40.229C26.0143 39.5442 26.1514 38.7909 26.0829 38.0376C26.22 36.5994 25.6716 35.2298 24.6435 34.271C23.5468 33.4492 22.2445 33.1068 20.8737 33.1753H13.1284V42.6259H20.8051V42.5575Z" fill="white"/>
<path d="M43.4926 42.4205C44.6578 43.4477 46.1658 43.9956 47.6737 43.9271C48.9075 43.9271 50.0727 43.5847 51.0323 42.8999C51.8548 42.352 52.4031 41.5987 52.7458 40.7084H58.4348C57.8179 43.2423 56.31 45.5022 54.2537 47.0773C52.266 48.447 49.867 49.0634 47.3995 48.9949C45.686 48.9949 43.9724 48.7209 42.3274 48.0361C40.888 47.4198 39.5857 46.5295 38.5576 45.3653C37.5294 44.1326 36.7069 42.7629 36.1586 41.2563C35.5417 39.5442 35.2675 37.7636 35.3361 35.9831C35.3361 34.2025 35.6103 32.4904 36.2271 30.7784C37.8721 25.9845 42.3959 22.7658 47.4681 22.8343C49.3187 22.7658 51.1008 23.2452 52.7458 24.067C54.1852 24.8888 55.4875 25.9845 56.4471 27.3542C57.4067 28.7924 58.1607 30.3675 58.5034 32.0795C58.9146 33.8601 59.0517 35.7776 58.9832 37.6267H41.9847C41.7791 39.3387 42.3274 41.0508 43.4926 42.4205ZM50.8952 29.3402C49.9356 28.3815 48.6333 27.9021 47.2624 27.9706C46.3714 27.9706 45.4803 28.1075 44.7264 28.5184C44.1095 28.8608 43.5612 29.3402 43.0814 29.8881C42.6701 30.4359 42.3959 30.9838 42.1903 31.6686C42.0532 32.2165 41.9161 32.7644 41.9161 33.3122H52.4717C52.3346 31.8741 51.7862 30.5044 50.8952 29.3402Z" fill="white"/>
<path d="M53.7054 16.3284H40.5453V19.6841H53.7054V16.3284Z" fill="white"/>
</svg>
