<svg xmlns="http://www.w3.org/2000/svg" width="538" height="73" fill="none" viewBox="0 0 538 73"><path fill="#293dbd" d="M0 13.44V0h7.2v13.44zm7.195 0V0h7.2v13.44zm10.34 0h-.912V7.882H14.39V6.97h3.144zm.912 0V6.06H14.39v-.913h4.968v8.292zm31.92 0V0h7.2v13.44zm7.196 0V0h7.2v13.44zm10.339 0h-.912V7.882h-2.232V6.97h3.144zm.912 0V6.06h-4.056v-.913h4.968v8.292zm3.14 0V0h7.2v13.44zm7.194 0V0h7.2v13.44zm10.34 0h-.912V7.882h-2.232V6.97h3.144zm.912 0V6.06h-4.056v-.913h4.968v8.292zm17.53 0V0h7.2v13.44zm7.195 0V0h7.2v13.44zm10.339 0h-.912V7.882h-2.232V6.97h3.144zm.912 0V6.06h-4.056v-.913h4.968v8.292zm10.335 0V0h7.2v13.44zm7.195 0V0h7.2v13.44zm7.196 0V0h7.2v13.44zm7.195 0V0h7.2v13.44zm7.195 0V0h7.2v13.44zm7.196 0V0h7.2v13.44zm10.339 0h-.912V7.882h-2.232V6.97h3.144zm.912 0V6.06h-4.056v-.913h4.968v8.292zm46.311 0V0h7.2v13.44zm7.195 0V0h7.2v13.44zm7.196 0V0h7.2v13.44zm7.195 0V0h7.2v13.44zm7.195 0V0h7.2v13.44zm7.196 0V0h7.2v13.44zm10.339 0h-.912V7.882h-2.232V6.97h3.144zm.912 0V6.06h-4.056v-.913h4.968v8.292zm10.334 0V0h7.201v13.44zm7.196 0V0h7.2v13.44zm7.195 0V0h7.2v13.44zm7.195 0V0h7.2v13.44zm7.196 0V0h7.2v13.44zm7.195 0V0h7.2v13.44zm10.339 0h-.912V7.882h-2.232V6.97h3.144zm.912 0V6.06h-4.056v-.913h4.968v8.292zm10.335 0V0h7.2v13.44zm7.195 0V0h7.2v13.44zm7.196 0V0h7.2v13.44zm7.195 0V0h7.2v13.44zm7.195 0V0h7.2v13.44zm7.196 0V0h7.2v13.44zm10.339 0h-.912V7.882h-2.232V6.97h3.144zm.912 0V6.06h-4.056v-.913h4.968v8.292zm10.335 0V0h7.2v13.44zm7.195 0V0h7.2v13.44zm7.195 0V0h7.2v13.44zm7.195 0V0h7.2v13.44zm7.196 0V0h7.2v13.44zm7.195 0V0h7.2v13.44zm7.195 0V0h7.2v13.44zm10.34 0h-.912V7.882h-2.232V6.97h3.144zm.912 0V6.06h-4.056v-.913h4.968v8.292zm3.139 0V0h7.2v13.44zm7.195 0V0h7.2v13.44zm7.196 0V0h7.2v13.44zm7.195 0V0h7.2v13.44zm7.195 0V0h7.2v13.44zm7.196 0V0h7.2v13.44zm7.195 0V0h7.2v13.44zm10.339 0h-.912V7.882h-2.232V6.97h3.144zm.912 0V6.06h-4.056v-.913h4.968v8.292zM0 26.44V13h7.2v13.44zm7.195 0V13h7.2v13.44zm10.34 0h-.912V13h.912zM18.447 13h.912v13.44h-.912zm31.92 13.44V13h7.2v13.44zm7.196 0V13h7.2v13.44zm10.339 0h-.912V13h.912zM68.814 13h.912v13.44h-.912zm3.14 13.44V13h7.2v13.44zm7.194 0V13h7.2v13.44zm10.34 0h-.912V13h.912zM90.4 13h.912v13.44H90.4zm17.53 13.44V13h7.2v13.44zm7.195 0V13h7.2v13.44zm10.339 0h-.912V13h.912zm.912-13.44h.912v13.44h-.912zm3.14 13.44V13h7.2v13.44zm7.195 0V13h7.2v13.44zm10.339 0h-.912v-8.293h4.968v.912h-4.056zm.912 0v-6.47h3.144v.912h-2.232v5.556zm3.14-6.469h7.2v.912h-7.2zm0-.912v-.912h7.2v.912zm7.195.912h7.2v.912h-7.2zm0-.912v-.912h7.2v.912zm7.195.912h7.2v.912h-7.2zm0-.912v-.912h7.2v.912zm7.196 7.38V13h7.2v13.44zm7.195 0V13h7.2v13.44zm10.339 0h-.912v-5.556h-2.232v-.912h3.144zm.912 0v-7.38h-4.056v-.912h4.968v8.292zm31.921 0V13h7.2v13.44zm7.195 0V13h7.2v13.44zm10.339 0h-.912v-8.292h4.968v.912h-4.056zm.912 0v-6.468h3.144v.912h-2.232v5.556zm3.14-6.468h7.2v.912h-7.2zm0-.912v-.912h7.2v.912zm7.195.912h7.2v.912h-7.2zm0-.912v-.912h7.2v.912zm7.195.912h7.2v.912h-7.2zm0-.912v-.912h7.2v.912zm7.196.912h7.2v.912h-7.2zm0-.912v-.912h7.2v.912zm7.195.912h4.056V13h.912v7.884h-4.968zm0-.912v-.912h2.232V13h.912v6.06zm7.195 7.38V13h7.2v13.44zm7.195 0V13h7.201v13.44zm10.34 0h-.912v-8.292h4.968v.912h-4.056zm.912 0v-6.468h3.144v.912h-2.232v5.556zm3.139-6.468h7.2v.912h-7.2zm0-.912v-.912h7.2v.912zm7.195.912h7.2v.912h-7.2zm0-.912v-.912h7.2v.912zm7.196.912h7.2v.912h-7.2zm0-.912v-.912h7.2v.912zm7.195 7.38V13h7.2v13.44zm7.195 0V13h7.2v13.44zm10.34 0h-.912v-5.556h-2.232v-.912h3.144zm.912 0v-7.38h-4.056v-.912h4.968v8.292zm3.139 0V13h7.2v13.44zm7.195 0V13h7.2v13.44zm10.34 0h-.912v-8.292h4.968v.912h-4.056zm.912 0v-6.468h3.144v.912h-2.232v5.556zm3.139-6.468h7.2v.912h-7.2zm0-.912v-.912h7.2v.912zm7.195.912h7.2v.912h-7.2zm0-.912v-.912h7.2v.912zm7.196 7.38V13h7.2v13.44zm7.195 0V13h7.2v13.44zm10.339 0h-.912v-5.556h-2.232v-.912h3.144zm.912 0v-7.38h-4.056v-.912h4.968v8.292zm3.14 0V13h7.2v13.44zm7.195 0V13h7.2v13.44zm10.339 0h-.912v-8.292h4.968v.912h-4.056zm.912 0v-6.468h3.144v.912h-2.232v5.556zm3.139-6.468h7.2v.912h-7.2zm0-.912v-.912h7.2v.912zm7.196.912h7.2v.912h-7.2zm0-.912v-.912h7.2v.912zm7.195.912h7.2v.912h-7.2zm0-.912v-.912h7.2v.912zm7.195.912h7.2v.912h-7.2zm0-.912v-.912h7.2v.912zm7.196.912h4.056V13h.912v7.884h-4.968zm0-.912v-.912h2.232V13h.912v6.06zm7.195 7.38V13h7.2v13.44zm7.195 0V13h7.2v13.44zm10.34 0h-.912v-8.292h4.968v.912h-4.056zm.912 0v-6.468h3.144v.912h-2.232v5.556zm3.139-6.468h7.2v.912h-7.2zm0-.912v-.912h7.2v.912zm7.195.912h7.2v.912h-7.2zm0-.912v-.912h7.2v.912zm7.196.912h7.2v.912h-7.2zm0-.912v-.912h7.2v.912zm7.195.912h7.2v.912h-7.2zm0-.912v-.912h7.2v.912zm7.195.912h4.056V13h.912v7.884h-4.968zm0-.912v-.912h2.232V13h.912v6.06zM0 39.44V26h7.2v13.44zm7.195 0V26h7.2v13.44zm10.34 0h-.912V26h.912zM18.447 26h.912v13.44h-.912zM28.78 39.44V26h7.2v13.44zm10.34 0h-.912v-5.556h-2.232v-.912h3.144zm.912 0v-7.38h-4.056v-.912h4.968v8.292zm10.334 0V26h7.2v13.44zm7.196 0V26h7.2v13.44zm10.339 0h-.912V26h.912zM68.814 26h.912v13.44h-.912zm3.14 13.44V26h7.2v13.44zm7.194 0V26h7.2v13.44zm7.196 0V26h7.2v13.44zm7.195 0V26h7.2v13.44zm7.195 0V26h7.2v13.44zm7.196 0V26h7.2v13.44zm7.195 0V26h7.2v13.44zm10.339 0h-.912V26h.912zm.912-13.44h.912v13.44h-.912zm3.14 13.44V26h7.2v13.44zm7.195 0V26h7.2v13.44zm10.339 0h-.912V26h.912zm.912-13.44h.912v13.44h-.912zm24.726 13.44V26h7.2v13.44zm7.195 0V26h7.2v13.44zm10.339 0h-.912V26h.912zm.912-13.44h.912v13.44h-.912zm31.921 13.44V26h7.2v13.44zm7.195 0V26h7.2v13.44zm10.339 0h-.912V26h.912zm.912-13.44h.912v13.44h-.912zm39.116 13.44V26h7.2v13.44zm7.195 0V26h7.201v13.44zm10.34 0h-.912V26h.912zm.912-13.44h.912v13.44h-.912zm24.725 13.44V26h7.2v13.44zm7.195 0V26h7.2v13.44zm10.34 0h-.912V26h.912zm.912-13.44h.912v13.44h-.912zm3.139 13.44V26h7.2v13.44zm7.195 0V26h7.2v13.44zm10.34 0h-.912V26h.912zm.912-13.44h.912v13.44h-.912zm17.53 13.44V26h7.2v13.44zm7.195 0V26h7.2v13.44zm10.339 0h-.912V26h.912zm.912-13.44h.912v13.44h-.912zm3.14 13.44V26h7.2v13.44zm7.195 0V26h7.2v13.44zm7.195 0V26h7.2v13.44zm7.195 0V26h7.2v13.44zm7.196 0V26h7.2v13.44zm10.339 0h-.912v-5.556h-2.232v-.912h3.144zm.912 0v-7.38h-4.056v-.912h4.968v8.292zm17.53 0V26h7.2v13.44zm7.195 0V26h7.2v13.44zm7.196 0V26h7.2v13.44zm7.195 0V26h7.2v13.44zm7.195 0V26h7.2v13.44zm7.196 0V26h7.2v13.44zm7.195 0V26h7.2v13.44zm10.339 0h-.912v-5.556h-2.232v-.912h3.144zm.912 0v-7.38h-4.056v-.912h4.968v8.292zM0 52.44V39h7.2v13.44zm7.195 0V39h7.2v13.44zm10.34 0h-.912V39h.912zM18.447 39h.912v13.44h-.912zm3.139 13.44V39h7.2v13.44zm7.195 0V39h7.2v13.44zm7.196 0V39h7.2v13.44zm10.339 0h-.912v-5.556h-2.232v-.912h3.144zm.912 0v-7.38h-4.056v-.912h4.968v8.292zm3.14 0V39h7.2v13.44zm7.194 0V39h7.2v13.44zm10.34 0h-.912V39h.912zM68.814 39h.912v13.44h-.912zm3.14 13.44V39h7.2v13.44zm7.194 0V39h7.2v13.44zm10.34 0h-.912v-8.292h4.968v.912h-4.056zm.912 0v-6.468h3.144v.912h-2.232v5.556zm3.14-6.468h7.199v.912h-7.2zm0-.912v-.912h7.199v.912zm7.194.912h7.2v.912h-7.2zm0-.912v-.912h7.2v.912zm7.196 7.38V39h7.2v13.44zm7.195 0V39h7.2v13.44zm10.339 0h-.912V39h.912zm.912-13.44h.912v13.44h-.912zm3.14 13.44V39h7.2v13.44zm7.195 0V39h7.2v13.44zm10.339 0h-.912V39h.912zm.912-13.44h.912v13.44h-.912zm24.726 13.44V39h7.2v13.44zm7.195 0V39h7.2v13.44zm10.339 0h-.912V39h.912zm.912-13.44h.912v13.44h-.912zm31.921 13.44V39h7.2v13.44zm7.195 0V39h7.2v13.44zm10.339 0h-.912V39h.912zm.912-13.44h.912v13.44h-.912zm39.116 13.44V39h7.2v13.44zm7.195 0V39h7.201v13.44zm10.34 0h-.912V39h.912zm.912-13.44h.912v13.44h-.912zm24.725 13.44V39h7.2v13.44zm7.195 0V39h7.2v13.44zm10.34 0h-.912V39h.912zm.912-13.44h.912v13.44h-.912zm3.139 13.44V39h7.2v13.44zm7.195 0V39h7.2v13.44zm10.34 0h-.912V39h.912zm.912-13.44h.912v13.44h-.912zm17.53 13.44V39h7.2v13.44zm7.195 0V39h7.2v13.44zm10.339 0h-.912V39h.912zm.912-13.44h.912v13.44h-.912zm3.14 13.44V39h7.2v13.44zm7.195 0V39h7.2v13.44zm10.339 0h-.912v-8.292h4.968v.912h-4.056zm.912 0v-6.468h3.144v.912h-2.232v5.556zm3.139-6.468h7.2v.912h-7.2zm0-.912v-.912h7.2v.912zm7.196.912h7.2v.912h-7.2zm0-.912v-.912h7.2v.912zm7.195.912h4.056V39h.912v7.884h-4.968zm0-.912v-.912h2.232V39h.912v6.06zm23.818 1.824V39h.912v6.972h4.056v.912zm4.968-1.824h-3.144V39h.912v5.148h2.232zm-.005.912h7.2v.912h-7.2zm0-.912v-.912h7.2v.912zm7.196.912h7.2v.912h-7.2zm0-.912v-.912h7.2v.912zm7.195.912h7.2v.912h-7.2zm0-.912v-.912h7.2v.912zm7.195.912h7.2v.912h-7.2zm0-.912v-.912h7.2v.912zm7.196 7.38V39h7.2v13.44zm7.195 0V39h7.2v13.44zm10.339 0h-.912V39h.912zm.912-13.44h.912v13.44h-.912zM2.232 59.883V52h.912v6.972H7.2v.912zM7.2 58.06H4.056V52h.912v5.148H7.2zm-.005 7.38V52h7.2v13.44zm7.196 0V52h7.2v13.44zm7.195 0V52h7.2v13.44zm10.34 0h-.913v-8.292h4.968v.912h-4.056zm.911 0v-6.468h3.144v.912H33.75v5.556zm3.14 0V52h7.2v13.44zm7.195 0V52h7.2v13.44zm7.195 0V52h7.2v13.44zm10.34 0h-.913v-8.292h4.969v.912h-4.057zm.911 0v-6.468h3.145v.912H62.53v5.556zm3.14-6.468h4.056V52h.912v7.884h-4.968zm0-.912v-.912h2.232V52h.912v6.06zm7.195 7.38V52h7.2v13.44zm7.195 0V52h7.2v13.44zm10.34 0h-.912V52h.912zM90.4 52h.912v13.44H90.4zm17.53 13.44V52h7.2v13.44zm7.195 0V52h7.2v13.44zm10.339 0h-.912V52h.912zm.912-13.44h.912v13.44h-.912zm5.372 7.884V52h.912v6.972h4.056v.912zm4.968-1.824h-3.144V52h.912v5.148h2.232zm-.005 7.38V52h7.2v13.44zm7.195 0V52h7.2v13.44zm7.196 0V52h7.2v13.44zm7.195 0V52h7.2v13.44zm7.195 0V52h7.2v13.44zm7.196 0V52h7.2v13.44zm10.339 0h-.912v-8.292h4.968v.912h-4.056zm.912 0v-6.468h3.144v.912h-2.232v5.556zm3.139-6.468h4.056V52h.912v7.884h-4.968zm0-.912v-.912h2.232V52h.912v6.06zm38.209 1.824V52h.912v6.972h4.056v.912zm4.968-1.824h-3.144V52h.912v5.148h2.232zm-.005 7.38V52h7.2v13.44zm7.195 0V52h7.2v13.44zm7.196 0V52h7.2v13.44zm7.195 0V52h7.2v13.44zm7.195 0V52h7.2v13.44zm7.196 0V52h7.2v13.44zm10.339 0h-.912v-5.556h-2.232v-.912h3.144zm.912 0v-7.38h-4.056v-.912h4.968v8.292zm5.371-5.556V52h.912v6.972h4.056v.912zm4.968-1.824h-3.144V52h.912v5.148h2.232zm-.005 7.38V52h7.201v13.44zm7.196 0V52h7.2v13.44zm7.195 0V52h7.2v13.44zm7.195 0V52h7.2v13.44zm7.196 0V52h7.2v13.44zm7.195 0V52h7.2v13.44zm10.339 0h-.912v-8.292h4.968v.912h-4.056zm.912 0v-6.468h3.144v.912h-2.232v5.556zm3.14-6.468h4.056V52h.912v7.884h-4.968zm0-.912v-.912h2.232V52h.912v6.06zm7.195 7.38V52h7.2v13.44zm7.195 0V52h7.2v13.44zm7.196 0V52h7.2v13.44zm7.195 0V52h7.2v13.44zm7.195 0V52h7.2v13.44zm7.196 0V52h7.2v13.44zm10.339 0h-.912v-8.292h4.968v.912h-4.056zm.912 0v-6.468h3.144v.912h-2.232v5.556zm3.139-6.468h4.056V52h.912v7.884h-4.968zm0-.912v-.912h2.232V52h.912v6.06zm7.196 7.38V52h7.2v13.44zm7.195 0V52h7.2v13.44zm7.195 0V52h7.2v13.44zm7.195 0V52h7.2v13.44zm7.196 0V52h7.2v13.44zm7.195 0V52h7.2v13.44zm7.195 0V52h7.2v13.44zm10.34 0h-.912v-5.556h-2.232v-.912h3.144zm.912 0v-7.38h-4.056v-.912h4.968v8.292zm3.139 0V52h7.2v13.44zm7.195 0V52h7.2v13.44zm7.196 0V52h7.2v13.44zm7.195 0V52h7.2v13.44zm7.195 0V52h7.2v13.44zm7.196 0V52h7.2v13.44zm7.195 0V52h7.2v13.44zm10.339 0h-.912V52h.912zm.912-13.44h.912v13.44h-.912zm3.139 13.44V52h7.201v13.44zm7.196 0V52h7.2v13.44zm10.339 0h-.912v-5.556h-2.232v-.912h3.144zm.912 0v-7.38h-4.056v-.912h4.968v8.292zM9.427 72.883V65h.912v6.972h4.056v.912zm4.968-1.824h-3.144V65h.912v5.148h2.232zm-.004.912h7.2v.912h-7.2zm0-.912v-.912h7.2v.912zm7.195.912h7.2v.912h-7.2zm0-.912v-.912h7.2v.912zm7.195.912h4.056V65h.912v7.884h-4.968zm0-.912v-.912h2.232V65h.912v6.06zm9.428 1.824V65h.912v6.972h4.056v.912zm4.968-1.824h-3.144V65h.912v5.148h2.232zm-.005.912h7.2v.912h-7.2zm0-.912v-.912h7.2v.912zm7.195.912h7.2v.912h-7.2zm0-.912v-.912h7.2v.912zm7.196.912h4.055V65h.913v7.884h-4.968zm0-.912v-.912h2.231V65h.913v6.06zm16.622 1.824V65h.912v6.972h4.056v.912zm4.968-1.824H76.01V65h.912v5.148h2.232zm-.005.912h7.2v.912h-7.2zm0-.912v-.912h7.2v.912zm7.196.912H90.4V65h.912v7.884h-4.968zm0-.912v-.912h2.232V65h.912v6.06zm23.818 1.824V65h.912v6.972h4.056v.912zm4.968-1.824h-3.144V65h.912v5.148h2.232zm-.005.912h7.2v.912h-7.2zm0-.912v-.912h7.2v.912zm7.195.912h4.056V65h.912v7.884h-4.968zm0-.912v-.912h2.232V65h.912v6.06zm16.623 1.824V65h.912v6.972h4.056v.912zm4.968-1.824h-3.144V65h.912v5.148h2.232zm-.005.912h7.2v.912h-7.2zm0-.912v-.912h7.2v.912zm7.196.912h7.2v.912h-7.2zm0-.912v-.912h7.2v.912zm7.195.912h7.2v.912h-7.2zm0-.912v-.912h7.2v.912zm7.195.912h7.2v.912h-7.2zm0-.912v-.912h7.2v.912zm7.196.912h7.2v.912h-7.2zm0-.912v-.912h7.2v.912zm7.195.912h4.056V65h.912v7.884h-4.968zm0-.912v-.912h2.232V65h.912v6.06zm52.599 1.824V65h.912v6.972h4.056v.912zm4.968-1.824h-3.144V65h.912v5.148h2.232zm-.005.912h7.2v.912h-7.2zm0-.912v-.912h7.2v.912zm7.196.912h7.2v.912h-7.2zm0-.912v-.912h7.2v.912zm7.195.912h7.2v.912h-7.2zm0-.912v-.912h7.2v.912zm7.195.912h7.2v.912h-7.2zm0-.912v-.912h7.2v.912zm7.196.912h7.2v.912h-7.2zm0-.912v-.912h7.2v.912zm7.195.912h4.056V65h.912v7.884h-4.968zm0-.912v-.912h2.232V65h.912v6.06zm16.623 1.824V65h.912v6.972h4.056v.912zm4.968-1.824h-3.144V65h.912v5.148h2.232zm-.005.912h7.2v.912h-7.2zm0-.912v-.912h7.2v.912zm7.195.912h7.2v.912h-7.2zm0-.912v-.912h7.2v.912zm7.195.912h7.2v.912h-7.2zm0-.912v-.912h7.2v.912zm7.196.912h7.2v.912h-7.2zm0-.912v-.912h7.2v.912zm7.195.912h7.2v.912h-7.2zm0-.912v-.912h7.2v.912zm7.195.912h4.056V65h.912v7.884h-4.968zm0-.912v-.912h2.232V65h.912v6.06zm16.623 1.824V65h.912v6.972h4.056v.912zm4.968-1.824h-3.144V65h.912v5.148h2.232zm-.005.912h7.2v.912h-7.2zm0-.912v-.912h7.2v.912zm7.196.912h7.2v.912h-7.2zm0-.912v-.912h7.2v.912zm7.195.912h7.2v.912h-7.2zm0-.912v-.912h7.2v.912zm7.195.912h7.2v.912h-7.2zm0-.912v-.912h7.2v.912zm7.196.912h7.2v.912h-7.2zm0-.912v-.912h7.2v.912zm7.195.912h4.056V65h.912v7.884h-4.968zm0-.912v-.912h2.232V65h.912v6.06zm16.623 1.824V65h.912v6.972h4.056v.912zm4.968-1.824h-3.144V65h.912v5.148h2.232zm-.005.912h7.2v.912h-7.2zm0-.912v-.912h7.2v.912zm7.195.912h7.2v.912h-7.2zm0-.912v-.912h7.2v.912zm7.195.912h7.2v.912h-7.2zm0-.912v-.912h7.2v.912zm7.196.912h7.2v.912h-7.2zm0-.912v-.912h7.2v.912zm7.195.912h7.2v.912h-7.2zm0-.912v-.912h7.2v.912zm7.195.912h7.2v.912h-7.2zm0-.912v-.912h7.2v.912zm7.196.912h4.056V65h.912v7.884h-4.968zm0-.912v-.912h2.232V65h.912v6.06zm9.427 1.824V65h.912v6.972h4.056v.912zm4.968-1.824h-3.144V65h.912v5.148h2.232zm-.005.912h7.2v.912h-7.2zm0-.912v-.912h7.2v.912zm7.196.912h7.2v.912h-7.2zm0-.912v-.912h7.2v.912zm7.195.912h7.2v.912h-7.2zm0-.912v-.912h7.2v.912zm7.195.912h7.2v.912h-7.2zm0-.912v-.912h7.2v.912zm7.196.912h7.2v.912h-7.2zm0-.912v-.912h7.2v.912zm7.195.912h7.2v.912h-7.2zm0-.912v-.912h7.2v.912zm7.195.912h4.056V65h.912v7.884h-4.968zm0-.912v-.912h2.232V65h.912v6.06zm9.428 1.824V65h.912v6.972h4.056v.912zm4.968-1.824h-3.144V65h.912v5.148h2.232zm-.005.912h7.2v.912h-7.2zm0-.912v-.912h7.2v.912zm7.195.912h4.056V65h.912v7.884h-4.968zm0-.912v-.912h2.232V65h.912v6.06z"/></svg>