<svg width="1000" height="1000" viewBox="0 0 1000 1000" fill="none" xmlns="http://www.w3.org/2000/svg">
<g clip-path="url(#clip0_262_9)">
<rect width="1000" height="1000" fill="#01030F"/>
<path d="M467.474 238.926H528.395V289.968H570.381V238.926H731.739V289.968H781.958V340.186H833V464.773H781.958V515.815H731.739V566.857H570.381V515.815H528.395V757.578H467.474V238.926ZM722.684 507.582V456.54H773.726V349.242H722.684V298.2H578.614V349.242H528.395V456.54H578.614V507.582H722.684Z" fill="#B6F400"/>
<path d="M340.418 220.655C357.809 220.655 372.318 226.2 383.586 237.469C394.855 248.737 400.4 263.246 400.4 280.637C400.4 297.584 394.511 312.057 382.763 323.805C371.522 335.046 357.303 340.618 340.418 340.618C323.978 340.618 309.792 334.7 298.074 322.981C286.355 311.263 280.437 297.077 280.437 280.637C280.437 263.246 285.982 248.737 297.25 237.469L297.287 237.433L297.324 237.397C309.085 226.224 323.535 220.655 340.418 220.655ZM380.642 617.349C380.642 647.357 384.492 668.11 391.595 680.323C398.992 692.118 410.49 698.145 426.861 698.145C432.296 698.144 438.389 696.908 445.182 694.295C451.938 691.697 459.052 687.761 466.522 682.425L468.429 681.062L470.549 682.06C480.796 686.881 489.048 695.248 495.403 706.803H495.402C501.736 717.771 504.719 728.935 504.125 740.225L504.051 741.624L503.12 742.672C493.908 753.035 482.164 761.312 467.988 767.55C453.728 773.824 438.357 776.944 421.92 776.944H421.097C389.729 776.944 363.955 769.446 344.142 754.084C326.256 740.216 313.576 720.209 305.913 694.385C284.106 726.219 260.991 750.802 236.517 767.985L234.839 769.163L232.904 768.49C219.773 763.923 208.304 757.05 198.546 747.866L198.458 747.783L198.375 747.695C189.092 737.832 182.987 726.199 180.09 712.873L179.611 710.666L181.253 709.115C191.045 699.868 202.503 688.138 215.637 673.91C228.616 659.85 241.369 643.037 253.886 623.446C266.316 603.446 276.61 580.975 284.75 556.011L284.762 555.974L284.775 555.938C293.387 531.179 297.725 503.367 297.725 472.456V369.959L300.46 369.047C305.644 367.319 311.618 365.902 318.356 364.779C325.174 363.643 332.255 363.079 339.595 363.079C352.631 363.079 365.389 365.064 377.854 369.03L380.642 369.917V617.349Z" fill="#01030F" stroke="#B6F400" stroke-width="8"/>
</g>
<defs>
<clipPath id="clip0_262_9">
<rect width="1000" height="1000" fill="white"/>
</clipPath>
</defs>
</svg>
