<svg width="64" height="64" viewBox="0 0 64 64" fill="none" xmlns="http://www.w3.org/2000/svg">
<path d="M54.6487 54.5729H45.1964V39.7702C45.1964 36.2404 45.1334 31.6964 40.2803 31.6964C35.3572 31.6964 34.6039 35.5423 34.6039 39.5132V54.5719H25.1516V24.1316H34.2258V28.2916H34.3529C35.261 26.7389 36.5732 25.4616 38.1499 24.5956C39.7265 23.7297 41.5085 23.3077 43.306 23.3744C52.8863 23.3744 54.6527 29.6759 54.6527 37.8738L54.6487 54.5729ZM14.4863 19.9706C13.4014 19.9708 12.3408 19.6493 11.4386 19.0467C10.5365 18.4441 9.83329 17.5876 9.41794 16.5853C9.00259 15.5831 8.89374 14.4802 9.1052 13.4161C9.31666 12.3521 9.83893 11.3746 10.6059 10.6073C11.3729 9.84004 12.3502 9.31744 13.4142 9.10559C14.4782 8.89375 15.5811 9.00218 16.5835 9.41717C17.5859 9.83216 18.4427 10.5351 19.0456 11.437C19.6485 12.339 19.9704 13.3994 19.9706 14.4843C19.9707 15.2047 19.8289 15.918 19.5534 16.5835C19.2779 17.2491 18.874 17.8538 18.3647 18.3633C17.8554 18.8727 17.2508 19.2769 16.5853 19.5527C15.9199 19.8284 15.2066 19.9705 14.4863 19.9706ZM19.2124 54.5729H9.75027V24.1316H19.2124V54.5729Z" fill="#0A66C2"/>
</svg>
