<svg xmlns="http://www.w3.org/2000/svg" width="838" height="74" fill="none" viewBox="0 0 838 74"><path fill="#293dbd" d="M0 13.44V0h6.72v13.44zm6.715 0V0h6.72v13.44zm6.715 0V0h6.72v13.44zm6.715 0V0h6.72v13.44zm6.714 0V0h6.72v13.44zm6.715 0V0h6.72v13.44zm10.615 0V6.192h-3.9v-1.08h4.968v8.328zm-2.148 0v-5.1H40.29V7.26h2.82v6.18zm11.678 0V0h6.72v13.44zm6.715 0V0h6.72v13.44zm6.714 0V0h6.72v13.44zm6.715 0V0h6.72v13.44zm6.715 0V0h6.72v13.44zm6.715 0V0h6.72v13.44zm10.615 0V6.192h-3.9v-1.08h4.968v8.328zm-2.148 0v-5.1h-1.752V7.26h2.82v6.18zm18.392 0V0h6.72v13.44zm6.715 0V0h6.72v13.44zm6.715 0V0h6.72v13.44zm6.715 0V0h6.72v13.44zm6.715 0V0h6.72v13.44zm6.715 0V0h6.72v13.44zm10.614 0V6.192h-3.9v-1.08h4.968v8.328zm-2.148 0v-5.1h-1.752V7.26h2.82v6.18zm11.678 0V0h6.72v13.44zm6.715 0V0h6.72v13.44zm6.715 0V0h6.72v13.44zm6.715 0V0h6.72v13.44zm6.714 0V0h6.72v13.44zm6.715 0V0h6.72v13.44zm10.615 0V6.192h-3.9v-1.08h4.968v8.328zm-2.148 0v-5.1h-1.752V7.26h2.82v6.18zm11.678 0V0h6.72v13.44zm6.715 0V0h6.72v13.44zm10.615 0V6.192h-3.9v-1.08h4.968v8.328zm-2.148 0v-5.1h-1.752V7.26h2.82v6.18zm25.107 0V0h6.72v13.44zm6.715 0V0h6.72v13.44zm10.615 0V6.192h-3.9v-1.08h4.968v8.328zm-2.148 0v-5.1h-1.752V7.26h2.82v6.18zm11.677 0V0h6.72v13.44zm6.715 0V0h6.72v13.44zm6.715 0V0h6.72v13.44zm6.715 0V0h6.72v13.44zm6.715 0V0h6.72v13.44zm6.714 0V0h6.721v13.44zm10.615 0V6.192h-3.9v-1.08h4.968v8.328zm-2.148 0v-5.1h-1.752V7.26h2.82v6.18zm4.963 0V0h6.72v13.44zm6.715 0V0h6.72v13.44zm6.715 0V0h6.72v13.44zm6.715 0V0h6.72v13.44zm6.715 0V0h6.72v13.44zm6.714 0V0h6.72v13.44zm6.715 0V0h6.72v13.44zm6.715 0V0h6.72v13.44zm10.615 0V6.192h-3.9v-1.08h4.968v8.328zm-2.148 0v-5.1h-1.752V7.26h2.82v6.18zm31.822 0V0h6.72v13.44zm6.715 0V0h6.72v13.44zm6.715 0V0h6.72v13.44zm6.715 0V0h6.72v13.44zm6.715 0V0h6.72v13.44zm6.714 0V0h6.72v13.44zm10.615 0V6.192h-3.9v-1.08h4.968v8.328zm-2.148 0v-5.1h-1.752V7.26h2.82v6.18zm11.678 0V0h6.72v13.44zm6.715 0V0h6.72v13.44zm6.715 0V0h6.72v13.44zm6.714 0V0h6.72v13.44zm6.715 0V0h6.72v13.44zm6.715 0V0h6.72v13.44zm6.715 0V0h6.72v13.44zm10.615 0V6.192h-3.9v-1.08h4.968v8.328zm-2.148 0v-5.1h-1.752V7.26h2.82v6.18zm4.963 0V0h6.72v13.44zm6.715 0V0h6.72v13.44zm6.714 0V0h6.72v13.44zm6.715 0V0h6.72v13.44zm6.715 0V0h6.72v13.44zm6.715 0V0h6.72v13.44zm6.715 0V0h6.72v13.44zm10.615 0V6.192h-3.9v-1.08h4.968v8.328zm-2.148 0v-5.1h-1.752V7.26h2.82v6.18zm4.962 0V0h6.72v13.44zm6.715 0V0h6.72v13.44zm10.615 0V6.192h-3.9v-1.08h4.968v8.328zm-2.148 0v-5.1h-1.752V7.26h2.82v6.18zm11.678 0V0h6.72v13.44zm6.715 0V0h6.72v13.44zm6.714 0V0h6.72v13.44zm6.715 0V0h6.72v13.44zm6.715 0V0h6.72v13.44zm6.715 0V0h6.72v13.44zm10.615 0V6.192h-3.9v-1.08h4.968v8.328zm-2.148 0v-5.1h-1.752V7.26h2.82v6.18zm11.678 0V0h6.72v13.44zm6.714 0V0h6.72v13.44zm6.715 0V0h6.72v13.44zm10.615 0V6.192h-3.9v-1.08h4.968v8.328zm-2.148 0v-5.1h-1.752V7.26h2.82v6.18zm25.107 0V0h6.72v13.44zm6.715 0V0h6.72v13.44zm10.615 0V6.192h-3.9v-1.08h4.968v8.328zm-2.148 0v-5.1h-1.752V7.26h2.82v6.18zm4.963 0V0h6.72v13.44zm6.715 0V0h6.72v13.44zm6.715 0V0h6.72v13.44zm6.714 0V0h6.721v13.44zm6.715 0V0h6.72v13.44zm6.715 0V0h6.72v13.44zm6.715 0V0h6.72v13.44zm10.615 0V6.192h-3.9v-1.08h4.968v8.328zm-2.148 0v-5.1h-1.752V7.26h2.82v6.18zm4.963 0V0h6.72v13.44zm6.715 0V0h6.72v13.44zm6.714 0V0h6.72v13.44zm6.715 0V0h6.72v13.44zm6.715 0V0h6.72v13.44zm6.715 0V0h6.72v13.44zm10.615 0V6.192h-3.9v-1.08h4.968v8.328zm-2.148 0v-5.1h-1.752V7.26h2.82v6.18zM0 26.44V13h6.72v13.44zm6.715 0V13h6.72v13.44zm8.467 0v-8.328h4.968v1.08h-3.9v7.248zm2.148 0v-6.18h2.82v1.08h-1.752v5.1zm2.815-7.248v-1.08h6.72v1.08zm0 2.148v-1.08h6.72v1.08zm6.714-2.148v-1.08h6.72v1.08zm0 2.148v-1.08h6.72v1.08zm6.715 5.1V13h6.72v13.44zm6.715 0V13h6.72v13.44zm10.615 0v-7.248h-3.9v-1.08h4.968v8.328zm-2.148 0v-5.1h-1.752v-1.08h2.82v6.18zm4.963 0V13h6.72v13.44zm6.715 0V13h6.72v13.44zm8.466 0v-8.328h4.968v1.08h-3.9v7.248zm2.148 0v-6.18h2.82v1.08h-1.752v5.1zm2.815-7.248v-1.08h6.72v1.08zm0 2.148v-1.08h6.72v1.08zm6.715-2.148v-1.08h6.72v1.08zm0 2.148v-1.08h6.72v1.08zm6.715 5.1V13h6.72v13.44zm6.715 0V13h6.72v13.44zm10.615 0v-7.248h-3.9v-1.08h4.968v8.328zm-2.148 0v-5.1h-1.752v-1.08h2.82v6.18zm4.963 0V13h6.72v13.44zm6.714 0V13h6.72v13.44zm8.467 0v-8.328h4.968v1.08h-3.9v7.248zm2.148 0v-6.18h2.82v1.08h-1.752v5.1zm2.815-7.248v-1.08h6.72v1.08zm0 2.148v-1.08h6.72v1.08zm6.715-2.148v-1.08h6.72v1.08zm0 2.148v-1.08h6.72v1.08zm6.715-2.148v-1.08h6.72v1.08zm0 2.148v-1.08h6.72v1.08zm6.715 5.1V13h6.72v13.44zm6.714 0V13h6.72v13.44zm10.615 0v-7.248h-3.9v-1.08h4.968v8.328zm-2.148 0v-5.1h-1.752v-1.08h2.82v6.18zm4.963 0V13h6.72v13.44zm6.715 0V13h6.72v13.44zm8.467 0v-8.328h4.968v1.08h-3.9v7.248zm2.148 0v-6.18h2.82v1.08h-1.752v5.1zm2.815-7.248v-1.08h6.72v1.08zm0 2.148v-1.08h6.72v1.08zm6.714-2.148v-1.08h6.72v1.08zm0 2.148v-1.08h6.72v1.08zm6.715 5.1V13h6.72v13.44zm6.715 0V13h6.72v13.44zm10.615 0v-7.248h-3.9v-1.08h4.968v8.328zm-2.148 0v-5.1h-1.752v-1.08h2.82v6.18zm4.963 0V13h6.72v13.44zm6.715 0V13h6.72v13.44zm10.615 0V13h1.068v13.44zm-2.148 0V13h1.068v13.44zm25.107 0V13h6.72v13.44zm6.715 0V13h6.72v13.44zm10.615 0V13h1.068v13.44zm-2.148 0V13h1.068v13.44zm4.962 0V13h6.72v13.44zm6.715 0V13h6.72v13.44zm8.467 0v-8.328h4.968v1.08h-3.9v7.248zm2.148 0v-6.18h2.82v1.08h-1.752v5.1zm2.815-7.248v-1.08h6.72v1.08zm0 2.148v-1.08h6.72v1.08zm6.715-2.148v-1.08h6.72v1.08zm0 2.148v-1.08h6.72v1.08zm6.715-2.148v-1.08h6.72v1.08zm0 2.148v-1.08h6.72v1.08zm6.714-2.148v-1.08h6.721v1.08zm0 2.148v-1.08h6.721v1.08zm6.715 0v-1.08h3.9V13h1.068v8.34zm0-2.148v-1.08h1.752V13h1.068v6.192zm8.467 2.148V13h1.068v7.26h3.9v1.08zm2.148-2.148V13h1.068v5.112h1.752v1.08zm2.815 0v-1.08h6.72v1.08zm0 2.148v-1.08h6.72v1.08zm6.715-2.148v-1.08h6.72v1.08zm0 2.148v-1.08h6.72v1.08zm6.715 5.1V13h6.72v13.44zm6.715 0V13h6.72v13.44zm8.466 0v-8.328h4.968v1.08h-3.9v7.248zm2.148 0v-6.18h2.82v1.08h-1.752v5.1zm2.815-7.248v-1.08h6.72v1.08zm0 2.148v-1.08h6.72v1.08zm6.715-2.148v-1.08h6.72v1.08zm0 2.148v-1.08h6.72v1.08zm6.715 0v-1.08h3.9V13h1.068v8.34zm0-2.148v-1.08h1.752V13h1.068v6.192zm33.574 7.248V13h6.72v13.44zm6.715 0V13h6.72v13.44zm8.467 0v-8.328h4.968v1.08h-3.9v7.248zm2.148 0v-6.18h2.82v1.08h-1.752v5.1zm2.815-7.248v-1.08h6.72v1.08zm0 2.148v-1.08h6.72v1.08zm6.715-2.148v-1.08h6.72v1.08zm0 2.148v-1.08h6.72v1.08zm6.714 5.1V13h6.72v13.44zm6.715 0V13h6.72v13.44zm10.615 0v-7.248h-3.9v-1.08h4.968v8.328zm-2.148 0v-5.1h-1.752v-1.08h2.82v6.18zm4.963 0V13h6.72v13.44zm6.715 0V13h6.72v13.44zm8.467 0v-8.328h4.968v1.08h-3.9v7.248zm2.148 0v-6.18h2.82v1.08h-1.752v5.1zm2.814-7.248v-1.08h6.72v1.08zm0 2.148v-1.08h6.72v1.08zm6.715-2.148v-1.08h6.72v1.08zm0 2.148v-1.08h6.72v1.08zm6.715-2.148v-1.08h6.72v1.08zm0 2.148v-1.08h6.72v1.08zm6.715-2.148v-1.08h6.72v1.08zm0 2.148v-1.08h6.72v1.08zm6.715 0v-1.08h3.9V13h1.068v8.34zm0-2.148v-1.08h1.752V13h1.068v6.192zm6.715 7.248V13h6.72v13.44zm6.715 0V13h6.72v13.44zm8.466 0v-8.328h4.968v1.08h-3.9v7.248zm2.148 0v-6.18h2.82v1.08h-1.752v5.1zm2.815-7.248v-1.08h6.72v1.08zm0 2.148v-1.08h6.72v1.08zm6.715-2.148v-1.08h6.72v1.08zm0 2.148v-1.08h6.72v1.08zm6.715-2.148v-1.08h6.72v1.08zm0 2.148v-1.08h6.72v1.08zm6.715-2.148v-1.08h6.72v1.08zm0 2.148v-1.08h6.72v1.08zm6.715 0v-1.08h3.9V13h1.068v8.34zm0-2.148v-1.08h1.752V13h1.068v6.192zm6.714 7.248V13h6.72v13.44zm6.715 0V13h6.72v13.44zm10.615 0V13h1.068v13.44zm-2.148 0V13h1.068v13.44zm4.963 0V13h6.72v13.44zm6.715 0V13h6.72v13.44zm8.467 0v-8.328h4.968v1.08h-3.9v7.248zm2.148 0v-6.18h2.82v1.08h-1.752v5.1zm2.814-7.248v-1.08h6.72v1.08zm0 2.148v-1.08h6.72v1.08zm6.715-2.148v-1.08h6.72v1.08zm0 2.148v-1.08h6.72v1.08zm6.715-2.148v-1.08h6.72v1.08zm0 2.148v-1.08h6.72v1.08zm6.715-2.148v-1.08h6.72v1.08zm0 2.148v-1.08h6.72v1.08zm6.715 0v-1.08h3.9V13h1.068v8.34zm0-2.148v-1.08h1.752V13h1.068v6.192zm13.43 7.248V13h6.72v13.44zm6.714 0V13h6.72v13.44zm6.715 0V13h6.72v13.44zm6.715 0V13h6.72v13.44zm10.615 0v-7.248h-3.9v-1.08h4.968v8.328zm-2.148 0v-5.1h-1.752v-1.08h2.82v6.18zm18.392 0V13h6.72v13.44zm6.715 0V13h6.72v13.44zm10.615 0V13h1.068v13.44zm-2.148 0V13h1.068v13.44zm4.963 0V13h6.72v13.44zm6.715 0V13h6.72v13.44zm8.467 0v-8.328h4.968v1.08h-3.9v7.248zm2.148 0v-6.18h2.82v1.08h-1.752v5.1zm2.814-7.248v-1.08h6.721v1.08zm0 2.148v-1.08h6.721v1.08zm6.715-2.148v-1.08h6.72v1.08zm0 2.148v-1.08h6.72v1.08zm6.715-2.148v-1.08h6.72v1.08zm0 2.148v-1.08h6.72v1.08zm6.715-2.148v-1.08h6.72v1.08zm0 2.148v-1.08h6.72v1.08zm6.715 0v-1.08h3.9V13h1.068v8.34zm0-2.148v-1.08h1.752V13h1.068v6.192zm6.715 7.248V13h6.72v13.44zm6.715 0V13h6.72v13.44zm8.466 0v-8.328h4.968v1.08h-3.9v7.248zm2.148 0v-6.18h2.82v1.08h-1.752v5.1zm2.815-7.248v-1.08h6.72v1.08zm0 2.148v-1.08h6.72v1.08zm6.715-2.148v-1.08h6.72v1.08zm0 2.148v-1.08h6.72v1.08zm6.715 5.1V13h6.72v13.44zm6.715 0V13h6.72v13.44zm10.615 0v-7.248h-3.9v-1.08h4.968v8.328zm-2.148 0v-5.1h-1.752v-1.08h2.82v6.18zM0 39.44V26h6.72v13.44zm6.715 0V26h6.72v13.44zm6.715 0V26h6.72v13.44zm6.715 0V26h6.72v13.44zm6.714 0V26h6.72v13.44zm6.715 0V26h6.72v13.44zm8.467 0v-8.328h4.968v1.08h-3.9v7.248zm2.148 0v-6.18h2.82v1.08h-1.752v5.1zm2.815-5.1v-1.08h3.9V26h1.068v8.34zm0-2.148v-1.08h1.752V26h1.068v6.192zm6.715 7.248V26h6.72v13.44zm6.715 0V26h6.72v13.44zm6.714 0V26h6.72v13.44zm6.715 0V26h6.72v13.44zm6.715 0V26h6.72v13.44zm6.715 0V26h6.72v13.44zm8.467 0v-8.328h4.968v1.08h-3.9v7.248zm2.148 0v-6.18h2.82v1.08h-1.752v5.1zm2.815-5.1v-1.08h3.9V26h1.068v8.34zm0-2.148v-1.08h1.752V26h1.068v6.192zm6.715 7.248V26h6.72v13.44zm6.714 0V26h6.72v13.44zm10.615 0V26h1.068v13.44zm-2.148 0V26h1.068v13.44zm25.108 0V26h6.72v13.44zm6.714 0V26h6.72v13.44zm10.615 0V26h1.068v13.44zm-2.148 0V26h1.068v13.44zm4.963 0V26h6.72v13.44zm6.715 0V26h6.72v13.44zm10.615 0V26h1.068v13.44zm-2.148 0V26h1.068v13.44zm18.392 0V26h6.72v13.44zm6.715 0V26h6.72v13.44zm10.615 0V26h1.068v13.44zm-2.148 0V26h1.068v13.44zm4.963 0V26h6.72v13.44zm6.715 0V26h6.72v13.44zm10.615 0V26h1.068v13.44zm-2.148 0V26h1.068v13.44zm25.107 0V26h6.72v13.44zm6.715 0V26h6.72v13.44zm10.615 0V26h1.068v13.44zm-2.148 0V26h1.068v13.44zm4.962 0V26h6.72v13.44zm6.715 0V26h6.72v13.44zm10.615 0V26h1.068v13.44zm-2.148 0V26h1.068v13.44zm58.682 0V26h6.72v13.44zm6.715 0V26h6.72v13.44zm10.614 0V26h1.068v13.44zm-2.148 0V26h1.068v13.44zm51.967 0V26h6.72v13.44zm6.715 0V26h6.72v13.44zm10.615 0V26h1.068v13.44zm-2.148 0V26h1.068v13.44zm18.392 0V26h6.72v13.44zm6.715 0V26h6.72v13.44zm10.615 0V26h1.068v13.44zm-2.148 0V26h1.068v13.44zm4.963 0V26h6.72v13.44zm6.715 0V26h6.72v13.44zm6.715 0V26h6.72v13.44zm6.714 0V26h6.72v13.44zm6.715 0V26h6.72v13.44zm10.615 0v-7.248h-3.9v-1.08h4.968v8.328zm-2.148 0v-5.1h-1.752v-1.08h2.82v6.18zm18.393 0V26h6.72v13.44zm6.715 0V26h6.72v13.44zm6.714 0V26h6.72v13.44zm6.715 0V26h6.72v13.44zm6.715 0V26h6.72v13.44zm6.715 0V26h6.72v13.44zm6.715 0V26h6.72v13.44zm10.615 0v-7.248h-3.9v-1.08h4.968v8.328zm-2.148 0v-5.1h-1.752v-1.08h2.82v6.18zm4.962 0V26h6.72v13.44zm6.715 0V26h6.72v13.44zm10.615 0V26h1.068v13.44zm-2.148 0V26h1.068v13.44zm4.963 0V26h6.72v13.44zm6.715 0V26h6.72v13.44zm10.615 0V26h1.068v13.44zm-2.148 0V26h1.068v13.44zm18.392 0V26h6.72v13.44zm6.715 0V26h6.72v13.44zm6.715 0V26h6.72v13.44zm10.615 0v-7.248h-3.9v-1.08h4.968v8.328zm-2.148 0v-5.1h-1.752v-1.08h2.82v6.18zm4.963 0V26h6.72v13.44zm6.714 0V26h6.72v13.44zm8.467 0v-8.328h4.968v1.08h-3.9v7.248zm2.148 0v-6.18h2.82v1.08h-1.752v5.1zm2.815 0V26h6.72v13.44zm6.715 0V26h6.72v13.44zm10.615 0v-7.248h-3.9v-1.08h4.968v8.328zm-2.148 0v-5.1h-1.752v-1.08h2.82v6.18zm11.677 0V26h6.72v13.44zm6.715 0V26h6.72v13.44zm10.615 0V26h1.068v13.44zm-2.148 0V26h1.068v13.44zm4.963 0V26h6.72v13.44zm6.715 0V26h6.72v13.44zm6.715 0V26h6.72v13.44zm6.714 0V26h6.721v13.44zm6.715 0V26h6.72v13.44zm10.615 0v-7.248h-3.9v-1.08h4.968v8.328zm-2.148 0v-5.1h-1.752v-1.08h2.82v6.18zm18.393 0V26h6.72v13.44zm6.715 0V26h6.72v13.44zm6.714 0V26h6.72v13.44zm6.715 0V26h6.72v13.44zm6.715 0V26h6.72v13.44zm6.715 0V26h6.72v13.44zm8.467 0v-8.328h4.968v1.08h-3.9v7.248zm2.148 0v-6.18h2.82v1.08h-1.752v5.1zm2.815-5.1v-1.08h3.9V26h1.068v8.34zm0-2.148v-1.08h1.752V26h1.068v6.192zM0 52.44V39h6.72v13.44zm6.715 0V39h6.72v13.44zm8.467 0v-8.328h4.968v1.08h-3.9v7.248zm2.148 0v-6.18h2.82v1.08h-1.752v5.1zm2.815-7.248v-1.08h6.72v1.08zm0 2.148v-1.08h6.72v1.08zm6.714-2.148v-1.08h6.72v1.08zm0 2.148v-1.08h6.72v1.08zm6.715-2.148v-1.08h6.72v1.08zm0 2.148v-1.08h6.72v1.08zm6.715 0v-1.08h3.9V39h1.068v8.34zm0-2.148v-1.08h1.752V39h1.068v6.192zm13.43 7.248V39h6.72v13.44zm6.715 0V39h6.72v13.44zm8.466 0v-8.328h4.968v1.08h-3.9v7.248zm2.148 0v-6.18h2.82v1.08h-1.752v5.1zm2.815-7.248v-1.08h6.72v1.08zm0 2.148v-1.08h6.72v1.08zm6.715-2.148v-1.08h6.72v1.08zm0 2.148v-1.08h6.72v1.08zm6.715 5.1V39h6.72v13.44zm6.715 0V39h6.72v13.44zm10.615 0v-7.248h-3.9v-1.08h4.968v8.328zm-2.148 0v-5.1h-1.752v-1.08h2.82v6.18zm4.963 0V39h6.72v13.44zm6.714 0V39h6.72v13.44zm10.615 0V39h1.068v13.44zm-2.148 0V39h1.068v13.44zm25.108 0V39h6.72v13.44zm6.714 0V39h6.72v13.44zm10.615 0V39h1.068v13.44zm-2.148 0V39h1.068v13.44zm4.963 0V39h6.72v13.44zm6.715 0V39h6.72v13.44zm10.615 0V39h1.068v13.44zm-2.148 0V39h1.068v13.44zm18.392 0V39h6.72v13.44zm6.715 0V39h6.72v13.44zm10.615 0V39h1.068v13.44zm-2.148 0V39h1.068v13.44zm4.963 0V39h6.72v13.44zm6.715 0V39h6.72v13.44zm10.615 0V39h1.068v13.44zm-2.148 0V39h1.068v13.44zm25.107 0V39h6.72v13.44zm6.715 0V39h6.72v13.44zm10.615 0V39h1.068v13.44zm-2.148 0V39h1.068v13.44zm4.962 0V39h6.72v13.44zm6.715 0V39h6.72v13.44zm10.615 0V39h1.068v13.44zm-2.148 0V39h1.068v13.44zm58.682 0V39h6.72v13.44zm6.715 0V39h6.72v13.44zm10.614 0V39h1.068v13.44zm-2.148 0V39h1.068v13.44zm51.967 0V39h6.72v13.44zm6.715 0V39h6.72v13.44zm10.615 0V39h1.068v13.44zm-2.148 0V39h1.068v13.44zm18.392 0V39h6.72v13.44zm6.715 0V39h6.72v13.44zm10.615 0V39h1.068v13.44zm-2.148 0V39h1.068v13.44zm4.963 0V39h6.72v13.44zm6.715 0V39h6.72v13.44zm8.467 0v-8.328h4.968v1.08h-3.9v7.248zm2.148 0v-6.18h2.82v1.08h-1.752v5.1zm2.814-7.248v-1.08h6.72v1.08zm0 2.148v-1.08h6.72v1.08zm6.715-2.148v-1.08h6.72v1.08zm0 2.148v-1.08h6.72v1.08zm6.715 0v-1.08h3.9V39h1.068v8.34zm0-2.148v-1.08h1.752V39h1.068v6.192zm21.897 2.148V39h1.068v7.26h3.9v1.08zm2.148-2.148V39h1.068v5.112h1.752v1.08zm2.815 0v-1.08h6.72v1.08zm0 2.148v-1.08h6.72v1.08zm6.714-2.148v-1.08h6.72v1.08zm0 2.148v-1.08h6.72v1.08zm6.715-2.148v-1.08h6.72v1.08zm0 2.148v-1.08h6.72v1.08zm6.715-2.148v-1.08h6.72v1.08zm0 2.148v-1.08h6.72v1.08zm6.715 5.1V39h6.72v13.44zm6.715 0V39h6.72v13.44zm10.615 0V39h1.068v13.44zm-2.148 0V39h1.068v13.44zm4.962 0V39h6.72v13.44zm6.715 0V39h6.72v13.44zm10.615 0V39h1.068v13.44zm-2.148 0V39h1.068v13.44zm4.963 0V39h6.72v13.44zm6.715 0V39h6.72v13.44zm10.615 0V39h1.068v13.44zm-2.148 0V39h1.068v13.44zm25.107 0V39h6.72v13.44zm6.715 0V39h6.72v13.44zm10.615 0V39h1.068v13.44zm-2.148 0V39h1.068v13.44zm4.963 0V39h6.72v13.44zm6.714 0V39h6.72v13.44zm10.615 0V39h1.068v13.44zm-2.148 0V39h1.068v13.44zm6.715-5.1V39h1.068v7.26h3.9v1.08zm2.148-2.148V39h1.068v5.112h1.752v1.08zm2.815 7.248V39h6.72v13.44zm6.715 0V39h6.72v13.44zm10.615 0v-7.248h-3.9v-1.08h4.968v8.328zm-2.148 0v-5.1h-1.752v-1.08h2.82v6.18zm4.962 0V39h6.72v13.44zm6.715 0V39h6.72v13.44zm10.615 0V39h1.068v13.44zm-2.148 0V39h1.068v13.44zm4.963 0V39h6.72v13.44zm6.715 0V39h6.72v13.44zm8.467 0v-8.328h4.968v1.08h-3.9v7.248zm2.148 0v-6.18h2.82v1.08h-1.752v5.1zm2.814-7.248v-1.08h6.721v1.08zm0 2.148v-1.08h6.721v1.08zm6.715-2.148v-1.08h6.72v1.08zm0 2.148v-1.08h6.72v1.08zm6.715 0v-1.08h3.9V39h1.068v8.34zm0-2.148v-1.08h1.752V39h1.068v6.192zm20.145 7.248V39h6.72v13.44zm6.715 0V39h6.72v13.44zm8.466 0v-8.328h4.968v1.08h-3.9v7.248zm2.148 0v-6.18h2.82v1.08h-1.752v5.1zm2.815-7.248v-1.08h6.72v1.08zm0 2.148v-1.08h6.72v1.08zm6.715-2.148v-1.08h6.72v1.08zm0 2.148v-1.08h6.72v1.08zm6.715 5.1V39h6.72v13.44zm6.715 0V39h6.72v13.44zm10.615 0v-7.248h-3.9v-1.08h4.968v8.328zm-2.148 0v-5.1h-1.752v-1.08h2.82v6.18zM0 65.44V52h6.72v13.44zm6.715 0V52h6.72v13.44zm10.615 0V52h1.068v13.44zm-2.148 0V52h1.068v13.44zm38.537 0V52h6.72v13.44zm6.715 0V52h6.72v13.44zm10.614 0V52h1.068v13.44zm-2.148 0V52h1.068v13.44zm18.393 0V52h6.72v13.44zm6.715 0V52h6.72v13.44zm10.615 0V52h1.068v13.44zm-2.148 0V52h1.068v13.44zm6.715-5.1V52h1.068v7.26h3.9v1.08zm2.148-2.148V52h1.068v5.112h1.752v1.08zm2.814 7.248V52h6.72v13.44zm6.715 0V52h6.72v13.44zm6.715 0V52h6.72v13.44zm6.715 0V52h6.72v13.44zm6.715 0V52h6.72v13.44zm6.715 0V52h6.72v13.44zm8.466 0v-8.328h4.968v1.08h-3.9v7.248zm2.148 0v-6.18h2.82v1.08h-1.752v5.1zm2.815-5.1v-1.08h3.9V52h1.068v8.34zm0-2.148v-1.08h1.752V52h1.068v6.192zm6.715 7.248V52h6.72v13.44zm6.715 0V52h6.72v13.44zm6.715 0V52h6.72v13.44zm6.715 0V52h6.72v13.44zm6.714 0V52h6.72v13.44zm6.715 0V52h6.72v13.44zm8.467 0v-8.328h4.968v1.08h-3.9v7.248zm2.148 0v-6.18h2.82v1.08h-1.752v5.1zm2.815-5.1v-1.08h3.9V52h1.068v8.34zm0-2.148v-1.08h1.752V52h1.068v6.192zm8.467 2.148V52h1.068v7.26h3.9v1.08zm2.148-2.148V52h1.068v5.112h1.752v1.08zm2.815 7.248V52h6.72v13.44zm6.715 0V52h6.72v13.44zm6.714 0V52h6.72v13.44zm6.715 0V52h6.72v13.44zm6.715 0V52h6.72v13.44zm6.715 0V52h6.72v13.44zm8.467 0v-8.328h4.968v1.08h-3.9v7.248zm2.148 0v-6.18h2.82v1.08h-1.752v5.1zm2.815-5.1v-1.08h3.9V52h1.068v8.34zm0-2.148v-1.08h1.752V52h1.068v6.192zm8.466 2.148V52h1.068v7.26h3.9v1.08zm2.148-2.148V52h1.068v5.112h1.752v1.08zm2.815 7.248V52h6.72v13.44zm6.715 0V52h6.72v13.44zm6.715 0V52h6.72v13.44zm6.715 0V52h6.72v13.44zm6.715 0V52h6.72v13.44zm6.714 0V52h6.721v13.44zm10.615 0v-7.248h-3.9v-1.08h4.968v8.328zm-2.148 0v-5.1h-1.752v-1.08h2.82v6.18zm25.108 0V52h6.72v13.44zm6.715 0V52h6.72v13.44zm10.614 0V52h1.068v13.44zm-2.148 0V52h1.068v13.44zm51.967 0V52h6.72v13.44zm6.715 0V52h6.72v13.44zm6.715 0V52h6.72v13.44zm6.715 0V52h6.72v13.44zm6.715 0V52h6.72v13.44zm6.714 0V52h6.72v13.44zm8.467 0v-8.328h4.968v1.08h-3.9v7.248zm2.148 0v-6.18h2.82v1.08h-1.752v5.1zm2.815-5.1v-1.08h3.9V52h1.068v8.34zm0-2.148v-1.08h1.752V52h1.068v6.192zm6.715 7.248V52h6.72v13.44zm6.715 0V52h6.72v13.44zm6.715 0V52h6.72v13.44zm6.714 0V52h6.72v13.44zm6.715 0V52h6.72v13.44zm6.715 0V52h6.72v13.44zm6.715 0V52h6.72v13.44zm10.615 0v-7.248h-3.9v-1.08h4.968v8.328zm-2.148 0v-5.1h-1.752v-1.08h2.82v6.18zm4.963 0V52h6.72v13.44zm6.715 0V52h6.72v13.44zm6.714 0V52h6.72v13.44zm6.715 0V52h6.72v13.44zm6.715 0V52h6.72v13.44zm6.715 0V52h6.72v13.44zm6.715 0V52h6.72v13.44zm10.615 0V52h1.068v13.44zm-2.148 0V52h1.068v13.44zm4.962 0V52h6.72v13.44zm6.715 0V52h6.72v13.44zm10.615 0V52h1.068v13.44zm-2.148 0V52h1.068v13.44zm6.715-5.1V52h1.068v7.26h3.9v1.08zm2.148-2.148V52h1.068v5.112h1.752v1.08zm2.815 7.248V52h6.72v13.44zm6.715 0V52h6.72v13.44zm6.714 0V52h6.72v13.44zm6.715 0V52h6.72v13.44zm6.715 0V52h6.72v13.44zm6.715 0V52h6.72v13.44zm8.467 0v-8.328h4.968v1.08h-3.9v7.248zm2.148 0v-6.18h2.82v1.08h-1.752v5.1zm2.815-5.1v-1.08h3.9V52h1.068v8.34zm0-2.148v-1.08h1.752V52h1.068v6.192zm6.715 7.248V52h6.72v13.44zm6.714 0V52h6.72v13.44zm10.615 0V52h1.068v13.44zm-2.148 0V52h1.068v13.44zm13.43-5.1V52h1.068v7.26h3.9v1.08zm2.148-2.148V52h1.068v5.112h1.752v1.08zm2.815 7.248V52h6.72v13.44zm6.715 0V52h6.72v13.44zm6.714 0V52h6.72v13.44zm6.715 0V52h6.72v13.44zm10.615 0V52h1.068v13.44zm-2.148 0V52h1.068v13.44zm4.963 0V52h6.72v13.44zm6.715 0V52h6.72v13.44zm6.715 0V52h6.72v13.44zm6.714 0V52h6.721v13.44zm6.715 0V52h6.72v13.44zm6.715 0V52h6.72v13.44zm6.715 0V52h6.72v13.44zm10.615 0v-7.248h-3.9v-1.08h4.968v8.328zm-2.148 0v-5.1h-1.752v-1.08h2.82v6.18zm4.963 0V52h6.72v13.44zm6.715 0V52h6.72v13.44zm10.614 0V52h1.068v13.44zm-2.148 0V52h1.068v13.44zm18.393 0V52h6.72v13.44zm6.715 0V52h6.72v13.44zm10.615 0V52h1.068v13.44zm-2.148 0V52h1.068v13.44zM1.752 73.34V65H2.82v7.26h3.9v1.08zM3.9 71.192V65h1.068v5.112H6.72v1.08zm2.815 0v-1.08h6.72v1.08zm0 2.148v-1.08h6.72v1.08zm6.715 0v-1.08h3.9V65h1.068v8.34zm0-2.148v-1.08h1.752V65h1.068v6.192zm42.04 2.148V65h1.069v7.26h3.9v1.08zm2.149-2.148V65h1.068v5.112h1.752v1.08zm2.815 0v-1.08h6.72v1.08zm0 2.148v-1.08h6.72v1.08zm6.714 0v-1.08h3.9V65h1.068v8.34zm0-2.148v-1.08H68.9V65h1.068v6.192zm21.897 2.148V65h1.068v7.26h3.9v1.08zm2.148-2.148V65h1.068v5.112h1.752v1.08zm2.815 0v-1.08h6.72v1.08zm0 2.148v-1.08h6.72v1.08zm6.715 0v-1.08h3.9V65h1.068v8.34zm0-2.148v-1.08h1.752V65h1.068v6.192zm15.181 2.148V65h1.068v7.26h3.9v1.08zm2.148-2.148V65h1.068v5.112h1.752v1.08zm2.815 0v-1.08h6.72v1.08zm0 2.148v-1.08h6.72v1.08zm6.715-2.148v-1.08h6.72v1.08zm0 2.148v-1.08h6.72v1.08zm6.715-2.148v-1.08h6.72v1.08zm0 2.148v-1.08h6.72v1.08zm6.715-2.148v-1.08h6.72v1.08zm0 2.148v-1.08h6.72v1.08zm6.715-2.148v-1.08h6.72v1.08zm0 2.148v-1.08h6.72v1.08zm6.714 0v-1.08h3.9V65h1.068v8.34zm0-2.148v-1.08h1.752V65h1.068v6.192zm15.182 2.148V65h1.068v7.26h3.9v1.08zm2.148-2.148V65h1.068v5.112h1.752v1.08zm2.815 0v-1.08h6.72v1.08zm0 2.148v-1.08h6.72v1.08zm6.715-2.148v-1.08h6.72v1.08zm0 2.148v-1.08h6.72v1.08zm6.715-2.148v-1.08h6.72v1.08zm0 2.148v-1.08h6.72v1.08zm6.714-2.148v-1.08h6.72v1.08zm0 2.148v-1.08h6.72v1.08zm6.715-2.148v-1.08h6.72v1.08zm0 2.148v-1.08h6.72v1.08zm6.715 0v-1.08h3.9V65h1.068v8.34zm0-2.148v-1.08h1.752V65h1.068v6.192zm21.897 2.148V65h1.068v7.26h3.9v1.08zm2.148-2.148V65h1.068v5.112h1.752v1.08zm2.815 0v-1.08h6.72v1.08zm0 2.148v-1.08h6.72v1.08zm6.714-2.148v-1.08h6.72v1.08zm0 2.148v-1.08h6.72v1.08zm6.715-2.148v-1.08h6.72v1.08zm0 2.148v-1.08h6.72v1.08zm6.715-2.148v-1.08h6.72v1.08zm0 2.148v-1.08h6.72v1.08zm6.715-2.148v-1.08h6.72v1.08zm0 2.148v-1.08h6.72v1.08zm6.715 0v-1.08h3.9V65h1.068v8.34zm0-2.148v-1.08h1.752V65h1.068v6.192zm21.896 2.148V65h1.068v7.26h3.9v1.08zm2.148-2.148V65h1.068v5.112h1.752v1.08zm2.815 0v-1.08h6.72v1.08zm0 2.148v-1.08h6.72v1.08zm6.715-2.148v-1.08h6.72v1.08zm0 2.148v-1.08h6.72v1.08zm6.715-2.148v-1.08h6.72v1.08zm0 2.148v-1.08h6.72v1.08zm6.715-2.148v-1.08h6.72v1.08zm0 2.148v-1.08h6.72v1.08zm6.714-2.148v-1.08h6.721v1.08zm0 2.148v-1.08h6.721v1.08zm6.715 0v-1.08h3.9V65h1.068v8.34zm0-2.148v-1.08h1.752V65h1.068v6.192zm28.612 2.148V65h1.068v7.26h3.9v1.08zm2.148-2.148V65h1.068v5.112h1.752v1.08zm2.815 0v-1.08h6.72v1.08zm0 2.148v-1.08h6.72v1.08zm6.714 0v-1.08h3.9V65h1.068v8.34zm0-2.148v-1.08h1.752V65h1.068v6.192zm55.471 2.148V65h1.068v7.26h3.9v1.08zm2.148-2.148V65h1.068v5.112h1.752v1.08zm2.815 0v-1.08h6.72v1.08zm0 2.148v-1.08h6.72v1.08zm6.715-2.148v-1.08h6.72v1.08zm0 2.148v-1.08h6.72v1.08zm6.715-2.148v-1.08h6.72v1.08zm0 2.148v-1.08h6.72v1.08zm6.715-2.148v-1.08h6.72v1.08zm0 2.148v-1.08h6.72v1.08zm6.714-2.148v-1.08h6.72v1.08zm0 2.148v-1.08h6.72v1.08zm6.715 0v-1.08h3.9V65h1.068v8.34zm0-2.148v-1.08h1.752V65h1.068v6.192zm15.182 2.148V65h1.068v7.26h3.9v1.08zm2.148-2.148V65h1.068v5.112h1.752v1.08zm2.815 0v-1.08h6.72v1.08zm0 2.148v-1.08h6.72v1.08zm6.715-2.148v-1.08h6.72v1.08zm0 2.148v-1.08h6.72v1.08zm6.714-2.148v-1.08h6.72v1.08zm0 2.148v-1.08h6.72v1.08zm6.715-2.148v-1.08h6.72v1.08zm0 2.148v-1.08h6.72v1.08zm6.715-2.148v-1.08h6.72v1.08zm0 2.148v-1.08h6.72v1.08zm6.715-2.148v-1.08h6.72v1.08zm0 2.148v-1.08h6.72v1.08zm6.715 0v-1.08h3.9V65h1.068v8.34zm0-2.148v-1.08h1.752V65h1.068v6.192zm8.467 2.148V65h1.068v7.26h3.9v1.08zm2.148-2.148V65h1.068v5.112h1.752v1.08zm2.815 0v-1.08h6.72v1.08zm0 2.148v-1.08h6.72v1.08zm6.714-2.148v-1.08h6.72v1.08zm0 2.148v-1.08h6.72v1.08zm6.715-2.148v-1.08h6.72v1.08zm0 2.148v-1.08h6.72v1.08zm6.715-2.148v-1.08h6.72v1.08zm0 2.148v-1.08h6.72v1.08zm6.715-2.148v-1.08h6.72v1.08zm0 2.148v-1.08h6.72v1.08zm6.715-2.148v-1.08h6.72v1.08zm0 2.148v-1.08h6.72v1.08zm6.715 0v-1.08h3.9V65h1.068v8.34zm0-2.148v-1.08h1.752V65h1.068v6.192zm8.466 2.148V65h1.068v7.26h3.9v1.08zm2.148-2.148V65h1.068v5.112h1.752v1.08zm2.815 0v-1.08h6.72v1.08zm0 2.148v-1.08h6.72v1.08zm6.715 0v-1.08h3.9V65h1.068v8.34zm0-2.148v-1.08h1.752V65h1.068v6.192zm15.182 2.148V65h1.068v7.26h3.9v1.08zm2.148-2.148V65h1.068v5.112h1.752v1.08zm2.815 0v-1.08h6.72v1.08zm0 2.148v-1.08h6.72v1.08zm6.714-2.148v-1.08h6.72v1.08zm0 2.148v-1.08h6.72v1.08zm6.715-2.148v-1.08h6.72v1.08zm0 2.148v-1.08h6.72v1.08zm6.715-2.148v-1.08h6.72v1.08zm0 2.148v-1.08h6.72v1.08zm6.715-2.148v-1.08h6.72v1.08zm0 2.148v-1.08h6.72v1.08zm6.715 0v-1.08h3.9V65h1.068v8.34zm0-2.148v-1.08h1.752V65h1.068v6.192zm15.182 2.148V65h1.068v7.26h3.9v1.08zm2.148-2.148V65h1.068v5.112h1.752v1.08zm2.814 0v-1.08h6.72v1.08zm0 2.148v-1.08h6.72v1.08zm6.715 0v-1.08h3.9V65h1.068v8.34zm0-2.148v-1.08h1.752V65h1.068v6.192zm21.897 2.148V65h1.068v7.26h3.9v1.08zm2.148-2.148V65h1.068v5.112h1.752v1.08zm2.815 0v-1.08h6.72v1.08zm0 2.148v-1.08h6.72v1.08zm6.714-2.148v-1.08h6.72v1.08zm0 2.148v-1.08h6.72v1.08zm6.715-2.148v-1.08h6.72v1.08zm0 2.148v-1.08h6.72v1.08zm6.715 0v-1.08h3.9V65h1.068v8.34zm0-2.148v-1.08h1.752V65h1.068v6.192zm8.467 2.148V65h1.068v7.26h3.9v1.08zm2.148-2.148V65h1.068v5.112h1.752v1.08zm2.815 0v-1.08h6.72v1.08zm0 2.148v-1.08h6.72v1.08zm6.715-2.148v-1.08h6.72v1.08zm0 2.148v-1.08h6.72v1.08zm6.714-2.148v-1.08h6.721v1.08zm0 2.148v-1.08h6.721v1.08zm6.715-2.148v-1.08h6.72v1.08zm0 2.148v-1.08h6.72v1.08zm6.715-2.148v-1.08h6.72v1.08zm0 2.148v-1.08h6.72v1.08zm6.715-2.148v-1.08h6.72v1.08zm0 2.148v-1.08h6.72v1.08zm6.715 0v-1.08h3.9V65h1.068v8.34zm0-2.148v-1.08h1.752V65h1.068v6.192zm8.467 2.148V65h1.068v7.26h3.9v1.08zm2.148-2.148V65h1.068v5.112h1.752v1.08zm2.815 0v-1.08h6.72v1.08zm0 2.148v-1.08h6.72v1.08zm6.714 0v-1.08h3.9V65h1.068v8.34zm0-2.148v-1.08h1.752V65h1.068v6.192zm21.897 2.148V65h1.068v7.26h3.9v1.08zm2.148-2.148V65h1.068v5.112h1.752v1.08zm2.815 0v-1.08h6.72v1.08zm0 2.148v-1.08h6.72v1.08zm6.715 0v-1.08h3.9V65h1.068v8.34zm0-2.148v-1.08h1.752V65h1.068v6.192z"/></svg>