<svg width="49" height="19" viewBox="0 0 49 19" fill="none" xmlns="http://www.w3.org/2000/svg">
<path d="M12.428 8.21568L-0.000821074 2.47975L0.184415 16.7429L12.4601 10.6861L12.428 8.21568ZM48.5368 9.85576C49.0129 9.36711 49.0028 8.585 48.5141 8.10888L40.5511 0.350041C40.0624 -0.12608 39.2803 -0.115923 38.8042 0.372727C38.3281 0.861378 38.3383 1.64348 38.8269 2.1196L45.9051 9.01635L39.0084 16.0946C38.5323 16.5832 38.5424 17.3653 39.0311 17.8415C39.5197 18.3176 40.3018 18.3074 40.778 17.8188L48.5368 9.85576ZM11.2088 9.46695L11.2249 10.7022L47.6681 10.2289L47.652 8.99366L47.636 7.75844L11.1928 8.23172L11.2088 9.46695Z" fill="#8E8E8E"/>
</svg>
