<svg preserveAspectRatio="none" width="100%" height="100%" overflow="visible" style="display: block;" viewBox="0 0 99.2644 85" fill="none" xmlns="http://www.w3.org/2000/svg">
<path id="Vector 7" d="M8.36751 12.3533L14.2644 0H0L5.89685 12.3533H8.36751ZM92.1322 85L99.2644 72.6467H85L92.1322 85ZM7.13218 11.118H5.89685V20.7174H7.13218H8.36751V11.118H7.13218ZM32.4565 46.0417V47.277H66.8079V46.0417V44.8063H32.4565V46.0417ZM92.1322 71.3659H90.8968V73.882H92.1322H93.3675V71.3659H92.1322ZM66.8079 46.0417V47.277C80.1119 47.277 90.8968 58.062 90.8968 71.3659H92.1322H93.3675C93.3675 56.6975 81.4764 44.8063 66.8079 44.8063V46.0417ZM7.13218 20.7174H5.89685C5.89685 35.3858 17.788 47.277 32.4565 47.277V46.0417V44.8063C19.1525 44.8063 8.36751 34.0213 8.36751 20.7174H7.13218Z" fill="var(--stroke-0, #F94412)"/>
</svg>
