<svg preserveAspectRatio="none" width="100%" height="100%" overflow="visible" style="display: block;" viewBox="0 0 15.4997 96.9734" fill="none" xmlns="http://www.w3.org/2000/svg">
<path id="Vector 3" d="M8.36751 12.3533L14.2644 0H0L5.89685 12.3533H8.36751ZM8.36751 96.9734L15.4997 84.6201H1.23533L8.36751 96.9734ZM7.13218 11.118H5.89685V51.9096H7.13218H8.36751V11.118H7.13218ZM8.36751 53.1449H7.13218V85.8555H8.36751H9.60284V53.1449H8.36751ZM7.74985 52.5273V53.7626C7.40872 53.7626 7.13218 53.4861 7.13218 53.1449H8.36751H9.60284C9.60284 52.1216 8.77323 51.292 7.74985 51.292V52.5273ZM7.13218 51.9096H5.89685C5.89685 52.933 6.72647 53.7626 7.74985 53.7626V52.5273V51.292C8.09097 51.292 8.36751 51.5685 8.36751 51.9096H7.13218Z" fill="var(--stroke-0, #F94412)"/>
</svg>
