<svg preserveAspectRatio="none" width="100%" height="100%" overflow="visible" style="display: block;" viewBox="0 0 53.2644 118" fill="none" xmlns="http://www.w3.org/2000/svg">
<path id="Vector 8" d="M8.36751 12.3533L14.2644 0H0L5.89685 12.3533H8.36751ZM46.1322 118L53.2644 105.647H39L46.1322 118ZM7.13218 11.118H5.89685V44.4167H7.13218H8.36751V11.118H7.13218ZM46.1322 83.4167H44.8969V106.882H46.1322H47.3675V83.4167H46.1322ZM26.6322 63.9167V65.152C36.7195 65.152 44.8969 73.3294 44.8969 83.4167H46.1322H47.3675C47.3675 71.9649 38.084 62.6813 26.6322 62.6813V63.9167ZM7.13218 44.4167H5.89685C5.89685 55.8685 15.1804 65.152 26.6322 65.152V63.9167V62.6813C16.5449 62.6813 8.36751 54.504 8.36751 44.4167H7.13218Z" fill="var(--stroke-0, #F94412)"/>
</svg>
