<svg preserveAspectRatio="none" width="100%" height="100%" overflow="visible" style="display: block;" viewBox="0 0 161.264 114" fill="none" xmlns="http://www.w3.org/2000/svg">
<path id="Vector 12" d="M8.36751 12.3533L14.2644 0H0L5.89685 12.3533H8.36751ZM154.132 114L161.264 101.647H147L154.132 114ZM7.13218 11.118H5.89685V36.4257H7.13218H8.36751V11.118H7.13218ZM32.4565 61.75V62.9853H128.808V61.75V60.5147H32.4565V61.75ZM154.132 87.0743H152.897V102.882H154.132H155.368V87.0743H154.132ZM128.808 61.75V62.9853C142.112 62.9853 152.897 73.7703 152.897 87.0743H154.132H155.368C155.368 72.4058 143.476 60.5147 128.808 60.5147V61.75ZM7.13218 36.4257H5.89685C5.89685 51.0942 17.788 62.9853 32.4565 62.9853V61.75V60.5147C19.1525 60.5147 8.36751 49.7297 8.36751 36.4257H7.13218Z" fill="var(--stroke-0, #F94412)"/>
</svg>
