<svg preserveAspectRatio="none" width="100%" height="100%" overflow="visible" style="display: block;" viewBox="0 0 14.882 103.768" fill="none" xmlns="http://www.w3.org/2000/svg">
<path id="Vector 4" d="M8.36751 12.3533L14.2644 0H0L5.89685 12.3533H8.36751ZM7.74985 103.768L14.882 91.4145H0.617665L7.74985 103.768ZM7.13218 11.118H5.89685V55.8987H7.13218H8.36751V11.118H7.13218ZM7.74985 56.5164H6.51452V92.6498H7.74985H8.98518V56.5164H7.74985ZM7.44102 56.2075V57.4429C6.92933 57.4429 6.51452 57.0281 6.51452 56.5164H7.74985H8.98518C8.98518 55.6636 8.29383 54.9722 7.44102 54.9722V56.2075ZM7.13218 55.8987H5.89685C5.89685 56.7515 6.58819 57.4429 7.44102 57.4429V56.2075V54.9722C7.95272 54.9722 8.36751 55.387 8.36751 55.8987H7.13218Z" fill="var(--stroke-0, #F94412)"/>
</svg>
