<svg preserveAspectRatio="none" width="100%" height="100%" overflow="visible" style="display: block;" viewBox="0 0 14.882 108.091" fill="none" xmlns="http://www.w3.org/2000/svg">
<path id="Vector 5" d="M8.36751 12.3533L14.2644 0H0L5.89685 12.3533H8.36751ZM7.74985 108.091L14.882 95.7381H0.617665L7.74985 108.091ZM7.13218 11.118H5.89685V58.2407H7.13218H8.36751V11.118H7.13218ZM7.74985 58.8583H6.51452V96.9734H7.74985H8.98518V58.8583H7.74985ZM7.44102 58.5495V59.7848C6.92933 59.7848 6.51452 59.37 6.51452 58.8583H7.74985H8.98518C8.98518 58.0055 8.29383 57.3142 7.44102 57.3142V58.5495ZM7.13218 58.2407H5.89685C5.89685 59.0935 6.58818 59.7848 7.44102 59.7848V58.5495V57.3142C7.95272 57.3142 8.36751 57.729 8.36751 58.2407H7.13218Z" fill="var(--stroke-0, #F94412)"/>
</svg>
