<svg preserveAspectRatio="none" width="100%" height="100%" overflow="visible" style="display: block;" viewBox="0 0 56.2083 27.9831" fill="none" xmlns="http://www.w3.org/2000/svg">
<path id="Arrow 13" d="M0 13.9915C0 19.588 4.53685 24.1249 10.1333 24.1249C15.7298 24.1249 20.2667 19.588 20.2667 13.9915C20.2667 8.39504 15.7298 3.85819 10.1333 3.85819C4.53685 3.85819 0 8.39504 0 13.9915ZM55.6518 15.335C56.3938 14.593 56.3938 13.39 55.6518 12.648L43.5603 0.556497C42.8183 -0.185499 41.6153 -0.185499 40.8733 0.556497C40.1313 1.29849 40.1313 2.50151 40.8733 3.2435L51.6213 13.9915L40.8733 24.7395C40.1313 25.4815 40.1313 26.6846 40.8733 27.4266C41.6153 28.1686 42.8183 28.1686 43.5603 27.4266L55.6518 15.335ZM10.1333 13.9915V15.8915H54.3083V13.9915V12.0915H10.1333V13.9915Z" fill="var(--stroke-0, #5CC05E)"/>
</svg>
