<svg preserveAspectRatio="none" width="100%" height="100%" overflow="visible" style="display: block;" viewBox="0 0 80.3193 80.4798" fill="none" xmlns="http://www.w3.org/2000/svg">
<g id="Group">
<path id="Vector" d="M80 0H0V80H80V0Z" fill="url(#paint0_linear_760_10407)"/>
<path id="Vector_2" d="M54.0793 28.2398V18.8798L80.3193 45.3598V80.4798H45.3593L16.6393 51.5198L27.9993 30.3998L26.1593 28.2398H54.0793Z" fill="var(--fill-0, #333333)" fill-opacity="0.1"/>
<g id="Group_2" filter="url(#filter0_d_760_10407)">
<path id="Vector_3" d="M54.0786 18.8806H26.2386V28.3206H54.0786V18.8806Z" fill="var(--fill-0, white)"/>
</g>
<g id="Group_3" filter="url(#filter1_d_760_10407)">
<path id="Vector_4" fill-rule="evenodd" clip-rule="evenodd" d="M23.8409 30.3994C19.9528 30.3994 16.8009 33.5512 16.8009 37.4394V51.6794H26.0009V61.2794H54.2409V51.6794H63.3609V37.4394C63.3609 33.5512 60.2091 30.3994 56.3209 30.3994H23.8409ZM55.8409 35.0394C54.6038 35.0394 53.6009 36.0423 53.6009 37.2794C53.6009 38.5165 54.6038 39.5194 55.8409 39.5194C57.078 39.5194 58.0809 38.5165 58.0809 37.2794C58.0809 36.0423 57.078 35.0394 55.8409 35.0394ZM49.4409 44.7994H30.7209V56.6394H49.4409V44.7994Z" fill="var(--fill-0, white)"/>
</g>
</g>
<defs>
<filter id="filter0_d_760_10407" x="25.9457" y="18.8806" width="28.4258" height="10.3186" filterUnits="userSpaceOnUse" color-interpolation-filters="sRGB">
<feFlood flood-opacity="0" result="BackgroundImageFix"/>
<feColorMatrix in="SourceAlpha" type="matrix" values="0 0 0 0 0 0 0 0 0 0 0 0 0 0 0 0 0 0 127 0" result="hardAlpha"/>
<feOffset dy="0.585763"/>
<feGaussianBlur stdDeviation="0.146441"/>
<feComposite in2="hardAlpha" operator="out"/>
<feColorMatrix type="matrix" values="0 0 0 0 0 0 0 0 0 0 0 0 0 0 0 0 0 0 0.25 0"/>
<feBlend mode="normal" in2="BackgroundImageFix" result="effect1_dropShadow_760_10407"/>
<feBlend mode="normal" in="SourceGraphic" in2="effect1_dropShadow_760_10407" result="shape"/>
</filter>
<filter id="filter1_d_760_10407" x="16.508" y="30.3994" width="47.1458" height="31.7586" filterUnits="userSpaceOnUse" color-interpolation-filters="sRGB">
<feFlood flood-opacity="0" result="BackgroundImageFix"/>
<feColorMatrix in="SourceAlpha" type="matrix" values="0 0 0 0 0 0 0 0 0 0 0 0 0 0 0 0 0 0 127 0" result="hardAlpha"/>
<feOffset dy="0.585763"/>
<feGaussianBlur stdDeviation="0.146441"/>
<feComposite in2="hardAlpha" operator="out"/>
<feColorMatrix type="matrix" values="0 0 0 0 0 0 0 0 0 0 0 0 0 0 0 0 0 0 0.25 0"/>
<feBlend mode="normal" in2="BackgroundImageFix" result="effect1_dropShadow_760_10407"/>
<feBlend mode="normal" in="SourceGraphic" in2="effect1_dropShadow_760_10407" result="shape"/>
</filter>
<linearGradient id="paint0_linear_760_10407" x1="0" y1="0" x2="80" y2="80" gradientUnits="userSpaceOnUse">
<stop stop-color="#009788"/>
<stop offset="1" stop-color="#8BC24A"/>
</linearGradient>
</defs>
</svg>
